/* XPM */
static char *animation6[] = {
/* columns rows colors chars-per-pixel */
"64 48 122 2 ",
"   c #050503",
".  c #090606",
"X  c #090906",
"o  c #0D0D0B",
"O  c #110F0D",
"+  c #190F0E",
"@  c #0F100C",
"#  c #10110D",
"$  c #1B110F",
"%  c #131512",
"&  c #1C1412",
"*  c #1C1A15",
"=  c #1E1C19",
"-  c #231613",
";  c #251915",
":  c #281A17",
">  c #221D1A",
",  c #2D1D1A",
"<  c #311E1C",
"1  c #25221E",
"2  c #2A231F",
"3  c #33211E",
"4  c #262522",
"5  c #2A2622",
"6  c #2D2925",
"7  c #2E2C29",
"8  c #362320",
"9  c #3A2523",
"0  c #312B27",
"q  c #3D2926",
"w  c #332E2A",
"e  c #3D2B28",
"r  c #36312C",
"t  c #3A332E",
"y  c #373431",
"u  c #3C3631",
"i  c #3E3833",
"p  c #412B27",
"a  c #432D2A",
"s  c #492E2C",
"d  c #45312D",
"f  c #4A312E",
"g  c #433430",
"h  c #4C3531",
"j  c #433B35",
"k  c #4C3A36",
"l  c #453E39",
"z  c #4D3C38",
"x  c #503531",
"c  c #513D39",
"v  c #494037",
"b  c #47403A",
"n  c #4B433C",
"m  c #53433D",
"M  c #50483F",
"N  c #4D4741",
"B  c #4F4842",
"V  c #524B45",
"C  c #594E45",
"Z  c #554F49",
"A  c #585047",
"S  c #57504A",
"D  c #5B534C",
"F  c #5E5750",
"G  c #5F5851",
"H  c #61574D",
"J  c #62594F",
"K  c #605750",
"L  c #645B52",
"P  c #685F54",
"I  c #6B6256",
"U  c #6E6459",
"Y  c #70665B",
"T  c #736A5E",
"R  c #786E5F",
"E  c #766C61",
"W  c #796F63",
"Q  c #7B7165",
"!  c #7E7469",
"~  c #807466",
"^  c #82766A",
"/  c #86796C",
"(  c #897C6E",
")  c #867D71",
"_  c #8B7E71",
"`  c #8D8173",
"'  c #8E8379",
"]  c #918576",
"[  c #928679",
"{  c #95897B",
"}  c #998D7E",
"|  c #99907F",
" . c #9B8F81",
".. c #9E9182",
"X. c #A29485",
"o. c #A89687",
"O. c #A69789",
"+. c #A89788",
"@. c #A5988A",
"#. c #AA9C8D",
"$. c #A79E93",
"%. c #AD9F90",
"&. c #AEA192",
"*. c #B2A495",
"=. c #B4A698",
"-. c #B6AA9A",
";. c #BAAD9D",
":. c #BBAEA0",
">. c #BEB1A2",
",. c #C2B4A5",
"<. c #C5B8A7",
"1. c #C6B7A9",
"2. c #C6B8A9",
"3. c #CABBAC",
"4. c #CCBFB0",
"5. c #CDC0AF",
"6. c #CEC3B3",
"7. c #D1C5B6",
"8. c #D1C6B9",
"9. c #D4CABD",
"0. c #D6CCC1",
"q. c #D8CDC2",
/* pixels */
"U C M M V A A H H H J J P I I I U Y T E E E E Q Q Q W ! ! ! Q ! ! ! ! Q Q W W Q W Q W Q Q Q W W W W Q Q Q W W ! ! ! ! ! Q Q ! @.",
"I w # @ # # # @ @ @ @ @ @ @ # # @ @ # # # # @ @ @ @ @ o % % % % % % % % % % % % % % % % % % @ @ O O O o o O O O o o o O @ % 6 [ ",
"I j 1 o # # % # # * * * * * 1 1 1 1 2 2 5 6 w r r y y i i y w o o 5 y 7 7 7 7 4 5 6 5 4 4 4 4 4 4 4 4 7 6 6 6 0 7 w 5 > * = r [ ",
"I v 2 * > 1 5 6 0 0 0 w t t u u v v M V A J P U E ! ! ^ ^ Q P .   N U P G F F S C V V V B V V V V S D D H J L P P K N t 1 4 y { ",
"I v 0 * 2 r r u i j v v M M A A A J P U R Q ( ] } X.o.#.#.O./ o   P ` ) ! ! Q E Y Y U U U I I Y T W Q ^ / ( _ ] ' / I b 1 4 i [ ",
"U v w 2 0 j b n M B B A D L L I U R W / _ } X.%.-.:.2.,.,.,. .o   Q #.X. .{ ` _ _ / _ ) ( ( ` ] ] { } } X.+.#.=.&.@./ V 6 6 i { ",
"I n w 2 u v M V Z S D H I I T R Q ^ ( ] } +.*.;.2.4.7.7.7.4.$.O   ) ;.*.#.X...{ { { {  ...X.X.X.@.+.#.#.=.-.,.,.3.-.' F 7 7 i  .",
"I n r 2 u M V S D J G I I U W Q ~ ( ` [ X.&.-.,.3.7.9.9.9.7.$.o   ' ,.;.=.&.#.#.O.@.@.@.#.+.#.+.#.*.*.-.;.,.2.3.4.>. .L w 7 i  .",
"P n w 6 i V S D G L I I I T W Q / ( { } o.*.;.,.>.8.0.0.0.8.&.@   ' 3.>.-.=.%.%.#.#.%.%.#.&.%.%.*.-.;.>.<.2.5.7.6.1...I w r i  .",
"P m r 6 i B Z D G L I I I T W ! ( ( ] } o.*.-.,.6.6.0.0.0.0.&.o   ' 3.,.;.*.&.&.%.#.%.&.&.&.&.*.-.;.,.,.<.2.5.7.8.>...L r 7 i ' ",
"J v t 6 l V Z F L L I U Y T Q Q ( ( { } X.&.-.,.4.8.8.0.0.8.$.o X ' 3.,.;.*.%.%.&.#.#.@.&.&.&.*.-.;.>.,.<.<.5.7.7.>...L y 7 b ' ",
"J n r 7 i V D F G L I I Y T Q ~ / _ ] } X.+.=.,.2.6.6.8.6.6.$.@   ' 3.>.-.*.%.#.%.#.#.#.#.&.&.-.-.;.>.>.<.2.3.5.6.>...G w y i ' ",
"J v e 0 l Z D F G J I I Y T Q ^ / ( ] {  .#.*.:.1.4.8.8.6.5...@   ' 2.;.*.&.&.#.#.#.o.o.#.+.#.*.-.;.>.,.1.3.3.3.4.:.} K w r i ' ",
"H v r 3 j Z Z D J L L I Y T Q ! ~ / ( ] { @.%.=.>.>.2.4.6.2.$.@   ' >.;.-.&.&.#.#.+.o.o.+.#.#.&.=.;.>.>.,.3.3.3.3.:.{ K r 7 i ' ",
"H v r 2 l V Z D G J I I Y T R W ~ ^ / ] { X.$.=.:.>.1.1.3.1.@.@   ) ;.*.&.%.+.@.o.X.X.o.X.+.+.&.*.-.;.-.;.1.,.1.1.=.' D 7 y i ) ",
"D v r 0 i B S D D L G I I Y T R ~ / / ` [  .@.%.:.:.>.,.2.>...@   ) -.&.&.@.X.X.X.| | | X.X.X.+.#.*.-.-.-.;.>.;.,.&._ D w w l ) ",
"H v w 6 j M A D F G G I I U Y E Q ! ^ ` ` { ..#.*.-.-.;.,.-. .o   ^ *.&.&.o.} | | | } | } } | X.o.#.*.*.*.-.;.;.-.#./ A r w j / ",
"D v t 2 u M Z S F F G L U U U E Q ! / ( ` `  ...o.#.*.-.-.-.{ o   ~ &.o.o.| | } } { { | } } } } | | +.o.#.*.*.=.-.o./ C 7 0 i / ",
"H v 0 6 u M Z S D D D G I U U Y R Q ! ^ / ` [ { X.X.#.*.=.*.[ o   ~ *.o.} } } { { ] { { [ [ } } } | X.X.#.#.&.*.*.| ~ C 7 r i ) ",
"A v w 2 u n N Z D D F F L I I I Y E W ! / / ` ] } X.X.#.#.%.` o   W #.o.| } { ] ] ` ` ` ] [ [ [ } } | | } o.o.#.o.} ~ m 7 7 i ^ ",
"D j w 6 u v N V Z D D F G L P I U U E Q ! ) / ` ] { } X.o.+.( o   E o. .| } } ] ` ` ` ` ` ' ` ` ] { { { } } o.o.@...! V 6 w i ! ",
"A j 0 5 t b M B Z D S D F G L I I I U W ! ! ^ / ( ] ] } X.../ o   R O...| { { ` ( ( ( ( ( _ ( ` ] ` ] { } } | | @. .! B 6 7 i ! ",
"A j 0 2 r b v N V V Z S D D G G L I I Y E W ! ^ ( ( ] ] { { ~ o   U X.} } ] ] ( ( ( / / / / / ) ( ( ] ] { } } } ..{ E N 6 7 i Q ",
"A j w 1 t v v N V V Z S D D G G L I I I U E E Q ^ ( ( ] ] ] W X   I { ] ] ( ( / / ( ~ ~ ! ! / / ( ( ( _ ] ] { } { ' E b 4 7 y W ",
"A j 0 1 r v v n V V Z Z D F F G L I L I U U Y E Q ~ ( ` _ ` R o   P ] ] ( / / / ! ! ! ! ! ! ! / ^ / / / ` ] [ [ [ ` U l 1 7 y T ",
"V j 0 2 t j v n N V B Z S D S F G L L L L U U T W W ! ~ ( ( Y o   P ] ] ( / ~ ~ ! ! ! Q ! ! Q Q Q ^ ^ / ( _ ` ` ` / I b 6 7 u Y ",
"V u 6 2 w j l v n N B Z Z Z D D G K G L I I U Y Y R R ~ / / Y X   L ` ( / ~ ~ W Q Q Q Q W W W W W Q Q / ( / ( ( ` ^ I n 4 7 y Y ",
"M i 0 2 r u j b N N N B V V Z S D D G G L G I U Y R R ~ ( / I o   D / / / ! ^ Q E E W E R T R E W W W Q / / / ( ` Q J j 6 6 y U ",
"V u 0 2 r u j v n n N N V V Z Z S D F F F L I U U Y E Q ! Q I X   H ^ ^ ^ ^ Q E E E E E Y E Y T E E W W Q ^ ^ ) ! W G b 6 6 r I ",
"M u 7 2 w t j l b n n N N B Z Z Z Z S F G G G I U U Y R R W J o   A ~ Q T E E Y Y T Y T Y Y Y Y Y E E W Q ^ ^ ) ! R F i 4 4 7 G ",
"v u 0 2 0 t j j b n n n N V V B B Z Z D S F G G L F G L T E J X   A R I L H I U U U Y U U I I I Y Y Y Y W Q Q ! ! U F i 6 6 r G ",
"n u 5 2 0 t i j l l l b N N B B B Z Z B S S F F D V S D I E D X   M T P A A F P L U U I I L L P I I I U Y E ! W W U D j 6 4 7 G ",
"n t 6 2 w u t t j b j b n n N N B B B Z S S S D V V A V G U D X   M U J A C D J L I I I G I U L P U P U U Y E E E I D l 5 4 w D ",
"l w 5 4 w t t j j i j v b b n N N N V S S D S S V M V V G I D X   M U J V V D D G G G G G G P L G L P U U U Y Y U L Z j 6 4 w D ",
"g r 5 1 0 r r t i i j j b b b M N N N V V V S N N n V V D L Z X   M I H V V A D F F F F G L G L G G G P P U I U I L Z i 5 4 7 A ",
"j w 5 1 6 w t t t u i i v b n n n M N V B N M B V n n V A G V     n I H V V V D F S F F G G G G G G G P P P U U P K V j 5 4 7 A ",
"j w 2 1 6 w r t u t j j j v j v n n N N N N N N N N N S D F V X   n I L D A A D D F S F F F F D F F K K P P I P L D B u 5 4 7 V ",
"t 0 2 > 2 w r r u j j j u v j v b n n b n N N N V V N S S F N .   n P K H D D A F S F F S D F F D D D K L L L P L D n y 5 4 7 V ",
"u 0 1 > 2 7 w t t u t t g j j j l n b b n n N N N V V S D D N .   l P L L D D D D D F D S D F S Z F S D K K K L F Z b y = 4 6 B ",
"u 2 1 * 1 6 w r t t t j u u j j j l l b n n n n v N S V Z Z N .   l K P L H D D S S S Z Z Z S S Z Z A A D H F D F Z l w 4 4 6 N ",
"t 2 1 * 1 0 0 0 t t t u u u j j j u j j v j v v z n B V V V b .   l K K L D D V A A A Z B B Z Z Z Z V Z S S D D Z B l w 1 > 7 N ",
"t 0 1 $ 1 1 2 3 3 3 3 q 9 0 9 0 9 9 e e e e a t a a g d h m b .   l D m m m m c k k k k k k z z h x h h c h c c k g e < = > 4 N ",
"t 6 1 $ - ; : : , , < 3 3 3 3 3 3 3 3 3 3 9 9 9 9 9 9 p e k l .   l C x x x f f a a f d d s d s s s s a a s s s a p 8 : & = 4 N ",
"r 2 1 $ - ; ; : : : , , 3 3 3 3 3 3 3 3 3 3 9 3 9 9 9 9 q k i . . j m f f f f d a a a d d d s s a a s s a a d d d q 8 : & 4 4 b ",
"w 6 > + & - ; ; : : : , 3 < < < < 3 < < < < < < 8 8 9 9 9 k i .   u m f f a d p p p p p p p p a e a a a a a a a a 9 < : & = 4 b ",
"r 2 > + $ - ; ; : : : , , < , < , , , < < < < < 8 8 8 8 8 g y .   u n d a p d p q 9 9 p 9 8 9 p e a p p q a a a e 0 < ; & 4 4 l ",
"0 5 > + $ * - - - - ; : , , , , , < , , < < < < 8 8 8 8 8 t u .   t z p p p p p q p p 9 9 8 9 9 q q p 9 q q a a e 9 , ; & 4 4 b ",
"0 2 > + $ $ - - - ; ; : , , , , , , , , , < < < 3 < 8 8 8 e y .   w k e p q q p q 9 9 8 8 8 8 9 9 q 9 9 q q e e e 8 , = + = 4 b "
};
