/* XPM */
static char *animation5[] = {
/* columns rows colors chars-per-pixel */
"64 48 122 2 ",
"   c #0F0E0C",
".  c #110F0D",
"X  c #190F0E",
"o  c #0F100C",
"O  c #11110E",
"+  c #1A110F",
"@  c #150F10",
"#  c #141411",
"$  c #1B1412",
"%  c #1B1915",
"&  c #1E1C19",
"*  c #221614",
"=  c #251915",
"-  c #281917",
";  c #221D1A",
":  c #2C1C1A",
">  c #311E1C",
",  c #25221E",
"<  c #2A231F",
"1  c #33211E",
"2  c #262522",
"3  c #2A2622",
"4  c #2D2925",
"5  c #2E2C29",
"6  c #352321",
"7  c #3B2624",
"8  c #312B27",
"9  c #3D2926",
"0  c #332E2A",
"q  c #3D2B28",
"w  c #35312C",
"e  c #3A342E",
"r  c #373431",
"t  c #3C3631",
"y  c #3E3833",
"u  c #412B27",
"i  c #442D2A",
"p  c #492F2C",
"a  c #44312E",
"s  c #4A312E",
"d  c #463732",
"f  c #4B3431",
"g  c #433C35",
"h  c #4C3A35",
"j  c #453E38",
"k  c #4B3E39",
"l  c #513532",
"z  c #503C37",
"x  c #513D39",
"c  c #494036",
"v  c #47403A",
"b  c #4B433C",
"n  c #55423C",
"m  c #4D4640",
"M  c #4F4842",
"N  c #524B45",
"B  c #584B44",
"V  c #554F49",
"C  c #584F49",
"Z  c #585047",
"A  c #57504A",
"S  c #5B534C",
"D  c #5E5750",
"F  c #5F5851",
"G  c #61564C",
"H  c #61584E",
"J  c #605750",
"K  c #635B52",
"L  c #685F55",
"P  c #6B6156",
"I  c #6E6459",
"U  c #71665B",
"Y  c #73695E",
"T  c #766C61",
"R  c #796F63",
"E  c #7C7165",
"W  c #7E7468",
"Q  c #817466",
"!  c #82766A",
"~  c #86796C",
"^  c #897C6E",
"/  c #867C71",
"(  c #8B7E70",
")  c #8E8273",
"_  c #918576",
"`  c #938679",
"'  c #958A7B",
"]  c #998D7E",
"[  c #9C907F",
"{  c #9C8E80",
"}  c #9E9182",
"|  c #A29485",
" . c #A89687",
".. c #A59788",
"X. c #A99788",
"o. c #A6998A",
"O. c #AA9C8D",
"+. c #AD9F90",
"@. c #AEA192",
"#. c #B1A495",
"$. c #B4A897",
"%. c #B3A799",
"&. c #B6A99A",
"*. c #B9AC9D",
"=. c #BCAEA0",
"-. c #BEB1A2",
";. c #C2B3A5",
":. c #C8B7A7",
">. c #C5B7A9",
",. c #C8B7A9",
"<. c #C6B9AA",
"1. c #CABBAC",
"2. c #C6BCB1",
"3. c #CCBFB1",
"4. c #CCC0AF",
"5. c #CEC3B4",
"6. c #CFC4B8",
"7. c #D0C6B6",
"8. c #D1C6BA",
"9. c #D4CABD",
"0. c #D7CDC2",
"q. c #D8CEC3",
/* pixels */
"I B b B b S S S G G H L L P P P U Y Y T T T R R E E E E E W W W W W E E R R E E R E R W E E R R R R W R E R R E W W W E E E W ..",
"P 0 O o o o o o o o o o o o o o o o o o o o O O o o o o o O # # # # # # # # # # # # # # # # o o         . O         . . o # 4 _ ",
"P g , o o O # # % % % % % % , & , , < < 4 4 0 0 r r t y y r r # o r 5 5 5 5 2 2 3 3 2 2 2 2 2 2 2 2 2 5 4 4 4 8 5 8 3 ; % & w ' ",
"P c < # , , < < 4 8 8 8 e e e c c b b n Z F K I Y E W W ! E E & # P I P F F F A V V B N M M M A N S S S H H H L L J N w , 2 r ' ",
"I c 8 % < 0 w t y c c c c b Z Z S G L I Y E ~ _ ] } ..O.O.} } 2 % ) ) ) W W T T U U I L I I I U Y T Q Q ! ~ ) ) ) / I j , 2 y ' ",
"P b 0 < 8 g v b b b N Z S K P P U Y E ~ _ ]  .@.&.-.<.<.4.-.&.5 & o.} } } { ) ) ( ( ( ( ^ ^ ( ( ` ` ' ] | O.O.#.%.o.W N 3 5 y ' ",
"P b 0 < e c b Z A A S H L P Y R E Q ^ _ ] ..#.*.<.4.7.5.5.4.-.w 2 @.&.@.@.} } ' ' ] ] { } { } ......O.+.#.*.;.:.>.&._ D 5 5 y { ",
"P b w < d b Z S S F H L P I T W Q ^ ) ` | O.&.;.4.4.9.9.9.5.-.r 2 *.-.=.&.@.@.} ......o.O.O.O.O.+.@.#.$.*.;.:.1.2.-.{ K 5 5 y { ",
"P b w 4 j M V D F K P P P Y R E ~ ^ ` [ [ #.*.;.1.7.0.0.0.6.2.w 2 =.-.-.&.#.#.+.O.O.@.@.O.@.O.@.@.$.-.-.;.1.1.5.7.;.| K 0 0 j ' ",
"L b w 4 y N A S F K K P U T R E ~ ^ _ [  .#.*.;.1.8.9.q.0.6.2.0 2 =.<.-.&.#.@.#.O.@.+.+.@.@.@.#.&.-.-.-.;.,.4.7.8.;.{ K 0 0 j ` ",
"G c w 4 g N A F K K P I U Y R E ~ ) ` ] [ O.*.;.1.8.8.8.0.6.2.w 2 =.<.>.*.#.@.@.+.O.O.O.@.+.@.$.&.-.-.-.;.4.5.7.5.;.{ K w w y { ",
"L c r 5 y N A F F K P I Y R R W ~ ) _ ]  .O.$.-.<.7.6.8.8.2.>.w 2 =.<.-.&.#.O.@.O.O.O.O.+.O.#.$.&.*.-.=.;.1.1.7.5.;.{ J 0 w y / ",
"G c e < g V A F K H P P U U E W ~ ) ) ' ] ..#.*.>.1.5.7.7.1.;.w , *.>.*.@.$.@.O.O.O.X.O.O.O.+.#.$.*.-.-.:.1.1.3.2.=.{ D 0 5 j / ",
"G c w 8 g N A S H H P P U Y E W Q ^ ^ ` ] ..#.&.-.>.1.1.4.:.;.0 , %.-.*.#.@.@.O.O.O. . . . .O.@.&.*.-.-.;.:.:.,.2.%.{ D 5 w v / ",
"G c w < g N A A H K K U U Y R R E Q ^ ) ' } O.#.-.;.:.,.,.;.=.w , #.&.%.#.@..... . .| |  . ...#.$.&.&.*.=.;.;.>.>.%._ D 0 0 j / ",
"G c w 8 g N A A D F K K P U Y R E ! ^ ) ` [  .#.&.=.;.;.:.-.*.5 ; @.%.@.@... .} | ] ] [ | }  ...+.$.$.&.*.*.=.=.;.+./ S 0 0 j / ",
"G c w < g N Z S D F K P P I Y T E W / / ) ' } +.#.&.*.*.-.*.$.5 , o.@.+.O.X.[ [ ] ] ] [ ] ] ] |  .O.+.@.#.*.&.&.*.+./ V 8 0 g / ",
"Z c w 8 y b Z A D F F K P I I Y R W W ) ) ) ] } X.+.#.&.*.$.@.5 , ..+.X. .[ [ [ ' ] ] ] ' ] ] ] [ | X.X.O.@.#.$.$.X.~ V 8 0 g ! ",
"S c 8 < y m M A S D S D L I I Y T E W W ^ ) _ ' [ ..O.@.$.+.O.5 & | O.X.[ [ ' ' ` ` _ ` ' ' ] ' [ [ | | O.O.+.#.#.] E N 5 5 y ! ",
"G d 8 < y b M N A D S D F P P I Y T E W W / ) ) [ | | O.+.o.o.4 & } ..| [ [ ' _ _ _ _ _ _ _ _ ` ' ' [ } }  . .O.O.] R N 0 w y ! ",
"S g w 3 r b b Z A A S D F F P P I Y Y E ! ^ ^ ^ ) ` ] [ ....| 4 & } } } [ ] ' _ ) ) ) ^ ) ) ) ) _ ` ` ] ] [ |  .+.} W M 5 5 y W ",
"Z g 8 3 e v b M A A S S D F F P P P I Y W W ~ ^ ^ ) ` ] } [ [ < , } ..} [ ' ` ) ^ ^ ) ^ ( ( ( ) ) ) _ ` ' ] [  .o.{ E m 4 5 y E ",
"Z g 0 < e c b M M N A A A D F F P L P U Y E E ~ ^ ) ) ` ' ' ` < & _ } ] ' ` _ ^ ^ ^ ~ ~ ~ ~ ~ ( ^ ) ) _ ` ] [ [ ..` T m 5 5 y E ",
"Z g 8 < w v b b M Z A A A S D F H L P P U Y T R Q ~ ) ) ` _ ) , % ) ' _ _ ^ ^ ^ Q ~ Q Q W ! ! ! ~ ^ ^ ) ) ` ' [ { ( T b 2 5 r R ",
"Z g 8 , w v c b N Z N N A D F F P P P P P I Y Y E Q ~ ^ ) ) ~ , % / ` ) ) ~ ~ ! W W W W W ! W ~ ! ! ~ ~ ( ` ` ' ' / P j 4 5 r Y ",
"B y 5 < w c v b b N N A A A D S D H D P P P I Y E E Q ~ ) ^ Q , % ~ _ ) ^ ~ Q W W W E E E E E E ! ! ! ~ ( ( ( ( ` / L c 2 5 y U ",
"n y 8 < w g c v b M M N V A S S D D D F K P P Y Y R E Q ~ Q E , % Q ^ ^ ~ W W E W W E R R T R R R R W ! ~ ~ ~ ( ) ! L j 4 5 r I ",
"N y 5 < 0 t y v b m M M N N A A Z D D F F P P P U Y Y E ~ Q E , % E ~ ~ Q ! ! R T T E T T T T T T R R ! ~ ~ ~ ( ( R K j 4 5 r P ",
"M y 8 < 8 y y b b b M M M N A A A A S D D P P P U U T R E E R , + Q Q Q ! W W T T T T T Y Y Y Y Y T R R E ! ~ ~ ! R F j 2 4 r K ",
"b y 8 < 8 t t v b b b b b M N N A Z A S D D K P P I Y Y T T Y % $ Y E E T T T U U Y Y Y I I I U T Y T R E W ! / W T S y 3 2 0 K ",
"b t 4 , 8 e g g b c v v b Z N N M A A A A D K K P K K L Y Y Y , + U Y P F F I I I U I I P P P P I U U U R E E W E T S j 4 2 0 F ",
"b t 4 < 8 e y c v v c b b N M M M M V V A A S D G n S Z L I I % # P U S S S K L P I I P L K L L P P P I Y R R E R I S j 4 2 w S ",
"c e 4 < 8 e y y g j j v b b b M M M N V A A A S S B C N D I I & # P I S Z Z S H L L L K K L L K L L L I I Y Y E Y P S j 4 2 5 S ",
"g w 3 < 8 e e y y g g g v b b m M M N N V A S S V m V M S F K & O L P S B N S F K K K J K K K K K K L I P I U U I L S y 4 2 5 S ",
"g w 3 , 8 w e t y y g g j v v b M M M N N V V N N m m N S D F % O H P Z N Z S D J J J J J K F J F F K L L P P I P K A y 3 2 5 S ",
"g 0 3 , 4 w w e a e g y g v c b m m m M N M M m N m m M A D F % O H L Z b b Z S S D J D K K F D D F F K L I P I P F N y 3 2 5 Z ",
"d 8 < , 4 w w e y t d c g g g c v v m m m m m M N M N N S D F % O D P D S Z S S D S D D D D S D D S D J L L P L F S M t 3 2 4 A ",
"t 4 < , < 8 w e t t y e g g g c j m m v m m m m M N N V A D D # O D K K F S S S S S S S A D S S S S S J K K K K F S b e < 2 5 M ",
"t 4 , & , 8 8 t t t y y t g y y j v v v v m m m m N N N A A A % O S K K H S Z S A S D A A A S C C C S D J J J K F S v w , 2 5 M ",
"e 4 , & , 5 w 8 w e t y y y g c j j y j m v v m m m N V A V V $ O S F P K D S S D A A A A A A C V C C C F S G F D N v w , 2 2 m ",
"e < , = < 8 8 8 w w e e d y y g y g j j j j j j k v N N N N V @ O A F K K S S V C C C N N N V V N N N C C S S D S m j 0 , ; 2 m ",
"e 8 , $ ; , < 1 1 1 1 8 1 8 9 9 0 7 7 7 q q q i i p a a f h N $ O Z B n n n z h h h z h h k k h h l f f h f z x h t q < = , 2 m ",
"e 4 , + * - - < : : : > 1 1 1 1 1 6 1 6 1 6 7 9 7 7 7 u q a m # . V z s l f s i i p p p a a f p p p p i p p p p i 9 1 , % ; 5 m ",
"0 < ; + * = = = - - : > 1 1 1 1 > 1 1 1 1 1 7 6 7 7 7 7 7 a m @ X N z l f s f a u i i i i a p p i p i i i i a a p 9 1 - $ , 2 v ",
"0 3 ; X + * - - = - - : > 1 > > > > > > > > > > 6 6 6 7 7 i v @ . m h p s p p q u u u u u u u u q i i i u i i i q q > - $ ; 2 m ",
"0 3 ; $ + * * - - - - : : > : : : > > > : > > > 1 6 6 6 6 q j @   m h u i i i i 9 9 u 7 u > 7 u q u u 7 q i q i q 7 > - $ ; 2 j ",
"0 3 ; X + * * = = = = - > > : > : : > : : : > > 1 6 6 6 6 7 g @   b d u u i u u 9 9 u u 7 7 7 u 7 u 7 7 7 u i i q 7 : ; # & 2 v ",
"8 3 = X X + * * * * = ; : : : : : : : : : > > > 1 1 1 6 6 7 d @   g d 9 q 9 9 9 9 u 1 1 1 6 6 7 7 7 7 u 9 7 q q q 6 : * $ 2 2 j "
};
