/* XPM */
static char *animation9[] = {
/* columns rows colors chars-per-pixel */
"64 48 116 2 ",
"   c #000100",
".  c #090906",
"X  c #0D0D0A",
"o  c #100F0D",
"O  c #180F0E",
"+  c #0F100C",
"@  c #11110D",
"#  c #131412",
"$  c #1B1312",
"%  c #171916",
"&  c #1A1915",
"*  c #1D1C1A",
"=  c #231613",
"-  c #251916",
";  c #281917",
":  c #221D1A",
">  c #2C1C1A",
",  c #311D1C",
"<  c #25211D",
"1  c #29221F",
"2  c #33211E",
"3  c #262522",
"4  c #2A2622",
"5  c #2D2925",
"6  c #2E2C29",
"7  c #362321",
"8  c #3A2523",
"9  c #322B26",
"0  c #3C2926",
"q  c #332E2A",
"w  c #3E2D29",
"e  c #36312C",
"r  c #3A342E",
"t  c #373431",
"y  c #3C3631",
"u  c #3E3932",
"i  c #412A26",
"p  c #432D2A",
"a  c #482F2C",
"s  c #45312D",
"d  c #49312D",
"f  c #463631",
"g  c #4A3632",
"h  c #423B35",
"j  c #4B3B36",
"k  c #453E38",
"l  c #4C3E39",
"z  c #513C37",
"x  c #503D39",
"c  c #494036",
"v  c #46403A",
"b  c #4B433C",
"n  c #53423C",
"m  c #4D4740",
"M  c #4F4842",
"N  c #524B45",
"B  c #584D45",
"V  c #554F49",
"C  c #585046",
"Z  c #57504A",
"A  c #5B544C",
"S  c #5E5750",
"D  c #5F5851",
"F  c #60574D",
"G  c #62594E",
"H  c #605750",
"J  c #645B52",
"K  c #685F54",
"L  c #6B6256",
"P  c #6E6459",
"I  c #71665B",
"U  c #73695D",
"Y  c #796B5E",
"T  c #766C61",
"R  c #796F63",
"E  c #7B7165",
"W  c #7D7468",
"Q  c #807467",
"!  c #827669",
"~  c #86796C",
"^  c #897B6E",
"/  c #8B7E71",
"(  c #8E8173",
")  c #918576",
"_  c #938778",
"`  c #95897B",
"'  c #9A8D7E",
"]  c #9B907F",
"[  c #9B8F80",
"{  c #9D9182",
"}  c #A39586",
"|  c #A59887",
" . c #A69789",
".. c #A89788",
"X. c #A6988A",
"o. c #AA9B8C",
"O. c #AD9E91",
"+. c #AEA192",
"@. c #B2A495",
"#. c #B4A897",
"$. c #B4A798",
"%. c #B5A999",
"&. c #BAAD9D",
"*. c #BCAFA1",
"=. c #BDB1A2",
"-. c #BCB3A9",
";. c #C3B4A5",
":. c #C8B7A7",
">. c #C5B6A8",
",. c #C6B8A9",
"<. c #CBBBAC",
"1. c #CEBFB0",
"2. c #CCC0AE",
"3. c #CEC2B2",
"4. c #D1C5B6",
"5. c #D2CABB",
/* pixels */
"P B n N N C C A F F G K K K L L I I U U U R U E E W E W E W W W W W W W E E E E E W E R E E E R E E E E E E T E W W W W E E W | ",
"L q @ + + + @ @ + + + + + + + + + + @ @ @ @ + + @ @ + # # % & % % % % # # + # # # # # # # # + + X + o X o @ X @ o X @ X + # 4 ) ",
"L h : + @ @ @ @ # & & & & & < : < < < 1 4 5 9 e e t t u t o . . X . X 6 6 6 3 6 4 4 4 3 3 3 3 3 4 4 3 4 5 5 1 9 q q 4 : % & t ` ",
"P c 4 # : 1 5 5 2 9 q e r r u u k b b N A A L P T E W W T #         X Z J D A Z Z Z N N V M M V N V A D G G K K K H N e < 4 t ` ",
"L c 5 * 1 e e r u h c b b b n C A F J P T W ^ ) ` } | | ` %         X I ~ W T R U I I P P L P I P U Q Q ~ ^ ( ) ) ! K k < 4 u ` ",
"L b e 1 9 h h b b b C A D D K P P U W ~ ) ` } +.%.=.;.;.@.%         X ^ ' _ ( ( ^ ^ ~ ^ ~ ( ( ( ) ` ] ] } o.O.#.$.X.! N 5 5 y [ ",
"L b e 1 r c b N Z A A G L P P T E ~ / ) { o.@.=.,.<.3.<.%.&         @ ) o.} { ` ` _ ` ` ` [ { X...o.O.@.#.#.=.:.,.%._ S 6 6 u [ ",
"L c e 1 y b C C A G D K P U U E Q ~ ( ' | o.%.,.1.3.4.3.=.&         @ ] #.O.o.o.X.X.{ { X.o.o.+.@.@.#.%.&.;.:.2.1.*.[ J e 6 t [ ",
"K b e 5 u M V A G G J L P U T Q ^ ( ) ] | +.%.:.3.4.5.5.-.&         @ [ &.#.+.o.o.o...o.o.+.+.+.@.@.&.;.,.<.<.1.3.-.{ L t q k [ ",
"K b e 5 h M V A S D L L P U E W ~ ( ) { | @.&.:.3.3.5.5.-.*         # { &.%.@.o.o.o.o.O.+.+.+.%.%.&.;.;.<.<.1.1.3.>.{ J q q u ) ",
"G c e 6 u V A A D D L L I U E Q ~ ( ) ] | +.&.:.,.2.3.3.-.*         o [ *.%.@.o.o.o.o.o.o.o.+.@.#.&.;.;.<.<.1.4.3.>.{ J t t k [ ",
"K c e 6 u N Z A D L L L I U E Q ^ ( ) ` } o.%.>.>.<.3.3.*.*         X [ &.$.O.o.o.o.o.O.o.O.+.@.#.&.;.>.<.<.<.1.3.;.[ J 6 6 t / ",
"G c w 9 v M Z A D G K L I T E Q ~ ^ ( ` { o.%.=.;.,.<.<.%.*         o [ *.O.o.o.o.o.o.o.....o.@.@.%.*.>.<.<.<.1.<.*.[ H e 6 u ) ",
"F c e 9 h M Z C D G K L U U E E Q ~ ^ ` { o.+.+.&.>.,.>.$.&         X [ %.+.o.o.....} ....o.o.o.@.%.&.;.;.:.1.<.>.*./ S 6 t k / ",
"F c q 1 u M C A D G L L L U U Y E ~ / ) { X.+.+.%.&.>.;.@.&         # ` +.o.o...} } } } } } o.o.o.#.&.;.;.;.;.:.-.+.[ Z 6 6 u / ",
"F c e 9 u M Z C A D K L L L U E W ~ ^ ) ` { ..+.@.%.=.=.O.&         X ) O.....} { [ } ' ' } } ....o.@.&.*.;.*.;.*.O./ S 6 t u / ",
"F f e 5 u n C A D D H L P I U R E ! ~ ( _ [ { O.O.@.%.%.o.%         @ ( o.o.] ] ' ' ' ' ' [ [ } } ..o.@.%.%.%.&.%.X.! Z q q u ^ ",
"A c e 1 y b Z A Z D J J L L I T E W W ^ ( _ ` [ ..o.@.@.| %         o ^ ..] ] ] ` ' ` ` [ [ ' ' { } } ..o.+.+.%.@.X.! V q q u ~ ",
"F c 9 5 u b N Z Z D J J J L I T T E W ! ^ ( _ _ ' ..o.o.{ #         X ^ ..] ` ` ` ` ) ) ` ` ` ' ' [ } } ....o.+.+.{ W N 6 6 u ~ ",
"C c e 1 t b N N V Z D H J J L I I T W W W ! ( _ ` { ....[ %         O ^ ] ] ` _ ) ) ) ) ) ) ) _ ` ' ' ' } | } ..| ` E M 6 6 u ~ ",
"C u e 1 t b M N V V Z D D J K L P I R E W W ~ ^ ( _ ' } ` $         o ! ] _ ` ` ) ) ) ^ / ) ( ) ) ) ` ' ' { } } { ) R N 6 6 u W ",
"A c q 1 e c b M N V Z D D D J J L P T R E E W ~ ^ ) ` ' ( $         o ! ] ` ` ) ) ^ ^ ^ / ^ ^ / ) ) ) ) ` ' ' } [ ) R M 6 6 u W ",
"C h 6 1 e v b M m N V Z A A D J J L P I U E E W ~ ^ ( ( ^ #         X E ` _ ) ( ( ^ ~ ^ ^ ^ ~ / ~ ^ ) ) ` ` ` ] [ ) T m 6 6 u W ",
"C u q 1 e c b b N N V Z Z D D D J L L P P I U E Q ~ ^ ^ ~ #         X U ( / ^ ^ ! ! ! ~ ! ! ! ! ~ ^ ^ / ) ) ) ' ` / T m 3 6 t R ",
"C h 9 1 e h c b M N N Z A S S D H J J L L L I U W Q ~ ~ Q @         X I / ^ ~ Q W W W W W W W ! ! ~ ~ ~ / / ) [ ` ~ L b 3 6 t T ",
"C u 6 1 e h c b m M N Z Z Z A S D J J J L L I I U R Q ! Q @         X I / ^ Q Q W R W W W W W E ! ! ~ ~ ~ / / ) / W L m 3 q t U ",
"n u 6 1 e u h v b M N N Z Z Z S A D H J J P L I P Y Q Q Y @         X P ^ Q Q Y R R R T W E R E E E ! ! ! ~ / / / ! L b 3 6 t U ",
"N u 9 < q u k v m m M M N N V Z A A D H J J K L L I Q R U @         X K Q R Q R R T T T W E T T R R R W ! ~ / / ~ R K k 4 6 t K ",
"N u 9 1 q u v v v b b M N N N V Z D S D J J J L L I U Y P +         . K Y R E Y T T U T T T U T T T T E W W ! ~ ! T D v 4 5 t J ",
"b y 9 1 q y u c b v b m M M N M V Z Z D D J J J L L P I L @         X G Y I I I U P P U U T P P U I T T E W W ~ ! T A v 4 3 e J ",
"b y 5 1 q y h h v v b M M m M M V N V Z Z D D Z C G L P K @         X G I G G S P P P I I P P P P P U I T R W W W I A u 4 4 q A ",
"b y 5 1 q e y h h k b b m m m M N N N V Z Z Z m n C J L G +         . A P C C C D J D P I K K K K P P P P T R R T P A h 5 3 e F ",
"v e 5 1 q e e h h h k k b m m M M N V M V V M b M n A G F @         . C L Z N N S S H K P J J P P P K P K T T T K K Z k 3 3 q S ",
"j e 4 < 9 e r h r h h k b b b b M M V Z Z Z M b b b C A F X         . C L C M M Z S D H J H J J J J J K T T I T K H V u 6 3 q A ",
"h e 4 < 5 q e t h u h k k b b b m m M Z M M b v b M V A A X         . C J C N N V A S S D D D J J J J K K K K T K S M u 5 3 6 Z ",
"h e 1 < 5 q e r h r h k k l v b m m M m b m M b c b N A C @         . N G C b b V Z Z S D D H J J J J J K K K P K S M u 5 3 5 Z ",
"y 9 1 < 4 q e e r h s u u h c c m m m m b b b b b b C A B X         . N J A C N V V Z S S A D D D D D S D J P K J Z m y 4 3 3 V ",
"y 9 < < 4 q e e r h u u h h k k v u v v b b b b b M V Z V X         . N J A A Z V V Z Z A A A S S S A S H J K K J Z b e 4 < 6 V ",
"u q < - 1 q e r u r u u h h h k k k v b b b b b b M M N N X         . M H A A V V V Z Z Z Z V V S S S S H D H J D V b e < 3 3 N ",
"y 1 1 & 1 5 q e r r r r u u h h h k v v c c b b N M M N m X         . N D H A Z V V Z Z Z Z V V Z Z Z A S S H H Z N b q < 3 3 M ",
"r 1 < - < 1 e e r e r r u h s u h h k h h h k k l m m m m X         . b F A A V V V N V N N V V V V V Z V A A Z Z N h q < 3 3 m ",
"u 1 < = = < 1 1 2 2 8 7 7 7 9 0 9 0 0 i w w w i w p p h b X         . M B z z z j g g g j g j j x j x x z x x z g f w 1 : : 3 m ",
"r 1 1 # = - ; > > , , , 2 2 , , , 2 , 2 8 8 8 7 7 8 8 f k X         . b n d d d a p p a s a s s g s a a a a a a a 0 7 ; & * 4 m ",
"e 1 < # $ = = ; > > , , 2 2 > 2 , , , , 2 7 2 7 7 7 7 s h X         . b n a d a d p i i p p a a s s a a a a a p p 0 7 > & * 3 m ",
"e 4 ; O $ = = = ; > , , > > , , , , , , , , , 8 7 2 2 w u X         . v c p a i i i 0 0 i i i i p p p p p a p p w 0 7 : = : 3 v ",
"q 4 < O $ = = = ; > > > > > > > , > > > , , , , 2 2 2 w y X         . h j i i i i 0 0 8 8 8 i 8 8 p p p p p p p w 8 2 ; $ : 3 v ",
"q 4 - O O = = = = ; > > > , , > > > , , , , , 8 2 2 2 0 y .         . h k 0 0 0 0 i 8 8 8 8 8 8 8 w w 8 p 0 0 p 0 8 2 : $ * 3 v ",
"6 1 - O O $ = = = ; ; > > > > > > ; ; > , , , , 2 2 2 0 r .         . u f 0 0 8 8 8 8 8 8 7 , 7 8 8 8 i 0 w i 0 8 8 2 - $ * 3 v "
};
