/* XPM */
static char *animation15[] = {
/* columns rows colors chars-per-pixel */
"64 48 117 2 ",
"   c #000100",
".  c #070908",
"X  c #0C0C0B",
"o  c #120F0E",
"O  c #180F0F",
"+  c #0F100C",
"@  c #11110E",
"#  c #1A100F",
"$  c #141512",
"%  c #1C1413",
"&  c #1C1916",
"*  c #171918",
"=  c #1A1B19",
"-  c #211715",
";  c #251917",
":  c #281917",
">  c #221C1A",
",  c #2D1C19",
"<  c #321D1C",
"1  c #24211D",
"2  c #2A221E",
"3  c #33211E",
"4  c #262522",
"5  c #2A2622",
"6  c #2D2925",
"7  c #2E2C28",
"8  c #352321",
"9  c #3A2523",
"0  c #312C27",
"q  c #3C2926",
"w  c #332E2A",
"e  c #3E2C28",
"r  c #36312C",
"t  c #3A342E",
"y  c #373431",
"u  c #3C3631",
"i  c #3E3833",
"p  c #412B27",
"a  c #432D2A",
"s  c #45302D",
"d  c #49322E",
"f  c #443631",
"g  c #4B3532",
"h  c #433C35",
"j  c #4C3C36",
"k  c #453E39",
"l  c #503732",
"z  c #503A35",
"x  c #503F39",
"c  c #494037",
"v  c #47403A",
"b  c #4B433C",
"n  c #4C483F",
"m  c #54423C",
"M  c #4D4741",
"N  c #4F4842",
"B  c #524C45",
"V  c #584F46",
"C  c #554F48",
"Z  c #584E48",
"A  c #585047",
"S  c #57504A",
"D  c #5B534C",
"F  c #5E5750",
"G  c #5F5850",
"H  c #60564D",
"J  c #62584F",
"K  c #605750",
"L  c #645B52",
"P  c #685F54",
"I  c #6B6256",
"U  c #6E6459",
"Y  c #71675B",
"T  c #736A5D",
"R  c #756C61",
"E  c #796E63",
"W  c #7B7166",
"Q  c #7D7469",
"!  c #817567",
"~  c #82766A",
"^  c #86796C",
"/  c #897C6E",
"(  c #877B70",
")  c #8B7E71",
"_  c #8E8274",
"`  c #918576",
"'  c #938779",
"]  c #958A7B",
"[  c #998D7E",
"{  c #9A907F",
"}  c #9C8F80",
"|  c #9E9182",
" . c #A39486",
".. c #A69788",
"X. c #A89789",
"o. c #A7988A",
"O. c #AA9B8C",
"+. c #AD9F91",
"@. c #AEA192",
"#. c #B2A595",
"$. c #B4A799",
"%. c #B6A999",
"&. c #B9AC9C",
"*. c #BDB09F",
"=. c #BDAFA1",
"-. c #BEB1A1",
";. c #C3B4A5",
":. c #C4B7A8",
">. c #C6B9AA",
",. c #CBBBAC",
"<. c #CDBFB0",
"1. c #CDC0AF",
"2. c #CEC3B3",
"3. c #CFC5B8",
"4. c #D0C4B5",
"5. c #D1C5B9",
"6. c #D3C9B9",
/* pixels */
"U V n n B A A D H H J P P P I I Y Y T R R R E W W Q Q Q Q Q Q Q Q Q Q Q Q Q Q W W W W E E W W E W W W W W E W W W Q Q Q W E Q o.",
"I w @ @ + + @ + + @ + + + + + + + @ o @ o X $ $ $ * * * = = = = = = = * * * * * * $ $ $ $ $ + + X X + X @ X X o + + o X @ $ 5 ` ",
"I h > o @ @ @ $ $ & & & & & 1 1 > 1 4 , 5 6 0 y = . . X . + . . X . . . . . . $ 6 5 5 5 4 5 4 2 4 5 6 6 6 6 6 0 0 7 4 > = = y ' ",
"I c 2 % > 1 2 5 2 w w w t t u u k b m B A L L U w               .   .         = A A C C B B C B Z S S S D J L P U L N u 1 4 y ' ",
"U c 0 & 2 w t u h c c c b n n A H J P U T Q ^ ` i                             5 Y Y U U Y Y Y T R R E Q Q ^ ) ` ' ( I k 1 6 i ' ",
"I b r 2 6 h c n n n n A D L L U Y T ! / ` ] | O.b                             6 ^ / ^ ^ ^ / / / _ ' [  .o.O.#.%.%...Q C 6 6 i ' ",
"I b w 2 t c n B H A H J L U Y E ! / ) [ [ X.O.%.N                             w ' [ ' ` ` ' ' [ | o.@.$.&.-.;.,.,.%.` F 7 7 k } ",
"I b w 2 u b B A H J J P I Y T ! ^ / ] {  .+.#.&.B                             r  . .|  . .....O.+.$.&.&.;.,.,.1.,.=.} L 7 y i ' ",
"I b r 8 i M C S D J L I T T W ! ^ _ ' | O.@.%.-.C                             r o.O.o.o.o.X.O.+.#.&.;.;.,.,.4.5.3.:.| L r y i } ",
"L b r 5 i M C S G L I I T W ! ~ _ ` ] | O.#.%.;.B                             r O.O.o.o.X.O.#.#.%.&.;.>.,.,.4.5.5.>.| L r 7 i ` ",
"J b r 0 h M S F G I I I T R W ! ^ _ } |  .O.#.*.B                             t X.+.O.o.X.X.+.#.%.%.*.;.>.,.5.5.5.>.} L y y k } ",
"J b r 6 h N S D G J I I T R W ! _ _ ] | | O.@.%.B                             r o.+.O.o.o.X.O.#.#.%.*.;.>.1.<.5.3.-.} G 7 7 i ( ",
"H c e 3 i n C D L I I U T T W ! / _ ' [ | ..+.#.N                             y o.O. ...o.O.+.#.#.%.&.*.;.,.<.<.3.-.} G y y i ) ",
"H c r 0 h N S D J J J I T T W ~ / _ _ ' [ | ..@.n                             r  .O. . .o.X.O.O.#.#.%.*.;.:.,.<.<.=.] G 7 7 k ) ",
"H c r 2 h N S D D J L I I T E W ^ _ _ _ ' }  .O.n                             t  . .|  .X.X.O.O.@.@.#.%.&.;.,.,.,.$.` F 7 y k ( ",
"H c r 0 u N S D H J L I U T E W ^ ) _ _ ` [ | ..b                             r } } }  .| {  . ...O.@.#.$.&.=.:.:.$.) Z 7 7 k ( ",
"H c w 2 h n V A D J L I U U R R Q ( _ _ _ ] } } v                             w [ [ [ [ { { { {  .X.O.O.@.#.%.&.&.O.^ V 0 0 h ^ ",
"A c r 6 u n C A D J L I I I U R W Q Q Q ) _ ' } k                             0 ] [ ] ] [ { { {  ...O.X.O.@.@.#.#.{ ! V 0 0 h ^ ",
"H c 0 2 t n C A D G L I I U U R R W Q Q ^ ) ) ] k                             w ] [ ` ] ] ] ' [ [ { { X.@.O.O.#.@.{ ! m 7 w i ~ ",
"A c w 2 t b N C S D G L L I U U U R E W ! ^ ( ` h                             w ` ` ` ` _ ` ' ' ] [ { { { O.{ @.{ [ ! z 6 w i ~ ",
"A k w 2 t c n B C A D H L I I U I Y T T E ! ^ / i                             6 ` ` _ _ ` ` ` ` ` ` ' [ { { { { | _ R b 5 7 i Q ",
"A h 0 2 t h n N C A A D G L I I I I Y Y R E W ^ h                             0 ) _ _ _ _ ` / / _ ` ` ' ] [ { { } _ U b 5 7 i W ",
"A k w 2 r k c N B B A D D G L L P I I Y T T T ! t                             0 ~ ` / _ / / / / / / _ ` ` ` [ [ [ ) I M 7 7 i W ",
"A h 0 2 w h c n B B S A D D D J H P I I U T T T t                             2 ! ^ ~ / ^ ! ^ ~ / / / / _ ` ` ] ' ^ I v 4 7 y E ",
"A h 0 2 w h b n n C V Z S S D G H J J I P U Y T r                             6 ! ! ! ! Q ! ! ^ ~ ^ ( ( ) _ _ ' _ ! P v 5 7 y R ",
"V u 0 1 w h b b n B B Z S S D D H H J J L P I Y r                             2 T ! Q E E E Q ! ~ ^ ( ( ( _ _ ` _ ! P b 5 7 y T ",
"B f 0 2 r f v c b N B B C C S D D G J J L L P I w                             1 T ! T E E E W ! ~ ! ~ ~ ^ ( ( _ ) Q P b 5 7 y U ",
"n u 6 2 w u k c b b M N B C S S D D H J K L P L w                             1 T T T T E T T T Q ~ ! ! ~ ^ ) ) ^ W L c 5 7 y U ",
"B u 0 1 w u h k b c b n C V S S D D D G G G L L 0                             1 U U T Y T R U R E W W Q Q Q ^ Q ^ R G k 5 7 y L ",
"n u 6 2 w t i k v b b b n B B S S D D S D D D F 0                             1 P I P I U Y U R R R E E E E Q ^ Q T D k 5 4 w L ",
"b u 0 2 0 t h h v v v b n m N B C S B M N S D F 5                             > L K A H L I U U Y R R R R E W Q E I S h 4 6 7 L ",
"b t 0 2 0 t h h k k v c c b N N N N b v v N S F 5                             1 L H B C C L L P Y R Y P Y R R R R L Z i 5 4 w D ",
"c r 6 2 7 e u u k k v v v M M M N b k v k M B D 6                             1 F D M N B F F L U U U U R R R R Y G C i 5 4 7 F ",
"k r 5 1 6 w u u h k k v v b M N N b h h h k M C 5                             = F S b M B F F G G P L U Y Y Y Y U L B y 5 4 w D ",
"f r 5 > 5 w u u f h h h v b b b v v h h h k M B 4                             > C Z M N M C F F G L L U U U U U L F N i 5 4 7 A ",
"f r 5 1 5 w r y i h k h v b v v k v k y f k c N 4                             & C B M M M C C S G G L I U P U U P F M i 5 4 7 A ",
"h 0 2 1 5 w r y y h i h h c c v k k h h h c b B 1                             = C B M M M B C F F G L L I P I P L S N i 5 4 7 B ",
"u 0 2 > 5 0 w r y i t h h h h h k h k h k c b M 1                             > C C B B B B C S F G F K P P P L D S M y 4 4 7 B ",
"u 6 1 1 5 0 0 r t i i i u h h h h h k k k c c b 1                             & B B B B B B B C D F F F L L L L G S v r 1 1 6 N ",
"u 2 2 & 2 6 w r t t t t t h h h f h h k v c c c 1                             & N B C B B B B C C D D F K L L L D B v r 1 1 6 M ",
"t 2 1 - 2 0 0 w r r r y u u t f h t u h k h k k >                             & B N B N B N B Z Z Z Z Z D K K F Z N h w , 4 5 M ",
"u 0 1 $ > 2 2 3 8 8 8 8 8 8 8 q q q q e 9 q e k >                             & N j g j g g g g z z z m m m m m z f e 5 > > 4 M ",
"t 6 1 # # : , , , , < < < < < 3 8 3 3 < 3 < 8 h &                             & M s a a a a p p s d d d l l l g d e 8 : * 4 6 M ",
"w 2 1 # - : : , , , , , < , , < 3 < < 3 3 < 8 f >                             % b a p a p p p p a s s d d g g s a a 8 : % = 4 v ",
"w 5 > O # - : : : : , , , , , , , < < < < < < u &                             % k a q p q p p 9 9 p p a a s s s a q 8 , % 1 4 v ",
"w 5 > O # - : : : : : : : : , , , , < < < < 2 e &                             $ k e 9 9 9 q 9 9 9 9 p p q a s s e q < ; % > 4 k ",
"w 5 > O O % - ; : : : : : : , , , , < < , < < r &                             % h q 8 8 < 9 8 9 9 p 9 9 q a a a e 9 < ; * 4 4 v ",
"0 5 ; O O - - > : : : : : : , , , , , < , < 5 e &                             @ f q 8 8 8 9 9 9 9 < 9 9 9 q e e 9 9 < ; O = 4 v "
};
