/* XPM */
static char *animation35[] = {
/* columns rows colors chars-per-pixel */
"64 48 99 2 ",
"   c #000100",
".  c #060807",
"X  c #0B0A07",
"o  c #070A09",
"O  c #0A0A09",
"+  c #120E0C",
"@  c #190F0F",
"#  c #0E100D",
"$  c #12110E",
"%  c #1C110F",
"&  c #151512",
"*  c #1B1412",
"=  c #151817",
"-  c #1C1916",
";  c #171918",
":  c #1A1B19",
">  c #221514",
",  c #261916",
"<  c #221D1B",
"1  c #2A1D1A",
"2  c #25211E",
"3  c #2A221E",
"4  c #32211E",
"5  c #252321",
"6  c #2A2521",
"7  c #2D2925",
"8  c #2D2C29",
"9  c #352321",
"0  c #3A2724",
"q  c #312B26",
"w  c #3D2826",
"e  c #332E2A",
"r  c #3D2D29",
"t  c #35312C",
"y  c #3A332E",
"u  c #363431",
"i  c #3D3631",
"p  c #3E3933",
"a  c #43342F",
"s  c #453631",
"d  c #433C35",
"f  c #493936",
"g  c #453E39",
"h  c #4B3D3B",
"j  c #4A4137",
"k  c #47413B",
"l  c #4B433C",
"z  c #50483F",
"x  c #4C4641",
"c  c #4F4842",
"v  c #534C44",
"b  c #584D44",
"n  c #554F49",
"m  c #585047",
"M  c #57504A",
"N  c #5B534C",
"B  c #5F584D",
"V  c #5D5650",
"C  c #5F5852",
"Z  c #61564C",
"A  c #63594D",
"S  c #635B53",
"D  c #685E54",
"F  c #6B6155",
"G  c #6E6459",
"H  c #70665B",
"J  c #73695E",
"K  c #766C61",
"L  c #786E63",
"P  c #7C7266",
"I  c #7D7469",
"U  c #82776B",
"Y  c #84796C",
"T  c #887C6E",
"R  c #8A7C71",
"E  c #8E8174",
"W  c #918476",
"Q  c #928679",
"!  c #958A7C",
"~  c #998D7E",
"^  c #978C80",
"/  c #998D81",
"(  c #9D9182",
")  c #A39586",
"_  c #A49789",
"`  c #A6998B",
"'  c #AB9D8E",
"]  c #AB9F92",
"[  c #AEA294",
"{  c #B2A495",
"}  c #B0A699",
"|  c #B7A99A",
" . c #B9AC9D",
".. c #BCAEA0",
"X. c #C3B4A6",
"o. c #C7B8A9",
"O. c #CCBDAE",
"+. c #CFC1B1",
"@. c #D1C2B3",
/* pixels */
"G v z v z N B B B A D F F F G G K K K K L L I I I I I I I I R I I I I I I I I I I I I I I I I I I I I I I I L I I U I I I I I _ ",
"F y $ # # # # & & & & = & = ; ; ; ; ; ; ; : ; : ; ; : : ; : ; ; : : : : ; : : ; ; : : : ; ; : ; ; ; ; ; ; ; ; = & & & # # # 7 Q ",
"F j 2 $ # & & & - # . . o o o o O O O O o O O O O O o o O O O O # o o O O O o o O O O O o o o O O O o o O O O 8 e 7 6 < ; : i ^ ",
"G l 7 * < 2 3 7 8 $                                             .                       .                   + N G S v y 3 6 p ^ ",
"G z t - 3 t t y d *                                                                                         & L ! T F k 3 7 k ! ",
"G v y 3 e j k j c <                                                                                         * / { _ U b 7 8 k ^ ",
"F z i 3 i j z v n <                                                                                         : ` o.| W N 7 8 x ^ ",
"F v i q p z m m V 2                                                                                         - ] O. .~ S t t x ^ ",
"F v i e p n N V S 5                                                                                         ; } +.X.( D t t x ~ ",
"D v i e k n N V S 5                                                                                         < { @.X./ D e t x ! ",
"D z i e k v M V S 5                                                                                         - { @.X.~ D e t x ! ",
"A b i e g c n V S 5                                                                                         : } @.X.~ A e u x Q ",
"A z s e g v N N C 6                                                                                         : } O. .W S t u x E ",
"A z a q g v M N C 5                                                                                         < ] o.| E V t t x E ",
"A z y q g c n n S 5                                                                                         : ] ..{ E N 8 u x R ",
"A z y q d v N V C 2                                                                                         - (  .' R n 8 8 x E ",
"A z y q d x M M S 2                                                                                         - ( } _ Y v q t l E ",
"A z y 7 d x n M N 2                                                                                         * / { ) P v q t k T ",
"Z z y 7 p x n M N 2                                                                                         : ! ] ~ P x 8 t k T ",
"Z j y 3 p x c n M 2                                                                                         * Q _ ! J z 5 t k Y ",
"N l t 7 i k v v M 2                                                                                         * W _ Q L x 7 t k I ",
"m l y 6 t k l x n <                                                                                         * E ) Q K z 7 8 k U ",
"m l y 3 y j l l v <                                                                                         * Y ~ W J l 7 8 k I ",
"m l y 6 t d j z v <                                                                                         = P E E G l 3 8 k I ",
"m l t 3 t d j j z 2                                                                                         & P E Y F j 2 8 k L ",
"m j t 3 t s j j l -                                                                                         & P E Y F j 3 t g K ",
"v j t 3 t d d g l <                                                                                         $ K E U A j 8 8 g J ",
"c j t 3 e s j k k -                                                                                         & J Y L A j 8 8 p G ",
"x k t 3 t p d d k ,                                                                                         & H P K S k 3 8 p F ",
"x j t 3 t p y d k -                                                                                         & F L F N d 3 8 u S ",
"l d t 2 7 t p d d <                                                                                         & F H B l y 5 8 u S ",
"l d 7 < 7 t i d d -                                                                                         # A F z k 8 2 5 u S ",
"k p 7 < 6 e t s d -                                                                                         $ N D v d q 2 5 t A ",
"j i 7 : 6 e t y d *                                                                                         + M C v p q 2 5 t B ",
"d y 7 - 6 e t y p -                                                                                         # b N x p e < 5 u N ",
"d t 6 - 2 7 q t i *                                                                                         $ v N x p q : 5 t M ",
"d y 3 - 2 7 t y i *                                                                                         + v N x d 7 2 5 t M ",
"i t 6 < 3 q e y y *                                                                                         + v N v k t 2 5 8 M ",
"y t 3 2 3 q e e t *                                                                                         $ v M n k t 2 5 8 M ",
"y t 3 - 3 q e e t &                                                                                         $ l M c k t 2 5 8 c ",
"i q 5 : 3 7 q q e *                                                                                         O k n x d e 5 5 8 c ",
"y e 3 * , < 3 6 e +                                                                                         + x l s r 4 > 5 8 c ",
"y q 3 % > > , 3 q @                                                                                         + h h w 9 1 * < 8 c ",
"t q 3 * % > , 1 q @                                                                                         O d f 0 9 1 - 5 8 x ",
"e 8 1 * > > > 1 6 +                                                                                         O d s 9 4 1 > 5 8 h ",
"e 7 5 @ % > > 1 9 +                                                                                         O s s 4 4 , * < 8 h ",
"e e 3 @ % % > 1 6 +                                                                                         . i i 4 1 > = 5 8 k ",
"e 6 < % % % > , 6 +                                                                                         X y r 4 1 > @ : 8 k "
};
