/* XPM */
static char *animation16[] = {
/* columns rows colors chars-per-pixel */
"64 48 118 2 ",
"   c #000100",
".  c #0B0C0A",
"X  c #120E0D",
"o  c #180F0F",
"O  c #0F100C",
"+  c #11110D",
"@  c #1A110F",
"#  c #131513",
"$  c #1D1412",
"%  c #151817",
"&  c #1C1A16",
"*  c #171919",
"=  c #1A1B1A",
"-  c #201613",
";  c #251916",
":  c #281917",
">  c #221D1B",
",  c #2C1C19",
"<  c #311D1C",
"1  c #25221D",
"2  c #29231E",
"3  c #32201E",
"4  c #262522",
"5  c #2A2622",
"6  c #2D2925",
"7  c #2E2C29",
"8  c #342321",
"9  c #3A2623",
"0  c #312B27",
"q  c #3C2925",
"w  c #332E2A",
"e  c #3D2B28",
"r  c #36312C",
"t  c #3A332E",
"y  c #373431",
"u  c #3C3631",
"i  c #3E3933",
"p  c #402A27",
"a  c #432D2A",
"s  c #45312E",
"d  c #49312E",
"f  c #443631",
"g  c #4B3632",
"h  c #433C35",
"j  c #493C35",
"k  c #453E39",
"l  c #4F3D38",
"z  c #503933",
"x  c #503E39",
"c  c #474037",
"v  c #494036",
"b  c #47403A",
"n  c #4B433C",
"m  c #54423D",
"M  c #4D4640",
"N  c #4F4842",
"B  c #504742",
"V  c #524C45",
"C  c #584F46",
"Z  c #554E48",
"A  c #584E49",
"S  c #585047",
"D  c #57504A",
"F  c #5B534C",
"G  c #5E5750",
"H  c #60574D",
"J  c #62594F",
"K  c #605750",
"L  c #645B52",
"P  c #685F54",
"I  c #6B6256",
"U  c #6D6459",
"Y  c #71675B",
"T  c #73695E",
"R  c #786D5F",
"E  c #766C61",
"W  c #796F63",
"Q  c #7B7166",
"!  c #7E7469",
"~  c #807366",
"^  c #82766A",
"/  c #86796C",
"(  c #897C6E",
")  c #877C70",
"_  c #8B7E71",
"`  c #8E8274",
"'  c #918576",
"]  c #938778",
"[  c #958A7B",
"{  c #9A8D7E",
"}  c #9B8F80",
"|  c #9E9282",
" . c #A39485",
".. c #A89687",
"X. c #A69788",
"o. c #A89788",
"O. c #A79889",
"+. c #AB9B8C",
"@. c #AD9F90",
"#. c #AFA192",
"$. c #B2A595",
"%. c #B6A997",
"&. c #B3A798",
"*. c #B6AA9A",
"=. c #B9AC9D",
"-. c #BCB09F",
";. c #BEAFA0",
":. c #BEB1A2",
">. c #C3B4A5",
",. c #C5B7A8",
"<. c #C6B9A9",
"1. c #CBBCAC",
"2. c #CDBEB0",
"3. c #CDC0AF",
"4. c #CEC3B3",
"5. c #D0C5B6",
"6. c #D1C6BB",
"7. c #D2C8B9",
/* pixels */
"U C m V Z Z S F H H J P P P I I Y T T R E W W ! ! ! ! ! ! ! ! ! ! ! ! ! ! ! ! ! Q ! Q Q Q Q Q W W Q W W Q W W Q ! ! ! Q Q Q ! O.",
"I w O O O O + + O O O O O O O O O O . + # # # # # % * * * * = * = = = * * * * % # # # # # # + O O O O O X X . X # . + O # + 4 ] ",
"U h > O + + @ # & & & & & > 1 > 1 1 2 2 5 6 r 1 . . . . . . . . O . . . . . . . = 7 4 2 4 4 5 2 4 5 6 6 6 6 6 0 6 0 5 > % = t [ ",
"I v 2 # & 1 2 5 2 0 r w r t u h b n n V D G I b                                 7 D S Z Z N Z Z D D F D F H L P I L B t 1 4 y [ ",
"U v 6 ; 2 r t y i c v v n n V D F J P Y E ! ) F                                 u Y Y Y Y Y Y T E E Q Q / / _ ] ] ( I b 2 5 i ] ",
"I n r 2 0 i n n n n Z D G G I I Y W ~ ( ` [ | I                                 v ` ^ ^ / ( ( ` ` ] { | O.+.@.%.*.O./ V 6 6 i [ ",
"I n r 2 t v n Z S F G J I I Y E ! / ` ] {  .#.T                                 V { [ [ ] ' [ [ | O.+.$.*.>.>.1.1.*.] F 7 7 i } ",
"I v r 2 u n Z F J J G L I Y E ! ! ` ] {  .+.&.W                                 D  . .| |  . .O.+.$.*.:.>.<.1.4.2.:.} L w 7 i } ",
"P n r 6 u M D D G G P I Y T Q ^ ^ ` [ | O.#.*.W                                 D +.+.......@.@.$.*.;.>.<.3.1.5.6.,.| I y r i } ",
"P n r 6 i M Z F G J I Y T W ! ^ ` ' { | O.#.*.Q                                 F +.+.+...O.@.#.%.=.>.<.1.1.5.7.6.,.| L r 7 i ] ",
"J v r 6 i N D F G L I U Y R Q / ( ] { { | +.&.W                                 H +.+.+.O.O.@.$.&.*.=.>.1.3.5.7.6.,.| L y 7 k } ",
"P v t 6 h N D F L I I I T R Q ^ ` ` { [ | O.#.W                                 F +.+.+.O.O.+.#.&.%.=.>.<.1.5.7.4.,.} G y 7 k ) ",
"H v e 3 i n D G J P P U Y T Q ^ ( ` ] { }  .@.E .                               F +...O.O.+.+.#.$.&.*.-.,.<.2.2.2.>.} K 7 7 i ] ",
"H v r 0 c n F G G J P I Y T ! / / ` ` ] { | ..T                                 S +... .O...@.@.#.%.%.-.;.,.<.2.2.;.} K 7 y k _ ",
"H v r 2 i V S F H J P P U T R ^ ( _ _ ` ] } ..I                                 S O.| | O.+...+.+.#.$.%.;.;.>.2.2.;.] G 7 7 i ) ",
"H v r 6 c n D S H J P I U T W ! / ( ` _ ] {  .I                                 S  .{  .{ {  . .+.+.@.$.&.*.;.>.>.$._ F 7 y k ) ",
"H v r 2 h n D G G J L I I U E Q ! ) _ ) ` ] [ P                                 m { { { { { { {  ...+.+.#.%.%.=.%.+.( V 0 w i ) ",
"F c r 6 i n C D G L P I I U Y E Q Q ! / _ ` [ L                                 m { { [ { { { {  . .+.+.+.#.@.#.+...! V 0 w h / ",
"F v 0 2 i n V Z F G L P I U U T E W Q ! / _ ` G .                               S { [ ] { [ [ [ { |  . .+.+.@.#.@.{ ~ N 7 w i / ",
"H f w 2 u n V V D G G G L I I U Y E E Q ^ ^ _ G                                 n [ ' ' ' ' ' ' [ { { { { ....+...] R m 5 7 i ^ ",
"S h r 4 y n n Z D D G G L I I I I Y Y R W ~ / F                                 n [ ' ` ' ' ' ` ' ] ] { { { ..{ | ] T n 5 7 i ! ",
"S c 0 2 r v n N V Z D G G L I I I I I Y R W Q C                                 n { ` ' ` ` ` ` ( ' ] ] [ { { { } ` U M 5 7 i ! ",
"F h 0 2 0 c n n V Z D F F L L L P P I U Y R R C                                 v ` ` ` ( ` ( ( ( _ ' ' ' ] { { [ ) U n 4 7 i Q ",
"Z h 0 2 r c n n N Z D D F F G G J P P I I Y T B                                 v Q ` ! / / ^ / ( ( ( ( _ ' ' ' ] ) I b 6 7 y W ",
"S h 0 2 r h v n V D D D D F F F H J J I I I U n                                 c ~ ~ ~ ^ ! ~ ^ / / / ) ) ` ] ] ' ! L b 5 7 y E ",
"C u 0 2 r h v n N N V V D D F F J J J J L P U n                                 h Q Q Q W Q Q Q ^ / / ) ( ` ` ` ` ! P k 5 7 y E ",
"m i 6 2 r f c n M N N N V D D F G G J J L P I b                                 h Q R T T R Q Q ! ^ ^ / / ) ( ` ` ! P n 5 7 y E ",
"n u 0 2 r u h c n n M Z N D D D F F F F G L L b                                 i T R T T Q E E W ^ / ! ! ) ) ` / Q L n 5 7 y P ",
"S i 0 1 0 i h c n n n V V V D D F F G G G G G k .                               i Y Y Y E E E E E W ! ^ ! ! / / ! W L h 5 7 y L ",
"n i 0 2 0 t h c c n n n N V Z D D D D D D F G i                                 y I I P I U U T E E W Q W ! ! ! ! Y F h 5 5 w K ",
"n u 0 1 0 t c h c c n n n N V Z D V M M V D G i                                 t L F A G P I I U E E E E E Q Q W U D h 6 4 w G ",
"n i 6 1 0 i u h i c b n n n n N N n c k M V D i                                 t L F V V G L P I T T T Y E E E E I D i 5 4 w G ",
"l w 0 1 0 u y f h k k n M n n M n j h h b M D i                                 r F Z M M D F G I Y Y U Y W E E U G Z i 4 4 7 G ",
"k w 6 1 6 w y i h h j b n M M M n h h h h n Z y                                 r F Z M M D D G G L I I U T E T U G V i 6 4 7 F ",
"h w 5 > 6 w u u i h h k k n n n h h i h c n N t                                 w F N M M N D G G L L L U Y Y Y U G M i 5 4 7 D ",
"h w 5 > 5 w w u i h h k k k b h c c t i h b M t                                 7 D N b M N Z D G G L I U U Y U P G M y 5 4 0 D ",
"h w 2 1 5 0 w u u t h h c h k h k i i h j b N r                                 6 D V N n B V D G G L L P I I I L F n y 5 4 6 V ",
"t 0 1 > 5 0 w u t i u h f h h h k k h k k n n r                                 7 D V N V V V D F G L G L I I I L D n y 5 4 7 Z ",
"u 0 1 > 2 0 w t y u u t u h h j h h k j b b n w                                 6 V N N V V V D D F L L L P P L G D b t 1 4 6 N ",
"t 2 1 > 5 6 w w t y u t h i i h i i k c c j b t                                 7 N D Z V Z V V D F F F G G L L F V c r 1 4 4 M ",
"t 3 1 & 2 0 w w r r r t t i t i u i h h h h h 0                                 5 V B V B B B V A A A A F K K K D B j w 1 > 4 M ",
"u 6 1 @ ; 1 2 3 9 3 8 3 3 9 q q 0 q 9 q q w h 6                                 6 B f f g g g g g l l l x x B x x f q 5 & 4 4 M ",
"r 6 1 @ $ : , , , , < < 3 < < 3 3 3 3 < 3 3 s 6                                 6 n a a a d p p a d d d z z z g d a 3 : $ > 7 M ",
"r 5 1 @ - : : : , , < , , , < < 3 3 3 < 3 3 t 5                                 2 n a a p p a p p a d d d z g g s p 9 , & = 4 M ",
"r 2 > o $ : : : : : , , < , , , , < < < < < s 2                                 2 j q 9 p e p p 9 p p p a a g s a e 8 : $ > 4 b ",
"r 2 > o o ; ; ; : : : : : < , , , < < < < < w 1                                 2 j 9 9 9 9 9 9 9 p 9 9 e e a a a 9 5 : $ > 4 b ",
"w 2 > o @ - - ; ; : : : : : , 2 , < < < < < w 2                                 1 j 9 9 9 9 9 9 9 9 e 9 e a a a e 9 < > $ 4 4 b ",
"0 2 > o @ - - - ; : : : : : , , , , < , < < w 1                                 1 t 8 3 3 3 9 9 9 9 9 9 9 9 9 e e 8 < > $ = 4 b "
};
