/* XPM */
static char *animation8[] = {
/* columns rows colors chars-per-pixel */
"64 48 119 2 ",
"   c #000000",
".  c #070806",
"X  c #090907",
"o  c #070908",
"O  c #0D0D0B",
"+  c #110F0D",
"@  c #190F0E",
"#  c #0F100C",
"$  c #11110E",
"%  c #1C110F",
"&  c #141512",
"*  c #1C1412",
"=  c #171815",
"-  c #1B1915",
";  c #1E1C19",
":  c #231613",
">  c #261915",
",  c #281917",
"<  c #221D1A",
"1  c #2C1D1A",
"2  c #311E1C",
"3  c #25221E",
"4  c #2A231F",
"5  c #33211E",
"6  c #262522",
"7  c #2A2622",
"8  c #2D2925",
"9  c #2E2C29",
"0  c #362220",
"q  c #3B2523",
"w  c #312B26",
"e  c #3D2926",
"r  c #332E2A",
"t  c #3D2C28",
"y  c #36312C",
"u  c #3A342E",
"i  c #373431",
"p  c #3C3631",
"a  c #3E3833",
"s  c #412B27",
"d  c #432D2A",
"f  c #482F2C",
"g  c #45312E",
"h  c #4A312D",
"j  c #463631",
"k  c #4C3330",
"l  c #433B35",
"z  c #4C3A36",
"x  c #453E38",
"c  c #4E3E39",
"v  c #533F39",
"b  c #494036",
"n  c #47403A",
"m  c #4A433C",
"M  c #53423C",
"N  c #4D4641",
"B  c #4F4842",
"V  c #524B45",
"C  c #584F46",
"Z  c #554E48",
"A  c #585047",
"S  c #57504A",
"D  c #5B534C",
"F  c #5E5750",
"G  c #5F5851",
"H  c #60574D",
"J  c #61584E",
"K  c #605750",
"L  c #645B52",
"P  c #685F55",
"I  c #6B6256",
"U  c #6E6459",
"Y  c #71665B",
"T  c #73695D",
"R  c #766C61",
"E  c #796E63",
"W  c #7B7165",
"Q  c #7E7469",
"!  c #817466",
"~  c #82766A",
"^  c #86796C",
"/  c #8A7C6E",
"(  c #877C71",
")  c #8B7E71",
"_  c #8D8173",
"`  c #918476",
"'  c #938779",
"]  c #958A7B",
"[  c #998D7E",
"{  c #9B907F",
"}  c #9C8F80",
"|  c #9D9182",
" . c #A39485",
".. c #A49789",
"X. c #A89789",
"o. c #A6998A",
"O. c #AA9B8D",
"+. c #AD9F90",
"@. c #AFA08F",
"#. c #AEA192",
"$. c #B2A595",
"%. c #B4A897",
"&. c #B4A799",
"*. c #B6A99A",
"=. c #BAAD9D",
"-. c #BDAFA0",
";. c #BEB1A2",
":. c #BEB4A9",
">. c #C3B4A5",
",. c #C6B7A8",
"<. c #C8B7A9",
"1. c #C6B8A9",
"2. c #CBBCAC",
"3. c #CCBFB0",
"4. c #CEC3B3",
"5. c #D0C5B6",
"6. c #D1C6B8",
"7. c #D4CABD",
"8. c #D6CDC1",
/* pixels */
"U C M V M A D D J J J P P I I I Y Y T T T W E E W W W W W Q Q Q Q Q W W W E E W W W W W W E E E W W E W W W E W Q Q Q Q W W W o.",
"I r $ # # # # # # # # # # # # # $ # $ $ # $ # # # # # # $ = = = = = & & & & & & & & & & & & # # # # # # O + O + + O + $ $ & 6 ' ",
"I l ; # # $ & & & - - - - - < < 3 3 3 4 4 8 w y u i i a a i $ o o # 9 y 9 9 9 6 7 6 6 6 6 6 6 6 6 6 6 8 8 8 8 w 9 8 6 < = ; y ] ",
"I b 4 = 3 3 4 4 8 w w y u u u b b m m V A G I U T Q Q Q ~ R $     o D I G G F S C C V Z B V V V V Z D F H H L P I L V r 3 6 i ] ",
"U b 8 < 4 w y p a l b n m M A A D J L U R Q _ _ { | X.o.O.[ =     O T / ~ W W R T T U U I U U T T T W ! ^ ^ _ ` _ ( U x 3 8 a ' ",
"I m y 4 w l n n m m V S J J L I Y T ! ~ _ ]  .@.=.;.,.,.>.#.;     $ _  .{ ' ` _ ( ~ ^ ^ ^ _ _ _ ` [ [ |  .O.O.%.&...~ V 8 8 a ] ",
"I m y 4 p b M V S D D J I U T T Q ! _ _ { o.$.-.1.2.4.5.4.=.;     $ [ @.O.X.{ [ [ ] ] [ [ | | | o.O.#.#.$.%.>.,.,.*.' F 9 9 a } ",
"I b y 4 p m Z D D L L L I T R W ~ ~ _ ]  .#.%.;.4.4.6.7.6.;.;     $  .=.%.@.O.X...o.| o.o.o.+.#.@.#.$.%.=.>.1.2.2.-.} L r 9 a } ",
"I m y 8 x B S S J L L I U R R E ~ ` ' { X.@.=.>.3.6.8.8.8.:.;     $ X.;.=.$.O.O.@.X.O.O.#.#.#.#.%.%.=.;.,.<.<.5.4.>.| P y r x } ",
"L m y 8 x V S F F L L I T R R Q ~ _ ' { O.#.=.,.4.4.7.8.8.,.;     & X.>.=.%.@.O.$.O.O.#.#.#.#.#.%.=.>.,.<.2.2.6.6.>.| L r r a ` ",
"J b i 9 a B S G J L I I T T R Q / _ ` [  .#.=.,.3.4.4.7.6.:.;     & ..;.-.%.@.O.O.+.O.+.o.#.#.%.*.=.;.<.,.2.2.6.6.:.} L i 9 x } ",
"J m 9 9 x V D D J L I I Y T W Q ^ / ' [ | O.%.;.1.3.3.6.4.;.;     $ ..>.=.$.@.O.O.O.O.O.O.@.#.$.*.=.;.>.>.<.2.5.4.;.} L y 9 a ( ",
"J b u w x V S D J L I I Y R W W ^ / ` ` | O.$.-.:.2.4.4.3.-.;     $ ..-.&.+.$.O.O.O.o.X.X.O.@.@.%.*.;.,.<.<.2.2.,.-.} F 9 i a _ ",
"J b y 8 x Z S D J J P I T R W W ! ^ _ ` } O.+.=.;.>.1.2.3.&.-     $ | =.$.+.O.O.O.X.X.X.X.O.O.O.%.=.-.>.,.<.2.2.:.-.} F y 9 x ) ",
"M b y 8 x m Z D J J I I U T R E W ~ ( ` [  .@.%.=.=.>.1.1.&.;     $ } %.$.O.O.X.X.X. . . .X.O.O.$.*.=.-.-.>.,.,.:.&.} S i 9 a ) ",
"P b t 8 x m Z S F G J I U Y Y E ! ~ / _ ] | X.$.%.=.;.,.>.#.;     $ ] $.O.X.X.| } | [ { {  . .X.O.$.%.=.=.=.-.-.-.+.( D 9 i a ( ",
"J b r 7 l m D D F F L P I U T R W Q ^ ( ` } | +.#.$.%.-.=.+.;     @ ' X.@.@.{ { { { [ { { { {  . .X.O.$.%.%.=.=.%.O.( S r r a ( ",
"H b y 7 a m m H F F L P I I U R W Q ~ ( ) ` } | X.O.$.%.*.o.;     @ ) @.{ { { [ ] ] ] { { [ { ] {  .X.O.O.#.%.%.$...~ Z 9 r a ^ ",
"M b r 8 l m A A D D G L P I U T R W Q ( ^ _ _ [ { X.@.@.#.| =     @ ] @.{ { ] ] ' ' ' ' ' ' ] { [ { { X.X.X.@.$.#. .W Z 9 r x ~ ",
"L b r 7 a m m Z S S F G L P U U R R R Q ( ^ ( ' [ [ X.O.#.| =     + ) { { { ] ] ` ` ` ` ` _ ` ' [ [ [ {  . .X.O.o.[ R B 8 9 a ~ ",
"D l r 8 a n m A Z S S F G L L U U Y R W Q Q ^ ) ` ' {  .X.[ -     + )  .[ [ ] ' ` _ _ _ _ _ _ _ ` ` ] [ [ {  . .| ] Q Z 8 9 a Q ",
"A b r 4 i n m V Z Z S D G G G I P U T E W Q Q ^ / ` ' { } ' -     O / | [ ] ` ` _ / / / _ _ ^ _ ` ` ` ' ] [ { { | } W B 8 9 a Q ",
"A l r 3 y b m m B Z Z S F F G G P I U T R R W ~ ^ / ` ' ] ) =     O W [ ] ] ` _ / ^ ^ ^ ^ ^ ^ _ / _ _ ` ' ' { { | ' R B 8 9 a Q ",
"A l 9 3 y n m B B V Z S S F G G P L I U U T R W ! ^ / ` ` ^ &     O W ` ` _ / ^ ! ^ ^ ! ~ Q Q ^ ^ / / _ ` ` ] [ } ) T N 6 9 i W ",
"A l 9 3 u l b N B S B S F F F G L L L I I U T R W ~ / / / ! %     O ! ) / / ^ ! Q Q Q Q Q Q Q Q ~ ( ^ ^ ) _ ] ] ' ( U n 6 9 i R ",
"M l 9 4 y l b m B B S S S S S F G L L L P I U R T E ! ^ ^ ! %     O T ) ) ^ ! ! W W Q Q W Q Q Q Q ~ ~ ~ / ) _ _ _ Q U n 7 8 i T ",
"M a 9 4 y p b n N N N B Z S S D F F G L L P U U T T ! ! ~ ! &     O Y / ~ ! ! E W W W W W W W R E W Q Q ~ ) / / ) ^ I n 8 9 i Y ",
"m a 9 4 w p l n m B B B V Z S Z D F D G L P I I Y T T ! ^ T $     O Y ~ ~ ! E ! R R R W R R R R E E W Q ~ ^ / ( ^ W L b 7 8 i U ",
"A a r 3 r a b b m N N N B Z V Z S D F F G P P I U Y R E W Y $     O I ! ! ! E E R T T R R R R R R R E W Q Q ~ ^ ~ R L l 7 8 i L ",
"m a r 3 r u a a n n m m B B V S Z Z S D F L L P P Y Y T T I %     O P W T T T R Y Y T T T U U U T R R E W Q ~ ^ ~ T L l 7 6 y L ",
"m a w 3 8 p a b n n m N B B B B V Z Z S D G L L D H J U T P $     O J T P H H U U U U T U I I U U U U T R W Q Q W U D l 7 6 9 G ",
"m a 8 3 r u a b a n n m N N B B B Z Z B S S D D V V C L T P $     X H Y D D Z K L L U U I L G I I U U U Y R R W R U D l 8 6 y F ",
"c i 7 6 w u u u l x x b n N B B B B Z Z Z Z Z Z m V M D I L $     O D I D V V D F L P P P L P I P P I U U Y T E Y I S l 8 6 9 F ",
"l y 7 1 8 u p l l l l l n n N N N B B Z Z Z Z B m B B A L L $     O D P D V V D F F L F L K P P L L P U U U T Y I L Z l 8 6 r D ",
"l y 7 6 8 r i i u l l l n n m m N N B V Z V V N m B V S J D +     X A P C Z M S F F F F F F L L L F L L I I U U I L C l 8 6 9 A ",
"l r 7 3 w r t u u l l l x m m m N N B B B B N V b m V A H D $     X V P D B m C S S F F F L L K F F L L P I U I L D Z i 7 6 9 A ",
"l r 4 3 7 w i i u u j l l l b b x m N N N N N N B N V S H D O     X C L D S C S D F S F F F F F F F H K L P I I J D m u 7 6 8 V ",
"u w 3 < 7 w r p u l a a l l l b x N x m N N m N B B V S D Z O     o C L F F D S Z S Z F S F S F D F D D L P P L J D m u 4 6 9 V ",
"p w 3 < 7 w r i p p p p p l l b x x x m m m m m B B B Z A V O     X V J J F D C S S S D F Z S F S S F D K K L L J D m u 3 6 9 B ",
"u 4 3 < 7 w r r u p p p l p a l l l x m m m b n N V V Z Z V O     X V J L F D S S S S S S S S S S D S D D K K F D C n y 3 6 6 N ",
"u 4 3 ; 4 5 w y y u u p u l a a l l l x l x x c c N N B B B O     X V D H H A Z Z Z Z Z V B V Z Z Z Z Z C D D D C B l r 3 3 6 N ",
"a 4 3 - < 3 4 4 5 5 0 w w q e q q q q e t t t t d f g j c N O     X V C M M v v k z z z z z z c z z z z k z z z z j e 4 < < 6 N ",
"u 4 3 % * > 1 1 1 1 2 5 5 5 5 2 7 0 0 5 5 q t q 0 0 q s j m O     o M M k k k g f s f f f d g k f f f f f f f f g t 5 1 - < 8 N ",
"y 4 3 % : : > > , 1 1 2 2 5 2 5 5 5 2 2 2 q 0 0 0 q q q j x O     # m M h h h k f s s d d d f j g f f f f f d d s t 5 1 * ; 6 N ",
"r 7 < @ % : > > > 1 1 2 2 2 2 2 2 2 2 2 2 2 2 0 0 0 0 0 g l O     X m b h h d s t e s s q s s s d d d d d d d d t e 0 , * < 6 n ",
"r 7 < @ % : : > > , 1 1 1 1 1 1 1 2 , 2 2 2 2 2 q 2 0 0 t a O     o l c d s s s t q q q q q q q q d d s s s d d t q 4 , * 3 6 n ",
"r 7 < @ % : : : : > > 1 1 1 1 1 2 , 1 2 2 2 2 2 q q q 5 r l o     o l b s s e s e s q s q q q q s q q s e s e d t q 4 , & 6 6 n ",
"r 4 < $ % % % : : : > 1 1 1 1 1 1 2 1 1 1 2 2 2 5 2 2 5 r u O     o a j t e e e q q q q q q 2 0 q s q q s e s e t 0 1 : * ; 6 x "
};
