/* XPM */
static char *animation20[] = {
/* columns rows colors chars-per-pixel */
"64 48 118 2 ",
"   c #000100",
".  c #070806",
"X  c #080806",
"o  c #0B0B0A",
"O  c #120F0E",
"+  c #190F0F",
"@  c #0F100C",
"#  c #11110E",
"$  c #1B100F",
"%  c #131513",
"&  c #1C1412",
"*  c #151816",
"=  c #1C1A15",
"-  c #171919",
";  c #191B1A",
":  c #221614",
">  c #281715",
",  c #251916",
"<  c #281917",
"1  c #251718",
"2  c #221D1B",
"3  c #2C1C19",
"4  c #311D1C",
"5  c #25211D",
"6  c #29231E",
"7  c #31221E",
"8  c #262522",
"9  c #2A2622",
"0  c #2D2924",
"q  c #2D2C28",
"w  c #352422",
"e  c #3B2623",
"r  c #312B26",
"t  c #3D2925",
"y  c #332E2A",
"u  c #392E29",
"i  c #36312C",
"p  c #3A332D",
"a  c #3F382F",
"s  c #353330",
"d  c #3C3631",
"f  c #3E3933",
"g  c #412B26",
"h  c #442D2A",
"j  c #4A2F2D",
"k  c #45322E",
"l  c #4A332E",
"z  c #40382F",
"x  c #443631",
"c  c #4B3532",
"v  c #423B35",
"b  c #4B3A35",
"n  c #443E39",
"m  c #4C3F38",
"M  c #503C37",
"N  c #474037",
"B  c #494037",
"V  c #47403A",
"C  c #4B433C",
"Z  c #55423C",
"A  c #4E4741",
"S  c #4F4841",
"D  c #514744",
"F  c #534C45",
"G  c #584F46",
"H  c #554E48",
"J  c #585047",
"K  c #57504A",
"L  c #5C544C",
"P  c #5E5750",
"I  c #5F5850",
"U  c #60574E",
"Y  c #62584F",
"T  c #605750",
"R  c #645B52",
"E  c #685F54",
"W  c #6B6256",
"Q  c #6D6459",
"!  c #71675B",
"~  c #73695E",
"^  c #766C61",
"/  c #796F63",
"(  c #7B7165",
")  c #7D7469",
"_  c #82766A",
"`  c #85796C",
"'  c #897C6E",
"]  c #8B7E71",
"[  c #8D8174",
"{  c #918476",
"}  c #938679",
"|  c #95897B",
" . c #998D7E",
".. c #9C8E80",
"X. c #9E9182",
"o. c #A29485",
"O. c #A69788",
"+. c #A69888",
"@. c #AB9B8C",
"#. c #AD9F90",
"$. c #AEA191",
"%. c #B2A595",
"&. c #B4A897",
"*. c #B6A999",
"=. c #BAAD9D",
"-. c #BAAFA1",
";. c #BEB1A2",
":. c #C3B4A5",
">. c #C3B7A9",
",. c #C9B7A9",
"<. c #C5B8AA",
"1. c #CABBAB",
"2. c #CDBFB0",
"3. c #CCC0AF",
"4. c #CFC2B3",
"5. c #D1C4B6",
"6. c #D1C6B9",
"7. c #D3C8BB",
/* pixels */
"Q F C F Z J J I U U Y E E W W W ! ! ^ ^ ^ / / ) ) ) ) ) ) ) _ ) ) ) ) ) ) ) ) ) ) ) ) ) ) ( / ( / / / ) ( ( / ) ) ) ( ( ) ) ) +.",
"W u # @ @ @ @ @ @ @ @ @ @ @ @ @ % @ % % * * - - - ; ; ; ; - ; ; ; ; ; ; ; ; - - - ; ; - * % % % o % O o # o o O O o # # @ # 0 } ",
"W v 5 @ # % % % = = = = = ; 5 2 5 5 6 5 o o o o o o o X o X o o o o o o o o o o o o X o ; 0 0 9 9 9 9 0 0 0 0 q y 0 8 2 * ; i } ",
"Q N 6 & = 6 6 6 6 r y u p a a a N V S v                                               . s K H H K H L P U Y R W E R D p 6 8 d | ",
"Q N 0 = 6 y p p f f N N C C H J U U R F .                                               m ! ! ! ^ / ( _ ` ' ' { | ) W v 6 0 d } ",
"Q C p 6 r z N C C S H J I R W Q Q ~ / Y .                                               G ' ] ] ] } |  .o.@.%.*.*.@.` K 0 q f | ",
"W C u 6 a N C F L L I R W ! ~ / / _ ' W .                                               U  . . .X.o.O.@.%.=.:.1.3.-...P q q n ..",
"W C p 6 a C F J L I E W W ~ / ) _ ' ] ! .                                               E o.o.O.@.#.%.=.;.<.1.5.4.;.X.R s q n | ",
"W C i 0 f C K L I I W Q ~ ^ ) [ ' ] { ^ .                                               E @.@.#.$.%.=.-.,.2.2.7.6.<.X.W s s f ..",
"E C p 0 a A H L I W Q Q ^ ( ) ) ' [ | ^ .                                               W #.#.#.%.%.;.:.,.2.6.7.7.<.X.W s s s ..",
"Y C i 7 f F K P R R W ! ^ ) ) [ _ ] [ ^ .                                               W $.$.$.@.%.=.:.,.2.2.7.6.<.X.Q s q n ..",
"Y B i 0 N S K L R W W ! ^ ) ) ) ` ' [ ^ .                                             . Q $.$.#.%.%.*.:.,.2.2.5.4.;.X.Q s q f ] ",
"Y B a 7 v S L P P W Q ! ^ ) ) ) _ ] ] Q .                                             . W @.@.@.%.*.=.:.:.,.1.2.1.-...R s y n ] ",
"Y B y r v S K L P I Q ~ ~ / ( ) _ ` ' Q .                                               E @.@.@.@.%.*.*.:.:.,.1.<.%...R s s n ] ",
"U N y 6 f A K K P I W ! ^ / / ( ( _ ' W .                                               E O.o.@.#.%.%.*.-.:.:.<.>.#.} T s q n ] ",
"U B p r f A K L I R W Q ~ / / / ) _ ' W .                                               E o.o.O.@.@.@.%.%.%.-.;.-.@.] K y s n ] ",
"U B y 6 N S K L P P E Q ! ^ / ^ / ) ) W X                                               W  . . .o.o.@.@.$.&.&.*.&.O._ F r i v ' ",
"L B y r a C H L P R R E Q Q Q ^ ^ ( ) R X                                             . E  . . .o.o.+.+.@.%.&.&.%. ._ F 0 r f ' ",
"U B r 6 f C H K L I R R E W Q ! ^ ^ ( R X                                               Y  . . . ...X.o.O.@.@.#.#. .~ F q i f ` ",
"L B r 6 f C F K J L P P R W W W ! ~ / P X                                             . L  .} |  . . ...o.o.O.@.O.} ~ Z 9 q f _ ",
"L N y 6 p V S H L P P P P R R R W Q ~ L .                                               Z  .} }  . . . . .X.o.o.X.{ ! A 9 q f ) ",
"J v y 6 p N C S H L P L L U Y R E W ! L .                                               L | { } { } | } |  . . ...[ ! A 9 q f ) ",
"J v y 6 i N C S F H L J L R Y Y E Y W F .                                               Z { [ [ { { ] { } }  . .| ` Q V 8 q f ) ",
"J v r 6 y N C C F F H H J L Y Y Y E R D .                                             . Z _ _ ` ' ' ' ] { { { } } _ W V 8 q f ( ",
"J v r 6 p N N C D F F F J J L U U Y Y C .                                               F _ _ _ _ ` ' ] [ [ } } { ) W v 8 q d ^ ",
"F z r 6 i v N C C F F F H J L J L U Y C .                                               C ) _ ( ( ) _ ' ] [ [ { [ ` W V 0 q d ~ ",
"Z f q 6 i f N N C S S F F H H J J L Y Z .                                               C ( / / ( ( _ _ ' [ [ [ [ ) W C 0 q s ! ",
"F a r 6 r d N N C A S S F F H H J I L C .                                             . C ~ ~ / ~ ( ) ) ) ] [ [ ] ) R V 9 q s Q ",
"S f y 6 y p v N C C S S F F F K J J K V .                                               N ! ! ^ ( ( ( ( _ ' ' ] ' ^ P n 9 8 s E ",
"S f q 6 y p p N C C S S S F F F H K F n .                                               B W W W ~ ~ ~ / ) _ ' _ ) ~ L f 9 0 s R ",
"C f q 6 y p a N N V C S S A V V C F F n .                                               N Y L L E ! ! ~ ) ) _ ) ^ Q K f 8 0 y P ",
"C p 0 6 q p a v f N V V A n v f V S F n                                                 a U J J Z U E Q ~ ) ) / ! W K f 0 8 q I ",
"V p 0 5 q i d f n n b V n v v p f C A n .                                               f I F A S L R E ! / / ^ ~ W K f 8 8 y P ",
"n p 9 5 q i d f v N V N v f p f v n A v .                                               s P F A A L L R Q ! ~ ! ! R F f 0 8 q L ",
"v u 9 5 0 i p d v v n v z p p f f n C f                                                 s K S A F K L R W Q ~ Q Q R S f 9 8 q L ",
"z y 9 2 0 i i d a v v z v v p p f v n p .                                               s H F A H H K P R W Q ~ Q I S f 0 8 q H ",
"v y 6 5 9 y i p f f f f v f p p v v C d                                                 s H D D D F K P R E Q Q W P A d 8 8 q H ",
"p y 6 , 9 y u p i d p f p v x f v v n d .                                               s H H F H H K L P E W E R P A s 6 5 q F ",
"p r 5 = 6 r y i i d f f p v v f v v v p                                                 q S F H H H H L P R E E P K C p 5 8 q S ",
"p 0 5 5 9 0 y u p d p p p p f v f v v i .                                               q S F F H F H J P R R R P K V p 5 5 q A ",
"p 0 5 , 6 q y y u p u i i p p v d d x i                                                 y D D F F H H K U T U U L F n u 5 8 8 A ",
"p 0 5 & = 3 3 6 7 7 7 e 7 e e 7 w w p y .                                               y C x c c c c c M Z Z Z C b k 9 2 2 8 A ",
"p 0 5 & & 1 3 < 4 3 4 7 7 4 4 4 4 3 u r .                                               r b g h h j h h j c c c c k t 6 ; 2 0 A ",
"i 6 2 $ & : > < < < < 4 4 3 4 4 4 7 u 0                                                 0 c g g g h h h h j l l x h t 3 1 ; 8 A ",
"u 9 2 $ + : : > < < < 3 3 3 3 4 3 3 u 0                                                 9 v g e t g g g g h h h h t w 2 & 2 8 V ",
"i 9 2 $ $ : : : > < < < < 3 3 3 3 3 w 9 .                                               6 z e e e e t t t g g g t w 7 4 & 2 8 V ",
"q 9 2 + + & : : : > < < < 3 3 3 3 3 w 9                                                 6 z e w w w t e t g g t e r 6 1 & 8 8 V ",
"0 9 , + + : : : : > > < < < < 3 3 3 9 9 .                     .                         6 z 4 w 4 w e e t t t e w 7 4 2 & ; 8 V "
};
