/* XPM */
static char *animation22[] = {
/* columns rows colors chars-per-pixel */
"64 48 113 2 ",
"   c #000100",
".  c #0B0B0A",
"X  c #120E0D",
"o  c #0F100C",
"O  c #12110E",
"+  c #1A110F",
"@  c #141512",
"#  c #1B1512",
"$  c #1B1916",
"%  c #171919",
"&  c #1A1B19",
"*  c #221614",
"=  c #261916",
"-  c #281917",
";  c #221E1B",
":  c #2C1C19",
">  c #301D1B",
",  c #25211D",
"<  c #2A231E",
"1  c #32221E",
"2  c #262422",
"3  c #2A2622",
"4  c #2D2924",
"5  c #2D2C28",
"6  c #332421",
"7  c #3A2622",
"8  c #322B27",
"9  c #3C2925",
"0  c #332E2A",
"q  c #3D2D28",
"w  c #36312C",
"e  c #3A332E",
"r  c #353330",
"t  c #3C3631",
"y  c #3E3933",
"u  c #402A26",
"i  c #442D2A",
"p  c #482E2C",
"a  c #43312C",
"s  c #4A312D",
"d  c #443530",
"f  c #4A3431",
"g  c #423B35",
"h  c #4B3B36",
"j  c #443E39",
"k  c #4E3D38",
"l  c #513C37",
"z  c #494037",
"x  c #46403A",
"c  c #4A433C",
"v  c #56423D",
"b  c #4D4641",
"n  c #4F4841",
"m  c #514742",
"M  c #524C45",
"N  c #584F46",
"B  c #554F49",
"V  c #584F48",
"C  c #585047",
"Z  c #57504A",
"A  c #5C534C",
"S  c #5E5750",
"D  c #5F5851",
"F  c #60574D",
"G  c #62594F",
"H  c #615750",
"J  c #645B53",
"K  c #685F55",
"L  c #6B6256",
"P  c #6D6459",
"I  c #71675B",
"U  c #73695E",
"Y  c #756C61",
"T  c #796F64",
"R  c #7B7166",
"E  c #7D7469",
"W  c #807567",
"Q  c #82766A",
"!  c #85796D",
"~  c #897C6F",
"^  c #8B7E71",
"/  c #8D8274",
"(  c #8F8678",
")  c #918577",
"_  c #938678",
"`  c #95897B",
"'  c #998D7E",
"]  c #9A907F",
"[  c #9B8E80",
"{  c #9D9182",
"}  c #A29485",
"|  c #A69788",
" . c #A7998A",
".. c #AB9B8D",
"X. c #AFA191",
"o. c #B2A595",
"O. c #B5A897",
"+. c #B5A798",
"@. c #B6A999",
"#. c #BAAD9D",
"$. c #BEB09F",
"%. c #BDAFA0",
"&. c #BEB1A1",
"*. c #C3B5A5",
"=. c #C8B7A7",
"-. c #C4B7A8",
";. c #C7B9AA",
":. c #CBBCAC",
">. c #CCBEB0",
",. c #CEC2B2",
"<. c #D1C7B6",
"1. c #D2C7B9",
"2. c #D2C9BA",
/* pixels */
"P N c M N C C A G G G K K L L P U U Y Y T T T E E E E E E E Q E E Q E E E E E E E E E E E E E T E R T R R T R E E E E R R R E  .",
"L 0 O o o o o o o o o o o o o o @ @ @ % @ % % % % % % & % % % % & & & & & & % % % % % & % @ @ @ @ O O . X O . X X . o o o @ 4 ( ",
"L z , . O O @ $ $ $ $ $ $ $ , ; ; , @ . . . . . . . . . . . . . . . . . . . . . . . . . . o 3 4 2 3 2 5 4 5 4 5 8 5 3 ; % & w ` ",
"P z < # $ , , < < 0 0 0 e e y g j x #                                                     O n B Z Z A S A J J K L D m e , 2 t ` ",
"P z 8 $ < 0 w e y j z c c c C C A H ;                                                     # J I U R W W ! ~ / ( ( ! K j , 4 y ` ",
"L c w , 8 y x c c c C C G J J L K U ;                                                     $ W ^ ^ ) ' ] } ..X.+.+...~ B 4 5 y ` ",
"L c w < e z c M C G J J L U I U T T 3                                                     ; ^ ' { } | ..o.+.&.-.:.%.[ H 5 5 y [ ",
"L c e < t c N C G J J K U U Y R R W 4                                                     ; ` | ....o.#.$.-.:.,.,.*.{ K r r y ` ",
"L c e < y n B B S J L P U T E E Q ! 4                                                     , [ ..o.o.@.#.=.:.<.1.1.;.{ K r 0 x [ ",
"K c e 4 y n B S J L L U T E E ! ~ ~ 4                                                     2 [ X.o.O.@.*.;.:.<.2.1.;. .K r r y [ ",
"G c r 4 j n B S S L L U R T T E Q ~ 4                                                     ; { X.o.O.@.$.;.:.>.1.,.;.{ K r r j ( ",
"G c w 5 g n S A J L L U T T T E W ! 4                                                     , { X.o.O.@.#.-.:.>.>.,.*.[ J r r j ^ ",
"G c e 8 j n Z A S L P U T T T R E ! 4                                                     2 { X.X.o.@.#.*.=.:.:.>.%.[ H r 5 j ^ ",
"F z w 4 y M Z A S L P U U Y T R R Q 3                                                     ; [ ..X.o.@.#.*.=.:.:.;.%.^ H 5 r x ^ ",
"F z w < y c B Z J K I U U U Y T R E 4                                                     ; [ | ..o.o.@.%.%.*.*.*.o.^ S 0 r j ^ ",
"F z w 4 y n Z S S K L U U U U T R E <                                                     ; _ }  .....o.+.+.%.%.%...! B 5 r j ^ ",
"F z 8 4 y c C C S J L L U U U Y Y T 3                                                     ; ( { } ......o.O.O.O.O.| Q N 8 0 j ~ ",
"F z w 4 z c C C S J K K K L P U Y Y 2                                                     & / ] { { | ....X.X.O.O.] W m 4 8 y ! ",
"F z w 4 y b C Z A S S L J K P P U U 2                                                     & / ' ' ] } } ....X.X...' W l 5 5 j ! ",
"v z 0 4 y c M Z Z A A G K J L P P U 2                                                     $ ^ ) ' ' ' ' ] ..] ...._ W l 4 0 y E ",
"A x w < r x M B Z A A S D G G K P P <                                                     $ ~ ) ) ' ' ] ] ] ] ] { ( P b 3 0 y E ",
"C g 0 < r x c M Z Z A S A D G K L L <                                                     $ ! ( ) ` ' ' ' ' ] ] [ / P b 3 5 y E ",
"C z 8 , w z c B B C C A A A A G D G ,                                                     $ T / / ) ) _ ` ' ` ' [ ~ P j 2 5 y E ",
"C y w , w x c c M v C C A A D D G G ,                                                     * U ! ~ ^ ^ ^ / ) ) ' _ E P j 2 5 y T ",
"C y w , w z z c c M M N B C A A F F ,                                                     $ U W ! ! ! ~ ^ / ( ( _ Q L j 2 5 t T ",
"N y 0 < w g z z c M M M N B C A A A ;                                                     # I R E Q E ! ! / ( ( / Q P c 4 4 t I ",
"v y 5 < w y y z c n M M n M B C C A ;                                                     % P T T T R Q ! ^ / ( / Q L x 5 5 t P ",
"c y 0 , 8 y z z c c n n M N B Z A B ;                                                     # L I T T E ! ! ! / ( / R K x 3 5 r P ",
"C g 0 , 0 t z z c c M n M M M Z M M ;                                                     + K I U T W W E ! Q / ! T J x 3 5 r J ",
"c y 5 < 8 t y z c c c M n c M M M M &                                                     + G L L I U T T E Q ^ ! U A y 3 2 w J ",
"c y 5 , 8 e z z c c c c c x x c m M &                                                     @ F G A K I Y Y E Q Q E P Z y 2 2 w S ",
"c y 5 , 8 e e y x x x c y y y c m c $                                                     O A F M A N K P Y E E Y L Z y 4 2 w A ",
"z e 4 , 4 e t y y z z g t t t z x b $                                                     @ B S b B m J J I T T U J Z g 4 2 5 D ",
"z e < , 4 w t y x z g t r t w g j b $                                                     @ B Z b B m D D L U U P J Z y 4 2 5 S ",
"z w 4 , 8 w t t y g y t r t t d h c $                                                     O m Z c Z M A D L P I L D B t 4 2 5 A ",
"y 0 < , 4 0 e t y y t y e e e t j x %                                                     @ b m b M M Z S J L P L D n y 2 2 5 C ",
"y w < , < w r e t t e t t e t g j x $                                                     O b B n n M Z S D L L J S m t 4 2 5 M ",
"t 8 , $ < 8 w e t t t t t e t g g j $                                                     O b n B Z B Z S D J L J S n t , 2 5 M ",
"t 8 , , < 0 0 w e e t e t t e g g y #                                                     @ b n B B B Z A D L L D Z b w 2 2 5 M ",
"e < , , < 8 0 e e e e e t y d g y d @                                                     . c m B B B Z A D D J S Z c w , 2 4 n ",
"e < , = , 4 0 0 0 e q w w t t t t t #                                                     X x m M M M B V F H H Z M h e 2 , 4 b ",
"e 8 , $ = ; < 1 1 1 6 6 6 6 1 6 0 t @                                                     X x h f f k k l l v v k j q 4 ; ; 2 b ",
"r 4 , + + * - - : > > > : > > > 6 r @                                                     X z a i i p p p p f f f d 9 < % 2 2 b ",
"e < , O * * * - - : > : : : : < 6 q X                                                     X g a 9 i u p p p p p a i 7 < $ ; 2 b ",
"w 4 ; + + * * * - - - : : : : : < 8 X                                                     o y e 7 9 9 i i i i i i 9 6 ; * ; 2 x ",
"0 < ; + + * * * - - - - : : : : 1 9 X                                                     o e q 7 7 7 9 7 u u u 7 7 > - # ; 2 x ",
"0 < = O + * * * - - - - : : : : < 0 X                                                     o e q 7 7 7 7 u u u u 9 6 > ; # 2 2 x ",
"0 < * + + + * * * - - - : : - - : 0 X                                                     . e 9 > 6 6 7 9 u u 7 7 1 > * # & 2 x "
};
