/* XPM */
static char *animation3[] = {
/* columns rows colors chars-per-pixel */
"64 48 120 2 ",
"   c #0F0E0D",
".  c #110F0D",
"X  c #190F0E",
"o  c #0F100C",
"O  c #11110E",
"+  c #1A100F",
"@  c #131512",
"#  c #1C1312",
"$  c #1B1A15",
"%  c #1D1D19",
"&  c #221513",
"*  c #251915",
"=  c #281917",
"-  c #221D1A",
";  c #2D1D1A",
":  c #311E1C",
">  c #25211D",
",  c #29231F",
"<  c #33211E",
"1  c #262522",
"2  c #2A2622",
"3  c #2D2925",
"4  c #2E2C29",
"5  c #352420",
"6  c #3A2623",
"7  c #312B26",
"8  c #3D2926",
"9  c #332E2A",
"0  c #3D2C28",
"q  c #36312C",
"w  c #3A332D",
"e  c #373431",
"r  c #3C3731",
"t  c #3E3833",
"y  c #402B27",
"u  c #432D2A",
"i  c #492E2C",
"p  c #44312D",
"a  c #4A322D",
"s  c #453531",
"d  c #4D3632",
"f  c #433B35",
"g  c #4B3B36",
"h  c #453E39",
"j  c #4C3D38",
"k  c #503632",
"l  c #503B37",
"z  c #523C39",
"x  c #484037",
"c  c #47403A",
"v  c #4B433C",
"b  c #54423C",
"n  c #4E4741",
"m  c #4F4942",
"M  c #544740",
"N  c #534C45",
"B  c #584D44",
"V  c #554F48",
"C  c #584F49",
"Z  c #595046",
"A  c #57504A",
"S  c #5C544C",
"D  c #5E5750",
"F  c #5F5851",
"G  c #60574D",
"H  c #61584E",
"J  c #605750",
"K  c #645B52",
"L  c #685F54",
"P  c #6B6256",
"I  c #6E6559",
"U  c #70665B",
"Y  c #73695D",
"T  c #766C61",
"R  c #796F63",
"E  c #7B7165",
"W  c #7E7369",
"Q  c #807467",
"!  c #82766A",
"~  c #86796C",
"^  c #897C6E",
"/  c #877C70",
"(  c #8B7E71",
")  c #8E8173",
"_  c #918476",
"`  c #938779",
"'  c #958A7B",
"]  c #998D7E",
"[  c #9B8F80",
"{  c #9E9182",
"}  c #A29485",
"|  c #A59688",
" . c #A89788",
".. c #A6998B",
"X. c #AA9B8D",
"o. c #AD9F90",
"O. c #AEA08F",
"+. c #AEA192",
"@. c #AEA498",
"#. c #B2A595",
"$. c #B5A897",
"%. c #B6A999",
"&. c #BAAD9D",
"*. c #BDB09F",
"=. c #BCAFA0",
"-. c #BEB1A2",
";. c #C3B4A4",
":. c #C8B6A6",
">. c #C6B7A9",
",. c #C8B7A8",
"<. c #C7B8A9",
"1. c #CABBAC",
"2. c #CCBFB0",
"3. c #CBC0AF",
"4. c #CEC3B3",
"5. c #CFC5B9",
"6. c #D0C5B6",
"7. c #D1C6BA",
"8. c #D4CABD",
"9. c #D7CDC2",
/* pixels */
"I B v N b Z S S S H H L L P P P Y Y Y Y Y Y R E R E E E E W W W W W E E E E E R E E E E E R E R E R R E E E T E E W W E E E W ..",
"P 9 O o o o o o o o o o o o o o O O o O O O o o o o o o O O O O O o @ @ @ @ @ @ @ @ @ @ @ @ O o           o o . .   o o O @ 1 ` ",
"P f > o O @ @ @ $ $ $ $ $ $ % > > > , , 3 7 7 7 w w e t e e w 4 4 q 9 4 4 3 4 1 2 2 2 2 1 1 1 , 2 1 1 3 3 3 3 4 4 7 2 - $ % q ' ",
"P x 2 + % , , , 3 7 7 9 w w r t x v v b Z G P I T E W W ~ W E P S Y P P F D S A Z N N N m m V N A A S S F H H P L S N w > 1 e ' ",
"I x , > , 7 e r f c x x x v b G S G L P Y Q ~ _ ] { ..X.X...} ~ R ` ) ~ ~ E E T Y U P P I P I Y Y T Q Q ~ ~ ^ ) ` / P h > 2 e ' ",
"P v q , 7 t v v v v b Z Z K P I U Y Q ~ _ ` ..o.%.-.;.<.,.;.-.{ ` #.X.} { ' ) ( ( ^ ^ ( ^ ^ ) ) ` _ ` ] |  .O.$.$.{ ~ m 2 4 t ' ",
"P v q , w v b N S S Z H L I I R Q ! ( _ [  .o.=.<.1.5.7.6.4.1.X.{ ;.%.#.X.} { ' ' ] ] { ] { { .. . . .O.#.&.*.;.>.%.` S 4 4 h [ ",
"P x q , w v V A S H H P P I Y E ! ^ ) ' { X.$.:.1.4.8.8.8.8.3.+...:.;.&.$.#.X.......X. .X. . . .X.O.#.$.*.;.,.1.2.-.[ K q 4 t ` ",
"P v q 3 t N A S H F L P P Y R E ~ ^ _ ]  .O.%.:.3.4.8.9.9.9.5.@...2.,.=.&.#.#.o.o.o.o.o.o.X.X.+.@.$.%.*.-.1.3.4.4.-.{ K q 9 h ` ",
"L x q 3 t m A S H K L P I T R Q ~ ( _ ]  .#.&.;.3.6.9.9.9.9.5.@.X.4.:.;.%.#.#.o.o.o.o.o.o.o.#.#.$.*.-.-.;.<.4.5.5.-.{ K q 4 t ` ",
"H x q 3 f N A F F P L P I T R Q ~ ( _ ]  .X.$.;.1.4.8.9.5.5.5.o.X.2.1.;.$.#.#.#.o.o...o.o.o.#.#.%.*.*.*.;.3.4.4.5.-.{ K e 4 c ` ",
"L x q 4 f N A F K K P P Y T E E ~ ( _ ] } X.#.;.,.3.5.5.6.6.2.o...2.:.=.$.#.o.o.X.X.X.o.X.X.#.$.$.&.%.*.;.1.4.4.4.-.] K 4 e t ) ",
"H x w 3 f N S F K K L P I Y T W ^ ^ _ ' { } #.=.;.1.6.6.6.4.1.o...2.;.&.$.#.o.o.o. . . . .X.+.#.%.&.&.-.;.1.1.1.2.=.[ F 9 e t ) ",
"H x 7 3 t N S S F K L P I Y R Q ! ^ ^ _ ] { o.%.-.1.1.1.2.1.,.X.{ >.=.%.#.#.X. . ... . . .X.X.#.%.*.*.-.;.<.,.1.1.=.` F q 4 t / ",
"H x w 3 f V A S S K L P I Y R R Q ! ^ ) ' { X.#.=.,.;.1.:.:.:. .{ -.=.$.#.o. .....} } } } | X.#.$.%.$.%.-.-.;.<.-.@.) D 4 4 t ) ",
"Z x 7 5 f v A S F H K L P I T R R Q ~ ) ` ] ..o.%.-.,.;.;.:.;.| [ =.@.@.X. ...{ [ [ ] } } { .. .+.$.+.$.%.%.-.>.-.+.( D 4 e h / ",
"H x 9 3 x v Z S F F P P P I Y T R W ~ ^ ) ' { X.#.&.*.*.*.-.&.{ ] $.$.O.O.} ] ] ] ] ] ] [ [ [ [ | X.+.+.$.$.$.&.*.O./ A 4 q t ~ ",
"H x 9 3 w v N Z S K F F P I U Y R W ~ ^ ) ) ' { X.O.O.$.&.&.$.] _ #.O.O. . .] ] ] ] ] ' ' ' [ [ { { | ..O.O.#.$.%.{ ~ V 4 4 t ~ ",
"b x 9 3 t v N Z A F F F K P I U Y E ! ~ ^ ) _ ] ] X.X.O.#.#.O.' _ #.O.] ] ] ] ' ` ` ` ' ` ' [ [ ] { { } X.O.O.#.+.{ W m 4 9 h ~ ",
"H x 9 3 t v N V A S S F F P P P Y T E E ~ ^ ) _ ' }  . .O.X.O.` ( X. . .] ] _ _ _ ) ` ) ) ` ) [ ` ] ] ] { |  .O.O.' E V 4 9 t W ",
"S t q 3 r v N N V A S S F F K P I Y Y T W ~ ^ ) _ ' ] ] }  . .) ( X. .} ] ] ' _ ) ) ^ ) ( ) ) ) _ _ ' ' ] { { ..o.{ E N 3 4 t W ",
"Z x 4 , e x v v V A A S D F K P P P I Y E W ~ ^ ( _ _ ] ] } ] ) (  .} { ] ' _ ( ^ ) ^ ^ / / ( ) _ _ _ ' ' ] { X.o.{ R n 3 4 t W ",
"A x 7 , q c v v m V V A A D D F L L P U Y E W ~ ~ ) _ _ ] ] _ Q Q } { [ ' _ ^ ^ ^ ^ ~ ~ / / / / ^ ) ) _ ' ' ] X.| ` T v 4 4 t E ",
"Z t 7 , q x v N m N V A A S D F K L P I U Y Y R Q ~ ) _ _ ` ) Q R ] ' ` _ ^ ^ ^ Q ~ Q Q W W W W ~ ^ ^ ^ _ _ ] ] [ ` I n 1 4 e R ",
"Z f 7 > 9 x x v N V V V A S D F H P P P P I Y T E Q ^ ^ ) ) ( Q T ' ` _ ^ ^ ~ ~ W W W W W W W W W ~ ~ ^ ) ) ` ' ' / P h 1 4 e Y ",
"N t 3 , 9 x x v v b N V A A S S H H H L P P I Y T E Q ~ ^ ^ ^ Y Y ` _ ( ^ Q Q Q W W W W E W W E W W Q ~ ^ / ( ' ` W P x 3 4 e Y ",
"b t 7 , q x x x v v m N V V A S F S H K L L P I Y E E Q ~ ^ ~ Y U _ ^ ^ ^ Q Q E W W E T T T T W E E W ~ ~ ~ ^ ) ) E L c 3 4 t I ",
"N t 7 , 9 r t x v v m m N V V A Z S F K J K P I Y Y Y E Q ~ ~ U I ^ ^ ~ ! ! E R E E T T T T T T Y Y W Q Q ~ ~ / ^ E J x 2 4 e P ",
"N r 7 > 9 t f x v v v N m N N A A A S S F K P P U Y T E W W E P P Q ~ ~ ! Q E T T T T Y Y Y Y Y T R R E W W ~ ~ ~ R F f 2 3 e K ",
"v r 7 > 9 r t t x v v v m v N V V A A S F F L P P Y Y T T T R L H W E R R R T Y T U T U I I I I Y Y T T E W ~ ~ W Y S f 2 1 q J ",
"v r 7 , 7 r t x v x x v v m N N m V V A S S F H L P G H I Y T L H E I K F I U I Y U I P P P P P P I I T R R W W W Y S h 3 1 q F ",
"v r 3 , 7 q t x x c c v v m m m m N m A V A S S G F A S Z I T G G Y L S S F L P P I P P F P P P P P P U T T R E R U S h 3 1 9 S ",
"c w 2 , 7 w r f t f h x x v v m m m N N V V V S D S N C C K I J Z U K Z A S F P P L L K L P K K L L P P U Y R T T P S f 3 1 4 S ",
"x q 2 , 7 w r r f f f f c x v v m m m N V A A S V V M V M J K D Z I K A V S F F L K D F K K K K K K P L P U U Y I P V t 3 1 4 S ",
"f q 3 > 7 q w w t t t h f c v v n n n m N V V V N N n M V D K C b I F N A A F F J J D D K K D D D D K L P L P U I L V t 2 1 4 S ",
"f 7 , > 3 q w w w r f f t h c x n n n n N N N n N N n n N S D N b I F N v N S S D D D F F F D D D D F K L L L U P J N t 2 1 3 C ",
"s 7 , > 3 9 w w r r r f x f x t c h n n n m m N m N N N A S D N m P P S S S S S D D D D D D A D S S D J K K L L K D n t 2 1 3 N ",
"r 7 > > 2 7 q q w s f f r x f x c n h n h n n n m N N N A S D N v P F F F F S S A D A A A D D A A S J J K K K K F V v q 2 1 4 N ",
"r 3 > % , 4 7 q w r r r r t x t h h c c v n v n m m V V A S A n m P P F H S S S D S S A A A A V A A S D J J K K D V v q > 1 4 m ",
"w , > > , 7 7 q q w r r t r r x h f h h h v v v n n N V A A A n v F K P H F S S S A A A A A A V V C C C C G G J D N h q > 1 1 n ",
"w , > $ , 3 q 7 q q w r r t x t f f t f x x h h h j n N N N V n v F H H G S S C C C N N N V V m V m M V A A S S V m f 9 - 1 3 n ",
"r 7 > + * , < , < < < < 9 < < 8 8 6 6 8 0 0 0 p p i p s s d n n v S b b b b l g l j g g g j g g d d d d d z z z j s 0 2 - - 1 n ",
"q 3 > + & = > ; ; ; ; : < < < < 5 < < 5 < < < 8 6 6 6 6 0 u z j v Z k k k k a u i p i i a a p u i i u u i i i i u 8 5 = # - 1 n ",
"q , > + & * = * ; = = : < < < < , : < < < < < < 6 6 6 6 8 8 d h x b a k a k a u 0 p u u u p p u u u u u u u p p u 8 < = # % 1 n ",
"9 3 - + + * * * * = = = ; < < : ; : < : < : : : 5 6 6 6 6 6 s h f v a a p a p y 0 8 6 u u 8 u u u i u u u u u u u 6 : = $ - 1 c ",
"9 2 - X + & * * * * = ; ; ; : ; ; ; : ; : : : : : 5 : 6 6 6 s t f v u u u u u 8 8 8 6 6 6 6 y 8 u 6 6 6 8 0 u u 0 5 , = # - 1 c ",
"9 1 % X X & & * * * * = ; ; , : ; ; ; : ; : : : : 5 5 5 5 5 p t t j u u u u u 8 8 8 6 6 6 6 6 8 u 6 6 u 0 u u u 8 5 : & # % 1 c ",
"7 1 * X X & & & * * * = = ; ; ; ; ; ; ; ; : : : : < < < 5 5 u e r s 0 y 8 y 8 8 6 6 6 5 5 5 6 6 6 6 6 6 6 0 u 0 5 5 = - # 1 1 c "
};
