/* XPM */
static char *animation11[] = {
/* columns rows colors chars-per-pixel */
"64 48 117 2 ",
"   c #010201",
".  c #090906",
"X  c #0C0C0A",
"o  c #110F0E",
"O  c #190F0E",
"+  c #0F100C",
"@  c #11110D",
"#  c #1C100E",
"$  c #131513",
"%  c #1C1412",
"&  c #1B1915",
"*  c #161818",
"=  c #1B1B19",
"-  c #231513",
";  c #251916",
":  c #2A1917",
">  c #221D1A",
",  c #2C1C19",
"<  c #321D1D",
"1  c #25221E",
"2  c #29231F",
"3  c #33211E",
"4  c #262522",
"5  c #2A2622",
"6  c #2D2925",
"7  c #2E2C29",
"8  c #362422",
"9  c #3A2523",
"0  c #312B27",
"q  c #3D2926",
"w  c #332E2A",
"e  c #3D2C29",
"r  c #36312C",
"t  c #3A342E",
"y  c #373431",
"u  c #3C3631",
"i  c #3E3833",
"p  c #412A26",
"a  c #432D2A",
"s  c #492E2C",
"d  c #45322E",
"f  c #4A312E",
"g  c #4A3331",
"h  c #423B35",
"j  c #4C3B36",
"k  c #443E39",
"l  c #4C3E39",
"z  c #503C39",
"x  c #494036",
"c  c #47403A",
"v  c #4B433C",
"b  c #4F483F",
"n  c #4D4740",
"m  c #4F4841",
"M  c #534540",
"N  c #534C45",
"B  c #584E46",
"V  c #554F48",
"C  c #575047",
"Z  c #585047",
"A  c #57504A",
"S  c #5B534C",
"D  c #5F5750",
"F  c #5F5851",
"G  c #61564C",
"H  c #62584E",
"J  c #605750",
"K  c #645B52",
"L  c #685F54",
"P  c #6B6256",
"I  c #6E6559",
"U  c #71665B",
"Y  c #736A5E",
"T  c #786D5F",
"R  c #766C62",
"E  c #796F63",
"W  c #7C7165",
"Q  c #7E7469",
"!  c #817467",
"~  c #82766A",
"^  c #86796D",
"/  c #897B6E",
"(  c #8B7E71",
")  c #8E8273",
"_  c #918576",
"`  c #938779",
"'  c #95897A",
"]  c #998D7E",
"[  c #9B907F",
"{  c #9B8E80",
"}  c #9E9182",
"|  c #A39485",
" . c #A89687",
".. c #A59789",
"X. c #A89788",
"o. c #A6998A",
"O. c #AA9B8C",
"+. c #A59E92",
"@. c #AD9F90",
"#. c #AFA08F",
"$. c #AFA192",
"%. c #B2A495",
"&. c #B5A897",
"*. c #B5A798",
"=. c #B6AA99",
"-. c #B9AD9D",
";. c #BCB09F",
":. c #BDAFA0",
">. c #BDB1A1",
",. c #C3B4A5",
"<. c #C5B7A8",
"1. c #C6B8A9",
"2. c #CBBCAC",
"3. c #CDBFB0",
"4. c #CCC0AF",
"5. c #CDC3B2",
"6. c #D0C8B7",
/* pixels */
"I B b b N C Z S G G H L L L P P U U Y Y R R R E W W W Q Q Q Q Q Q Q Q Q W E E W W W E E W W W E W W W W E E E W Q Q Q Q W W W o.",
"P w @ + + + @ + + + + + + + @ @ + + o @ @ o @ @ X $ $ $ * * = * = = * * * $ $ $ $ $ $ $ $ $ + + X X X o o o o X X o @ X + $ 5 ` ",
"P h 1 X + @ @ $ & & & & & & 1 & 1 1 1 4 6 7 0 r r y u r X . . . X X X X 4 7 7 4 6 5 5 5 4 4 4 5 4 4 4 6 6 0 0 0 w 6 5 > & = r ' ",
"P x 2 & 1 1 2 5 2 0 0 r t u u h k c n V Z S L I R E W P .               k F S S Z N N N m A N N N V Z D H H K L L K N r 1 4 y ' ",
"P x 0 ; 2 w r t i h c v v b N C Z H P I E Q / ` ] } +.~ .             . S Q E R Y Y U U I I I I Y Y T ! ~ / ( _ _ ^ L k 1 6 i ` ",
"P v w 2 w i c v b N Z Z S G H P U R W ^ ) ' ..$.*.-.>.} .               P ' _ ( / / / ^ ^ ( ( ) ` ' ] | o.O.%.%.%...~ N 6 6 i ' ",
"P v w 2 t x b m N S H L P P U Y W ~ ( ' } O.*.>.,.2.2.} X               E  .{ ] ' ' ` ` ' ] } | o.O.%.%.=.-.>.,.1.-.` S 7 7 i { ",
"P v r 2 t b m C S G H P I U Y T Q ^ ) { } @.>.>.2.3.5.+.o             . ~ #.o. ...| | } ....O.@.%.%.%.-.;.,.1.2.3.:.{ J y 7 i { ",
"P v r 6 i n A S D F L P P U E ~ ^ ( ` { ..$.:.<.3.5.5.$.X               ~ =.$.O.O...O.O.O.@.%.%.&.&.-.:.1.3.3.3.3.,.} P y w k { ",
"L x r 6 i n A S S K L P I R E ~ ( ) ' } o.$.>.1.2.5.6.+.X             . Q =.%.@.O. .@.O.@.@.%.%.&.-.:.1.2.5.5.6.5.,.} K y 7 i ) ",
"H x t 6 i C A S F K L P U Y W ! / ( ` } o.%.:.>.>.5.5.+.X               ~ =.%.#. ...o.@.O.%.@.%.&.-.,.,.1.4.3.3.5.>.} P y y k { ",
"H x t 7 i m A S K K P P U Y W ! ^ ) ) ] | $.-.:.>.2.2.o.X             . ~ =.%.O.o. ...O.O.O.@.%.&.-.,.1.2.2.3.3.3.:.{ K 7 7 i ( ",
"H x t 0 x b C S D H L P Y T W ! ~ / _ ] | @.%.:.>.<.2.} X               ~ =.#.O.O.O.o.O.O.o.O.#.%.&.;.,.2.3.3.3.2.:.{ F y y i ( ",
"H x r 3 h m C A D H P U U Y T W ! / _ ' } o.@.%.>.>.1.} X               Q %.O. . .o..... .O.O.#.#.&.&.,.1.3.2.3.2.:.( D 7 7 k ( ",
"S x w 6 i b C S D H P P P U T T ! ^ ( ` { o.o.@.$.:.>.} X             . W @... . . .| | .. . .O.#.#.&.,.<.1.<.<.,.@.( D 7 7 k ( ",
"S x t 3 i b C Z D K L P P U Y T W ^ ( _ { | ..+.$.:.>.} .               E o. .| | { { { { | |  .O.O.#.&.:.,.,.,.>.@.( A w y i ( ",
"G x w 6 h b Z Z S D K P P U Y R W Q / ( ' { ....O.%.%.` X               T  .[ [ ] ] ] ] ] { } | | X.O.#.%.-.-.&.:.X.^ N 0 r i / ",
"S x t 2 t b V Z D K K K P I Y R E W ~ / ) ) ' { | O.$._ .             . Y  .[ ] ' ] ' ' ] ] } { [ | | X.O.#.%.%.%.| ~ B 0 r i ~ ",
"S x 0 6 u n m V A F K K L I Y Y R E Q ~ / ( ) ' | | o.( X               Y | ] ' ` ` _ ' ' ' ' ] [ [ | | O.O.#.#.#.[ ! M 7 w i ^ ",
"S x 0 2 u v n V Z S D F K L P I R R E W Q ( ( ) ] ] ..^ .               U [ ' ' _ _ _ _ ( _ ` ' ' ' [ [ [ | X.X.X.] T b 7 w i ~ ",
"S h 0 2 r v b N V A S D K K K P U R R T E ~ ~ / ) ' } ~ .               P [ _ _ ' _ _ ) ( ( ` ( _ _ ' ] ] ] [  .} ` R n 7 7 u Q ",
"S h w 2 t k b n N V A S D K F P U U Y T R E W ~ / _ ` W .               P ] ' _ _ / / ^ / ( ( ( ) ) _ ' ] ] [ [ } ) U n 7 7 u Q ",
"B h w 2 r k v b m V V S S D F K L P U U Y E W ! ~ / ( R .             . L _ ) ) ) ) / / / ^ / / / ) ) ) _ ] ] ] { ) U n 7 7 u Q ",
"Z h w 2 w h v v m m V A S D F F K L L P I U T W ! / / U .               H / / / ^ ! ! ^ ~ ~ ~ ~ ~ / ^ ) ) _ _ ' ' ^ U v 4 7 y E ",
"B h 6 2 r h x v b N V Z A D D F K K L L P I U T ! ! ! I .               G / ^ ~ Q W Q Q Q Q ~ Q ^ ^ ^ / ( ( _ ` ' ~ P k 4 7 y R ",
"B h 0 2 w h v v b N V V A S S S G J K K L P I U Y T ! P .             . G / ~ ! W W W W Q Q W Q Q ~ ~ ^ ( / ( _ ) Q P c 6 7 y Y ",
"b d 0 1 w h h c v n m V A A S S S J G K L L P P U T T H .               S ^ W W E R R R E Q E W W Q ! ~ ~ ^ ( ( ) W P v 6 7 y I ",
"b u 0 2 r i k x v n n m m N V A S S S K K K L P U T T H .               B W T T R W R R R Q E R R W W ! ! ^ ( ( / W K c 5 7 y P ",
"C u 7 1 r i h x c v v m m m V A S S D D K K K L P U U G .             . B T T Y R R R Y Y R R R R R R E W ~ ^ ~ ~ R K k 5 4 y L ",
"b u w 2 0 u h k c c n n m m m V V A S D D J K K L P I S .               b Y U P I I I I Y Y R Y R U R R W Q Q ^ Q Y F h 5 6 7 K ",
"b u 6 1 w u i h h c n n n n n N V V V V S S V V S K P Z .               b P H H S L I I I I I I I I I R E E E Q Q I S i 5 4 r D ",
"x t 6 1 0 t t h x c c v n n v m N m V V A V v N b G L M .               b P S C N D F F P I I I L L I I I Y R E R P A h 5 4 r S ",
"x t 6 2 0 r t h h h k v b v v b N m m N N n v b n Z H N .               b L Z m n A S D K L L K L Y I I I Y R Y I K A i 7 4 7 F ",
"k t 2 1 0 r t t t h h v v k v b n N A A N v v v n N S N .               v L S m n A S D F F K K L L L L P Y R I I F m u 6 4 7 S ",
"h w 2 1 6 w t t h h h k k l v v n N m N v v k v n N S v                 k D V n n V A S F D F F K L L L L P U I P S n u 6 4 7 Z ",
"h w 2 2 2 w r t t u h k k v v v n n v v v v h h v n V v .               k D V n n N A A D D F F K K L F L L P P P S n y 6 4 7 Z ",
"d 0 2 1 6 0 r r t t h h h k x x c n c c v v x v b N Z c                 k F A V N N V A A D D D F K F F D K L P K S n r 5 1 7 N ",
"i 0 1 1 2 r r t t h u t h h k k c c c v v v v c v N A c .               c K S V V N N V A D A D F F D D D K L P K A v y 4 4 7 N ",
"u 0 1 & 2 0 r t t t t h u h h h h c c v x x v v n N V i .               k D D V V V N V A A A A S D D D D D K J D V c y 1 1 6 m ",
"t 2 1 1 2 7 r r t t t t h u h h h x c c k k v n n m N i                 i S D S A N N V A A V V A D S A D S D D S N c r 1 1 7 n ",
"t 2 1 & 2 6 w r t t t t u u d i h h h h h h x v v v v h                 h S A A N N N N V V N V V A A A A A A S V n k w 1 1 4 n ",
"i 2 1 % ; , 2 3 3 3 3 9 9 9 0 8 q 0 q q q q e e e a j i .               h B z z z g j g j j j g z z z z z z z z j d e 2 ; 1 4 n ",
"t 2 2 & - - ; : < 3 , 3 3 , < < < < 3 9 9 9 8 3 8 9 d u                 h M s f s s a p a s s s s g g g f g s s a q 8 : * 1 7 n ",
"r 2 1 # # - ; : , , < 3 3 3 < 3 < < < 3 < < 9 3 8 8 g u .               h b s a p a a p q e a a d s g f f f s s p q 8 : % = 4 c ",
"r 5 = # # - - - : 3 : , < : < < < < < < < < < < 8 8 a w .               u v a a p p p q q q q q e a a a d d d d e 9 3 , % > 4 c ",
"w 4 1 # # - - - : 3 2 : , : : < : : < < < < 9 < < < e w                 t l p q q q q 9 9 9 9 9 9 q e a a a a q q 9 3 > % 1 4 c ",
"w 5 & # O - - - : : , : : , < : : : < , < 3 < < < < e w .               t l q q 9 q q 9 9 9 9 9 8 9 q a a a a q q 9 8 > * 4 4 c ",
"0 2 ; O # # - - - 1 : : , , : < : : , , < < < 3 < < w w                 w g 9 9 9 9 9 9 9 9 < 9 8 8 9 q p q q q 9 8 < ; % = 4 c "
};
