/* XPM */
static char *animation18[] = {
/* columns rows colors chars-per-pixel */
"64 48 114 2 ",
"   c #000100",
".  c #0B0A07",
"X  c #0C0C0A",
"o  c #100F0D",
"O  c #180F0F",
"+  c #0F100C",
"@  c #12110E",
"#  c #1B110F",
"$  c #151512",
"%  c #1C1412",
"&  c #151817",
"*  c #1C1915",
"=  c #171919",
"-  c #1A1B1A",
";  c #231614",
":  c #251916",
">  c #281917",
",  c #221E1B",
"<  c #2C1B19",
"1  c #321D1C",
"2  c #25211D",
"3  c #2A231E",
"4  c #32211E",
"5  c #341F20",
"6  c #262422",
"7  c #2A2622",
"8  c #2D2925",
"9  c #2E2C29",
"0  c #352421",
"q  c #3B2623",
"w  c #322B26",
"e  c #3D2925",
"r  c #332E2A",
"t  c #3D2C2A",
"y  c #36312C",
"u  c #3A332E",
"i  c #363430",
"p  c #3C3631",
"a  c #3E3833",
"s  c #402A26",
"d  c #432C29",
"f  c #45312D",
"g  c #49332E",
"h  c #443631",
"j  c #4B3532",
"k  c #423B35",
"l  c #4A3A34",
"z  c #453E39",
"x  c #4D3E39",
"c  c #513E39",
"v  c #494037",
"b  c #47403A",
"n  c #4A433C",
"m  c #54423E",
"M  c #4D4740",
"N  c #4F4842",
"B  c #524B45",
"V  c #584F46",
"C  c #554F49",
"Z  c #585047",
"A  c #57504A",
"S  c #5B534C",
"D  c #5E5750",
"F  c #5F5851",
"G  c #61574D",
"H  c #62594E",
"J  c #605750",
"K  c #645B52",
"L  c #685F54",
"P  c #6B6256",
"I  c #6E6459",
"U  c #71665C",
"Y  c #73695E",
"T  c #766C61",
"R  c #796F63",
"E  c #7B7166",
"W  c #7D7469",
"Q  c #807366",
"!  c #82766A",
"~  c #86796D",
"^  c #897C6E",
"/  c #867C70",
"(  c #8B7E71",
")  c #8D8273",
"_  c #918576",
"`  c #938679",
"'  c #95897B",
"]  c #9A8D7E",
"[  c #9C8F81",
"{  c #9E9182",
"}  c #A29485",
"|  c #A69788",
" . c #A99789",
".. c #A69889",
"X. c #AB9B8C",
"o. c #AE9F90",
"O. c #AFA191",
"+. c #B1A494",
"@. c #B4A897",
"#. c #B7A799",
"$. c #B6A999",
"%. c #BAAD9D",
"&. c #BDB09F",
"*. c #BDAFA0",
"=. c #BFB0A1",
"-. c #C3B4A5",
";. c #C7B8A7",
":. c #C3B7A9",
">. c #C6B9AC",
",. c #CBBBAC",
"<. c #CEC2B2",
"1. c #D0C5B5",
"2. c #D1C6BA",
"3. c #D2C8B8",
/* pixels */
"I V m m B Z Z S H H H L L L P P U Y Y T T R R W W R W W W W W W W W W W W W W W W W W W E E T R R R R W E R R E W W W W E E W ..",
"P r @ + + @ + + + + + + + + + + + + X $ $ $ $ $ & = = = = = - = - - - = = = = = - = & $ & @ $ X o o o X o o X @ o o @ o + $ 6 ` ",
"P v , + @ @ @ $ $ * * * * * 2 * , 2 3 3 7 9 $ . X X X X X X X X o X X X X X X X . X 7 8 6 6 6 7 7 7 7 7 8 9 8 w 8 9 7 , * - y ' ",
"P v 3 & * 2 3 8 w w w y u u a v v n m B A S $                                     X M V N C C C A Z A D F J K K L J B u 2 6 i ' ",
"P v 9 * 3 y y u a k v b n n Z Z S H L P T T *                                     o K U I I Y T T E E Q ~ ^ ^ _ ) ~ I b 3 7 p ` ",
"P n r 3 r v v n n N C A D H P P Y R E ~ ( ( ,                                     @ R ^ ~ ^ / ( ) _ ' } | X.+.#.$.X.^ B 8 9 a ' ",
"P n r 3 u n B B A A F F P I Y R ! ~ ^ _ ] ] ,                                     $ ^ ' ` ` ' ' ] }  .+.$.=.-.,.,.=.' S 9 9 a [ ",
"P n y 3 u n A A D F F K P Y T E ^ ( _ ] [ [ 6                                     $ ) } { } }  .X.+.$.%.-.,.,.1.<.=.{ F i 9 a [ ",
"P n u 3 a N C A D K L P Y Y E ! ^ _ ' ] ..} 2                                     % ' o.|  . .X.+.@.%.-.,.,.2.2.1.=.{ P i 9 z [ ",
"L n u 9 a N C A F K P I T R R ) ) _ ' ] ..| 7                                     = ` o.X. .X.o.@.$.-.;.,.1.2.2.2.>.| P i 9 i [ ",
"H v y 3 a n A D F K P I Y R E ) ) ) _ ] } } 2                                     & ` o.X.o.X.X.@.$.%.-.;.,.2.2.2.>.{ P i 9 a [ ",
"H v y 9 k N A A F L P I Y T E W ) ) _ ' ] ] 2                                     % ' o.X.X.X.o.+.$.%.-.;.,.,.,.2.>.{ P i 9 z / ",
"H n u 4 k N A D H P P P Y R E ) ^ ) ) ` ] ' 2                                     $ ' O.| | X.O.+.$.%.=.-.;.,.,.,.=.[ K i 9 a ) ",
"H v y w k B A S S H L P Y R E ! ! ^ ) _ ` ` 2                                     % ) X.| | X.O.+.+.$.%.-.-.,.,.,.*.[ K i 9 z ( ",
"G v y 3 k N A A S F L P U R E ! ! ~ ^ ) ` ` 2                                     $ ) | }  . . .X.+.+.$.%.-.-.>.>.*.[ D 9 i z / ",
"G v y 8 a N C S S K L P U Y E ! ~ ~ ^ ) ) ) 2                                     $ ) { { } } } ..X.o.+.#.%.*.*.*.+.( D r 9 z / ",
"G v r 3 v n Z D D J L K I T T W W W ~ ^ ) / ,                                     $ ) ] ] ] } { }  .X.o.+.@.@.$.@. .) B 8 y k ^ ",
"Z v y 9 p n A Z F F K P P I Y T T W W ~ ^ ~ ,                                     @ ^ ] ] ] ] ] { }  .X.o.+.o.+.+.] W B 8 w k ! ",
"G v w 3 a n B Z D F F P P P I Y Y T W W ~ ! -                                     $ ~ ] ' ' ' ' ] ] } }  . .o.O. .] E B 9 9 k W ",
"Z v r 3 p n N A A S F F F P P U Y Y T W Q Q ,                                     @ ! _ _ _ _ ' ] ] ] ]  .]  . . .' Y m 8 9 a ~ ",
"S k r 7 u b N B A A D F K K K P P I Y Y E R *                                     $ ! _ ) _ _ ' ' _ ' ] ] ] ]  .{ ` T n 8 9 a W ",
"Z k w 7 y b n N N A D D K K K K L P I Y T T *                                     @ E _ _ _ _ ) ) _ _ ' ] ] ] ] { ) U n 7 9 a W ",
"Z k w 2 y v n N C C A S F F H K L L L I I U *                                     @ Y ^ ^ ^ ( ^ ^ ^ ) _ _ ` ' ] ' ) P n 6 9 a E ",
"Z k w 2 r v n N N B A V S Z S F H K L L I I *                                     @ Y ~ ~ ^ ~ ~ ~ ^ ^ ( ) _ _ ' ` W P b 6 9 p R ",
"Z k 8 3 y v v n B B B A A A A F G H K L L L *                                     @ U ! Q ! Q ! ! ^ ^ ^ ) ) _ ` ` W K k 6 9 p T ",
"V k w 2 y k v n N B B B C A A F G G H H K K %                                     @ P Q Q R E E W W ^ / / ) ) ) _ ! P v 7 9 i T ",
"B a w 3 y k v v n N B N A A A A S S G H J J %                                     o P R Y T Y R E W ^ ~ / ~ ) ) ) W P b 7 9 i U ",
"m a w 2 w p k v n N N B N A A A Z S S H K A &                                     @ H Y T T R E R E W / ~ ~ ~ ) ) R H v 7 9 i I ",
"B a 9 2 r p k v b n N N B A A A A A D A D A %                                     X H I I T T R Y R E ! ~ ~ ! ^ W T F b 7 7 i P ",
"n a 9 3 r p p v v v n N N N A Z A A C A A C %                                     o G P K P I U Y Y R E W W W ! W U D b 7 7 i F ",
"n u 9 3 r a a k v b b n N N B B M n M B A C $                                     X S K A F K U I U T R E R E E R I Z a 6 6 9 F ",
"n a 8 3 w u p k k b b n n N N n z z x M C B $                                     X Z H N A C K K P U R Y Y T T Y P Z a 7 8 9 F ",
"v u w 2 8 u p k k z b n n n b v k k k M B N $           .                         X B D M B B D D K I Y Y Y T R U F C p 9 6 i D ",
"z u 3 3 8 y p a h z b v N n n v p h k z M M $                                     X B A M N M J S K L L P Y T T U F B p 6 6 9 A ",
"k r 7 , 8 r i a p k k b b b v k p k k z M M $                                     X N C n B M A A D K L I I Y U P D M p 7 6 9 A ",
"k r 7 , w r u u p a k b z k k k p u a z z z $                                     X M B n n N B C D F L L U Y Y P D M i 7 6 9 A ",
"h w 2 2 7 w y u p a k k k k k k k p k z n n $                                     X M B M M M B A D D F L I Y I L S n u 7 2 8 C ",
"p w 2 2 7 w y u u p a a p k k k k h k v n z X                                     X M B N B B B A A D K K K L I K Z n u 7 6 9 B ",
"p w 2 , 7 w r y i i u a a k k h k k k v x k @                                     X b B B B B C C A D F K K K L J A v y 6 6 6 B ",
"u 3 2 , 3 w r y u u i a p k a p h z k k z z @                                     X z B C B B B C C A D F K K K H A b y , , 9 N ",
"u 3 2 * 3 w w w r u u u u u p p p k k a a k o                                     . v N N N B B B V V S S J G H S B l r 2 2 7 M ",
"u w 2 * ; 3 3 4 1 5 0 0 0 0 0 q q q e e t k o                                     + b v f j j j j j c c c c c m c h u 3 ; 2 6 M ",
"u 9 2 # ; ; > < < < < < < 4 4 4 4 1 1 1 q p o                                     . k l s d d d d d g g j j j c j d q 2 & 6 6 M ",
"r 3 2 # % ; > < < < < < < 1 4 1 1 1 1 1 q u o                                     . a h s t d d d s s g g j j j j e q < % - 6 M ",
"y 3 2 # % ; ; > > < > < < < < 1 < 1 1 1 0 y X                                     X a f q e q e s q s s d d d g f e 0 , % 2 6 b ",
"y 3 * # ; % ; : > > > < < < < < 1 1 < 1 0 y X                                     . i f q q q q q q s s s d d d d t 5 > % , 6 b ",
"w 3 2 O # ; ; : > > > > > > > < 1 1 < < 0 r X                                     . u d 5 0 q q q q q s q e t t e q 3 > % 6 6 b ",
"w 7 : # # # ; ; ; > ; > > > > < < < < < 0 r X                                     o u e 5 5 1 0 q q q q q q t q e 0 5 : % - 6 b "
};
