/* XPM */
static char *animation17[] = {
/* columns rows colors chars-per-pixel */
"64 48 119 2 ",
"   c #000100",
".  c #090705",
"X  c #070806",
"o  c #090906",
"O  c #0C0C0B",
"+  c #110F0D",
"@  c #180F0E",
"#  c #0F100C",
"$  c #11110E",
"%  c #1A100F",
"&  c #141513",
"*  c #1D1412",
"=  c #161817",
"-  c #1C1A15",
";  c #171919",
":  c #191B1A",
">  c #221614",
",  c #241917",
"<  c #281917",
"1  c #221D1A",
"2  c #2C1B19",
"3  c #311D1C",
"4  c #25211E",
"5  c #29231E",
"6  c #32211F",
"7  c #262522",
"8  c #2A2622",
"9  c #2D2925",
"0  c #2E2C29",
"q  c #342321",
"w  c #3A2523",
"e  c #312B26",
"r  c #3B2926",
"t  c #332E2A",
"y  c #3D2D28",
"u  c #36312C",
"i  c #3A342E",
"p  c #373431",
"a  c #3C3631",
"s  c #3E3833",
"d  c #412A26",
"f  c #432D2A",
"g  c #47312D",
"h  c #49322F",
"j  c #433531",
"k  c #4B3632",
"l  c #433C35",
"z  c #4B3A35",
"x  c #443E39",
"c  c #4E3E39",
"v  c #503E39",
"b  c #494036",
"n  c #47403A",
"m  c #4A433C",
"M  c #4F483F",
"N  c #54423E",
"B  c #4D4640",
"V  c #4F4842",
"C  c #554440",
"Z  c #524B45",
"A  c #584F46",
"S  c #554F48",
"D  c #565047",
"F  c #585047",
"G  c #57504A",
"H  c #5B534C",
"J  c #5E5750",
"K  c #5F5851",
"L  c #61574D",
"P  c #62584F",
"I  c #605750",
"U  c #645B52",
"Y  c #685F54",
"T  c #6B6256",
"R  c #6E6559",
"E  c #71665B",
"W  c #73695E",
"Q  c #766C61",
"!  c #796E64",
"~  c #7B7166",
"^  c #7D7469",
"/  c #817567",
"(  c #82766A",
")  c #86796C",
"_  c #897C6E",
"`  c #867B70",
"'  c #8B7E71",
"]  c #8D8273",
"[  c #928576",
"{  c #928679",
"}  c #95897B",
"|  c #998D7E",
" . c #9C8F80",
".. c #9E9182",
"X. c #A29485",
"o. c #A69788",
"O. c #A99789",
"+. c #A6998A",
"@. c #AB9B8C",
"#. c #AE9F90",
"$. c #B09F90",
"%. c #AEA191",
"&. c #B1A394",
"*. c #B5A897",
"=. c #B6A798",
"-. c #B6AA9A",
";. c #B9AD9D",
":. c #BEB09F",
">. c #BEAFA1",
",. c #BEB1A2",
"<. c #C3B4A4",
"1. c #C4B7A8",
"2. c #C6BAAB",
"3. c #CABBAC",
"4. c #CCC0AF",
"5. c #CEC2B2",
"6. c #D0C6B7",
"7. c #D2C7BA",
"8. c #D0C8BA",
/* pixels */
"R A M M D D F H L L P Y Y Y T T E E W Q Q Q ! ^ ^ ^ ^ ^ ^ ^ ` ^ ^ ^ ^ ^ ^ ^ ^ ^ ~ ^ ~ ~ ~ ! Q ! ! ~ ! ^ ~ Q ~ ^ ^ ^ ^ ^ ^ ~ ^ +.",
"T t $ O # $ # # # # # # # # # # # # + + & & & = = = ; ; ; ; ; ; : : ; ; : : ; ; = = & & & & & # O + O O $ $ O + + O $ $ # $ 8 [ ",
"T l 4 O $ $ & & * - - - - - 4 4 4 4 5 5 9 e 9 O o o o O o O O o O O O O X O O O o 4 9 8 7 7 8 8 7 9 9 9 9 9 9 9 e 0 8 1 - : u { ",
"T b 5 - - 5 5 5 5 t t t i i a l l m C Z G I G o                                 . l G Z Z Z Z D Z G H H J L U Y T I Z u 4 7 p | ",
"T b 9 - 5 u i a s l b b m M D D H U Y R Q ^ R O                                   Z E E R E R Q W Q Q / ) ) _ [ { ) T x 4 5 s { ",
"T m t 5 t b n n M V D F H K U T E Q / ) ' | ( O                                 X U ' ) ( _ ` ' [ } | ..+.@.&.=.-.+.) Z 9 0 s | ",
"T m u 5 i b V Z D H J P T T W Q ^ _ ' [  .o.] #                                 . Q | { { { } | | X.@.&.;.<.<.2.3.>.{ J 0 0 s  .",
"T m u 6 i m D H H J P U T W Q ~ ) ' [ | ..@.{ O                                 o ! X.X...X.o.+.@.&.-.,.<.2.3.5.3.,. .U 0 p s { ",
"T N u 9 a B D G H K T T R Q ! ^ _ ] | | +.#.} $                                 . ! @.@.O.O.+.$.&.-.:.1.3.3.5.7.5.2...R p t x  .",
"P b u 9 s B S H H T T R W ! ~ ] ] { | ..o.&.{ +                                 . ^ $.@.+.+.@.$.*.;.,.1.3.5.5.8.8.2...T t t p  .",
"P m u e s V G H K T T R W Q ~ ( ' { } | X.@.} $                                 . ^ $.@.@.O.@.%.*.-.,.,.2.4.7.7.8.2.o.U 0 p s  .",
"P m u 9 l V G H K T T T W Q ~ ) ] [ [ } | @.[ $                                 . ^ &.@.+.@.@.#.*.-.:.<.2.3.3.7.6.1...U p 0 x ^ ",
"P b y 6 s V G J L T T T R ~ ~ ( ' ' { {  .o.] O                                 . ^ %.o.X.@.@.%.&.-.-.:.1.2.3.3.3.,...I p 0 x ` ",
"P b u e l V G H L L T T R ! ^ ( _ _ ] { | ..` $                                 X ! @.o.X.O.#.@.%.*.*.:.>.<.3.3.3.>. .K 0 p x ' ",
"L b u 9 l V D H H P P T E W ~ ) _ _ ' ' {  .` O                                 X Q o...X.@.O.@.#.%.&.*.>.<.>.2.3.,. .J 0 p x ` ",
"H b u 5 j M D F L P T T R W ~ / ) ` _ ' {  .( O                                 X Q ....X...X.X.@.@.#.&.=.-.>.>.>.>.' H 0 0 x ` ",
"L b u 5 s M F H H I U T T W Q ^ ^ ` ) ) ] { ^ O                                 o W | | o.| | | X.O.@.#.&.&.*.*.*.O._ D 9 u s _ ",
"H b i 5 s M Z D J U U T T R W ! ! ! ( ) ' [ ! +                                 o W | | | | | | | O.@.@.O.$.&.&.*.| ) F e e l ( ",
"H b e 5 s B Z H J K U U U R E W Q Q ! ( ) _ Q +                                 o E | } } } } } | | | O.$.$.$.$.$.| / M 0 0 s ) ",
"L b e 5 a m V Z G J K K U T T R Q Q Q ~ / _ W O                                 . R } [ [ [ [ } | | | | | $.| $.| | W N 9 0 s ) ",
"H l t 4 i n M V D G J K U T U T R E E W ! ) E O                                 . T { ] ] [ } [ } [ | | | | | | ..[ E m 8 0 s ^ ",
"F l t 5 i n M V S D G K K U U T Y T R E W / T O                                 . T { ] ] ] ] ] [ [ [ [ [ | | | ..] E M 8 0 a ^ ",
"H l t 5 u s n V S V G H K K K U Y Y T R E W Y O                                 . P ] _ ] ] ] _ _ _ ] ] [ } | |  .` E n 7 0 s ^ ",
"F s t 5 t n m V V S D G H H J K P Y Y T R E P O                                 . H ) ) ) ) / ) ) _ _ ] ] ] [ } { ) T n 8 0 p ! ",
"F l e 5 u l n M V D D D G G H H L P Y Y Y R L O                                 . H ~ / / ^ ~ ^ ( ` ) ` _ ] { { ] ( P b 7 0 a Q ",
"M l e 5 u l n m V V V S S G H H L L L P U T F O                                 . H ~ ~ ~ ~ ^ ~ ( ( ) ` _ ] ] [ ] ( T b 8 0 p W ",
"M s 9 5 u s n n B B V S S S G J H H L P Y P F O                                 . H ~ W Q Q Q ~ ~ ( ` ) ) _ ' ` ] / U m 9 0 p E ",
"M s e 5 t a n b n B V V S S G G H H H H P U Z O                                 . M W W W Q ~ Q ! ~ ( ) ) ) ` ' _ ~ P m 8 9 p R ",
"M l t 5 e a b s n m V V V D D G H H H J H J Z o                                   Z E R E Q Q Q Q Q ( ( ^ ^ ` ` ^ Q K b 8 7 p U ",
"M s 9 5 e a s b n n m V V D S D G G H G S H C o                                 X M T Y Y R E E E Q Q / ^ ^ ^ ^ ^ Q H l 7 9 u U ",
"m a 9 5 t a s l b n b m B V V S Z M B Z S H B O                                   M T H H I R R E W Q Q Q Q ~ ~ ! R G s 8 7 0 K ",
"b a 9 5 t i s l n n n n m B B V B x x m Z G B o                                 . M I Z S Z I U Y E Q Q W W ! ! W T D s 8 7 u J ",
"b i 9 4 9 p a s l l n m m m B m n l l x B S B o                                 X x K Z V V J H U R R E E Q ~ Q Y Y S s 8 7 t J ",
"b u 5 4 9 u s s l l n n B B B n x l l l B V n o                                 X x J V V V J H K U Y Y Y Q Q Q Y I Z s 8 7 t H ",
"b 0 8 4 9 u p a s l l n n m n n l s l l x B x O                                   x S B V V G G J I U R Y Q Q E Y K V a 8 8 0 G ",
"l t 5 4 7 u i a s l l l n n b l l a a a l B l o                                 X x S B n V Z S G K U Y Y E E E Y I B a 8 7 0 S ",
"a t 5 4 5 u u a i l l l b l l b l l l l x B l o                                 X s S Z B B Z S H J I U T R E Y Y H m p 8 4 7 G ",
"a e 4 4 5 t t i i i a j s b l l l l l l c M s o                                 X s S Z Z Z Z S G G I U U Y R Y U S m p 7 7 0 S ",
"s 6 4 - 5 e t i i a a a b a b l l l l l n n a .                                 X a Z Z Z Z Z Z G H L I I U Y Y J S n u 4 7 7 Z ",
"a 5 4 4 5 6 t t i i i a a a a l a l n l x x a .                                 X p V V S Z Z Z G G H L I I Y U J Z c t 7 7 7 V ",
"i 5 4 > 5 6 t t t u i a a i j j a l l l l l p o                                   a Z C V V V Z C H H H H J I I H Z l t 4 7 7 B ",
"a 9 4 - 4 4 6 5 6 6 6 6 6 6 r 6 r w w r w a i .                                 . p m j k k k k k k k v v N C N z k y 8 1 1 7 B ",
"u 9 4 % > > < 5 3 2 2 2 6 3 6 6 3 3 3 6 6 y u o                                   a c f f f f f f f h h k k v k k f w 2 * 4 7 B ",
"u 5 4 % > < < 2 2 2 3 2 6 2 3 6 3 6 3 3 3 y t o                                   t z d d d f f d f f h h k k k f f q 2 * : 7 B ",
"u 8 1 % > > < < < 2 < 2 2 2 2 2 2 3 3 3 3 r e o                                 . t j w w d d d d w d d f g g h f r q 2 * 1 7 n ",
"u 5 1 % % > , , < < < < < 2 2 2 2 3 3 2 3 e 0 X                                   e j w w w w w w w d w d f d f y r q < * 4 7 n ",
"e 8 1 % % > > , < < < < < 2 2 2 3 3 3 2 3 e 9 .                                   e j q q w w w w w w w w r y f y w 3 1 * 7 7 n ",
"0 5 , % % - > , < < < > < 2 < 2 2 2 3 2 2 e 8 .                                 . 9 g q q q 3 w w w w w w w w y w w 3 1 * : 7 n "
};
