/* XPM */
static char *animation37[] = {
/* columns rows colors chars-per-pixel */
"64 48 95 2 ",
"   c #000100",
".  c #0A0606",
"X  c #090907",
"o  c #070A09",
"O  c #0A0B09",
"+  c #100F0C",
"@  c #180F0F",
"#  c #0E100D",
"$  c #11110F",
"%  c #1C110F",
"&  c #141513",
"*  c #1C1312",
"=  c #161817",
"-  c #1A1916",
";  c #171918",
":  c #191A1A",
">  c #221513",
",  c #241916",
"<  c #221E1B",
"1  c #2A1D1A",
"2  c #25211E",
"3  c #2A231E",
"4  c #31211E",
"5  c #242321",
"6  c #2A2521",
"7  c #2D2925",
"8  c #2D2C29",
"9  c #342522",
"0  c #312C27",
"q  c #3C2B26",
"w  c #332E2A",
"e  c #35312C",
"r  c #3A332E",
"t  c #353330",
"y  c #3C3631",
"u  c #3E3933",
"i  c #43362F",
"p  c #433C35",
"a  c #483E37",
"s  c #453E39",
"d  c #4A4137",
"f  c #47413B",
"g  c #4B433C",
"h  c #50483F",
"j  c #4C4641",
"k  c #4F4842",
"l  c #514541",
"z  c #534B44",
"x  c #584F47",
"c  c #554E49",
"v  c #585047",
"b  c #57504A",
"n  c #5B534C",
"m  c #5E5650",
"M  c #61574D",
"N  c #64594E",
"B  c #645B52",
"V  c #685E53",
"C  c #6B6256",
"Z  c #6E6459",
"A  c #6F685E",
"S  c #70665B",
"D  c #73695E",
"F  c #766B61",
"G  c #796E64",
"H  c #7B7267",
"J  c #7D7469",
"K  c #807466",
"L  c #81776B",
"P  c #85796D",
"I  c #897D6E",
"U  c #847B71",
"Y  c #8A7D71",
"T  c #8D8173",
"R  c #918477",
"E  c #928679",
"W  c #958A7D",
"Q  c #9B8D7E",
"!  c #978C80",
"~  c #988D80",
"^  c #9D9181",
"/  c #A29385",
"(  c #A49788",
")  c #A7998A",
"_  c #A99B8B",
"`  c #AE9F90",
"'  c #B1A393",
"]  c #B5A899",
"[  c #BBAE9E",
"{  c #BBAEA0",
"}  c #C2B4A5",
"|  c #C6B8AA",
" . c #CBBCAD",
".. c #CFC2B2",
"X. c #D1C4B4",
/* pixels */
"Z x h z v v n n N N B C C C Z Z F F F F G H H J J J K J J L L J U J J J J J J J J J J J J J H J J J H J J J H J J J J J H H J _ ",
"C r $ # $ $ $ $ & & & & & = = ; ; ; ; ; ; ; : : : : : : : : : ; ; : : : : : ; ; ; ; : ; ; ; : : : : : ; ; ; = & & & $ & # $ 7 E ",
"Z d 2 $ $ $ $ & - o X X o o o o o o O O o o o O O o o o o O o o o o o o o o o o O O O O o o o o O O O O O o X 5 e 8 6 : & 5 u W ",
"Z g 6 - - 2 7 7 7 X                                                 .                                         s Z B z y 2 6 u ! ",
"Z h w - 3 e r r y O                                                                                         . n E I Z d 3 6 f W ",
"Z z r 3 w p d d s O                                                                                           A ] ( L z 7 8 f ! ",
"C v r 7 y d h z l +                                                                                           J | ] E n 8 w j ! ",
"C h r 0 d g z v c +                                                                                         . L ..{ W B e e j ! ",
"V z y w u c b n b +                                                                                         . U ..{ ^ B e e j W ",
"C z y w j c n m n +                                                                                         . U X.} ^ B e r j W ",
"V z y w s k n m n +                                                                                           U X.} ^ B e t j E ",
"N z y 8 s z c m n +                                                                                         . U ..} Q B 8 t j E ",
"N x i q s z c c c +                                                                                         . L  .[ E B e e j E ",
"N h r 0 s z c m n @                                                                                         . J  .] E n e e j T ",
"N h r 0 p z c n b O                                                                                         . K } ` Y n 8 t j T ",
"N h r 0 p z n n c $                                                                                         . H [ _ I c 8 t j Y ",
"N h r 0 p k c b c +                                                                                         X G ] / L z 0 e f T ",
"N g r 0 p k b b z +                                                                                         . F ' ^ J k 7 r j U ",
"M h r 6 u k z b z O                                                                                         . A ' Q G k 6 e f U ",
"M d r 3 y g z b z +                                                                                           Z _ E G k 6 8 f I ",
"n g r 6 r d k c j +                                                                                         . C _ E F k 8 e f J ",
"n g r 6 r d j k k +                                                                                         . C ( E F h 7 w f J ",
"n g e 6 r a g g j +                                                                                         . B Q T D k 6 w f J ",
"n d r 3 r d g g g O                                                                                         . n E I Z d 6 8 f J ",
"v d e 3 e p d d d O                                                                                         X m T P C f 3 8 f G ",
"v d e 6 r i d d f O                                                                                           n T P C f 7 7 f F ",
"z a w 6 w p p f a +                                                                                         X n I K C d 8 w p A ",
"z a e 3 w y f a p O                                                                                           c P G N d 6 8 u A ",
"k s e 3 e y p a p O                                                                                         . b J D B f 6 8 u C ",
"k s e 3 r y y p p O                                                                                           k G C n p 6 8 t B ",
"g p 0 2 7 y y p y +                                                                                         X k S N h r 5 8 u m ",
"g u 7 2 6 r y u y O                                                                                           d C m f 8 5 5 t B ",
"d p 6 < 6 w y y y O                                                                                         . g B n s w < 5 t m ",
"a y 6 - 6 w w y r O                                                                                           s B b u w 5 5 t n ",
"p r 6 < 6 0 w y r O                                                                                         . u m c u w < 5 t n ",
"y r 6 : 1 7 0 r r X                                                                                         . s m k y 0 : 5 r b ",
"p w 6 : 1 7 w t e X                                                                                           u n v d w 2 5 8 b ",
"y r 6 , 3 0 r t e X                                                                                         . u n h d w 2 6 w b ",
"r w 6 < 3 0 w w w X                                                                                           y b z f w 5 5 w c ",
"r w 3 < 6 0 w w 0 X                                                                                         . y b k p e 5 5 w k ",
"y w 6 < 2 7 0 0 7 .                                                                                           y c k p w 2 5 8 k ",
"r w 2 - , < 1 9 0 .                                                                                           y z i q 4 , 2 8 k ",
"r 0 3 % > > 1 6 9 .                                                                                           y j q 9 1 * 5 8 k ",
"e 0 2 * % > , 9 6 .                                                                                           w g q 4 1 - < 8 j ",
"e 0 < * % > > 4 5 .                                                                                           0 s 9 4 , * < 8 f ",
"w 8 5 @ % > > 3 1 .                                                                                           0 s 4 4 , * 5 8 f ",
"w 0 < % % > > 3 1 .                                                                                           7 p 9 1 > = < 8 f ",
"w 7 1 @ @ * > 1 < .                                                                                           6 i 4 1 > * < 8 f "
};
