/* XPM */
static char *animation38[] = {
/* columns rows colors chars-per-pixel */
"64 48 94 2 ",
"   c #000100",
".  c #090605",
"X  c #070806",
"o  c #0A0907",
"O  c #070A09",
"+  c #0A0A09",
"@  c #180F0F",
"#  c #0E100D",
"$  c #10110F",
"%  c #1B110F",
"&  c #141513",
"*  c #1C1312",
"=  c #151817",
"-  c #1B1915",
";  c #171918",
":  c #191A19",
">  c #221513",
",  c #241A16",
"<  c #221E1B",
"1  c #2A1D1A",
"2  c #25211E",
"3  c #29221E",
"4  c #31211E",
"5  c #242321",
"6  c #2A2521",
"7  c #2E2925",
"8  c #2E2C29",
"9  c #352421",
"0  c #382623",
"q  c #312B26",
"w  c #3B2C26",
"e  c #332E2A",
"r  c #3F2C29",
"t  c #35312C",
"y  c #3A342E",
"u  c #353330",
"i  c #3C3631",
"p  c #3E3933",
"a  c #453730",
"s  c #433C35",
"d  c #483C36",
"f  c #443E39",
"g  c #4A4137",
"h  c #46413B",
"j  c #4B433C",
"k  c #50473F",
"l  c #50483F",
"z  c #4C4641",
"x  c #4F4842",
"c  c #524643",
"v  c #534C44",
"b  c #584F47",
"n  c #554E48",
"m  c #585047",
"M  c #57504A",
"N  c #5B534C",
"B  c #61574C",
"V  c #64594E",
"C  c #645C52",
"Z  c #685F53",
"A  c #6B6256",
"S  c #6E645A",
"D  c #70665B",
"F  c #72695E",
"G  c #756C62",
"H  c #796E63",
"J  c #7C7267",
"K  c #7D7469",
"L  c #807466",
"P  c #81776B",
"I  c #86796C",
"U  c #897C6E",
"Y  c #897C71",
"T  c #8D8173",
"R  c #918476",
"E  c #928779",
"W  c #968A7E",
"Q  c #9A8D7E",
"!  c #978C80",
"~  c #988D80",
"^  c #9E9182",
"/  c #A39586",
"(  c #A7998A",
")  c #A99A8A",
"_  c #AE9F90",
"`  c #B1A394",
"'  c #B5A898",
"]  c #BBAC9D",
"[  c #BFB3A4",
"{  c #C3B4A5",
"}  c #C5B6A8",
"|  c #CABBAB",
" . c #CEC2B1",
".. c #D1C4B4",
/* pixels */
"S b k v l m N N V Z A A A A A S G G G G G J J K K K K K K P P K K K P K K K K K K K K K K J K J K K K K K K J K K K P K J H K ( ",
"A y $ # $ # $ & & & & = & & ; ; : ; = = ; : : : : : : : : : : : : : : : : : ; ; : ; ; : ; ; : : : : ; ; ; : = = & & $ $ $ & 7 E ",
"S g 2 # $ & & & - O X O O O O O O O + + + + + + + O O O + + O O # O O O O O O O + + + + O O O O + + + + O + + : t 8 6 : : : i ! ",
"S j 7 * < 2 3 7 3 X                                                                                           i S C v i 2 6 p ! ",
"S l t < 3 t t i y o                                                                                           v E I S f 6 7 f ! ",
"S v y 3 e p g g f +                                                                                           C ' / I n 6 e h ! ",
"A b y 3 i g l l z o                                                                                           S } ' R N 8 8 z ! ",
"A l i q g g v b v +                                                                                         . G | ] Q C t e z ! ",
"A v i e p n M M b +                                                                                           G ..} ^ Z e u z ~ ",
"Z v i e h n N N m #                                                                                           H ..} ~ C t t z W ",
"Z v i e f c M C N +   .                                                                                       J  .} ^ C e u x E ",
"V v i 8 f n M N M +                                                                                           H  .[ Q C e u z E ",
"V b a 0 f v n N b +                                                                                           G  .] E B t u z R ",
"V l y q f n n N n +                                                                                           G } ] T N e u z R ",
"V l y q s x b N n +                                                                                           F } _ Y N e u z Y ",
"V k y q s v b N n +                                                                                           F ] ) Y b 7 u z Y ",
"V l y q s x b M b o                                                                                           S ' / I n 7 t z Y ",
"B l y q s x n M b o                                                                                           S ' ^ J v 6 t j Y ",
"B k y 6 p x n n c o                                                                                           A _ ~ H x 7 t z I ",
"B g y 6 i z x n c +                                                                                           C ( E G c 7 u h I ",
"N j y 6 y j c v z +                                                                                           B ( R G x 7 8 h P ",
"N j y 6 y f j c z +                                                                                           B ( E G x 5 t h K ",
"N g t 6 t g g x j +                                                                                           M Q T D j 6 e h K ",
"N j y 6 t g g j j +                                                                                         . b E I S j 6 8 h K ",
"N j t 3 t g g g g X                                                                                           b R P Z d 3 8 h J ",
"m g t 3 e s s g s X                                                                                           v T P A g 6 8 h G ",
"v g t 3 t s s g s +                                                                                           b U L Z g 7 t p G ",
"x g t 6 e i g g s +                                                                                           k I H Z g 7 8 p F ",
"x h t 3 t i s a s +                                                                                           x J F C h 5 8 p A ",
"x f t 3 t i i s p +                                                                                           j H A N p 5 8 u C ",
"j s 8 2 7 i a s i +                                                                                           g F V j i 5 5 u A ",
"g s 7 2 3 y i s i X                                                                                           g S N h t 5 5 u C ",
"j a 6 < 6 e y p i +                                                                                           s C M s e 5 5 t C ",
"d y 7 : 2 e t i y o                                                                                         . p C M s e 5 5 u N ",
"s t 3 < 6 e e y e o                                                                                           i C n p e < 5 u M ",
"a y 7 - 2 7 e y t .                                                                                           i N v i 7 : 5 u M ",
"p t 6 - 2 q e t e X                                                                                           i N v d e < 5 8 M ",
"i t 6 < 2 q e y e X                                                                                           i N b g t 1 5 u M ",
"y t 3 - 6 7 e e 8 .                                                                                           y N v d t 5 5 8 n ",
"y t 3 2 6 7 e e 7 .                                                                                           y M x f t 2 5 8 x ",
"y e 5 < 3 6 q e q .                                                                                           e n j s e < 5 8 z ",
"y e 3 * > < 1 q 7 .                                                                                           e n a w 4 , 5 7 v ",
"y q 3 % > > , 9 9 .                                                                                           e c a 4 1 * < 8 x ",
"t q 3 * * > , 6 3 .                                                                                           7 j w 4 , * 5 8 z ",
"e e 5 * % > , 4 2                                                                                             6 d 0 4 1 * 5 8 h ",
"e e < @ % > > 3 3 .                                                                                           6 d 9 1 , * 5 8 h ",
"e q 1 * * * > 3 2                                                                                             2 a 9 1 > * < 8 h ",
"e 7 < @ @ > > 1 1                                                                                             1 i 4 1 : * < 8 h "
};
