/* XPM */
static char *animation26[] = {
/* columns rows colors chars-per-pixel */
"64 48 104 2 ",
"   c #000100",
".  c #070A09",
"X  c #090B09",
"o  c #130F0D",
"O  c #190F0F",
"+  c #0F100C",
"@  c #12120E",
"#  c #1C110F",
"$  c #141513",
"%  c #1C1512",
"&  c #161817",
"*  c #1D1A16",
"=  c #171918",
"-  c #181A1A",
";  c #221613",
":  c #241915",
">  c #281917",
",  c #221D1B",
"<  c #2B1C19",
"1  c #26221D",
"2  c #2B221E",
"3  c #31221E",
"4  c #252421",
"5  c #2A2622",
"6  c #2D2925",
"7  c #2D2C29",
"8  c #352421",
"9  c #3B2623",
"0  c #312B26",
"q  c #3C2925",
"w  c #332E2A",
"e  c #382E2B",
"r  c #36312C",
"t  c #3A332E",
"y  c #363430",
"u  c #3C3631",
"i  c #3E3934",
"p  c #412B26",
"a  c #442D2A",
"s  c #46322C",
"d  c #4A312F",
"f  c #4C3230",
"g  c #433B35",
"h  c #4A3D36",
"j  c #443E39",
"k  c #483F39",
"l  c #533E39",
"z  c #47413B",
"x  c #4B443C",
"c  c #4E483F",
"v  c #4D4641",
"b  c #4F4841",
"n  c #524B44",
"m  c #584F46",
"M  c #564F49",
"N  c #595147",
"B  c #57504A",
"V  c #5B534C",
"C  c #5F5750",
"Z  c #61574D",
"A  c #61584F",
"S  c #645B52",
"D  c #685E54",
"F  c #6B6256",
"G  c #6D6459",
"H  c #71675B",
"J  c #746A5E",
"K  c #766B61",
"L  c #796F63",
"P  c #7B7266",
"I  c #7D7469",
"U  c #817467",
"Y  c #82766A",
"T  c #85796D",
"R  c #897B6E",
"E  c #8B7E71",
"W  c #8E8174",
"Q  c #928476",
"!  c #948779",
"~  c #95897C",
"^  c #998D7D",
"/  c #9C8E80",
"(  c #9E9182",
")  c #A39586",
"_  c #A59688",
"`  c #A89788",
"'  c #A6988B",
"]  c #AA9A8B",
"[  c #AE9F90",
"{  c #AEA192",
"}  c #B2A595",
"|  c #B4A897",
" . c #B3A798",
".. c #B6A99A",
"X. c #B9AD9D",
"o. c #BDAFA0",
"O. c #BDB1A1",
"+. c #C2B4A5",
"@. c #C3B6A8",
"#. c #C6B8AA",
"$. c #CBBCAC",
"%. c #CCBEB0",
"&. c #CEC4B3",
"*. c #D0C6B9",
/* pixels */
"G m c c c N N N Z A A F F F F H K K K K L P I I I I I I I I T I I I I I I I I I I I I I I I P P I P P P P P P I P I Y I P P I ' ",
"F e @ + + + + $ + + + + + $ $ * = = $ & = = - - = - - - - - - - - - - - - - - - - - - - - - - - = = $ $ $ @ $ @ + + X + @ $ 5 ! ",
"F z 1 X + $ $ * * * * * * , * . X X X X . X X X X X X X X X X X + X X X X X X X X X X X . X X X . $ 7 6 7 6 7 w w 6 4 , & , t ~ ",
"F z 5 % * 1 2 2 6 0 0 r y i 1                                                                     , C C A S S F F S n t 1 4 y ~ ",
"G x 0 * 2 w r t u g z z c n r                                                                     w L U T E Q ! ~ R F z 1 5 i ! ",
"G x r 2 0 z z c n m n B N C g                                                                     u ~ / ) ' { }  .' R n 5 7 j ~ ",
"F x e 2 t x c M N A C A S F z                                                                     j ' [ } X.o.+.+. .! C 7 7 z / ",
"F c e 2 t c m m A S S F F J v                                                                     z } ..X.O.#.%.&.O.( D y y i ~ ",
"D c r 6 i n B C S F F H H J c                                                                     c | o.+.$.$.&.&.@.' G y y j / ",
"D c r 5 z n B C S F G G J L b                                                                     c ..+.+.$.&.&.*.#.( G y y j ! ",
"D x t 7 i b B C F F F G H L b                                                                     c ..+.#.$.$.&.*.@.( D y y j / ",
"Z c t 7 j n C S F F F F H L n                                                                     c X.+.+.#.$.%.&.O./ S y 7 j E ",
"Z x a 3 i n V C F F F F F J c                                                                     c ..o.O.#.%.%.%.o./ A 7 7 z E ",
"Z x t 6 i B V C C S F F H H c                                                                     c } X.o.@.#.$.@...! A 7 y z E ",
"Z x r 2 z b V C S F S F F J c                                                                     x } } ..o.@.O.@.[ E V 7 7 z E ",
"Z x r 6 i n V C F C F F F H c                                                                     x ] }  ...o.O.o.[ T B 7 y z E ",
"Z z r 2 z c N C C S S F F G c                                                                     x ' ] } | | } } ` U M 0 w j R ",
"Z z r 0 i c B V C V S S F F z                                                                     j ' ] ] [ } } } ) U n 7 w j T ",
"Z x q 2 u v M B V C A S S F z                                                                     j ) ) ` ` ] [ ] ^ P n 6 y i R ",
"c x w 2 u c b M V V V C S F z                                                                     g / / ) ` ` ` _ Q K c 6 7 i Y ",
"V g r 6 u x v n B B V C A S z                                                                     g ^ ^ ^ ` ` ` ) ! H v 5 7 i T ",
"N z r 5 t z v b b M B N V A z                                                                     i ^ ^ ( ) ( ) / E H z 5 7 i I ",
"N z 0 2 r z c b n n M N V Z g                                                                     u Q ~ ~ ^ ) ) ^ R G z 4 7 i I ",
"M z 0 2 e g z c n n n M N V g                                                                     t T E Q ~ Q ! ! R D v 4 7 i P ",
"N g 0 2 r g z x x c c c M N i                                                                     t R R E W W Q Q T S j 5 7 i L ",
"m g 0 1 r s z z x c c N n M u                                                                     t U R R E E Q W T G z 5 7 i K ",
"n g 0 1 w g z x x c c c b M u                                                                     r U U T R E E E T G v 6 7 i G ",
"c i 0 2 w u h z x c c c n n u                                                                     e J P T T E W R I F v 6 6 y G ",
"b i 0 2 r i g z x x x x x c t                                                                     w J J U T E E Y L S z 5 7 y S ",
"v i 7 2 0 i g z z x x z x c 0 .                                                                   e J J J P U Y I K C j 5 6 y S ",
"c g 0 1 0 u i g s h i z x x q                                                                     0 F F A G J P P H C j 4 7 y C ",
"z u 6 2 0 t u g t t t z x x 0 .                                                                   3 D Z M V V G G F V g 5 5 r C ",
"x u 0 1 0 r u t e t t u j z e                                                                     6 Z V n N V D D D M g 5 6 7 C ",
"z y 6 1 0 r u r e r e t g z e                                                                     5 C V n N N D D C n i 5 5 w C ",
"s r 2 1 0 r e r 0 r r t t j 0                                                                     5 V V b N m S C C v i 6 4 w V ",
"g r 6 1 6 0 e r r 0 r t s g 0                                                                     5 V B b N N V C B v i 4 5 7 M ",
"i w 2 1 6 0 0 r r r r u g g 5                                                                     5 C M M M V C Z B v y 6 4 7 M ",
"u w 1 1 5 0 r r t r t u t g 0                                                                     4 B B V C C A C M x u 5 4 7 M ",
"u w 1 1 5 7 0 r r y t t u g 0                                                                     4 n M V V A C V M x y 4 4 7 n ",
"t 0 1 * 5 7 0 0 r t y t t t 5                                                                     1 n M V C C V V M x t 4 4 7 v ",
"t 6 1 * 1 2 w 0 0 e t w t t 5                                                                     < n n V B V B M M z e 4 4 6 v ",
"t 0 1 # ; 1 2 3 3 3 3 3 8 t 5                                                                     < v h f l l l h g u 8 > 4 4 v ",
"t 6 1 # # : 2 > < < > < < e ,                                                                     4 v d f f f f a p 9 < - - 7 v ",
"r 6 1 o # ; : > > > > > < w ,                                                                     , h d a a d f a 9 3 < : 4 4 z ",
"t 2 1 # # ; ; > > > > < < 0 ,                                                                     , h a a a a a q 8 3 > % 4 4 z ",
"r 2 : # # # ; ; > > > > < 0 ,                                                                     - g q 9 q q p q 8 3 > ; , 7 z ",
"w 1 : @ # # ; ; > < > > < 8 *                                                                     * g 9 9 9 9 a q 8 3 ; O 4 4 z ",
"0 6 : # # # ; ; ; > > > > 6 :                                                                     = u 9 8 9 9 q 9 8 3 , O , 4 j "
};
