/* XPM */
static char *animation28[] = {
/* columns rows colors chars-per-pixel */
"64 48 110 2 ",
"   c #000100",
".  c #070A09",
"X  c #0A0B09",
"o  c #130F0D",
"O  c #190F0F",
"+  c #0F100D",
"@  c #13110E",
"#  c #1C110F",
"$  c #151512",
"%  c #1B1513",
"&  c #161817",
"*  c #1C1916",
"=  c #171918",
"-  c #191A19",
";  c #221613",
":  c #241915",
">  c #281917",
",  c #221E1B",
"<  c #2B1C1A",
"1  c #25221D",
"2  c #2A221E",
"3  c #32211E",
"4  c #262421",
"5  c #2A2622",
"6  c #2D2925",
"7  c #2E2C29",
"8  c #342421",
"9  c #392623",
"0  c #312B26",
"q  c #3E2926",
"w  c #332E2A",
"e  c #3C2E2A",
"r  c #35312C",
"t  c #3A332D",
"y  c #353330",
"u  c #3C3631",
"i  c #3E3934",
"p  c #412B26",
"a  c #442E2A",
"s  c #482E2B",
"d  c #43312D",
"f  c #463531",
"g  c #493431",
"h  c #433B35",
"j  c #4E3B37",
"k  c #453E39",
"l  c #483F39",
"z  c #523F3B",
"x  c #4A4137",
"c  c #46403B",
"v  c #4B433C",
"b  c #4D4641",
"n  c #4F4841",
"m  c #534C45",
"M  c #554E48",
"N  c #575047",
"B  c #595047",
"V  c #57504A",
"C  c #5B544C",
"Z  c #5E5750",
"A  c #5F5851",
"S  c #61574D",
"D  c #635A4F",
"F  c #605750",
"G  c #645B52",
"H  c #685F53",
"J  c #6A6156",
"K  c #6D6359",
"L  c #70655A",
"P  c #73695E",
"I  c #796C5F",
"U  c #766C61",
"Y  c #796E63",
"T  c #7B7166",
"R  c #7D7469",
"E  c #817366",
"W  c #82776B",
"Q  c #85796B",
"!  c #897C6E",
"~  c #8A7E71",
"^  c #8E8274",
"/  c #8F8578",
"(  c #918375",
")  c #938679",
"_  c #95897C",
"`  c #998C7E",
"'  c #9B8F81",
"]  c #9E9283",
"[  c #A29485",
"{  c #A49887",
"}  c #A59789",
"|  c #A89789",
" . c #A79A8B",
".. c #AA9B8C",
"X. c #AA9E91",
"o. c #AFA192",
"O. c #B3A595",
"+. c #B7A999",
"@. c #BBAD9D",
"#. c #BCAFA0",
"$. c #BEB1A2",
"%. c #C2B4A5",
"&. c #C8B6A7",
"*. c #C5B7A8",
"=. c #C8B7A8",
"-. c #C6B8A9",
";. c #CBBCAC",
":. c #CCBEB0",
">. c #CDC0AF",
",. c #CEC2B2",
/* pixels */
"K N v m v C C C D D H H H J K L U U U U Y T R R R R R R R R W R R R R R R R R R R R R R R R R R R R R R T T T R R R R T T T R  .",
"J r @ + + + + + + + @ @ $ $ $ = = - & = = = = - = - - - - - - - - - - - - - - - = = - - = = - = = = & & $ $ $ $ + X @ + + @ 7 ) ",
"J x 1 X $ $ $ $ % * * * - $ . . X X X X . X X X X X . . X X X X + . . X X X . . X X X . . X X X . . X 5 6 6 7 6 7 7 5 , * - r _ ",
"K x 2 % * 1 2 5 2 w w w u *                                     .                                   $ M G G G J K G m t 1 4 i _ ",
"K v 0 * 2 r t t i h c x v -                                                           .             @ P Q ! ^ _ _ ! K c 1 7 i ) ",
"K v r 2 0 h c v m n m N C 1                                                                         % ^ [  ...+.O.{ W m 5 6 i ` ",
"J v t 2 u v N V C C Z Z J 2                                                                         * ' O.+.$.%.%.+./ C 7 w c ' ",
"J v t 6 h v N C Z Z D G J 6                                                                         , } @.%.=.:.;.$.] G r w c _ ",
"J v t 6 i m V Z D G J J K 5                                                                         -  .*.;.;.,.,.-.] K y w c ' ",
"H v t 0 h m Z A G J J K P 7                                                                         1 o.&.;.>.,.,.-.] J y y c / ",
"H v t 6 h M Z G J G J J P 6                                                                         , X.&.>.>.,.,.%.] G y 7 c ' ",
"H v t 6 h M Z G G G J G P 6                                                                         , X.&.;.:.;.,.$.' H w y c ~ ",
"S v t 0 h M Z Z G G J H K 6                                                                         , o.&.&.=.;.:.#.' F w w c / ",
"S v e 0 k M Z Z A G H H K 6                                                                         -  .%.%.&.;.-.+.( Z w y c ~ ",
"S v r 0 k M Z C A G H H K 6                                                                         ,  .+.#.%.=.%.X.~ Z 7 y c ~ ",
"S v w 0 h M Z Z G A H G J 5                                                                         , ] +.+.#.#.#.X.! M 7 y c ~ ",
"S x r 6 h m C C S G G G J 5                                                                         , ' o.O.+.+.O.{ W m 0 r c ! ",
"S x e 6 u m V C C Z A G G 5                                                                         , _ ..o.O.O.o.[ E m 0 0 c Q ",
"S l w 6 i b m V C C A Z G 2                                                                         * _ ..| ..o...` Y m 7 w i ! ",
"C l w 2 u v m M V C C Z G 5                                                                         * ( [ [ | ..| ) I v 5 7 c R ",
"C x r 5 u x b m M M C Z S 4                                                                         * ( ] ' | .. .) U v 5 w i R ",
"C k w 5 u c v m m M V V C 4                                                                         * ~ ` [ [ [ ] / L c 5 7 k R ",
"B k w 2 r x v m n m M M C 2                                                                         * W ` ` [ [ ] ^ K c 5 7 i R ",
"B k w 2 r k x b m n m m C 1                                                                         * E ( ( ` ` ) Q K c 4 7 i T ",
"B k w 2 w h x v v N N n m 1                                                                         % I ! ^ ( ( ^ W J c 4 7 i U ",
"m h 0 2 w f x x v v m v m ,                                                                         % I ! ^ ^ ^ ^ W K v 6 7 i U ",
"m h 0 2 w h x x x v v v m 1                                                                         % I Q ! Q ! ^ R J b 7 7 i K ",
"v h 0 1 r h h x x v n N b 1                                                                         # L E Q Q ^ ^ T J c 6 7 i K ",
"m k w 1 r i h c v x v x v 1                                                                         $ K I R ^ ^ ! I A c 6 6 y J ",
"v h 0 5 w i h x v x x x v ,                                                                         @ J I I T R R P Z c 4 6 y G ",
"v i 0 2 w t h f u x c x x 1                                                                         # D L D K K P K C i 5 5 y A ",
"v h 0 1 0 t t r t t i x c *                                                                         @ S J B Z N J G V i 6 5 r Z ",
"x t 6 2 0 r r e w t u h v -                                                                         $ C A V V V A C m i 6 5 w A ",
"x t 6 1 0 r w w w r u h l *                                                                         $ C Z M V m A C b i 5 5 w Z ",
"h r 6 1 0 0 w 0 w t t u h :                                                                         $ N Z m V M V V v t 5 4 w C ",
"h w 6 1 2 0 w w w w t u h *                                                                         + n C m n M N m x u 5 4 7 V ",
"f w 2 1 5 0 w w w w u i h *                                                                         @ n C V V C C m v u 5 4 7 V ",
"u w 1 1 2 0 w r w y u u i %                                                                         $ n C C Z Z C V c r 5 4 7 M ",
"t w 1 1 5 0 w w r t t u u *                                                                         @ b V C A Z C n c r 4 4 7 n ",
"t w 1 * 4 6 w w t w u w t *                                                                         @ b V C A Z C m c y 4 4 7 b ",
"t 0 1 * 2 6 0 0 w e w r t $                                                                         X b M V C V V n k e 4 4 7 b ",
"t 0 1 % ; < 2 2 3 3 3 3 t @                                                                         o b z j z z j h e 8 , , 7 b ",
"t 5 1 # ; : : > < < < 3 r #                                                                         o c j s g g d e 8 < = 4 5 b ",
"t 5 1 @ # ; : > > < > 3 w @                                                                         X c g a a g a q 3 < * , 4 b ",
"r 6 < O # ; ; > > > > 2 0 @                                                                         + k g q a q a 9 3 > * , 7 c ",
"r 5 , o # ; ; ; : : : < 0 @                                                                         X i g q q q 9 9 < > # , 7 c ",
"0 5 : # # # ; > : ; : 2 0 o                                                                         X u d 9 9 9 9 8 3 < % 4 4 c ",
"0 5 : O # # ; > : : : < 2 o                                                                         X u e 9 9 9 9 8 < < % - 5 c "
};
