/* XPM */
static char *animation13[] = {
/* columns rows colors chars-per-pixel */
"64 48 120 2 ",
"   c #000100",
".  c #070907",
"X  c #070908",
"o  c #0C0D0B",
"O  c #130F0E",
"+  c #1A0F0E",
"@  c #0F100C",
"#  c #11110D",
"$  c #1C110F",
"%  c #131512",
"&  c #1C1413",
"*  c #161817",
"=  c #1C1916",
"-  c #171919",
";  c #1A1B1A",
":  c #221513",
">  c #251916",
",  c #291A17",
"<  c #221D1B",
"1  c #2D1C19",
"2  c #311D1C",
"3  c #25211D",
"4  c #29221E",
"5  c #33201F",
"6  c #262522",
"7  c #2A2622",
"8  c #2D2925",
"9  c #2E2C29",
"0  c #352421",
"q  c #3A2623",
"w  c #312B27",
"e  c #3C2926",
"r  c #332E2A",
"t  c #3C2B28",
"y  c #36312C",
"u  c #3A332D",
"i  c #373431",
"p  c #3C3731",
"a  c #3E3933",
"s  c #412B26",
"d  c #432D2A",
"f  c #482D2A",
"g  c #47312E",
"h  c #4A312D",
"j  c #423630",
"k  c #4A3431",
"l  c #433C35",
"z  c #4C3A35",
"x  c #453E39",
"c  c #4C3D39",
"v  c #513D36",
"b  c #523F39",
"n  c #494037",
"m  c #474039",
"M  c #4A433C",
"N  c #52403C",
"B  c #4E4740",
"V  c #4F4841",
"C  c #534C45",
"Z  c #584F47",
"A  c #554F49",
"S  c #585047",
"D  c #57504A",
"F  c #5C544C",
"G  c #5E5750",
"H  c #5E5850",
"J  c #61574E",
"K  c #62584F",
"L  c #605750",
"P  c #645B52",
"I  c #685F54",
"U  c #6B6256",
"Y  c #6E6559",
"T  c #6F685F",
"R  c #71665B",
"E  c #746A5D",
"W  c #786C5F",
"Q  c #6F6A62",
"!  c #756C61",
"~  c #796E63",
"^  c #7B7165",
"/  c #7E7469",
"(  c #817567",
")  c #82766A",
"_  c #86796C",
"`  c #897B6E",
"'  c #877C70",
"]  c #8B7E71",
"[  c #8E8273",
"{  c #918476",
"}  c #938679",
"|  c #95897B",
" . c #9A8D7E",
".. c #9C8F80",
"X. c #9D9182",
"o. c #A39485",
"O. c #A89687",
"+. c #A69788",
"@. c #A89788",
"#. c #A69889",
"$. c #AA9B8C",
"%. c #AD9F90",
"&. c #AEA192",
"*. c #B1A494",
"=. c #B5A897",
"-. c #B4A798",
";. c #B6AA99",
":. c #BAAD9D",
">. c #BEB09F",
",. c #BEB1A1",
"<. c #C0AFA0",
"1. c #C3B4A5",
"2. c #C7B8A8",
"3. c #CBBBAC",
"4. c #CCBFB0",
"5. c #CDC0AF",
"6. c #CEC3B2",
"7. c #D0C4B3",
"8. c #D0C8B7",
"9. c #D1C8B8",
/* pixels */
"Y Z N M N S F F K K K I I I U U Y E E E ! ! ~ ~ ^ ^ ^ / / / / / / / / / / ^ ^ ^ ^ ^ ^ ^ ^ ^ ~ ~ ^ ^ ~ / ^ ^ ~ / / / / ^ ^ ^ / #.",
"U r % # @ @ @ @ @ @ @ @ @ @ @ @ @ @ # # # # # # % % % * - - ; ; ; ; - - - * % % % % % % % % @ @ o # # o O o o o O o @ @ # % 6 } ",
"Y l 3 @ @ @ % % % = = = = = 3 = 3 3 4 4 7 8 r y u p 6 . X o X o o o X o X - 9 6 8 7 7 7 6 6 6 6 7 8 6 7 8 8 8 8 r 9 7 3 * ; y | ",
"U n 4 % 3 3 4 4 8 w w y u u p n n M M C S H P Y E ^ x                     8 G D S D C A V C C S A D D D H L I U I L N p 4 6 i | ",
"U n w > 4 w y u p n n M M M S S F K P R W ( ` [ | X.D                     u ! E E E R Y Y Y R Y R ! ! ^ ) ' ] } } _ I x 4 6 a | ",
"Y M r 4 r a n M M S C S F K P U R E ^ ` {  .o.%.*.,.I                     x } ] ` ' ` _ _ ' [ [ } | ..X.$.$.&.-.-.#.) C 7 9 a | ",
"U M y 4 u n M C F F H K I U R W ^ _ [ }  .%.*.;.,.3.Y                     M .. .| | } } } } ..X.+.$.&.-.:.,.1.2.1.:.} G 9 9 a ..",
"U n y 4 u M S S F H I I U R E ~ _ ` { } O.&.;.,.1.4.Q                     B $.O.o.o.X.o.o.+.#.%.*.-.;.:.:.1.3.3.3.>...P 9 9 a ..",
"U M y 8 a C D D F H P P Y E ^ ( _ [ }  .#.&.:.,.2.6.Q                     C $.$.$.O.O.$.$.$.&.*.=.:.>.1.2.3.4.7.6.1.o.P y r x | ",
"I M y 8 a M C F H P U U R E ^ ) [ [ } X.$.*.:.,.2.6.!                     V *.%.$.$.O.$.$.%.*.*.;.:.1.1.3.4.7.9.6.1.X.P y r a } ",
"K n y 8 l M D F H K U Y R W ^ ) _ [ | X.$.&.-.,.1.6.T                     C &.&.$.@.O.O.$.%.&.&.*.>.,.1.3.5.7.8.3.1...I i 9 x } ",
"I n y 9 l C D F H U P Y R W ^ ) ) [ }  .#.&.&.;.,.2.T                     C *.&.$.@.O.@.$.%.%.*.;.;.,.1.3.3.7.7.3.1. .L i i a [ ",
"K n u 8 l M F F J K U Y R W ^ ^ ) [ [  .+.$.&.-.:.,.Q                     V *.$.$.O.$.$.$.$.%.%.-.;.;.,.2.3.4.7.4.:.| G 9 y a [ ",
"K n y 8 n M D F K I U U R E W ^ / [ } | ..X.$.%.-.,.U                     V $.$.$.o.#.#.O.$.$.%.&.*.;.,.2.4.4.4.4.:.} G r 9 x ] ",
"J n y 4 l M S F K K I U U R W ^ / _ ' ......+.$.&.,.U                     V $.o.o.O.o.X.X.@.$.@.$.*.&.:.1.2.4.2.1.-.} G 9 9 a ' ",
"J n y 8 l C M F K K K U U R E ^ / ' ' } ....X.#.%.-.P                     M o.o.o. .X...X.X.X.o.$.%.&.*.:.<.1.2.,.%.' D 9 i x ' ",
"J n y 4 n M S F F P P U U R E ~ ^ ) ` { } |  .o.O.&.P                     M o. . . . . . . . .o.O.O.$.$.&.=.:.:.;.$._ A w r a ' ",
"Z n y w a M C D F L P I U R R ! ! ^ ) ` ` [ }  .o.$.H                     M  . . .| | |  . . .o.X.o.O.#.$.&.*.-.*.o.( C w r a _ ",
"J n e 4 a m V S G L L I U Y R R ! ^ ^ ) _ ` [ }  .o.F                     M  . .| | { | | | |  . .X.X.O.O.#.$.&.$...^ C 9 y l ) ",
"Z n w 4 p m C C S F J L P U U R ! ! E ( ) ) _ { } X.F                     n } } { { { { { { } | | |  .X.o.O.O.O.+.} ! B 8 9 a ) ",
"F l y 7 i m M C A D F L P L I Y E R E E ~ ^ ( ` [ | Z                     x } [ { { { { ] ] { { } } }  . .o.o.o.X.{ ! m 7 9 a / ",
"S l w 4 u m M V C D F F F G I U Y R R R E W ^ ( ` [ C                     n } } { { ] ] ` ` ] ] [ [ { } |  . .o.X.{ Y B 7 9 a / ",
"S l w 4 y m M M V C S F F L L I U U U R E E W ( ( ` V                     j [ [ [ ` ] ` ` _ ` ' ` ` ] } } } |  ...' Y B 9 9 a ^ ",
"S l w 4 r l M V C C A D F F L L P P I U U R E W ^ _ M                     j ` ( ` ` ` ( ) _ ) _ ` ` ` ] { { | | } ' Y m 6 9 i ^ ",
"S j w 4 y l x M C C C D G G G F K K K I I R R E W ( n                     p _ ) ) ^ ^ ) ) ( / / ) _ ` ' ] ] [ } } _ U m 7 9 i ! ",
"Z a 9 4 y l m M V C C D D D D G K H K P P I I R R W n                     p ) / / ~ ^ ~ ^ / / / / ) _ ' ' ] ` { [ / U m 8 9 i E ",
"M a 9 4 r j l m B B C C A A D D F F K P P P I U R W m                     u ^ ~ ~ ~ ! ! ~ ^ / / / / ) ) _ ' ` ' ' _ I m 7 9 i Y ",
"Z a 8 4 y a x n m B B V V A D A F F G K J K P I U R x                     u W W ! ! ~ ! ! ! ^ ^ ~ ~ ^ ) ) _ _ ` ' ^ P n 7 9 i Y ",
"M l 9 4 r a l n m B B M C C A A F F G G L P P P I U j                     y E R ! ! ! ! R ! ! ! ~ ~ ~ ^ ^ / _ ` ) ! H x 7 8 i P ",
"M a 8 4 r p a l x m M B B B C C D F F G G F L L K I p                     y R U I I Y R R R ! ! ! Q ! ! ~ / / ) / ! G x 7 7 y L ",
"M a w 4 w p a l m B m M M B C C C A D D A C C S J I u                     y U P D G I I I R Q Q R Y I ! ! ~ ~ ~ ~ Y F l 7 6 r H ",
"M a 8 4 9 y p l m m m B M B M C V C C C B M m C S L u                     w P F C C F P P P R R I I Y Q R ! ~ ! ! U D a 8 6 r H ",
"m y 8 4 9 y u a l x m M M M V V V V C C M m m M A H i                     w P D B B A G G P I I I I Q Y Y E E E R P A a 7 7 9 F ",
"n y 7 3 8 y u p a a m m M M B V V C C B x m n m V D y                     w H F B B A D G G P P P I I Y Y Y R W Y L C p 8 6 r F ",
"l r 7 3 4 y u u a l x m m m M M V V M M x x m m M A y                     9 F D B V A A D L L L P I I I I Y Y Y I G B p 7 6 9 S ",
"j r 4 4 4 r y u a j a m m m m M B c n M m u a x m A 9                     6 F A m B V A A D L L P I P I I Y I I I G C p 7 6 9 S ",
"a w 4 3 7 r y u p p a l l n n m x M m m m l l n M A w                     7 F D V V V A D D F G G P P P P P I I I F C u 7 6 9 C ",
"a w 4 3 7 w y u u p a j l l l l x x m m m m l m M C 8                     7 F D A A A A D D D G G G P P P P P P I F m y 7 6 9 C ",
"u 8 3 = 4 y y r y u a a l l a l x x m c n m n n M N 8                     7 F D A A C C A A F F D G G L G L P P G A m y 6 6 6 C ",
"u 4 3 3 4 w r y u u u a a j a m l l x l n m m n M M 8                     4 D D A A C C A A D A D F D L G L J F G C x r 3 < 9 B ",
"u w 4 = 4 w r r u u u u a u n j g a p j j x x l l M 7                     7 A A A C C C C C A A C A D F F L F F D V x r 3 6 6 B ",
"p 4 3 $ > < 4 0 5 5 w 5 5 5 5 5 e e e e t e e e t x 7                     7 A z k z z h k k z z z z N b v N b v z j e 7 > < 6 B ",
"u 8 4 $ : : , 1 2 1 2 2 5 5 5 2 1 5 q 0 5 5 0 2 0 j 7                     6 C g f f d d s d f f g g k k k k k f f e 0 , - 3 6 B ",
"y 4 3 # $ : , 1 2 1 1 1 5 5 1 1 2 2 2 5 5 5 5 2 5 j 6                     3 C f s s d d s e d d d g h k k k k k d q 5 , & ; 6 B ",
"r 7 < + + : : , 1 1 1 1 1 2 2 2 2 2 2 2 2 2 2 2 5 p 3                     4 M g s t s e q q s s s d d d d d k g d q 2 , : < 6 B ",
"r 7 < + + : : , , 1 1 1 1 1 1 , 1 1 1 1 2 2 2 2 2 u ,                     3 n t e q q q q q q q q e q s d d d d t w 2 , & < 6 x ",
"r 7 < O $ $ : , , , , , , 1 1 , 1 1 1 1 2 2 1 1 2 y 3                     < n r q q q q q q q q q e e s d d d t q 0 2 < - 6 6 x ",
"w 7 > + $ $ : : , , , 1 1 1 , , 1 1 1 1 1 2 2 1 2 t 3                     3 l e q q 0 q q q q 5 5 5 5 q q d d t e 5 1 > & ; 6 x "
};
