/* XPM */
static char *animation29[] = {
/* columns rows colors chars-per-pixel */
"64 48 105 2 ",
"   c #000100",
".  c #070909",
"X  c #090A09",
"o  c #130E0D",
"O  c #190F0F",
"+  c #0F100D",
"@  c #12120E",
"#  c #1C110F",
"$  c #141513",
"%  c #1D1412",
"&  c #161817",
"*  c #1C1A16",
"=  c #171918",
"-  c #181A1A",
";  c #231613",
":  c #251915",
">  c #231D1B",
",  c #2B1B1A",
"<  c #26211D",
"1  c #2A231E",
"2  c #32211F",
"3  c #252421",
"4  c #2A2622",
"5  c #2D2925",
"6  c #2E2C29",
"7  c #332421",
"8  c #392623",
"9  c #302B26",
"0  c #3D2926",
"q  c #332E2A",
"w  c #3B2C29",
"e  c #35312C",
"r  c #39332E",
"t  c #3F382F",
"y  c #353330",
"u  c #3B3631",
"i  c #3E3933",
"p  c #402B27",
"a  c #432D2A",
"s  c #4C2E2C",
"d  c #4A312E",
"f  c #42392F",
"g  c #483632",
"h  c #433C35",
"j  c #483F36",
"k  c #453E39",
"l  c #4A3F39",
"z  c #503D37",
"x  c #513E39",
"c  c #46403B",
"v  c #4B433C",
"b  c #4D4741",
"n  c #4F4841",
"m  c #514742",
"M  c #534B44",
"N  c #554F48",
"B  c #594F4A",
"V  c #585047",
"C  c #575049",
"Z  c #5B534C",
"A  c #5E5750",
"S  c #60574E",
"D  c #62584F",
"F  c #645B52",
"G  c #685F53",
"H  c #6B6156",
"J  c #6D6359",
"K  c #70665B",
"L  c #74695F",
"P  c #766B61",
"I  c #796E63",
"U  c #7B7166",
"Y  c #7D7469",
"T  c #82766A",
"R  c #86796C",
"E  c #897C6E",
"W  c #8A7E71",
"Q  c #8D8173",
"!  c #8F8578",
"~  c #918576",
"^  c #928779",
"/  c #95897C",
"(  c #998D7E",
")  c #9C8F80",
"_  c #9E9182",
"`  c #A29485",
"'  c #A69788",
"]  c #A89789",
"[  c #A6988A",
"{  c #AA9C8D",
"}  c #AD9F90",
"|  c #AFA293",
" . c #B1A494",
".. c #B6A799",
"X. c #B6A999",
"o. c #BAAD9E",
"O. c #BDAFA1",
"+. c #BFB1A2",
"@. c #C4B5A5",
"#. c #C6B7A9",
"$. c #C8B7A8",
"%. c #CABBAC",
"&. c #CCBFB0",
"*. c #CCC1AF",
"=. c #CEC2B3",
/* pixels */
"J M v M v Z Z Z S D G G H H J K P P P P I U Y Y Y Y Y Y Y Y R Y Y Y Y Y Y Y Y Y Y Y Y Y U U U Y Y Y U Y U U U U U Y Y U U U Y [ ",
"H w @ + + + + + + + @ @ $ $ $ * = = & = = = - - = - - - - - - - - - - - - - - - - - - - - - - - - - & $ $ $ $ $ + + @ o @ $ 5 ^ ",
"J f < + + @ $ $ * * * * $ . . . X X X X . X X X X X X X X X X X + . . X X X X X X X X X . X X X X X . - 6 6 6 6 6 6 3 > - - r / ",
"J v 5 $ < < 1 5 2 q q r 1 .                                     .                                     5 F F F H J F M r < 3 i / ",
"J v q * 1 e r r f c c v r                                                                             u R E Q ^ ^ E J c < 5 h ^ ",
"J v e 1 9 c v v v M v V i                                                                             v ` [ }  ...[ R M 5 6 k / ",
"H v t 1 t v v Z Z Z S D v                                                                             M  .o.+.@.@...! Z q 6 k ) ",
"H v r 1 t v Z Z Z S D J v X                                                                           B o.+.#.&.%.+.) F y 6 k / ",
"G m r 5 i b Z A F G H H n                                                                             Z @.%.%.=.=.@._ G y y l ) ",
"G v r 9 h N A F F H H K n .                                                                           Z @.%.=.=.=.@.` G y y c ! ",
"D v w 6 h N A F A F H J M .                                                                           Z @.*.=.=.&.@.) G y 6 c ) ",
"G v r 6 h N A A F F F J M                                                                             Z @.%.&.=.&.@.( F y y c W ",
"D v t 9 k N A A F G G H v                                                                             Z @.$.%.%.&.O./ F y y c W ",
"D v w 9 k N A Z A F F H M                                                                             Z O.+.#.$.#...! A q q c W ",
"S v e 5 k N A A A A F H M                                                                             B O.O.O.@.+.| W A 6 y c W ",
"S v e 9 i N A A A F G H v .                                                                           V  .X.O.O.O.} R B 6 y c W ",
"S v w 5 h M Z Z Z S F F b                                                                             V  . ...X...] T M 9 q k E ",
"S j q 9 h b C C A A F F b .                                                                           m { }  . . .( T V 9 q k E ",
"S j q 4 u b N C Z S A A l                                                                             M { ] { } { ( L M 6 6 i E ",
"S j q 4 y b M N N Z A F k .                                                                           v ` ` ] ] ] ( L v 5 e i T ",
"Z k e 5 y c M m N N A A l                                                                             v ` ` ` ] [ / P v 4 6 i R ",
"V k q 1 y v v b n N N Z k .                                                                           v _ ( ] ] _ ^ K c 4 6 i Y ",
"V v q 1 e k v M n N N B k                                                                             l ^ ( ` ` _ ! J c 6 6 i Y ",
"V k q 1 e h v M b N m N h .                                                                           j W ~ / ( ^ R H c 4 6 i Y ",
"V h q 1 q h v v v v V V h                                                                             k E Q ! ~ ! T H c 1 6 i L ",
"V h 9 1 q h j v v v v v g                                                                             h R Q Q Q Q T H v 5 6 i L ",
"M f q 1 e h f v v v v V f                                                                             i T R R Q R T H v 5 6 i K ",
"v h q < q f j v v v M v r .                                                                           t U T R Q Q T D v 5 6 i J ",
"M h q < q h k j v v v v r .                                                                           y I U R Q Q U A c 5 5 y H ",
"b h q 1 q i k k v v c v r                                                                             r P P I Y U K Z c 5 3 y F ",
"v i q 1 q u u t f h c v w .                                                                           r H J D J H H Z i 3 5 y A ",
"v i 9 < 9 r e e w t c c r                                                                             e H H V Z V A n t 5 5 e A ",
"k t 9 < 9 q q q e y h k w .                                                                           q F S M C M C b f 5 5 e Z ",
"k r 5 < 5 q q e q e t k q                                                                             q A S m C M C v r 3 4 e A ",
"h e 5 < 4 q q q e r r h q                                                                             6 A Z m B M M v r 3 3 6 Z ",
"f e 4 < 3 9 q 5 q q t u 5 .                                                                           5 Z Z m M M M j r 3 3 6 Z ",
"h e 1 < 3 9 q q q e y h 9                                                                             9 A A B Z M M v e 5 3 6 Z ",
"t q < < 1 9 e q e r r h 5 .                                                                           5 A B A S Z M c e < 3 6 N ",
"r q < < 1 9 q e e r e t 5                                                                             5 N A A A Z M k e < 3 6 N ",
"r q < * 1 5 q e e e e r 9                                                                             5 N B A A C M c r 3 3 6 n ",
"r 9 < * < 5 9 q w q q y 4                                                                             4 N B A B C m l w 3 3 5 b ",
"r 9 < % : > 1 1 2 2 7 q 4                                                                             4 m l x x x h 0 4 > < 6 b ",
"r 1 1 # ; ; : , , , , q 1                                                                             3 m g s s s a 7 , = 3 4 b ",
"e 5 < # ; ; ; , , , , 8 >                                                                             3 v s a s a 0 7 : ; - 3 b ",
"e 5 > # O # ; , : : , 9 >                                                                             , l a p p w 0 , > % 3 3 c ",
"q 4 > O # ; ; ; ; ; , 9 >                                                                             > l w p 0 8 8 2 , % > 5 c ",
"q 5 : # # # ; , ; ; > 7 >                                                                             : g w 8 8 8 8 2 , = > 5 c ",
"q 3 ; O # # ; ; ; ; : 7 >                                                                             > g 0 8 8 2 2 , , % > 3 c "
};
