/* XPM */
static char *animation41[] = {
/* columns rows colors chars-per-pixel */
"64 48 95 2 ",
"   c #000100",
".  c #090505",
"X  c #070805",
"o  c #090907",
"O  c #070A09",
"+  c #090A09",
"@  c #180F0F",
"#  c #0E100D",
"$  c #10110F",
"%  c #1B110F",
"&  c #141513",
"*  c #1C1312",
"=  c #151817",
"-  c #1B1915",
";  c #171918",
":  c #191A19",
">  c #221513",
",  c #251A16",
"<  c #221E1B",
"1  c #2A1D1B",
"2  c #25211E",
"3  c #29221E",
"4  c #31221E",
"5  c #242321",
"6  c #2A2521",
"7  c #2E2925",
"8  c #2E2C29",
"9  c #352421",
"0  c #382724",
"q  c #312B26",
"w  c #3C2C27",
"e  c #332E2A",
"r  c #3F2C29",
"t  c #35312C",
"y  c #3A342E",
"u  c #353330",
"i  c #3C3631",
"p  c #3E3933",
"a  c #40362F",
"s  c #453730",
"d  c #433C35",
"f  c #483D36",
"g  c #443E39",
"h  c #46413B",
"j  c #4B433C",
"k  c #50473F",
"l  c #50483F",
"z  c #4C4641",
"x  c #4F4842",
"c  c #524643",
"v  c #534B44",
"b  c #584F47",
"n  c #554E48",
"m  c #585047",
"M  c #57504A",
"N  c #5B534C",
"B  c #5E5650",
"V  c #61574C",
"C  c #64594E",
"Z  c #645B52",
"A  c #685F53",
"S  c #6B6256",
"D  c #6E655A",
"F  c #70665B",
"G  c #73695E",
"H  c #756C62",
"J  c #796E63",
"K  c #7C7267",
"L  c #7D7469",
"P  c #807466",
"I  c #81776B",
"U  c #85796C",
"Y  c #887C6E",
"T  c #8A7D70",
"R  c #8D8173",
"E  c #918577",
"W  c #928679",
"Q  c #958A7D",
"!  c #9A8E7E",
"~  c #978C80",
"^  c #988D80",
"/  c #9E9182",
"(  c #A29485",
")  c #A49788",
"_  c #A79889",
"`  c #A99A8B",
"'  c #AF9F90",
"]  c #B2A494",
"[  c #B6A999",
"{  c #BBAD9D",
"}  c #C2B4A5",
"|  c #C7B8A9",
" . c #CABCAC",
".. c #CFC2B2",
"X. c #D2C4B5",
/* pixels */
"D b k v l N N V V C Z S S S D D H H H H H K K L L L I I L L I L L L L L L L L L K L L L L L L K L L L L L K K L L I L K K J K ` ",
"S y $ # # # & $ & & & & & & = = ; : ; ; ; ; ; : ; ; ; ; : : : : : : : : : : : : : : : : : = : : : : = = ; ; = = & & $ # & $ 7 Q ",
"S j 2 # # & $ - - O X X O O O O O O O + + o o O O O + + + + + + # # O O O O O O + + + + O + + + + + O O O O + < u 8 5 < : : i ~ ",
"D j 7 * < 3 3 7 3 X X X                   .     .                                                             i D Z v i 3 5 p ~ ",
"D l t - 3 t y y y o                                                                                           z W Y D h 6 7 g Q ",
"D v y 3 q h h j g +                                                                                           Z [ ) U n 7 q z ~ ",
"S v i 4 i h l l j o     X                                                                                   . D | [ E N q 8 z ~ ",
"S l i q d l l m c +                                                                                           H  .{ Q Z t 8 z ~ ",
"S v i q g x n B b o                                                                                           H X.} / A e t x ~ ",
"A v i e g n B B m o .                                                                                         J X.} ^ Z t u x Q ",
"A v p e d n n B m +                                                                                           H X.} / Z e t x Q ",
"C v p 8 d c n B N +                                                                                           H X.} ! Z t t z W ",
"C b a 0 g n n N n +                                                                                           H ..{ E Z t u z W ",
"C l y q g n n N v +                                                                                         X H | { R N e t z T ",
"C l y q d x n N v +                                                                                           H } ' T B 8 u z T ",
"C l y q d v N N v +                                                                                           D { ` T n 8 u z T ",
"C l y q s x M M b +                                                                                           D [ ( U b 7 t j T ",
"C l y 7 s x M M c +                                                                                         X A ] / L c 7 t j T ",
"V k y q p z n M k o                                                                                           Z ] ^ J c 7 u h Y ",
"V j y 3 p z x n c +                                                                                           Z ` Q H z 7 8 z Y ",
"N j y 7 y h c v z o                                                                                           Z _ W H x 7 t h L ",
"N j y 3 y h j v z +                                                                                           V _ E H x 5 8 h I ",
"N j y 3 y h j j j +                                                                                           m ! R G j 6 t h L ",
"N j y 3 w h j j h +                                                                                         X n W Y D h 6 8 h L ",
"N j t 3 t h h j s # X                                                                                         v W U A h 3 q h J ",
"v j t 3 q h h h s #                                                                                           v R U S h 3 q g J ",
"l h t 3 w a h h d +                                                                                         X v Y P A j 7 u g G ",
"l h t 3 q w h h d +                                                                                           j U J C j 7 8 p D ",
"v h t 3 t p s h p +                                                                                         X j K G Z h 5 8 p S ",
"l h t 3 t i a h p X                                                                                           j J S M d 5 8 u Z ",
"j d q 2 7 d i y p X                                                                                           h G Z l y 5 8 p Z ",
"j d 3 2 3 y i h y X                                                                                         X h D N h e 5 5 u B ",
"f i 6 < 6 e u p i o                                                                                           d A m d e 5 5 u V ",
"g i 6 < 6 q t s t o                                                                                         X i Z N d e 2 5 u B ",
"g y 6 < 6 q e u t o                                                                                           i B n i q < 5 u N ",
"s y 6 - 5 q q y q X                                                                                         X i B n i 7 : 5 e M ",
"i y 3 : 2 q e y e o                                                                                           i C l h q 2 5 e n ",
"i t 6 , 2 q e u e +                                                                                           u C b h t 2 5 t n ",
"y t 6 - 6 7 q e q o                                                                                           y M v g e < 5 8 n ",
"y e 6 < 7 q q q 8 o                                                                                           y M x h e 2 5 u x ",
"y t 5 < 3 7 q q 7 .                                                                                           e n z f q 1 5 8 x ",
"y q 3 * > , 3 q 9 .                                                                                           e v s w 4 < < 8 x ",
"y q 3 % > > , 9 6 .                                                                                           e c a 4 1 * 5 8 x ",
"y q 2 * % > , 6 3 o                                                                                           7 j w 4 , * 5 8 z ",
"e q 5 % > > > 9 2                                                                                             6 f 0 4 , * < 8 h ",
"e 8 1 @ @ > > 1 1 X                                                                                           6 f 0 1 , * 5 8 h ",
"e q 1 & * * > 6 1 X                                                                                           1 d 9 1 > @ < 8 h ",
"e 8 1 @ @ > > 1 1                                                                                             1 a 4 1 < @ 5 8 h "
};
