/* XPM */
static char *animation34[] = {
/* columns rows colors chars-per-pixel */
"64 48 102 2 ",
"   c #000100",
".  c #090504",
"X  c #090907",
"o  c #070A09",
"O  c #090A09",
"+  c #170E0E",
"@  c #180F0E",
"#  c #0F100D",
"$  c #11110F",
"%  c #1C110F",
"&  c #141513",
"*  c #1C1312",
"=  c #151817",
"-  c #1D1A16",
";  c #171918",
":  c #191A1A",
">  c #221613",
",  c #241915",
"<  c #231E1B",
"1  c #2A1D1A",
"2  c #25211D",
"3  c #29231F",
"4  c #32211E",
"5  c #242421",
"6  c #2B2521",
"7  c #2D2925",
"8  c #2D2C29",
"9  c #362521",
"0  c #382623",
"q  c #312B27",
"w  c #3D2925",
"e  c #332E2A",
"r  c #3E2E29",
"t  c #35312C",
"y  c #3A342E",
"u  c #373430",
"i  c #3C3631",
"p  c #3E3933",
"a  c #432F2C",
"s  c #45302C",
"d  c #473530",
"f  c #433C35",
"g  c #4B3A35",
"h  c #443E39",
"j  c #493F39",
"k  c #494037",
"l  c #46403B",
"z  c #4B433C",
"x  c #50473F",
"c  c #4C4640",
"v  c #4F4842",
"b  c #504642",
"n  c #524B44",
"m  c #584F47",
"M  c #554E48",
"N  c #585047",
"B  c #575049",
"V  c #5B534C",
"C  c #5F584E",
"Z  c #5D5650",
"A  c #61574D",
"S  c #62584E",
"D  c #605750",
"F  c #645B52",
"G  c #685F55",
"H  c #6B6256",
"J  c #6D6459",
"K  c #70665C",
"L  c #74695F",
"P  c #746B61",
"I  c #796E62",
"U  c #7B7166",
"Y  c #7D7469",
"T  c #807466",
"R  c #81776A",
"E  c #857A6C",
"W  c #897D6F",
"Q  c #8B7E71",
"!  c #8F8275",
"~  c #918576",
"^  c #928679",
"/  c #958A7C",
"(  c #9A8E7F",
")  c #978C80",
"_  c #9D8F80",
"`  c #9C9081",
"'  c #A19485",
"]  c #A59688",
"[  c #A69989",
"{  c #AA9C8C",
"}  c #AFA092",
"|  c #B2A595",
" . c #B4A798",
".. c #B6A999",
"X. c #B9AC9C",
"o. c #BDB0A1",
"O. c #C2B5A6",
"+. c #C5B7A8",
"@. c #C7B8A9",
"#. c #CBBCAD",
"$. c #CEC1B2",
"%. c #D0C2B4",
/* pixels */
"J m x n x V C C A S H H H H J J P P P I I U Y Y Y Y R Y Y Y E Y Y Y Y Y Y Y Y Y Y Y Y Y Y Y U U Y Y Y Y Y Y Y Y Y Y Y Y U U U [ ",
"H t $ $ # # # # $ $ & = & & = = ; ; ; ; ; ; ; : ; ; : : : : : : : : : : : : : ; : : : : : = : : : : : = = : & & & & & # # & 7 ^ ",
"J k 2 $ $ & & = - - o o O O o o O O O O o O O O O O O o O O O O # O O # O O o o O O O O o O O O O O o O O O : e 7 7 6 < : : u ) ",
"J z 6 % - 3 3 3 q 3 .                                                                                       u J H F n y 2 6 p ) ",
"J x e - 3 t y u p t .                                                                                       z ^ ^ E J l 3 6 l / ",
"H x y 3 t k k z v h X                                                                                   .   C  .| [ E n 7 8 l / ",
"H x i 3 i z x v B c O                                                                                       H +.+...^ V 8 8 l ) ",
"H x i 7 k x M B Z v O                                                                                       P #.$.o./ F t t v ) ",
"G n i q h M V Z Z M X                                                                                       P %.$.o.` H t u c ^ ",
"G b i q h M V Z F N X                                                                                       P %.$.o.` C u t c ) ",
"S n i e h M B Z F B O                                                                                       P #.%.+.) H u u c ^ ",
"S n u e h M M V F M O                                                                                       P %.$.o.( C e 8 c ^ ",
"S x s e h M M V A M O                                                                                   .   P #.#.X./ Z t t c ! ",
"S x y 8 h n V Z A n X                                                                                       K #.@. .! Z t t c Q ",
"S x y e f n M V A n X                                                                                       J +.o.} ! Z 8 u c Q ",
"A z y q h n V V C n O                                                                                       H o.X.} E M 8 8 c Q ",
"S z t 7 k v N V V n O                                                                                       G .. .[ E n q t z Q ",
"S x y 7 i v B B V n X                                                                                       G | } ' U n 7 e l Q ",
"A k t 7 p v B B V c X                                                                                       D | } ( I n 5 t l E ",
"A g y 4 i x v M V z X                                                                                       S { ] ^ I z 8 t l E ",
"V z y 3 y l v n M c O                                                                                       V { ' ^ I b 7 e h R ",
"V z t 3 y l x v n c O                                                                                       V [ ' / P c 7 8 l Y ",
"V k t 3 y k l x n h X                                                                                       M _ ` ! P z 6 8 h Y ",
"V k t 2 y k k z b h X                                                                                     . M / ~ ! J k 6 e h Y ",
"N k e 2 e k k k x l .                                                                                     . n ~ ~ E H f 2 e h I ",
"N k t 3 e k k k k l X                                                                                       x ~ ! E H k 6 e h P ",
"x f t 3 t i k k k f X                                                                                       x ! W T G z 8 8 p P ",
"n k t 2 e y k k k i O                                                                                       z E E U S z 7 8 p J ",
"v l t 3 t i f k k p X                                                                                       z R Y U F l 6 8 u H ",
"x f e 3 t i i k h p .                                                                                       k U I H V p 6 8 u F ",
"z f 8 2 7 y i k h y X                                                                                     . k L H V x y < 8 u C ",
"z p q 2 3 e u p f y .                                                                                     . f H G x k 8 2 8 u C ",
"k i 7 < 6 q e i p i .                                                                                     . p H F z f e 2 6 t V ",
"h i 6 - 6 6 e y p t .                                                                                       i F Z c f e 2 5 u C ",
"h y 6 - 2 7 e t i t .                                                                                       i F C z p q < 5 8 V ",
"f y 6 < < 6 e t y e .                                                                                       y F V k f 8 < 5 t B ",
"f t 6 , 2 7 e t y e X                                                                                       y D V x f e 2 5 8 B ",
"y t 2 < 3 7 e t y e .                                                                                       y D V n k e 2 5 t B ",
"y t 3 - 3 7 e t t 7 .                                                                                       y V B M l 8 5 5 8 M ",
"y e 2 < 6 q e e t 7 .                                                                                       t V B v l t < 5 8 v ",
"y e 2 < 2 7 q e e q .                                                                                     . e V B v f e 2 5 8 v ",
"y e 2 * , < 1 2 q 6 .                                                                                       e M g f r 9 - 2 8 v ",
"t e 2 % > > , 1 9 6 .                                                                                       e b s w 0 1 * : 8 c ",
"t q 2 % % > > , q 3 .                                                                                       7 b a w 4 1 , 5 8 c ",
"t q 2 % % > > > 6 1 .                                                                                       7 j r 0 4 1 * 5 8 l ",
"e 7 < % % > > > 3 <                                                                                         6 j w 9 1 , * 5 8 l ",
"e q < + % > > > 6 < .                                                                                       1 h 0 4 1 , * 5 8 l ",
"e 6 1 @ @ > > > 6 1                                                                                         < f 9 4 1 > * : 8 h "
};
