/* XPM */
static char *animation40[] = {
/* columns rows colors chars-per-pixel */
"64 48 95 2 ",
"   c #000100",
".  c #090505",
"X  c #070805",
"o  c #090907",
"O  c #070A09",
"+  c #090A09",
"@  c #180F0F",
"#  c #0E100D",
"$  c #10110F",
"%  c #1B110F",
"&  c #141513",
"*  c #1C1312",
"=  c #151817",
"-  c #1B1915",
";  c #171918",
":  c #191A19",
">  c #221513",
",  c #251A16",
"<  c #221E1B",
"1  c #2A1D1B",
"2  c #25211E",
"3  c #29221E",
"4  c #31221E",
"5  c #242321",
"6  c #2A2521",
"7  c #2E2925",
"8  c #2E2C29",
"9  c #352421",
"0  c #382724",
"q  c #312B26",
"w  c #3C2C27",
"e  c #332E2A",
"r  c #3F2C29",
"t  c #35312C",
"y  c #3A342E",
"u  c #353330",
"i  c #3C3631",
"p  c #3E3933",
"a  c #40362F",
"s  c #453730",
"d  c #433C35",
"f  c #483D36",
"g  c #443E39",
"h  c #46413B",
"j  c #4B433C",
"k  c #50473F",
"l  c #50483F",
"z  c #4C4641",
"x  c #4F4842",
"c  c #524643",
"v  c #534B44",
"b  c #584F47",
"n  c #554E48",
"m  c #585047",
"M  c #57504A",
"N  c #5B534C",
"B  c #5E5650",
"V  c #61574C",
"C  c #64594E",
"Z  c #645B52",
"A  c #685F53",
"S  c #6B6256",
"D  c #6E655A",
"F  c #70665B",
"G  c #73695E",
"H  c #756C62",
"J  c #796E63",
"K  c #7C7267",
"L  c #7D7469",
"P  c #807466",
"I  c #81776B",
"U  c #85796C",
"Y  c #887C6E",
"T  c #8A7D70",
"R  c #8D8173",
"E  c #918577",
"W  c #928679",
"Q  c #958A7D",
"!  c #9A8E7E",
"~  c #978C80",
"^  c #988D80",
"/  c #9E9182",
"(  c #A29485",
")  c #A49788",
"_  c #A79889",
"`  c #A99B8B",
"'  c #AFA091",
"]  c #B2A494",
"[  c #B6A999",
"{  c #BBAD9D",
"}  c #C2B4A5",
"|  c #C7B8A9",
" . c #CABCAC",
".. c #CFC2B2",
"X. c #D2C4B5",
/* pixels */
"D b k v l N N C C C S S S S D D H H H H H K K L L L I I L L I L L L L L L L L L K L L L L L L K L L L L L K L K L I L K K J K _ ",
"S y $ # # # $ & & & & = & & = = ; : ; ; ; ; ; : ; ; ; ; : : : : : : : : : : : : : : : : : = : : : : = = ; = = = & & & + & & 8 W ",
"S j 2 # # # & - - o X O O O O O O O O + + o o O O O + + + + + + # # O O O O O O + + + + O + + + + + O O O + O < u 8 5 < : : i ~ ",
"D j 7 * 2 2 3 7 3 X                       .     .                                                             i D Z v i 2 6 p ~ ",
"D l t - 3 t t i y o                                                                                           x Q Y S h 3 7 g Q ",
"D v y 3 q h h j d +                                                                                           Z [ ) U n 7 e h ~ ",
"S v i 4 i h l l j +   .                                                                                     . D | [ E N 8 8 z ~ ",
"S l i q d l l m c +                                                                                           H  .{ Q Z t t z ~ ",
"S v i q g x n B b o                                                                                           H X.} / Z t u x ~ ",
"A v i e g n B B m o .                                                                                         J X.} / Z t t x Q ",
"A v p e d n n B m +                                                                                         X H X.} / Z e u x W ",
"C v p 8 d c n B N +                                                                                           H X.} ! V e u z W ",
"C b a 0 g n n N n +                                                                                           H X.{ W B t t z W ",
"C l y q g n n N v +                                                                                           H | [ E B e u z E ",
"C l y q d x n N v +                                                                                           G } ' T N e u h T ",
"C l y q d v N N v +                                                                                           F { ` T n 8 u z T ",
"C l y q s x M M b +                                                                                           D [ ) U b 7 t h T ",
"C l y 7 s x M M l +                                                                                         X Z ] ( L c 7 t h T ",
"V k y q p z n M c +                                                                                           Z ] ^ J x 7 u z Y ",
"V j y 3 p z x n c +                                                                                           Z _ W J x 6 u h U ",
"N j y 7 y h c v j +                                                                                           Z ` W H v 7 8 h I ",
"N j y 3 y h j v x +                                                                                           V ) W H j 6 u h L ",
"N j y 3 y h j j j +                                                                                           m ! R G j 7 8 h L ",
"N j y 3 w h j j h +                                                                                         X n W Y D h 3 e h L ",
"N j t 3 t h h j s #                                                                                           v E U A h 3 8 h J ",
"v j t 3 q h h h s #                                                                                         X v R U A h 4 e d J ",
"l h t 3 w a h h h +                                                                                         X x Y P A j 8 8 d G ",
"l h t 3 q w h h p +                                                                                           j U J A h 8 8 g D ",
"v h t 3 t p s h p o                                                                                           j L G C h 5 8 i S ",
"l h t 3 t i a h p o                                                                                         X j J S M h 3 8 u Z ",
"j d q 2 7 d i y i o                                                                                       X   h G C l u 5 5 i Z ",
"j d 3 2 3 y i h y o                                                                                           h S B h u 2 5 u Z ",
"h i 7 < 6 e u s i o                                                                                         X d A m d e 5 5 u V ",
"f i 6 - 5 e t i t o                                                                                           d Z N d e 2 5 u B ",
"d y 6 < 3 e e i t o                                                                                           i B n i q < 5 u N ",
"s y 6 - 3 q e t e X                                                                                           i B n i 7 : 5 e M ",
"p y 6 - 2 q e t e o                                                                                           i V b h q 2 5 e n ",
"i e 6 - 2 q e y e o                                                                                           u V l j t 2 5 t n ",
"y e 6 < 6 7 q e q o                                                                                           y m v g t 5 5 8 n ",
"y e 6 < 6 q e e 8 o                                                                                           y M x g t 2 5 8 x ",
"y e 5 < 3 7 q e 7 o                                                                                           e n x f e < 5 e x ",
"y e 3 * > , 1 q 9 .                                                                                           e v s w 4 < < 8 x ",
"y q 3 % > > , 9 6 .                                                                                           e c a 4 1 ; < 8 x ",
"t q 6 * % > , 6 6 .                                                                                           7 j w 4 , > < 8 z ",
"e q 2 % > > > 9 1                                                                                             6 g 0 4 1 * < 8 h ",
"t q 2 % @ > > 1 1 o                                                                                           6 f 9 1 , * 5 8 h ",
"e q < * * > > 6 < o                                                                                           1 s 9 1 > @ < 8 h ",
"e 7 < @ @ * > 1 1                                                                                             1 i 9 1 > * 5 8 h "
};
