/* XPM */
static char *animation1[] = {
/* columns rows colors chars-per-pixel */
"64 48 119 2 ",
"   c #0F0E0D",
".  c #110F0D",
"X  c #190F0E",
"o  c #0F100C",
"O  c #11110E",
"+  c #1A100F",
"@  c #131412",
"#  c #1C1312",
"$  c #1B1A15",
"%  c #1D1D19",
"&  c #221513",
"*  c #251915",
"=  c #281917",
"-  c #211D1B",
";  c #2D1D1A",
":  c #311E1C",
">  c #25221E",
",  c #29231F",
"<  c #33211E",
"1  c #262522",
"2  c #2A2622",
"3  c #2D2925",
"4  c #2E2C29",
"5  c #352321",
"6  c #3B2623",
"7  c #312B27",
"8  c #3D2925",
"9  c #332E2A",
"0  c #3D2D29",
"q  c #36312C",
"w  c #3A332E",
"e  c #373431",
"r  c #3C3731",
"t  c #3E3833",
"y  c #412A26",
"u  c #432D2A",
"i  c #482F2B",
"p  c #45312D",
"a  c #4A312D",
"s  c #463531",
"d  c #4C3531",
"f  c #433C35",
"g  c #4B3B35",
"h  c #443E39",
"j  c #4E3E38",
"k  c #503732",
"l  c #503D36",
"z  c #523E38",
"x  c #494037",
"c  c #46403A",
"v  c #4B433C",
"b  c #54433C",
"n  c #4D4740",
"m  c #4F4842",
"M  c #524C45",
"N  c #584E46",
"B  c #554F48",
"V  c #584F48",
"C  c #595047",
"Z  c #57504A",
"A  c #5C544C",
"S  c #5F5750",
"D  c #5F5850",
"F  c #60574D",
"G  c #61584F",
"H  c #605750",
"J  c #645B52",
"K  c #685F55",
"L  c #6B6256",
"P  c #6E6559",
"I  c #71675C",
"U  c #73695D",
"Y  c #766C61",
"T  c #796E63",
"R  c #7C7165",
"E  c #7E7468",
"W  c #807467",
"Q  c #82766A",
"!  c #86796C",
"~  c #897C6E",
"^  c #877C71",
"/  c #8B7E70",
"(  c #8C806F",
")  c #8E8173",
"_  c #918576",
"`  c #938778",
"'  c #95897B",
"]  c #9A8D7E",
"[  c #9B907F",
"{  c #9C8F80",
"}  c #9E9182",
"|  c #A29485",
" . c #A69788",
".. c #A89789",
"X. c #A69889",
"o. c #AA9B8D",
"O. c #AD9F90",
"+. c #ACA08F",
"@. c #AEA192",
"#. c #B2A595",
"$. c #B3A896",
"%. c #B5A798",
"&. c #B6A999",
"*. c #BAAD9D",
"=. c #BCAFA0",
"-. c #BEB1A1",
";. c #C3B4A5",
":. c #C6B9A7",
">. c #C9B8A7",
",. c #C6B7A8",
"<. c #C6B8A9",
"1. c #CABCAC",
"2. c #CDC0AF",
"3. c #CEC3B3",
"4. c #CFC5B8",
"5. c #D0C5B6",
"6. c #D0C6B9",
"7. c #D4CABC",
"8. c #D6CDC1",
/* pixels */
"P N v M b C A A D G G K K K L L I I U U T U U R R R R R T E E E E E R R T R T R R R R R T R R T T T R R R R Y R E E E E E E E X.",
"L 9 O o o o o o o o o o o o o o o O O O O O O O o O     . O @ . O   @ @ @ @ @ @ @ @ @ @ @ @ o o o O       .         O O o O 1 ` ",
"L x >   o O @ @ @ $ $ $ $ $ > % > > > , 3 3 7 q q w e r e r e e e e 9 9 3 4 4 1 2 2 2 2 1 1 1 , 2 1 1 1 3 3 3 7 4 3 2 - $ % q ' ",
"L x , + > > , 3 7 7 7 7 w w w x x v v b C G J I Y T E Q ! Q T Y P P K K J S A Z N N M M m m B M Z Z A S G G G K K F m w > 1 e ' ",
"L x 7 % , 9 e r r x x x x v b F C G K P U R ~ _ ] } X.X.@.X.| { ` ` ) ~ ! R R U P P L L L L P U U R W W ! ! ~ _ ` ^ L h > 1 t ` ",
"L v 9 > 7 t c v v M v C C G L P P U R ! _ ' | o.&.-.,.<.:.:.=.*.$.+.o.| } ' ) ) ) ( ) ~ ~ ^ ) ) _ _ ' [ | ..o.#.%.} ! m 2 4 t { ",
"L x q , w v b M C A A G J P I T T ! / _ ] ..#.*.,.2.4.6.4.3.<.<.;.*.&.O.o.| ] ] ] ] ] } } } } |  . ...o.&.*.-.:.,.&.` S 4 4 t { ",
"L v q , w v C C A G G L P P U R ! ~ _ ' } o.%.;.1.3.7.7.8.7.3.1.>.,.;.*.#.#.o.o.X.o.X.o.X.o. .o.o.+.#.$.*.;.>.1.1.-.{ D 9 4 e { ",
"L v q 3 t M Z A G G L L P U T R ! ~ _ [ ..O.*.;.2.3.7.8.8.8.6.2.1.1.:.-.&.$.#.o.O.O.@.O.O.o.O.O.#.&.*.*.;.1.1.3.4.-.} J q q h ` ",
"K x q 3 t M Z A A L J L P U T R ! / _ ' ..O.*.;.2.7.7.8.8.7.6.3.2.1.>.-.&.$.$.O.O.O.O.@.@.O.O.%.&.*.-.-.;.1.3.4.6.-.} J 9 4 t ` ",
"G x q 3 f M B D J J L L I U T E Q / ` ] ..O.%.;.2.2.7.7.7.7.3.2.1.1.1.-.&.$.@.@.O.O.X.@.O.@.#.%.&.-.*.=.:.1.3.4.4.;.[ J e 4 c ` ",
"J x q 3 t M B D J L L L U Y T E ~ ~ ` ' | ..#.=.:.2.6.6.6.6.2.2.1.1.:.-.&.$.@.@.O.o.o.o.o.o.#.$.&.*.*.*.,.>.3.4.3.-.] J 4 e t ) ",
"G x w 5 f M D D G K K L P U T E ~ ~ _ ' } } @.=.;.2.3.3.5.5.2.:.:.1.;.&.&.#.@.O.o.X.o.....o.O.%.&.*.*.-.<.<.1.1.3.=.{ D 9 e t ) ",
"G x q 3 t M Z D G G K P I U T E W ~ ~ _ } } @.=.-.1.1.2.2.2.>.:.;.,.-.&.$.#.o.o.o.X.......o.O.#.&.*.*.-.-.,.<.1.<.=.` D 9 9 t ^ ",
"F x q 2 f M Z A F G K L P U Y T E Q ! ) ' } X.@.=.,.:.:.>.>.;.;.;.*.*.%.#.o.o. . .| | | |  .o.#.%.&.&.*.=.-.-.1.-.$.) S 9 9 h ^ ",
"F x q 2 t M Z Z D G J K L I Y T R E ~ ) ` ] | O.&.-.,.,.;.>.;.-.*.*.&.#.o. .| | } [ ] | } |  .o.@.#.#.#.=.=.-.-.-.@.) Z 9 e t ^ ",
"F x q , x v A A D D L L L P U Y T E ( ^ ) ' } X.#.&.=.=.=.-.*.*.%.#.#.O.o...| [ ] [ ] ] ] ] } | ..o.O.O.%.%.%.*.*.O.^ N 7 9 t ^ ",
"C x 7 3 r v C C A J D J J P I U T E E ( ) _ ' } o.+.@.&.*.*.&.$.#.@.O.o...[ [ [ ] ] ] ' ] ' ] ] [  ...o.O.@.%.%.&...! M 7 9 f Q ",
"F x 8 3 t v M C Z D D D J L I P Y T E E ^ ) ` { | ....O.$.$.O.O.@.@.O...[ ] ' ' ' ` ` ` ' ' ' ' ] [ |  .O.O.O.#.O.[ W M 4 9 f Q ",
"C x 7 , t v M M Z A A D J L L P I Y R E E ^ ( ` '  .....+.+.+.+.O...o.[ [ ] ' _ _ _ _ _ _ ` ' ' ' ] [ ] [ ....O.o.] W N 4 9 t Q ",
"C f 9 2 t v m M B Z A A S J J L P U U U E ! ~ ) _ ' ] [ ..........o.[ [ [ ] ' ) ) ) ( ~ / _ / _ _ _ ' ' ] [ ....O.} E M 3 4 t E ",
"C x 9 , e v v m B Z A A A D J K L L I U R Q ! ^ ( _ _ ] ] | | | [ o.....] ' _ ( ~ ( ~ ~ ~ ~ _ / ) _ _ ' ] [ [ o.O.{ T n 3 4 t E ",
"C f 9 > q x v v M M B Z A A S D J L L I U R E Q ~ ~ _ _ ' ] ' ' ] [ [ [ ' _ ~ ~ ~ ~ ~ ~ Q ! ~ ^ ~ ) / _ ' ' [ .. .{ Y v 4 4 t R ",
"C t 9 > 9 x v M m M B Z A A A S J K L L I U Y R W ~ ~ _ _ ' _ _ ' ' ] ] ) ~ ~ ~ W ! W Q Q Q ! Q ~ ~ ~ _ _ ' ] [ { ^ P n 1 4 e T ",
"C t 9 > 9 x x v M B B B Z A A S G L L L L P Y Y R W ! ~ / _ _ _ / ' ] / / ~ ! W Q R Q E Q Q Q Q Q Q ~ / _ _ ` ' ' ^ K h 3 4 e U ",
"N t 7 , q x x v v M M B B A S S G J K J K L P Y Y R W ! ~ ~ ~ ~ / ' / / ~ ~ ! W E E T E T R R W W W Q Q ^ / / ` ` Q K h 3 3 e U ",
"b t 4 , q f x x v v m B B Z Z A A S J J K K L P U R R W Q ~ ~ ~ ~ / ~ ~ W W W W E E T Y T T T T T W W Q ! Q ^ _ / Q K x 3 4 t P ",
"M t 7 , q w t x v m v m m B Z Z A A A J D K L P U U U R W ~ ! Q ~ ~ ~ ~ ! W W W T E T Y Y Y Y Y Y Y W Q Q Q ^ / ^ T J h 2 3 e P ",
"v f 7 , 9 t f x v v m m m M B Z Z Z A S D J L L I I Y R E E R W W W ! ! Q W W U T T Y Y U I U U U T T T R Q Q Q ! T S f 2 1 e J ",
"v t 4 , 9 w t t x v v v m m m B B Z Z A S D J L L U I Y T R T R W T W W W U U U U U Y P P P P I U U Y T R Q ! ! ! P A f 2 3 9 J ",
"v r 7 , 7 w t x x v v v v m M B M M M Z A S S J L L G K L U Y U U U P G H I I I I I P L L L L P P P I Y T R E E E P A h 3 1 9 D ",
"v r 3 > 9 w w x x x x v v v M m M M M Z M Z A A D J N C A L Y U U U K A A K K K P P K K K K K K K K P I U Y R R T P A h 3 1 q A ",
"x q 7 > 7 w f f f f x c c v v n m M M M M Z Z A A A M B M J P I P P J N V H J K P K J J K P J J P P K P I Y Y Y Y K Z h 3 1 4 S ",
"h 9 3 > 9 w q f f f f h c c v v m m m M Z Z A S A B M M M S J P L P J N V H H J K J H J J H J J H J K K L I I Y Y K B t 3 1 9 V ",
"f 0 , > 7 q w w w f f f f c v v m m n M M Z Z Z M m v N B S J K K K F N V V F J H H S S J H H H H H J K K L P I I J V t 2 1 4 V ",
"f 7 3 > 7 9 w w w r t f f h v x n n n n M M M m M B n n M A H J J K F m n V F A S S S S J S S S H H H J K K K P K H M p 2 1 4 V ",
"f 9 , > 3 9 q w w w r f f x x f h n n n m m M m m M M M B S D J K K J S A A S F S S A S S A A A S A H H K K K K J A m e 2 1 3 B ",
"w 7 > > 3 7 9 q r f f f f f t x h n c c x n m m M M M M B S D H J K J J H A A A A S A A A S A A A A H H J H K K J B n w 1 1 3 B ",
"r 7 > - , 3 7 q w r r f t f f f h c n h x n v n m m Z B B S A S H J J J H A A A S A A Z Z A Z B Z Z A A H H H K H B n 9 - 1 3 m ",
"w , > % > 7 9 9 w w r w t t t x h h c t c v v n n n m Z B V V S A H K K H H A A A A Z Z Z Z Z B B B Z A A A H H Z M h 9 1 1 3 n ",
"w < > * > 7 9 9 9 w w t t t x t t f f f h c x h h j n M M M B Z A S H J G F A A A B N M M B B M M M M V Z Z A A V M h 9 > 1 1 n ",
"w 3 > + * > < , < < < < 0 < < 0 0 0 8 8 0 0 0 p u i s s s g z V A N b b b z l k l l g g g j g g k d d d k z z z k s 0 2 - - 1 n ",
"w 3 > + & = > = ; ; ; ; < < < < < < < < < < < 8 y 8 6 y 6 u g B V m k k k k i i i s i p a p p p p u u u u i i i u 6 6 = $ - 1 n ",
"q 2 > O & * = = ; = ; ; < , < < , < < < < < < 6 : 6 6 6 y 6 g m N z i d a k a u u i u u p p p u i u u u u i i p u 6 < = # - 1 v ",
"9 3 - # + * * = = = = = ; < , < : : < : : : : : : 6 6 6 6 6 s n M z s a a a u y y y y y y y u u u u y u u u u i 0 6 : = # - 1 c ",
"9 2 - O + & * = = = = = ; : : : ; ; ; : : : : : < 5 5 6 6 6 r n n g u u u u u y 8 y 6 6 8 8 y y y y 6 y y y u u 0 5 : - # 1 1 h ",
"7 2 * X + & & * & * = = ; ; ; ; ; ; ; : ; : : : < < 5 6 < 6 p j n g y u u u 0 0 y y 6 6 6 6 6 6 y 6 6 y y y p u 8 5 ; & # - 1 h ",
"7 2 - X + + & & * * * = = ; ; ; ; ; : : ; : : : : < : 5 5 5 0 j h s y u y u y 0 6 6 6 5 5 5 6 8 6 6 y 6 8 0 0 0 6 : = - # - 4 h "
};
