/* XPM */
static char *animation32[] = {
/* columns rows colors chars-per-pixel */
"64 48 98 2 ",
"   c #000100",
".  c #070807",
"X  c #090A09",
"o  c #150F0D",
"O  c #190F0F",
"+  c #12120F",
"@  c #1C110F",
"#  c #141513",
"$  c #1D1412",
"%  c #161817",
"&  c #1D1915",
"*  c #171918",
"=  c #191B1A",
"-  c #231613",
";  c #231A16",
":  c #231E1B",
">  c #2B1D1A",
",  c #25211D",
"<  c #2A231F",
"1  c #32211E",
"2  c #252421",
"3  c #2A2622",
"4  c #2D2925",
"5  c #2E2D29",
"6  c #352321",
"7  c #392523",
"8  c #312B26",
"9  c #3C2926",
"0  c #332E2A",
"q  c #3E2E2A",
"w  c #35312C",
"e  c #3A332E",
"r  c #373430",
"t  c #3C3631",
"y  c #3F3934",
"u  c #422D29",
"i  c #45322D",
"p  c #48352F",
"a  c #483732",
"s  c #433C35",
"d  c #4B3833",
"f  c #443E39",
"g  c #484037",
"h  c #46413B",
"j  c #4B433C",
"k  c #50443D",
"l  c #4D4641",
"z  c #4E4841",
"x  c #524B44",
"c  c #564F49",
"v  c #585047",
"b  c #57504A",
"n  c #5B534C",
"m  c #5F584E",
"M  c #5E5750",
"N  c #5F5850",
"B  c #60574E",
"V  c #63594E",
"C  c #645B52",
"Z  c #685F54",
"A  c #6C6256",
"S  c #6D6359",
"D  c #71675D",
"F  c #73695D",
"G  c #766C61",
"H  c #786E63",
"J  c #7B7266",
"K  c #7D7469",
"L  c #817567",
"P  c #81776B",
"I  c #85796C",
"U  c #897C6E",
"Y  c #8A7D71",
"T  c #8E8275",
"R  c #8F8478",
"E  c #928476",
"W  c #92877A",
"Q  c #968A7C",
"!  c #998C7E",
"~  c #9B8F80",
"^  c #9E9182",
"/  c #A39486",
"(  c #A79788",
")  c #A6998A",
"_  c #AA9D8E",
"`  c #AC9F91",
"'  c #AEA293",
"]  c #B2A595",
"[  c #B6AA9A",
"{  c #BBAD9E",
"}  c #BCAFA0",
"|  c #BEB0A1",
" . c #C2B3A4",
".. c #C7B7A8",
"X. c #C7B9AA",
"o. c #CABBAC",
"O. c #CEC2B2",
"+. c #D0C3B4",
/* pixels */
"S x k x k m m m m V Z A A A S S G G G G H H K K K K K K K K I K K K K K K K K K K K K K K K K K K K K K K K H K K K K K J J K ) ",
"A w + + X + X + + + # # # # % * * * % * * = = = * * = = = = = = = = = = = = = = = = = = * % * = * * * * * * * # # # + + + + 4 R ",
"A g , + # # # # # & # X X X X X X X X X X X X X X X X X X X X X X X X X X X X X X X X X X X X X X X X X . # 0 5 4 5 3 : = = r Q ",
"A j 3 # & < < 3 4 w ,                                           .                                         2 Z A Z C x e < 2 y ~ ",
"F k 0 & < w r e s f 0                                                                                     0 U R W I S g < 4 y ~ ",
"A k w < 0 g h h j x e                                                                                     y _ ] ] ) I x 3 5 h Q ",
"A k r < y k z x c n y                                                                                     f {  .X.[ R n 5 5 h ~ ",
"A x e 4 y x b n n B s .                                                                                   j ..o.o.| ~ C w 5 f ~ ",
"Z x r 8 f x c M B C f                                                                                     j o.O.O.| ~ C r 0 l ~ ",
"Z x e 8 f c M M B Z l                                                                                     l o.+.+.| ^ A r r l R ",
"C k t 8 f c n M B Z l                                                                                     x o.+.+. .^ C r r l R ",
"V x r 8 l c c M M Z h                                                                                     l o.o.O.| Q N w 5 l R ",
"V x e 0 f c n M M C h                                                                                     l o.o.X.} ~ M w r l Y ",
"V k e 8 f x M n M C h .                                                                                   z  .o...] R M 5 w l R ",
"V z e 0 f x b n M C f                                                                                     h } } } ] Y M 5 r f Y ",
"B j q 8 f c b n M M f                                                                                     h [ } } ` I c 5 5 l Y ",
"B j w 8 s x b n n C s                                                                                     g ' ] [ ) P x 8 w g Y ",
"B j e 8 y k b b v C s                                                                                     s ' ' ] ^ J x 4 w h U ",
"B j q 3 y j c b v B s .                                                                                   s _ _ ` ! H l 5 5 h I ",
"B f w 3 y l z c c n y                                                                                     s / / ( Q G l 4 5 f I ",
"n g w 3 e j z x b n y                                                                                     y / / / ! H z 4 0 f P ",
"n j w 3 w g j z x b y                                                                                     y / / / Q G l 4 5 f K ",
"v g w < w g j z x x y                                                                                     t Q / ~ E D j 4 5 f K ",
"v j w 3 w g j k z x e .                                                                                   e E E Q Y A f 2 5 s J ",
"v g 0 < q g g g k k r .                                                                                   w T E E P C s 3 5 s H ",
"v s 0 3 0 s g h j k r                                                                                     q U E E L Z g 4 5 y G ",
"x s 0 < 0 s g g j j w                                                                                     w I T U L Z j 4 5 y G ",
"x s w < 0 t g g j k w                                                                                     w L I U J Z j 4 5 y S ",
"z s 0 3 0 s s d g h w                                                                                     w J J I J A h 2 5 r A ",
"z s 8 3 0 t s s g h w                                                                                     0 F J H S n y 3 4 r C ",
"j y 0 < 8 w e s g s 8                                                                                     8 F S m n k t , 4 r N ",
"j y 4 , 3 0 w t y g 8                                                                                     4 A A v x y w , 4 r N ",
"g t 3 , 3 8 0 r s s 8                                                                                     3 A C x h s 8 , 2 w N ",
"g e 3 , < 8 0 e e s 8                                                                                     3 C C x j a 0 , 2 w m ",
"s e 3 = > 4 0 0 w s 4                                                                                     3 N M l h s 8 < 2 w b ",
"s w < : < 3 8 0 w e 4                                                                                     2 M n l f e 8 , 2 5 b ",
"s 0 < , < 3 0 w e s 3                                                                                     , n M v k s 8 , 2 5 b ",
"e 0 < & 3 3 0 w e e 3                                                                                     2 M M b z g 8 , 2 5 x ",
"e w < & < 8 0 w w w <                                                                                     , n n n z s w 2 2 5 c ",
"t 0 < & < 8 0 0 0 e 3                                                                                     , b b n b g 5 2 2 5 z ",
"e 0 , & , 4 0 8 8 0 2                                                                                     , n n b z s 0 < 2 4 l ",
"e 8 , & ; : > 1 6 0 >                                                                                     : c d d a q 2 ; 2 5 l ",
"w 8 < @ - - ; ; > 8 :                                                                                     : x d u q 6 > % 2 5 l ",
"w 8 , @ @ - - > > 8 ;                                                                                     & z p u 9 6 > $ : 4 l ",
"0 4 > O @ - - - ; 8 -                                                                                     & j a 9 7 1 > $ : 5 h ",
"w 5 : O @ - - - ; 6 &                                                                                     & f u 7 6 > > $ : 5 h ",
"0 4 : O O - - - > 3 &                                                                                     = f q 7 6 > ; $ 2 4 h ",
"8 4 ; O @ @ - - ; 3 &                                                                                     $ a 9 6 1 > - $ = 4 f "
};
