/* XPM */
static char *animation25[] = {
/* columns rows colors chars-per-pixel */
"64 48 111 2 ",
"   c #000100",
".  c #070A09",
"X  c #0A0B09",
"o  c #140F0D",
"O  c #190F0E",
"+  c #0F100C",
"@  c #12110E",
"#  c #1B100E",
"$  c #141412",
"%  c #1B1513",
"&  c #161817",
"*  c #1C1916",
"=  c #171918",
"-  c #1A1B19",
";  c #231614",
":  c #261816",
">  c #281917",
",  c #221E1B",
"<  c #2B1B1A",
"1  c #25211D",
"2  c #2A221E",
"3  c #31211F",
"4  c #252421",
"5  c #2A2622",
"6  c #2D2925",
"7  c #2D2C29",
"8  c #342321",
"9  c #3A2623",
"0  c #312B26",
"q  c #3D2926",
"w  c #332E2A",
"e  c #3D2E2A",
"r  c #36312C",
"t  c #3A332E",
"y  c #373531",
"u  c #3C3631",
"i  c #3E3933",
"p  c #402B27",
"a  c #422D2A",
"s  c #482F2E",
"d  c #46322E",
"f  c #48322F",
"g  c #473732",
"h  c #483230",
"j  c #423B35",
"k  c #4B3A35",
"l  c #443E39",
"z  c #4A3F39",
"x  c #503E37",
"c  c #474037",
"v  c #46403B",
"b  c #4B443C",
"n  c #51403A",
"m  c #4D4640",
"M  c #4F4842",
"N  c #534C45",
"B  c #584F47",
"V  c #564F48",
"C  c #595047",
"Z  c #57504A",
"A  c #5B534C",
"S  c #5D5650",
"D  c #5F5851",
"F  c #61574D",
"G  c #62584E",
"H  c #605750",
"J  c #645B52",
"K  c #695F54",
"L  c #6B6256",
"P  c #6D6459",
"I  c #71665B",
"U  c #73695D",
"Y  c #766B61",
"T  c #796F63",
"R  c #7B7165",
"E  c #7D7469",
"W  c #817467",
"Q  c #81766B",
"!  c #867A6D",
"~  c #897C6F",
"^  c #877C70",
"/  c #8A7E71",
"(  c #8D8173",
")  c #918476",
"_  c #938679",
"`  c #95897B",
"'  c #9A8D7E",
"]  c #9B8F80",
"[  c #9E9183",
"{  c #A39586",
"}  c #A39688",
"|  c #A89789",
" . c #A69A8B",
".. c #AA9A8B",
"X. c #AC9F90",
"o. c #AEA192",
"O. c #B2A495",
"+. c #B4A897",
"@. c #B6A999",
"#. c #BAAD9D",
"$. c #BBAFA0",
"%. c #BEB1A2",
"&. c #C2B4A5",
"*. c #C6B7AA",
"=. c #C7B9AA",
"-. c #CBBBAC",
";. c #CDBFB0",
":. c #CDC1AF",
">. c #CEC2B3",
",. c #D0C5B5",
"<. c #D2C8B7",
/* pixels */
"P N b N b C A G G G G K K L I I Y Y Y Y Y R E E E E E E E E ^ E E E E E E E E E E E E E E E E E E T R E R R T R E E E E R R E  .",
"L e @ + + + + + + + + + + + $ $ & = & & = = - - = = - - - - = - - - - - - - - - - - - - = & - - & & $ $ $ @ + + + + @ + + $ 6 _ ",
"L c 1 + + $ $ * * * * * * * 1 + X . X X . X X X X X . . X X X X X . . X X X . . X X X X . . X X + 5 7 4 6 0 0 0 7 0 4 , & - y ] ",
"L c 2 $ * 1 2 2 6 0 0 r t u i *                                 .                               @ M S S F J K L K J N e , 4 y _ ",
"I c 0 * 2 w t u i i c c b b C ,                                                                 & K T W ~ / / ` _ ^ K l 2 5 j _ ",
"I b r 2 0 j c b b C C C A A J 1                                                                 - ^ ` ] { ..X.O.O. .^ N 6 6 i ] ",
"L b r 2 t c b C S D G G J K P 1                                                                 - ` ..X.O.@.$.&.*.$.] S 7 7 i ] ",
"L b r 2 t b A A S K K L L I U 7                                                                 , [ O.+.#.&.-.;.;.$.[ K y 7 l ] ",
"L b t 6 i M Z S D K P I I U Y 6                                                                 , | @.#.&.-.;.<.;.*.} K y w v ] ",
"K b t 6 i N A S J L P I U Y R 6                                                                 , | #.&.&.-.;.<.,.*.} P y w i ] ",
"G b t 6 i N A S L P P P U U R 6                                                                 4  .#.&.*.*.;.;.,.*.[ J y y l _ ",
"G b t 7 i N A D L L L P I U R 0                                                                 , ..#.&.&.*.-.;.;.*.] J 7 7 l _ ",
"G b t 6 i b S D K L P P I I T 6                                                                 1  .#.#.&.&.-.;.;.&.] D y w v _ ",
"G b r 6 i N S D K J L L I L U 6                                                                 1 } @.#.&.&.*.-.*.$./ D 7 w l / ",
"G n r 6 i N A D K J K L L I U 7                                                                 , { O.+.$.&.&.*.&.o./ S 7 y l / ",
"F c 0 6 i N A D J L L L L I U 6                                                                 1 ] ..+.O.@.$.$.$...Q Z 7 7 v / ",
"F c e 6 u b F G D L J J L L I 6                                                                 , '  .X.O.O.O.+.+.} Q B 6 w c ! ",
"F c 0 6 u b b A S S D L L L L 6                                                                 , _ | | ..X.O.O.o.{ Q N 6 r v ! ",
"F c 0 6 c b A A S S D J J J L 5                                                                 , _ [ } | ......X.' R N 6 7 i ^ ",
"F c 0 6 i b C b A A A D J L L 2                                                                 * ( ] ] { | | ..{ ` U b 6 r i Q ",
"C c r 2 y b N N Z Z Z A S J L 5                                                                 , ( ' ' { { | { [ ) U b 5 7 i Q ",
"C c r 5 y b M N M Z Z A A S F 5                                                                 * ! ` ' { ' { { ] ( U b 5 7 i E ",
"C l r 1 y v b b N N V Z A A F 1                                                                 * W ) ` ' ' [ ' ` ^ P v 5 7 i E ",
"C c w 1 r v b b M N N V A C A 1                                                                 * R ~ ) ) ) _ ` _ ! L v 4 7 i E ",
"C c 7 1 r c c b b N V V B B C 1                                                                 * T ~ ~ / ( ) ) _ ! L c 4 7 i Y ",
"N i w 1 w j c c b b b N B V C 1                                                                 % Y W ~ ~ ~ ( ) ( ! P v 6 7 i U ",
"b c 7 1 w i c b b b N b N b N 1                                                                 * I R W Q ! ! ( ( ! P b 6 7 y U ",
"b i w 1 w i c v b b b b N N N 1                                                                 % L T R W ~ ( ( ( E P b 5 7 y P ",
"C i w 1 w i c c b b b b b b B 1                                                                 % K U R E ( ! ^ ! R L c 4 6 y L ",
"b i w 1 w i j c b b b b b b b 1                                                                 $ K I U T E Q Q E U S j 5 6 y D ",
"b i 0 2 0 u c c b c i c b b b 1                                                                 # G L F L I T E E Y S c 4 4 r D ",
"b i 0 1 0 t u i c t r t b b b 1                                                                 # F L b S C L U U P S j 5 6 7 S ",
"b t 6 2 6 y u u u y r y j l b ,                                                                 * C S N C V L L P L Z j 5 5 7 S ",
"j t 6 1 0 u u u y w r e u j z *                                                                 $ V D N V B L L L S N i 5 5 r S ",
"j w 6 1 6 t t t e w r y u j l *                                                                 $ N A b C V S J D D M i 5 5 7 C ",
"g w 5 1 6 w t w y w r r e u j *                                                                 $ N C N V C A J D A M i 6 4 7 V ",
"j w 2 1 6 w t t t y e y u i l -                                                                 + M Z Z Z Z F J J A N t 5 4 7 Z ",
"u 0 1 1 5 w w t w y w y i i j %                                                                 $ M Z Z A S S J A C b t 5 4 7 N ",
"t 0 1 1 5 0 w t w t u t j u i %                                                                 + m V Z A A S F F C b t 4 4 7 N ",
"t 6 1 , 5 0 w w w t y u y y u %                                                                 @ b M Z A S S S S Z b t 1 1 7 m ",
"t 0 1 , 1 6 7 w q w e y r r u %                                                                 o m M B Z S A S C V b r 1 1 6 m ",
"t 0 1 % ; < < 2 3 3 8 8 8 8 y $                                                                 X z z g k x x z k k t 8 , 1 5 m ",
"t 6 1 # # ; < < < < < < < 8 r O                                                                 o l g a s h s s a e 9 < - 4 5 m ",
"t 2 1 @ # ; > > > < < < < 5 w O                                                                 o j h p a s s s a q 8 2 * - 4 m ",
"r 6 , O # ; ; : > < : > < < 0 o                                                                 X i d q p a a a e 8 8 > % , 6 v ",
"r 2 , O # ; ; ; : : > > > 3 0 o                                                                 o u d 9 q q q a q 8 3 : % , 7 v ",
"0 5 , O # # ; ; : < < > > < 0 o                                                                 o t e 8 9 9 q q 9 8 3 : % , 4 v ",
"0 2 : O O # ; ; : : > > < < 0 o                                                                 + r e 8 9 9 q q q 8 < ; % , 4 v "
};
