/* XPM */
static char *animation31[] = {
/* columns rows colors chars-per-pixel */
"64 48 105 2 ",
"   c #000100",
".  c #080705",
"X  c #070805",
"o  c #0A0907",
"O  c #070908",
"+  c #0A0B09",
"@  c #130F0D",
"#  c #190F0F",
"$  c #0F100D",
"%  c #12110E",
"&  c #1C110F",
"*  c #141512",
"=  c #1B1513",
"-  c #161817",
";  c #1C1916",
":  c #171918",
">  c #181A1A",
",  c #231613",
"<  c #241915",
"1  c #281A17",
"2  c #221E1B",
"3  c #2B1D1B",
"4  c #26211E",
"5  c #29231F",
"6  c #32221E",
"7  c #242421",
"8  c #2A2622",
"9  c #2D2925",
"0  c #2E2C29",
"q  c #352521",
"w  c #392623",
"e  c #312B27",
"r  c #3D2926",
"t  c #332E2A",
"y  c #3D2F2A",
"u  c #35312C",
"i  c #39332D",
"p  c #363430",
"a  c #3C3631",
"s  c #3E3934",
"d  c #412B27",
"f  c #442D2A",
"g  c #492F2B",
"h  c #423530",
"j  c #483732",
"k  c #433C35",
"l  c #4A3D35",
"z  c #443E39",
"x  c #4A3D38",
"c  c #46413B",
"v  c #4B443C",
"b  c #51463E",
"n  c #4D4741",
"m  c #4F4841",
"M  c #524B44",
"N  c #554F48",
"B  c #585047",
"V  c #57504A",
"C  c #5B544C",
"Z  c #5F584E",
"A  c #5E5650",
"S  c #60574D",
"D  c #62594E",
"F  c #645B52",
"G  c #685F54",
"H  c #6C6256",
"J  c #6D6359",
"K  c #71675D",
"L  c #73695E",
"P  c #766B61",
"I  c #796E63",
"U  c #7B7266",
"Y  c #7D7469",
"T  c #807566",
"R  c #81776B",
"E  c #85796C",
"W  c #8A7C6E",
"Q  c #867B70",
"!  c #8A7D71",
"~  c #8E8274",
"^  c #8E8478",
"/  c #938575",
"(  c #928779",
")  c #968A7D",
"_  c #988C7E",
"`  c #968B80",
"'  c #9B8F80",
"]  c #9F9283",
"[  c #A39586",
"{  c #A89789",
"}  c #A69889",
"|  c #AA9A8C",
" . c #AD9F90",
".. c #ADA192",
"X. c #B1A494",
"o. c #B4A798",
"O. c #B5A999",
"+. c #BBAE9F",
"@. c #BEB1A1",
"#. c #C2B4A5",
"$. c #C6B7A8",
"%. c #CBBBAC",
"&. c #CFC1AF",
"*. c #CEC2B2",
"=. c #D0C6B4",
/* pixels */
"J M b M b B Z Z Z D G G H H J K P P P P I I Y Y Y Y Y Y Y Y Q Y Y Y Y Y Y Y Y Y Y Y Y Y Y Y Y Y Y Y Y Y U U U U Y Y Y U U U U | ",
"H u % $ $ $ $ $ $ * * * * * - - : : - : : : > > > > > > > > > > > > > > > > > > > > > > > - > > : : : - - - - * * % $ $ % % 9 ( ",
"H c 4 $ % * * * * ; ; + + + O O + + + + + + + + + + O O + + + + $ + + + + + + + + + + + + + + + + + O O O 7 t t 0 0 8 4 - 2 p ` ",
"H v 8 = ; 5 5 9 e e u $                                                                                 . n G G J A M p 5 7 s ` ",
"J b e 2 5 t p a a k c %                                                                                 O F ~ ( / ~ J c 5 9 s ) ",
"H b u 5 e c c c b M M %                                                                                 o Y ..X.X.} E M 8 0 z ) ",
"H b i 9 a b M M B B C *                                                                                 + ! #.$.#.O.^ C 0 0 c ` ",
"H b i 5 s b V C Z S Z =                                                                                 + ( $.%.&.@._ H u 0 n ) ",
"H n y e s N V A F S F =                                                                                 + _ %.=.&.@.' H 0 u n ) ",
"G n i e z N A A F G F ;                                                                                 + _ %.=.*.@._ H u p n ( ",
"D b p t c V A A A G G :                                                                                 @ _ =.=.*.@.` H p 0 n ^ ",
"F v p t c N V V A F F :                                                                                 + _ %.=.*.@.) F p 0 n ^ ",
"D b i e n N V A A F F =                                                                                 + ` %.%.%.+.) F t 0 n ^ ",
"D b u e z m A A A Z F :                                                                                 + ) %.%.$.O.( S t p z ^ ",
"D v u e z N C V Z F F *                                                                                 + ^ #.#.#.X.! C 0 t z ! ",
"S v i e z N V C Z F Z =                                                                                 + ! +.+.+.| E N 0 0 n ^ ",
"S v t e c M V C Z Z C *                                                                                 + W O.O.O.} T M 9 u c ! ",
"S v u 9 a b V V C Z C =                                                                                 o R X.X...] U M e u c Q ",
"C l t 9 s n N V C C Z *                                                                                 @ R X. .| _ I M 9 u c W ",
"S v y 8 s v m V N Z B *                                                                                 o T { { } ) P n 9 0 c Y ",
"Z c u 9 i c b M V C V *                                                                                 o I { [ [ ) I n 8 0 c Y ",
"B c u 5 i c v m M V N *                                                                                 + I [ [ } ( P v 8 0 c Y ",
"B v t 5 u c v m m M M *                                                                                 o L _ [ [ ~ P c 0 0 z Y ",
"B c u 5 u c v b b M M *                                                                                 + H / _ ) W H c 7 0 s U ",
"B c t 5 e c v v v b b &                                                                                 o G / / ^ T H k 5 e s I ",
"B k t 5 e c c v v v b $                                                                                 o G / / ~ T D c 9 0 s P ",
"M k e 5 e c j c v v b $                                                                                 . D W ~ ~ T H v 0 0 s L ",
"b k t 5 e y c c v v v $                                                                                 o D T ~ W U H c 7 0 s J ",
"M c t 5 u s k c v c v $ X                                                                               + C U T Q U G c 9 9 p H ",
"b s t 5 u a k c j c v $                                                                                 + B I U I K C k 8 0 0 H ",
"v s t 5 e u i k j k k $                                                                                 X B L J F Z M a 7 8 p H ",
"v s 9 4 9 9 t i k c j $                                                                                 X M J Z N n c i 7 0 0 Z ",
"v a 9 4 5 e e i a k k @                                                                                 . M G Z M c z t 5 9 u Z ",
"c i 8 4 5 9 e t i a k %                                                                                 . n F C m c k t 4 7 u Z ",
"k y 8 2 5 8 e u i i a %                                                                                 . v F V n v h t 4 7 0 V ",
"k t 8 2 5 8 9 t i i i @                                                                                 . v A V v z i t 4 7 u V ",
"k t 5 4 4 9 e t i a i @                                                                                 . c A C M v a t 7 7 0 V ",
"a t 4 4 5 9 e u p a i @                                                                                 . c A C B M c u 4 7 0 V ",
"a u 4 4 5 e t t i i u +                                                                                 . c C A C M z t 7 7 0 m ",
"a 6 4 ; 4 e u t u u u @                                                                                 . z V A C M z t 7 7 0 m ",
"i e 4 ; 4 6 t t t t t @                                                                                 . k C C B M k t 5 7 0 n ",
"i e 4 * < 4 5 5 3 e t +                                                                                 . k M x x j y 5 < 7 0 n ",
"i e 4 & , , 1 1 3 q q @                                                                                 . h m g g r q 3 = 2 7 n ",
"i 9 4 & & , , 1 < q 9 o                                                                                 . a x f f r q 3 = 7 7 n ",
"t 9 2 & & , , , 1 5 q o                                                                                 . y x d d q 6 3 = 7 9 c ",
"t 9 2 # & , , , , 8 8 o                                                                                 . t k d w q 6 < , 2 9 c ",
"t e 4 @ & , , , , 3 8 +                                                                                 . t j r w 6 6 < = 2 0 z ",
"e 8 < # & & , , , 3 8 .                                                                                 . t h w q 6 3 < # > 0 z "
};
