/* XPM */
static char *animation36[] = {
/* columns rows colors chars-per-pixel */
"64 48 100 2 ",
"   c #000100",
".  c #080604",
"X  c #0A0907",
"o  c #070A09",
"O  c #0B0B09",
"+  c #100F0D",
"@  c #180F0F",
"#  c #0E100D",
"$  c #11110F",
"%  c #1C110F",
"&  c #151412",
"*  c #1C1312",
"=  c #161817",
"-  c #1B1915",
";  c #171918",
":  c #191A1A",
">  c #221514",
",  c #241816",
"<  c #281817",
"1  c #221D1B",
"2  c #2C1D1B",
"3  c #25211D",
"4  c #2A221E",
"5  c #32211E",
"6  c #242321",
"7  c #2A2521",
"8  c #272825",
"9  c #2D2925",
"0  c #2D2C29",
"q  c #352321",
"w  c #3A2724",
"e  c #312B27",
"r  c #3C2C26",
"t  c #322E2A",
"y  c #35312C",
"u  c #3A332D",
"i  c #353430",
"p  c #3C3631",
"a  c #3E3933",
"s  c #43352E",
"d  c #413633",
"f  c #433B35",
"g  c #483F36",
"h  c #453E39",
"j  c #4A3E38",
"k  c #46413B",
"l  c #4B433C",
"z  c #50483F",
"x  c #4C4641",
"c  c #4F4842",
"v  c #514641",
"b  c #534B44",
"n  c #584F47",
"m  c #554E48",
"M  c #585047",
"N  c #57504A",
"B  c #5B534C",
"V  c #5D5650",
"C  c #5F5851",
"Z  c #61574D",
"A  c #64594D",
"S  c #645B52",
"D  c #685E53",
"F  c #6B6156",
"G  c #6E6459",
"H  c #71665C",
"J  c #73695E",
"K  c #766C62",
"L  c #796E63",
"P  c #7B7166",
"I  c #7D7469",
"U  c #807466",
"Y  c #81776B",
"T  c #84796C",
"R  c #887B6E",
"E  c #897D72",
"W  c #8D8174",
"Q  c #8D8479",
"!  c #918476",
"~  c #928679",
"^  c #958A7D",
"/  c #9A8D7E",
"(  c #978C81",
")  c #988E82",
"_  c #9E9181",
"`  c #A39586",
"'  c #A59789",
"]  c #A7998A",
"[  c #A99B8C",
"{  c #AD9F90",
"}  c #AEA191",
"|  c #B2A596",
" . c #B6A99A",
".. c #BAAC9E",
"X. c #BCAEA1",
"o. c #C2B5A5",
"O. c #C7B7A9",
"+. c #CABCAD",
"@. c #CDC1B1",
"#. c #D0C4B2",
/* pixels */
"G b z b z M A A A A S F F F F G K K K K L L I I I I I I I I I I T I I I I I I I I I I I I P I I I I I I I I L I I Y I I P P I ' ",
"G u $ $ # # # $ & & = = = = = = ; ; = ; ; ; : : ; : : : : : : : : : : : : : : : : : : : : ; : : : = = = ; ; = = & & & # # & 0 ~ ",
"G k 3 $ $ & & - - O o o o o o o O o O O o O O o o O o o O O O O # o o # o o o o O o O O o O o O O O o O o o o 7 t 0 7 1 = 1 a ^ ",
"G l 7 - - 4 4 4 0 O                                                                                         . x G S b u 3 8 a ^ ",
"G z y 1 4 t u a d +                                                                                         O D ~ R F k 4 9 k ^ ",
"G z u 4 e k l z l $                                                                                         O Y | ' T b 9 0 l ^ ",
"G z f 4 a l z z m &     .                                                                                   O Q O. .W B 0 t x ( ",
"F z p e k l z z B &                                                                                         O ( +.X./ S y y x ( ",
"G b p t h b B N B *                                                                                         O ) @.o./ S y y x ^ ",
"D b p t h m B V S -                                                                                         O _ #.o._ F y u c ^ ",
"D z p t h b V V C -                                                                                         O _ #.o./ S t i x ^ ",
"D z p t h c m B C *                                                                                         O ) @.o./ A y y x ~ ",
"A n s w h b m B C -                                                                                         O ( @...~ A y i x Q ",
"A z u e h b m B B *                                                                                         O ^ O. .! B t y x W ",
"A z u e h b m B C &                                                                                         O Q X.} W B 0 y x W ",
"A z u e f b N B B &                                                                                         O Q ..[ R M 0 i k W ",
"A z u t f c N N B &                                                                                         + E | ' Y m 9 y l E ",
"A z u e a z N N B &                                                                                         O R | ` I b 9 y l E ",
"Z l u 4 a x N m N &                                                                                         O T { / L v 8 i x T ",
"Z l u 5 a x c m N &                                                                                         O U ` ~ K x 8 t k T ",
"B l a 4 u k z b m &                                                                                         O L ' ~ K v 9 t k T ",
"B z u 4 u k z b b &                                                                                         O L ' ~ K l 7 y k I ",
"B l y 4 r k l z x &                                                                                         o J / W J l 7 t k I ",
"M l u 4 y k k l x &                                                                                         O G ~ R H k 7 0 k P ",
"M l y 4 u k k l l @                                                                                         o F ! T F g 4 e k L ",
"z l y 4 t p k k l @                                                                                         O F W T F k 4 t k K ",
"z k y 4 r k k f l &                                                                                         O F R U D l 0 0 a J ",
"z k y 4 e u k k k $                                                                                         O A U U A l 8 0 h G ",
"z l y 3 u a k f k $                                                                                         O A I J S k 7 0 a F ",
"z k y 3 y a a k f $                                                                                         O B K F M h 4 0 i F ",
"l f e 3 4 u f a f $                                                                                         X B J A l u 3 8 i F ",
"l f e 1 9 u a a f #                                                                                         X z F B k t 6 6 y C ",
"l d 7 : 7 t u d f +                                                                                         X v S m f t 1 6 i C ",
"g d 7 1 7 t t u f +                                                                                         X x S m p t 1 6 i B ",
"f u 7 1 7 9 t p p O                                                                                         o x C c a t 3 6 y B ",
"d y 7 - 3 9 t u p $                                                                                         . k B c a 0 : 6 y N ",
"f y 4 1 3 9 t i p O                                                                                         X k B b k 0 3 3 t M ",
"p y 4 1 2 e y p t +                                                                                         o k B b k y 3 6 t N ",
"p t 4 3 7 9 t t u O                                                                                         . k M c k t 6 6 i b ",
"p y 4 - 7 e t t t $                                                                                         . h N b k y 3 6 0 c ",
"p e 3 1 4 7 e e t O                                                                                         . f m x f y 3 6 0 c ",
"p e 4 - - < 2 e e +   .                                                                                     . d v d r 4 , 3 0 c ",
"u e 4 % * > < 7 9 O                                                                                         . d l w q 2 ; 1 0 c ",
"y e 4 % > > , q q +   .                                                                                     . u j w q 2 * 6 0 c ",
"t t 2 & * > < 2 7 X                                                                                         . u d q 5 1 * 6 0 k ",
"t t 1 @ @ > > 2 7 X                                                                                           u d q 5 > * 6 0 k ",
"t t 3 % % > > 2 7 X                                                                                         . t d q 2 > * 1 0 k ",
"t 9 1 @ % * > 1 4 X                                                                                         . q d 5 2 > * 1 0 k "
};
