/* XPM */
static char *animation14[] = {
/* columns rows colors chars-per-pixel */
"64 48 120 2 ",
"   c #010100",
".  c #090907",
"X  c #0C0C0B",
"o  c #120F0E",
"O  c #190F0E",
"+  c #0F100C",
"@  c #11110D",
"#  c #1B110F",
"$  c #131512",
"%  c #1D1412",
"&  c #171817",
"*  c #1C1915",
"=  c #171919",
"-  c #191B1A",
";  c #231614",
":  c #241917",
">  c #281A17",
",  c #231D1A",
"<  c #2D1C1A",
"1  c #321D1C",
"2  c #25221E",
"3  c #2A231E",
"4  c #33211E",
"5  c #262522",
"6  c #2A2622",
"7  c #2D2925",
"8  c #2E2C29",
"9  c #352421",
"0  c #3A2523",
"q  c #312B26",
"w  c #3D2926",
"e  c #332E2A",
"r  c #3C2C28",
"t  c #36312B",
"y  c #3A342E",
"u  c #373431",
"i  c #3C3631",
"p  c #3E3933",
"a  c #412A26",
"s  c #432D2A",
"d  c #45312E",
"f  c #4B322F",
"g  c #433630",
"h  c #4B3431",
"j  c #433B35",
"k  c #4B3A35",
"l  c #453E39",
"z  c #4E3E39",
"x  c #523C37",
"c  c #513F3B",
"v  c #494037",
"b  c #47403A",
"n  c #4A433C",
"m  c #52413C",
"M  c #50483F",
"N  c #4D4741",
"B  c #4F4842",
"V  c #524B45",
"C  c #584F46",
"Z  c #554E48",
"A  c #584F48",
"S  c #595047",
"D  c #57504A",
"F  c #5B534C",
"G  c #5E5750",
"H  c #5F5852",
"J  c #61564D",
"K  c #62584F",
"L  c #645B52",
"P  c #685F54",
"I  c #6B6156",
"U  c #6E6459",
"Y  c #71675B",
"T  c #736A5E",
"R  c #786C5F",
"E  c #766C61",
"W  c #796F63",
"Q  c #7B7165",
"!  c #7E7469",
"~  c #807266",
"^  c #82766A",
"/  c #86796C",
"(  c #897C6E",
")  c #877D70",
"_  c #8B7E71",
"`  c #8E8173",
"'  c #918576",
"]  c #938679",
"[  c #958A7B",
"{  c #9A8D7E",
"}  c #9B907F",
"|  c #948B80",
" . c #9C8F81",
".. c #9D9182",
"X. c #9F9488",
"o. c #A39485",
"O. c #A89687",
"+. c #A59789",
"@. c #A89788",
"#. c #A69889",
"$. c #AA9B8C",
"%. c #AD9F90",
"&. c #AEA192",
"*. c #B1A494",
"=. c #B5A897",
"-. c #B5A799",
";. c #B6AA99",
":. c #BAAD9D",
">. c #BDB09F",
",. c #BCAFA0",
"<. c #BEB1A1",
"1. c #C3B4A5",
"2. c #C5B7A8",
"3. c #C7B9A9",
"4. c #CBBCAB",
"5. c #CDC1AF",
"6. c #CEC3B3",
"7. c #CFC5B9",
"8. c #D0C5B5",
"9. c #D3C9BA",
/* pixels */
"U C M M V S S F J J K P P P I I Y Y T T E E W Q Q Q ! ! ! ! ^ ! ! ! ! ! ! ! W ! Q ! Q W Q W W W W W W W Q Q Q ! ! ! ! Q Q Q ! #.",
"I e @ + @ @ @ @ + + + + + + @ + + + @ @ @ @ @ $ $ $ = = = = - - - - = = = = $ $ $ $ $ $ $ $ + + + + + @ X o X X o X @ X $ @ 7 ' ",
"I j , + @ @ $ $ * * * * * * 2 * 2 2 2 6 6 7 e t t e X . . X . . X X X X X X 5 8 7 6 6 6 5 6 6 6 5 5 8 5 7 7 7 8 8 7 6 , - - t ] ",
"U v 6 $ * 2 3 3 3 q q t y y i v j n M V S K L U E L .                       p F C C V V V V Z V D Z F F F L L I I L V y 2 5 u ] ",
"I v 7 : 2 e t y p v v v n M M S F H P U R ~ ( ` [ ! .                     . V E T U T Y U U U T T E Q Q ^ ( _ ' ] / U l 2 7 i [ ",
"I n e 3 q p v n M M V S F G I I U E Q ( ' { o.$.*.] .                       P _ ( ( / / / ) ) ` ` [ { ..@.$.*.=.-.o./ V 7 8 p [ ",
"I v r 3 y v M V S G G K I I U T Q / ` [ o.$.*.;.<.X.X                       E  .[ [ [ ' ] ] [ ..o.$.&.-.:.<.1.3.2.-.' F e 8 p | ",
"I n t 7 i n M S S L L P I U T W / _ ` { @.&.=.:.1.+.X                     . E +.o...X.o.o.o.+.%.&.-.:.:.<.2.4.4.4.>. .L e 8 l [ ",
"P n t 7 p N Z D G L L P U E E ! ( ` [ ..$.&.:.1.3.+.X                       Q $.$.@.@.@.$.$.%.&.;.:.:.1.2.4.5.8.6.<.} P e e l ] ",
"P M t 7 p M Z F G H P I U E E ` ( ` [ o.%.*.:.1.3.+.X                     . ! *.$.$.@.@.$.%.&.&.;.:.1.2.4.5.8.9.9.<...L y e l ] ",
"K v t 7 p B D F G H P U T E Q ! / ` [ X.$.&.*.,.2.+.X                       W &.%.$.O.O.$.%.&.&.*.:.<.1.4.5.8.7.7.<...L u 8 p ] ",
"K n t 7 p B D F H I I I T R Q ! / ` ] ..#.$.*.:.<.X.X                     . W *.$.@.O.+.$.%.&.&.*.:.:.1.4.4.8.7.6.<.[ L e u p ' ",
"K v r q p M Z F G L I U T E E Q ( _ ' ..o.$.&.-.:.| X                       W *.$.O.#.$.@.$.&.&.&.-.:.<.2.4.4.8.4.1.| J e u p ' ",
"J v y 3 b M Z F K P P I U T W Q ( _ ' { [ +.$.&.-.| X                     . W $.@.o.o.O.+.$.$.$.&.=.=.:.1.4.4.8.4.,.] G e 8 l ) ",
"J v t 3 p M S F G L P P U U E Q ^ _ ] [ [ o.o.$.&.| X                     . E +.o.o.O.O.o.O.#.$.%.&.=.=.1.4.4.4.2.*.' G u 8 p ) ",
"J v t q p n S F F L L P U Y E Q ^ ( ' [ [ [ X.$.%.' X                       T o.o. .{ .. .o.o.o.#.%.&.&.;.:.1.4.1.%._ Z 8 8 l ) ",
"J v t 3 b M C D F H L I I U T E Q / ` ` ] ] } o.@._ X                       Y  .{ } } { } } } } O.@.$.$.*.*.:.>.:.@.( C 8 e p ( ",
"M v t q p n V D F H L I I U T T Q Q / ( ` ` ] } o.) X                     . U  .{ [ [ { { } } } o.o.@.#.$.$.&.*.*...^ V 7 e p / ",
"K v q 3 i n V D F G L L I I U T E Q Q / ^ ` ' [  .^ X                     . Y  .] ] [ ' ] [ [ [ } } ..@.#.$.$.$.%.[ Q V 8 8 p / ",
"J v q 3 i n B V D D G L I I I Y Y T Q Q ^ ^ ` ' [ ! .                       P [ ' ' ' ' ' ` ' [ [ { { } o.O.O.$.@.[ R M 7 8 p / ",
"F j t 3 t v M B D D F G G L I U Y Y Y R R Q ^ ` ' W X                       P ] ' ' ' ' ` ` ` ` ` [ [ [ { ..o.o.X.' E n 6 8 p ! ",
"S j e 3 y v n B V C F F F G I I U U Y T R R ~ ^ ( T .                     . P ] ` ' ` ` ` ( ( ` ` ` ' [ [ } { o.} ` U N 7 8 p Q ",
"S j e 3 t j n M V V S F F K L I P P I Y T R R ~ ^ I .                     . J ( ( ` ( ` ( / ( ( ( ` ` ` ] [ [ { [ _ U n 5 8 p W ",
"C j q 2 t b n n N V D D F F G L L P P I U T R R Q I .                     . J ( / ( / ~ ^ ^ / / / ( / ( ` ' ] [ [ / U n 5 8 p W ",
"C j 7 3 t b v n B D D D D F F H J L P L P U Y R R K .                       F / ^ ~ Q ! ^ ^ ^ Q / / ) _ _ ` ` ' ` / I b 6 8 u T ",
"V j q 2 t p v n B B B D D D F F G G L L P P U Y T K X                       S ^ ~ Q W W Q Q ^ ! ! ^ ^ / _ _ ` ` _ ^ I b 6 8 i T ",
"M p q 3 e p b n n B B Z D D D F F G L H L L P I U G .                     . C W W E E E T Q Q ^ ! ! ^ ^ ^ ) ) _ ( ^ I b 6 8 u U ",
"M i e 2 e i j v n n B B B D D D F G G G H L L U U F .                       M R R E E W R T E Q ! W ! ! ^ ^ ^ ) ( ~ L b 6 8 u U ",
"V p 8 3 e p j v b B n N V V D D F F F H G L I H I S .                       V T T T T T Y E E W W W W ! ! ! / ) / E H l 6 7 t L ",
"M i e 3 e i g j b n n N M N V D S S F F F G H H L M .                       m U P P Y Y U U Y Y E E E E W ! ! / Q T F l 6 6 t L ",
"M i q 3 q i i j b n n n n V N N Z Z S Z M M S H L M .                       n I J F G P P U E E U E Y E E W Q W W U F p 6 5 8 H ",
"n t 3 3 q t i j b b b n n N M N V V Z B n n n D G M .                       n L A Z V H H L P U U P I U Y E E E Y I F p 6 5 t G ",
"v y 3 2 7 t y p p b n b n n B B B B B n b b l V Z B .                       b L Z B N G F H P P P P U E Y E E E U L Z p 7 6 8 G ",
"v t 7 2 7 t y i i j b b b n B B V V B n j l l B Z b .                       l G Z B N D D G H L P P I I U Y U E U G V i 6 5 8 F ",
"p t 7 2 3 t y y j j j v b b n n B B b b j b b B V b .                       p G V N B D D G G H L H P I U U U U P G N i 6 5 8 A ",
"p t 3 2 3 t t y i i j b j b n v b j l b j j l n B l .                       p F V b N V Z D F G L H P P P P U P P G N i 6 5 8 A ",
"p t 3 2 3 t y y i i g j b b v v b z b l l j b B V l .                       l G V B B V Z D G D H H L L P P L P L F B u 6 2 7 Z ",
"p 3 2 2 3 t t y y i i j p b p v l l n v l l n n B l .                       p F Z Z V V Z Z Z G G G G L L L L L L F B u 5 5 8 V ",
"p q 2 2 3 q e t y y i g g g j j v v l l l b b n B p                         p Z Z Z Z B B Z D G G G D L L H P L F Z b t 5 2 7 B ",
"y 3 2 * 3 q e t t y i y i g j v p k j g l n n n n i .                       p Z Z Z V Z B Z A A D D G G H H H G F V b e , 5 7 N ",
"y 3 2 * 3 q q t y y y i i i j j i j i j b v b b b p .                       j V V V V V B B Z Z Z D D D G G G A S V j e 3 5 5 N ",
"p 3 2 * ; 3 3 4 4 4 4 q 4 4 4 4 0 r r r w w w w g i .                       i V k k h h h h k z h k c c x c m x k f r 3 : , 5 N ",
"y 3 2 # ; ; < < 1 > < 1 4 < 1 1 4 4 4 4 4 4 4 4 d u .                       i n s s s s s a s s d d f h h h h f s a 4 > % 5 5 N ",
"t 3 2 # # ; > < > 4 > 1 4 4 < < 1 4 4 4 4 4 4 4 y t                         y v a s s s a a a a s d d h h f h h s a 4 > % - 5 N ",
"t 6 , # # ; ; < > 1 > < < < < < < 1 1 1 1 1 1 1 r e .                       t v a a a a a 0 0 a w s s s d d d d r 0 4 > % - 7 b ",
"e 5 , O O ; : > < < > < < < > < 1 < < 1 1 1 1 1 r q                         t k w 0 0 0 w 0 0 a 0 w w w s s d s r 0 4 > % 2 5 b ",
"e 6 : o O ; ; > > > > < < < < < > < < 4 1 1 1 1 r 8 .                       e g 0 0 0 0 0 0 0 0 0 0 0 0 s s s s w 0 3 > % 5 5 b ",
"q 3 : O O # ; : > ; > < < < > > > < < 1 1 1 1 1 q e                         e d 9 9 4 0 0 9 9 0 9 9 9 0 0 w s w 0 9 3 : % - 5 b "
};
