/* XPM */
static char *animation23[] = {
/* columns rows colors chars-per-pixel */
"64 48 114 2 ",
"   c #000100",
".  c #070809",
"X  c #0A0B09",
"o  c #120F0E",
"O  c #1A0F0E",
"+  c #0F100C",
"@  c #11110E",
"#  c #1B110F",
"$  c #141513",
"%  c #1B1412",
"&  c #161817",
"*  c #1C1915",
"=  c #171918",
"-  c #1A1B1A",
";  c #221613",
":  c #241915",
">  c #291917",
",  c #211E1B",
"<  c #2C1C19",
"1  c #301C1A",
"2  c #25211D",
"3  c #29231E",
"4  c #31221E",
"5  c #252422",
"6  c #2A2622",
"7  c #2D2925",
"8  c #2D2C28",
"9  c #342421",
"0  c #3A2623",
"q  c #312C26",
"w  c #3E2925",
"e  c #332E2A",
"r  c #36312C",
"t  c #3A332E",
"y  c #353330",
"u  c #3C3631",
"i  c #3E3933",
"p  c #412725",
"a  c #412A26",
"s  c #432D2A",
"d  c #482F2E",
"f  c #46302E",
"g  c #4B312D",
"h  c #413733",
"j  c #4A3531",
"k  c #433B35",
"l  c #4A3C35",
"z  c #443E39",
"x  c #4C3D38",
"c  c #523F3B",
"v  c #494037",
"b  c #46403A",
"n  c #4B433C",
"m  c #52413D",
"M  c #4E4741",
"N  c #4F4842",
"B  c #534C45",
"V  c #584F46",
"C  c #554F49",
"Z  c #584F49",
"A  c #595047",
"S  c #57504A",
"D  c #5B534C",
"F  c #5E5750",
"G  c #5F5852",
"H  c #61574C",
"J  c #62594F",
"K  c #605750",
"L  c #645B52",
"P  c #685E54",
"I  c #6B6156",
"U  c #6D6459",
"Y  c #70665A",
"T  c #73695D",
"R  c #766C61",
"E  c #796F63",
"W  c #7B7166",
"Q  c #7D7469",
"!  c #827567",
"~  c #82766A",
"^  c #86796C",
"/  c #897B6E",
"(  c #8A7E71",
")  c #8E8274",
"_  c #918576",
"`  c #928679",
"'  c #95897B",
"]  c #998D7E",
"[  c #9B8F80",
"{  c #9E9182",
"}  c #A29485",
"|  c #A39788",
" . c #A89788",
".. c #A7998A",
"X. c #AA9B8C",
"o. c #AD9F90",
"O. c #AEA191",
"+. c #B2A595",
"@. c #B4A897",
"#. c #B6A799",
"$. c #B6AA99",
"%. c #BAAD9D",
"&. c #BEB09F",
"*. c #BEAEA0",
"=. c #BEB1A1",
"-. c #C3B5A6",
";. c #C6B9AA",
":. c #CBBCAC",
">. c #CEBFB0",
",. c #CEC0AF",
"<. c #CEC2B2",
"1. c #D0C6B6",
"2. c #D1C6BA",
"3. c #D2C8B8",
/* pixels */
"U V m B n A D D J J J P P I I I T T R R E E W W Q Q Q Q Q Q Q Q Q Q Q Q Q Q Q Q Q Q Q Q Q W W W Q W E W Q W W W W W Q W W Q Q ..",
"I e @ + + + @ @ @ @ + + + + @ $ $ & & & = = = = - - = - - - - - - - - - - - = = = = - - - & & $ $ + @ X X o X @ X $ o @ + @ 7 ` ",
"I v 2 X + @ $ & * * * * , , 2 , 2 & . X X X X X X X X . X X X X + . X X X X . . X X X X . . & 7 6 5 7 6 7 8 8 8 e e 6 , & - t ' ",
"U v 3 % , 2 3 3 6 q q r r t i i b 6                             .                           , C S S D F J K L I P K B r 2 5 u ' ",
"I v q , 3 q r u i v v v n n n A D r                                                         6 U T W W ! ^ ) ) ) ` ~ I z 2 6 i ` ",
"U n r 3 q v v n n n A A H H P I Y u                                                         e ( ) _ ' } }  .o.$.#.X./ C 7 8 i ] ",
"I n r 3 r v n B F F J I Y I Y T Q k                                                         y [ { }  .X.+.@.&.-.;.*.[ G y 8 z [ ",
"I n r 3 t n C D J J J U Y T T E Q b                                                         i { X.o.+.$.&.-.;.<.<.-.{ P e 8 z ' ",
"I n r 7 i N S S J L I U R R W W / v                                                         i X.+.+.$.%.-.:.:.1.2.;.| P y 8 z [ ",
"I n r 7 i B S G G I U R R W Q ~ / n                                                         i o.+.$.%.&.;.,.<.3.2.;.| U y y i [ ",
"J v r 7 k B S G L I U R E T E Q / n                                                         i X.$.$.%.%.-.:.<.1.<.=.| I y 8 z [ ",
"J n r 8 i B S G J I U R T E E W / n                                                         i o.+.$.$.%.-.:.>.1.<.=.{ L y y i ( ",
"J n t q k B S D L P Y T E E E W ~ b                                                         i o.+.+.+.%.-.:.:.:.:.*.[ K y 8 z ( ",
"H n r 4 i B S D P P Y Y Y R R E Q b                                                         i X.+.+.$.%.-.-.:.:.;.*.( F 8 y z ) ",
"J v r 6 i n S D G I Y Y Y Y R E ! b                                                         i X.X.O.+.$.%.*.-.-.-.o.( F 8 y z ( ",
"H v q 7 i N S D G P Y Y Y Y R R Q b                                                         u {  .X.X.+.#.#.#.*.*.X.( C 8 e z ( ",
"H v r 6 v n A H F I I U U U Y T W b                                                         y [ }  .o.o.+.+.#.#.#.] ) m q e k ) ",
"H v q 7 t n A D F G G I I U U T R k                                                         y [ { }  ...X.O.+.+.&.] ! m q e z Q ",
"H v r 7 i n B D F G I G G I U Y T z                                                         t ] { { { } X.X.o.+.O.] ! m 7 e i Q ",
"m n r 7 i n B C S S F G G I I I T i                                                         t ` ' ] ] ] o.] ] O.] ] ! m 6 8 z ^ ",
"A k r 3 y n B C S S D F F J L I Y i                                                         r ` ` ' ] ] ]  .] ] { ` T M 6 8 k Q ",
"D v r 2 y n n B A S S D D D J L I i                                                         r ) ` ' ] ] ] ] ] ] [ ) U n 6 8 k Q ",
"D k e 2 y b n S C C S S D F F J L t                                                         q / ) ) _ ' ] ' ] ] ] ) I b 5 8 i Q ",
"A k q 3 r b n n N N C S D D F F L t                                                         q ! ^ ) ) ) _ _ _ ] ` Q I b 5 8 i E ",
"A v 8 3 r v v n n B B C A A D D F t                                                         q Q ~ / ^ ^ ) ) ` ` ` Q I z 5 8 i R ",
"n v e 3 r k v v n B B B B C A A D r                                                         3 W ! ! ^ ^ ^ ) ) ' ) ) I b 6 8 u T ",
"n k 8 3 r i v v n N N N B C A C D r                                                         7 R W W ! ! ! ^ ) ) ) Q U n 8 8 y Y ",
"n k 8 2 r t k v n B n N n B C S Z r                                                         3 T T E W ^ ^ ^ ^ ) ) W I v 6 8 y U ",
"A k q 3 q i k v n n N N B B B B C q                                                         3 U Y E E ! Q Q ) ) ) W F z 6 8 y L ",
"n k 8 3 q i k v n n n N N N N B B 8                                                         3 I Y U T W W Q Q ^ Q E D z 6 6 y G ",
"n u 8 3 q t i k n b n v z b n N B 7                                                         3 P J H U T R E W ) W Y S i 6 6 y D ",
"n u 8 3 q r u v v b v u u i v n N 7                                                         3 J D B D A I Y R Q W U C k 6 6 8 F ",
"v t 7 2 8 t u i k k k t u u k n N 7                                                         5 D D N C C L I R W R L C i 8 5 y F ",
"k t 7 2 7 t i i b k h t u y i k n 7                                                         , D Z N B V L L U T U G B i 6 6 e D ",
"k r 7 2 7 r u i h h t r y u u k n 6                                                         3 Z Z n Z C F L U U U G B i 6 5 8 D ",
"k e 3 2 7 r t t i t h u e e u k b 6                                                         , B B n Z B D K P U I G B i 6 5 8 C ",
"h e 3 2 6 r t t t i t t t t i k b 6                                                         - B C N B C D K P I P D N i 6 5 8 C ",
"h q 2 2 6 r r r t t t i t i i k z 5                                                         , C B C C C D K L P P D M u 6 5 8 B ",
"i q 2 , 3 q e r t t t t t t i i k 2                                                         , N B C C F D D L L L S M r 5 5 8 B ",
"t 3 2 , 3 9 r r r t r t i i i u k 5                                                         * N B C C Z D F L L K C x r 5 5 7 N ",
"t q 2 , 2 7 q q e e r t t t t u u ,   .                                                     * N N B B V Z Z K K F N l e 3 2 7 M ",
"t q 2 % : 2 3 3 4 4 4 4 4 9 9 9 u ,                                                         * N l j l x c c c m c l t 6 : 2 5 M ",
"r 3 3 % # : > > < 1 4 1 1 1 < 4 t :   .                                                     * b d p d d d d d j j d 0 3 = 5 5 N ",
"r 3 2 # # ; ; > > < < < 1 < < 4 t :                                                         * v s p s s d d s d f t 0 2 * , 5 M ",
"r 7 , # # ; ; > > > < > < < < < e :                                                         % k s p s p s s s s w 0 9 < ; , 5 n ",
"e 3 , # ; # ; ; ; > > 4 < < > < q >                                                         % k w 0 0 w s w w s w 9 1 > % , 5 z ",
"q 6 : @ O O ; ; ; ; > < < > > < q :                                                         % h w 0 0 0 w s w w 0 0 1 , = - 5 n ",
"q 3 ; O O ; ; ; ; ; > > < < > < q *                                                         $ i 0 4 0 4 0 w s 0 0 9 1 ; % 5 5 z "
};
