/* XPM */
static char *animation33[] = {
/* columns rows colors chars-per-pixel */
"64 48 107 2 ",
"   c #000100",
".  c #090806",
"X  c #070908",
"o  c #0A0B0A",
"O  c #120E0C",
"+  c #190F0F",
"@  c #12110F",
"#  c #1C110F",
"$  c #151412",
"%  c #1C1412",
"&  c #161817",
"*  c #1B1916",
"=  c #171918",
"-  c #1A1B19",
";  c #231513",
":  c #241916",
">  c #291917",
",  c #221E1B",
"<  c #2B1E1B",
"1  c #25211D",
"2  c #29231E",
"3  c #32211E",
"4  c #252421",
"5  c #2A2521",
"6  c #2D2925",
"7  c #2E2C29",
"8  c #352421",
"9  c #392623",
"0  c #312B27",
"q  c #3C2925",
"w  c #332E2A",
"e  c #3E2F2A",
"r  c #35312C",
"t  c #3A342E",
"y  c #373431",
"u  c #3C3631",
"i  c #3E3933",
"p  c #422D29",
"a  c #40332F",
"s  c #443732",
"d  c #483731",
"f  c #433C35",
"g  c #493A35",
"h  c #443E39",
"j  c #4B3E3A",
"k  c #494037",
"l  c #46403B",
"z  c #4B433C",
"x  c #50473F",
"c  c #50483F",
"v  c #4C4640",
"b  c #4F4841",
"n  c #524B44",
"m  c #584F47",
"M  c #554E48",
"N  c #584F4B",
"B  c #595046",
"V  c #57504A",
"C  c #5B534C",
"Z  c #5F584E",
"A  c #5E5750",
"S  c #5F5851",
"D  c #61574E",
"F  c #63584E",
"G  c #605750",
"H  c #645C53",
"J  c #685F54",
"K  c #6C6256",
"L  c #6D6459",
"P  c #71665C",
"I  c #73695E",
"U  c #766B61",
"Y  c #786E63",
"T  c #7B7266",
"R  c #7D7469",
"E  c #807467",
"W  c #82776A",
"Q  c #85796D",
"!  c #897C6E",
"~  c #867A70",
"^  c #8B7E72",
"/  c #8E8275",
"(  c #8F8478",
")  c #918476",
"_  c #928779",
"`  c #958A7C",
"'  c #998C7E",
"]  c #978D82",
"[  c #9A8E82",
"{  c #9D9082",
"}  c #9E9388",
"|  c #A09385",
" . c #A3978B",
".. c #A6998B",
"X. c #AA9C8C",
"o. c #A79C90",
"O. c #B2A495",
"+. c #B4A798",
"@. c #B5A99A",
"#. c #BBAE9E",
"$. c #BDB1A1",
"%. c #C3B5A6",
"&. c #C6B7A8",
"*. c #C8B7A9",
"=. c #CBBCAD",
"-. c #CFC2B3",
";. c #D1C3B3",
/* pixels */
"L m z m c B Z B Z H J K K K K L U U U U Y T R R R R R R R R R R R R R R R R R R R R R R R R R R R R R R R R T R R R R R R Y R ..",
"K r @ o o @ @ @ @ $ $ & @ & & & = = & & = = = = = = - - - - - - = 4 - - - - = - - - - = = = = = = = = = = = & $ @ $ @ @ @ @ 6 _ ",
"K k 1 O @ @ $ $ & * @ X o o X X o o o o o o o o o o o X o o o o X X X o o o X X o o o o X o X o o o X o X o 6 r 7 7 4 , * - y ] ",
"K z 6 $ , 2 2 6 6 w O                                           X                         X               X n J J H n u 2 4 i ` ",
"K c 0 1 2 w r t i f $                                                                                     O U _ _ ! L k 2 6 h ` ",
"K c r 1 w k l z z n %                                                                                     @ ^ +.O. .Q M 6 7 l ` ",
"K c t 6 u z c n M C *                                                                                     @ [ *.&.@.) V 7 7 l ] ",
"K n t 6 f c M V V A 1                                                                                     $  .=.=.$.[ H r r z ` ",
"J n y 6 i M C A Z H ,                                                                                     $ o.;.-.%.{ J w r v ] ",
"J b u 7 l M C A S J ,                                                                                     % o.;.-.$.[ H y r v _ ",
"H n u w l M V A S J ,                                                                                     $ o.;.;.%.[ H r r v ( ",
"F x u 7 l M C C A J ,                                                                                     % o.;.-.$.` F r r v ( ",
"F n a 0 h M C C A H ,                                                                                     $ ..=.=.@.` S r r v / ",
"F x t 0 f M C A V H ,                                                                                     $  .=.&.+.( A 7 y v ^ ",
"D x t 0 h n N C A H ,                                                                                     $ } %.$.O.^ C 7 y l ^ ",
"D x t 0 h n M C A A ,                                                                                     $ ] $.$.X.~ n 7 y v ^ ",
"D z r 0 f b M C C A -                                                                                     $ ` +.+...W n 0 r l ~ ",
"D z r 0 f b V V C Z ,                                                                                     $ _ O.O.| T n 0 w l ~ ",
"F z e 6 u v M V V Z ,                                                                                     @ ^ O.X.' Y b 6 r l ! ",
"D j r 2 i z n M V V ,                                                                                     @ ^ X. .` U x 6 7 l Q ",
"C k r 5 t z b n M M *                                                                                     $ ! X.| _ U b 5 r h Q ",
"C z r 5 r l z b n M ,                                                                                     @ Q ..| ` U b 5 7 h R ",
"B z r 2 t k z c n n *                                                                                     @ R [ { ) I z 5 7 h R ",
"B z r 2 r k z z z n *                                                                                     + Y ` _ ! K l 5 7 h T ",
"B l w 2 r s k k z b *                                                                                     @ I ) _ W F f 5 7 l U ",
"B k w 5 r f k k k c *                                                                                     @ I ) ) W K z 5 7 l I ",
"M f w 5 r f g k k z *                                                                                     @ P / ! E J z 6 7 i I ",
"n f w 1 w i f k k z *                                                                                     O K ! ! T J k 5 7 i L ",
"n f w 2 r i f g f z *                                                                                     O K R R T Z l 5 6 y K ",
"z f 0 2 w i i f g k *                                                                                     O S Y Y K Z k 5 7 y H ",
"z f 6 2 6 w u f f f *                                                                                     O F I K B z t 1 6 y S ",
"z f 0 , 5 0 r f f f @                                                                                     O Z K Z n k r 1 4 y S ",
"z t 6 , 5 0 w y i f %                                                                                     O B J V z f w 1 4 r Z ",
"f t 5 , 2 0 0 t t f $                                                                                     o M H C z f w , 2 r Z ",
"g r 5 * , 0 w r t f $                                                                                     o n H B z f 0 1 4 7 C ",
"f r 5 , , 5 6 r t t $                                                                                     o b S M k u 6 1 4 7 C ",
"f w 2 : 1 6 w r t i @                                                                                     O c F B z f 0 1 4 7 V ",
"u w 1 1 2 6 w r r t $                                                                                     o b F Z n k w 1 4 7 M ",
"u w 1 , 2 0 0 r r r @                                                                                     o c C C n f r 1 4 7 n ",
"t w 2 * 2 0 0 r w r @                                                                                     o z C V n l r 1 4 7 b ",
"u 3 1 * 2 6 w w w w $                                                                                     o j N V b f w 2 4 7 b ",
"t w 1 * : > < 2 8 0 O                                                                                     X l n g d t 3 : 1 7 v ",
"t w 1 # ; ; > > 3 0 O                                                                                     . h v a p 3 < % 1 7 v ",
"r 6 1 # # ; ; ; < 6 O                                                                                     o h j p q 3 < % 1 4 v ",
"w 6 , # # ; ; ; < 5 o                                                                                     . s g q 9 3 > % , 7 l ",
"w 0 , @ # ; ; ; < 6 O                                                                                     X u s q 8 < > % 4 7 l ",
"w 0 , + # ; ; ; < 5 o                                                                                     X e s 8 3 < : + 4 7 h ",
"0 6 > + + ; ; ; , 2 O                                                                                     . t a 8 3 < : % - 7 h "
};
