/* XPM */
static char *animation24[] = {
/* columns rows colors chars-per-pixel */
"64 48 110 2 ",
"   c #000100",
".  c #080604",
"X  c #0A0B09",
"o  c #110F0D",
"O  c #180F0D",
"+  c #0F100C",
"@  c #12110E",
"#  c #1B100F",
"$  c #141513",
"%  c #1C1412",
"&  c #161817",
"*  c #1C1A16",
"=  c #171918",
"-  c #191B1A",
";  c #231614",
":  c #251916",
">  c #281917",
",  c #221D1B",
"<  c #2C1C19",
"1  c #25211D",
"2  c #29221E",
"3  c #33221F",
"4  c #252421",
"5  c #2A2622",
"6  c #2D2925",
"7  c #2D2C28",
"8  c #342421",
"9  c #3A2623",
"0  c #312B26",
"q  c #3E2925",
"w  c #332E2A",
"e  c #382E2A",
"r  c #36312C",
"t  c #3A332E",
"y  c #363430",
"u  c #3C3631",
"i  c #3E3933",
"p  c #402B26",
"a  c #442D2A",
"s  c #482F2D",
"d  c #43312D",
"f  c #4A302E",
"g  c #473731",
"h  c #483130",
"j  c #433B35",
"k  c #4A3C36",
"l  c #443E39",
"z  c #503D37",
"x  c #503D39",
"c  c #494037",
"v  c #46403A",
"b  c #4B433C",
"n  c #50403A",
"m  c #4D4641",
"M  c #4F4842",
"N  c #524B44",
"B  c #584F46",
"V  c #554F48",
"C  c #584F48",
"Z  c #585047",
"A  c #57504A",
"S  c #5B534C",
"D  c #5F584F",
"F  c #5E5750",
"G  c #5F5851",
"H  c #60574D",
"J  c #62584F",
"K  c #635B52",
"L  c #685F54",
"P  c #6B6156",
"I  c #6E6459",
"U  c #70665B",
"Y  c #73695E",
"T  c #756B61",
"R  c #796F63",
"E  c #7B7166",
"W  c #7D7469",
"Q  c #807467",
"!  c #81766A",
"~  c #85796D",
"^  c #897B6E",
"/  c #867B71",
"(  c #8C7E71",
")  c #8E8274",
"_  c #918476",
"`  c #928679",
"'  c #95897B",
"]  c #998D7E",
"[  c #9B8F80",
"{  c #9D9182",
"}  c #A39586",
"|  c #A49788",
" . c #A79A8B",
".. c #AA9B8C",
"X. c #AD9E90",
"o. c #AEA192",
"O. c #B2A595",
"+. c #B4A897",
"@. c #B7AA9A",
"#. c #BAAD9D",
"$. c #BDB0A1",
"%. c #C3B4A5",
"&. c #C6BAAB",
"*. c #CABBAC",
"=. c #CCBFB1",
"-. c #CCC1AF",
";. c #CEC2B2",
":. c #D0C5B6",
">. c #D0C8B6",
",. c #D0C5B8",
/* pixels */
"I N b N b S S H H J J L L L I I Y T T T R R E W W W W W W W / W W W W W W W W W W W W E E E E E E E E E E R E E W W W W R E W  .",
"P e @ @ + + + + + + + + + + @ $ & & $ & = = & & = - = - = = = - - - - - - - - - - - - - - - & & & $ $ $ o o X @ X @ $ X $ o 6 ` ",
"P j 1 + @ $ $ & * * * * * * 1 , - X X X X X X X X X X X X X X X X X X X X X X X X X X X X X X - 7 6 4 6 6 6 0 0 0 0 5 , = - r ' ",
"I c 5 # * 1 2 2 0 0 0 e u t u c w .       .                                                   w A Z A F H K L L L K N t 1 4 u ' ",
"P b 0 * 2 w w t i c c c b b b D j .                                                           j T R W ! ^ ( ( ` ` ^ L l 2 5 i ' ",
"P b r 2 0 c v b b Z b D D D K I m .                                                           M _ _ ' [ |  .X.+.@. ./ V 6 6 i ' ",
"P b r 2 t c b V D D J L P P U Y C .                                                           S { |  . .o.@.$.%.&.#.' G y 7 l [ ",
"P b r 2 t b V S D D L P U U Y E D .                                                           J X...O.@.#.%.*.=.=.%.{ L y 7 i [ ",
"L b t 6 i M A S D L P U U T E W J .                                                           J O.O.#.#.%.*.=.:.,.&. .P y w v [ ",
"L b t 6 j M A G D L U T R R W ~ K .                                                           L @.@.#.$.%.*.;.>.,.&.{ P y w i [ ",
"J n r 6 j M A D L P U T T T R W J .                                                           K O.@.#.$.%.*.:.:.,.%.{ L y y l [ ",
"J b t 6 j N A D K P U Y Y T R W K .                                                           K +.@.#.$.%.*.=.=.=.%.[ L y 7 l / ",
"J b t 3 c b V D J P U U T T R E D .                                                           K +.@.O.#.%.*.*.=.=.#.[ K 7 y l ( ",
"J c r 6 v b A D L P U I U T T R D .                                                           J o.O.O.#.%.%.*.*.&.@.` H y 7 l ( ",
"H c r 2 i M Z D K P U P P U T R D .                                                           J X.X.o.#.$.$.%.%.%.X.( H 7 7 l ( ",
"H c e 6 j M V D K P P U U U T R S .                                                           J  ...X.O.O.@.$.$.#.../ A 7 y l / ",
"H c r 2 j b Z D G P P U P I U T S .                                                           S } } ..o.O.O.+.@.+.} ~ b r w v ) ",
"H c r 6 u b V S G G G K P P U T A .                                                           Z } } |  ...o.o.+.+.} ~ n 3 r i ! ",
"S c 0 6 i b V A S G G G P P P U A .                                                           Z } } { } } ....o.X.] Q n 6 w l W ",
"H c 0 2 i b N V A F G G G P P P M .                                                           Z ] ] ] ] } } } ..] ] Q n 6 w i ~ ",
"S c w 2 t b V V V A S S D G K P N .                                                           N ] ` ] ] } } } } { ` Y b 2 7 i W ",
"Z c w 2 t b M N A A S A S D J P m .                                                           N ` ` ] ] ] ] ] ] { ) U v 6 7 i W ",
"Z c 0 2 r v b N N A A A S S D D b .                                                           b ( _ ` ' ] ] ] ] ] ) I v 6 7 i W ",
"Z i 0 1 r v b b M N V S Z S D D b .                                                           b ^ ^ ( _ _ _ ` ] ` W P l 4 7 i E ",
"Z i w 2 r j c b b B B B Z S S D b .                                                           b ! ~ ^ ^ ^ ) ` ' ) ~ P v 1 7 i Y ",
"B i w 2 w j c b b b V b N V Z Z l .                                                           v ! ! ~ ~ ~ ^ ) ` _ ~ P v 5 7 i Y ",
"b i 7 1 w j v c b B b B M N V A l .                                                           v E E E Q ~ ^ ^ ) ) ) P v 6 7 y U ",
"b i w 2 w u j c b b b b N V A A l .                                                           k Y R E W ~ ^ / ( ) W P v 5 7 i P ",
"Z c w 1 w i c c b b b N N N N N l .                                                           c Y Y R W ~ ~ ~ ^ / E P v 5 7 y K ",
"b i 0 2 w i i c b b b b M b M N i .                                                           i U U U R E W W / ~ T D j 4 5 r K ",
"b i 6 1 0 t j c b c c c l b b N i .                                                           i P K J U T R W W W Y A i 4 5 y D ",
"b i 6 2 0 r t j v v j t u j b M u .                                                           t J D Z Z G I T E E I A i 5 4 w D ",
"c t 0 1 6 t u i j g t t t u v b y .                                                           y J S N C J L I T T L V i 6 5 7 G ",
"l t 6 1 0 t i j j t t t t u j b y .                                                           y D C N N F K P Y I K N i 5 5 w F ",
"j w 5 1 6 t u i u t t t t u u b t .                                                           r A V M C C K L I L K M i 7 4 7 C ",
"j e 5 1 6 w t t t u t r t t g l t                                                             w V V m C V F K L L F N i 6 4 7 C ",
"g w 2 1 5 0 r t t t r r y u j l t .                                                           w V V N N V G K L L A M i 5 4 7 V ",
"t w 1 1 5 0 r t t i u y t u g l w .                                                           w V V V V A F K K K F m y 5 4 7 N ",
"u 0 1 1 5 0 r r y t y u u u g j w                                                             0 N N V V S F J K K F m r 1 4 7 N ",
"t 6 1 * 4 0 w r r t t u i u y u 0 .                                                           0 M N A F S S J J F V x y 4 4 7 m ",
"t 0 1 * 1 6 0 e w e e y y t t u 0 . .                                                         7 N N V V V C F H S N k r 2 1 5 m ",
"t 6 1 * : 1 < 2 8 3 8 8 8 8 8 t 6 . .                                                         6 m h h z x x z x x k t 5 , 1 7 m ",
"t 0 1 # # ; : < < < < < < < 3 e 5                                                             6 x a a s h h s s h h 0 2 * 4 4 m ",
"r 2 1 # % ; ; > < < < < < < < e 5                                                             5 b q p p s h s s d a 8 < * - 4 m ",
"r 5 , # # ; ; : > > > < < < < 9 5                                                             4 j q q q a a a a a 9 8 < ; , 5 v ",
"w 5 , # # % ; ; ; > < < > > < 0 2                                                             2 g 9 9 9 q a q q q 9 < , % , 4 v ",
"e 2 > O # # ; ; ; > < < > > > 0 <                                                             2 g 9 9 9 9 q q q 9 9 < > = 4 7 v ",
"0 5 : O # # ; ; ; > > > > > > 0 5                                                             , t 8 8 8 9 q q q 9 8 < ; % - 4 l "
};
