/* XPM */
static char *animation2[] = {
/* columns rows colors chars-per-pixel */
"64 48 122 2 ",
"   c #0F0E0D",
".  c #110F0D",
"X  c #190F0E",
"o  c #0F100C",
"O  c #11110E",
"+  c #1A100F",
"@  c #131412",
"#  c #1C1312",
"$  c #1B1A15",
"%  c #1D1D19",
"&  c #221513",
"*  c #251915",
"=  c #281917",
"-  c #211D1B",
";  c #2D1D1A",
":  c #311E1C",
">  c #25221E",
",  c #29231F",
"<  c #33211E",
"1  c #262522",
"2  c #2A2622",
"3  c #2D2925",
"4  c #2E2C29",
"5  c #352321",
"6  c #3B2623",
"7  c #312B27",
"8  c #3D2925",
"9  c #332E2A",
"0  c #3D2D29",
"q  c #36312C",
"w  c #3A332D",
"e  c #373431",
"r  c #3C3731",
"t  c #3E3833",
"y  c #412A26",
"u  c #432D2A",
"i  c #482F2B",
"p  c #44312D",
"a  c #4A312D",
"s  c #473631",
"d  c #4C3531",
"f  c #433C35",
"g  c #4B3B35",
"h  c #443E39",
"j  c #4E3D38",
"k  c #503732",
"l  c #503D36",
"z  c #523E38",
"x  c #494037",
"c  c #46403A",
"v  c #4B433C",
"b  c #55433C",
"n  c #4D4740",
"m  c #4F4842",
"M  c #564640",
"N  c #534C45",
"B  c #594F46",
"V  c #554F48",
"C  c #584F48",
"Z  c #595047",
"A  c #57504A",
"S  c #5C544C",
"D  c #5F584F",
"F  c #5F5750",
"G  c #5F5850",
"H  c #60574D",
"J  c #61594F",
"K  c #605750",
"L  c #645B52",
"P  c #685F55",
"I  c #6B6256",
"U  c #6E6559",
"Y  c #70675B",
"T  c #73695D",
"R  c #786D5E",
"E  c #766C61",
"W  c #796E62",
"Q  c #7C7165",
"!  c #7E7468",
"~  c #817467",
"^  c #82766A",
"/  c #86796C",
"(  c #897C6E",
")  c #877C71",
"_  c #8B7E70",
"`  c #8C806F",
"'  c #8E8173",
"]  c #918475",
"[  c #938778",
"{  c #95897B",
"}  c #9A8D7E",
"|  c #9B907F",
" . c #9C8F80",
".. c #9E9182",
"X. c #A29485",
"o. c #A69788",
"O. c #A89788",
"+. c #A6998A",
"@. c #AA9C8D",
"#. c #AD9F90",
"$. c #ACA08F",
"%. c #AEA192",
"&. c #B2A595",
"*. c #B4A897",
"=. c #B5A798",
"-. c #B6A999",
";. c #BAAD9D",
":. c #BCB09F",
">. c #BCAFA0",
",. c #BEB1A1",
"<. c #C3B4A5",
"1. c #C9B7A7",
"2. c #C6B7A8",
"3. c #C6B9A9",
"4. c #CABCAC",
"5. c #CBBFB0",
"6. c #CCC0AF",
"7. c #CEC3B3",
"8. c #D0C5B6",
"9. c #D1C6B9",
"0. c #D4CABC",
"q. c #D6CDC1",
/* pixels */
"U B v N b A S S S J J J I I I I Y Y T T E E E Q E Q Q Q Q ! ! ! ! ! ! ! ! W Q Q Q Q Q Q Q Q W W Q W Q Q Q Q W Q ! ! Q ! Q Q ! +.",
"I 9 O o o o o o o o o o o o o o o o O O O O O O O O       O O O       @ @ @ @ @ @ @ @ @ @ @ o o o o     . O         .   o @ 1 [ ",
"I f > o o O @ @ $ $ $ $ $ $ > % > > , , 2 3 9 q q w r r t r w q e 9 4 4 4 3 1 1 , 2 2 1 1 1 1 , 1 1 1 3 2 2 3 7 4 3 2 - $ % q { ",
"I x , + > , , , 3 7 7 7 w w w x x v v M Z J P I E Q ! ! ^ ^ E T I Y U P L F F S Z N N N m m V N A S A S D J L P P D N w > 1 e { ",
"U x 3 - , 9 e r t h x x x v b H B J P U T ~ / ] } ..+.@.@.@...{ ( { ] ( ^ ! Q T Y U I U I I U T T Q ~ ~ ~ / _ ] ' ) I h > 2 t [ ",
"I v 9 , 7 r c v v N v Z Z L I U Y T W / _ { X.#.-.,.2.2.2.<.;.%.@.&.O.X...{ ' ' ' ( ` _ ( ( ' ] ] ] { | O.+.@.&.-.+.! m 2 4 e  .",
"I v q , w x b V A S S J L U U R ~ ^ _ ]  .O.%.>.3.4.9.9.7.7.3.>.-.:.-.%.+.X.} } } }  .........X.o.O.O.$.&.;.,.1.2.-.[ F 4 4 t  .",
"I x q , r v V A S J J I U U T ! / ( _ { X.@.=.<.3.7.0.q.q.0.7.<.,.1.,.;.-.&.@.+.@.+.+.@.+.+.O.@.@.$.&.&.;.<.1.4.5.,. .G 9 4 t  .",
"I v w , t N A S J J I U I Y R ! / ( ] | O.#.;.<.6.7.0.q.q.q.7.3.,.6.2.:.-.&.&.$.$.%.%.@.#.@.#.#.&.-.;.;.<.4.4.7.7.,...L 9 9 h { ",
"P x w 3 t m A S J L P I U R R ! / _ ] } O.#.;.<.6.9.q.q.q.q.9.3.,.6.1.<.-.&.*.%.$.@.%.%.%.#.%.&.-.;.;.,.<.4.7.9.9.,...L q 4 t [ ",
"J x e 3 h N A D L I I I T E R ! / _ { } O.#.*.<.3.7.0.0.0.9.7.,.:.6.4.,.-.&.&.%.#.#.+.%.#.%.&.=.;.;.;.:.1.4.7.7.7.,...L e 4 h [ ",
"J v q 4 t m A D L L L U T R R ! / ( ] { | @.&.:.6.6.9.9.9.9.4.<.:.4.2.:.-.&.%.%.@.@.@.@.@.@.&.&.-.;.;.;.2.1.7.7.7.<.} L 4 e t ] ",
"J x w 7 t A S D L L L I U T R ! / ( ] {  .o.%.>.,.6.7.7.8.8.1.:.:.4.<.-.-.&.%.#.@.@.O.@.O.@.#.=.;.;.;.,.2.4.4.4.5.>. .G 9 9 h ' ",
"H x q < t m S S D L I U U T Q ! / / ( ] } ..#.;.,.4.4.6.6.6.1.:.-.2.<.-.&.&.@.+.@.+.O.O.O.@.#.&.-.;.;.,.,.2.2.4.3.>.[ G 9 9 h ) ",
"H x q 2 t A S S D L L I U T R Q ! ~ / ' { ..+.%.,.2.2.4.1.1.,.;.=.>.-.=.&.@.+.o.o.X.X.X.X.X.@.&.-.-.&.;.>.,.2.3.,.=.] F 4 e t ) ",
"H x 7 7 t m A A D D L I I U T Q Q ^ / _ { } o.#.-.,.<.<.<.1.:.*.&.;.-.&.@.O.o.X.| | | X.X.X.O.@.&.&.&.&.-.;.>.3.,.%.) S 4 4 h ) ",
"H x q , x v Z S G G L I I U T E Q ! / ` ' { ..@.%.;.:.;.,.<.-.&.@.*.&.%.@.O.X.| | } } } } }  .X.O.@.@.&.*.*.*.;.:.#.) V 7 9 f ) ",
"b x q 3 r v V S S L L L I U U E E ! ! ` ' ' { ..@.%.&.*.;.-.*.$.O.&.%.O.O.| | } } | } { } { } } | o.O.O.#.%.*.*.=.O./ V 7 7 f ^ ",
"J x 7 3 t v N A A G G G G U U U E W ! / ) ` [  .| O.@.%.*.*.$.O.O.%.@.O.| } { { { { ] { { { { } } ..X.X.@.@.#.*.%. .~ N 4 9 t / ",
"H x 7 , t v N N V S F G G I I U Y E Q ! ! ) ' ] { O.O.O.@.@.@.O.| @.O.O.| } { ] ] ] ] ] ] ] { { { } }  .O.O.O.#.@.} W V 4 4 t ^ ",
"S f 9 2 r v m N N A S S G G L I U Y T E ! ( ) ' ] { } | O.O.O.| | @.O.X.| } { ] _ ] ( ` _ _ _ ] ] ] { { } | | O.#...! N 4 4 t ! ",
"Z f 9 , r x v m V A S S F G L P I I Y T Q ! / ( ` ] [ { } O.| { | @.O.| { { ] ( ( ( ( ( _ _ ] _ ' ] [ { } | O.@.#. .W n 3 4 t ! ",
"Z f 9 > q x v m N V A A S S S L P I I U T Q ! / ( ( ] [ { } { ' _ X.| | { { ` ( ( ( ( / / / ) / ( ] _ ] { { | O.o. .E v 4 4 t Q ",
"Z f 9 > 9 x v m m N V A A S G G L P I U U T E W ~ ( ( ' ] { ] ( _ } } { ] ( / / / ^ ^ ~ ~ ^ ^ / / ( _ _ [ [ } |  ._ Y v 1 4 e W ",
"Z r 9 , 9 x x v N V V V A S G G J I I I I U E E Q ~ / ( _ ] _ ( _ } { ] ( / / / ! ! ! ! ~ / ~ / ^ / / _ _ ] ] {  ./ P h 2 4 e E ",
"Z r 7 > 9 x x v v N m V A A S S D L L P I I U E E Q ~ / ( ( ( / ( ] _ _ ( / ~ ~ / W Q Q W ! Q ~ ~ ~ ^ / _ _ _ { [ ! P h 2 4 r E ",
"b f 7 , q f x x v m N N V V A S F G G L L I I U T Q Q ~ / ( ~ ~ ~ _ _ ( / ~ ~ ~ ! ! W W W E E Q W W ~ / / / ) ] _ ~ P j 2 4 e U ",
"N r 3 , q r r x v v m m N V A A A S S L G P I I Y Y R Q ~ ( / Q ~ ( ( / / ^ ~ R W ! W E E E E E E W W ~ ^ / / ) ) W L h 2 4 e I ",
"N r 4 , 9 r x x v v m N m N N A A A S F G G I I Y T E Q ! ~ Q R W / / / ^ ^ W E E E E E T Y T T E E E W ! ^ / / / W F f 2 4 q L ",
"v r 3 , 9 r r t x v v v v m N V A A A S F L L I U Y Y T Q Q E T T W ~ W W E E E E T E U U U U Y T E E W W / / / / Y S f 2 3 4 L ",
"v r 3 , 3 w r x x c x v v m V V N N A A A S G L P I G P P T E U U R Y J K Y Y Y T Y U P I I U U U U T E W W ! ! ! U S f 3 1 e F ",
"v r 3 , 9 w r x x x c v v m m m m N N A A A S D G L Z A A I T U I T P H C L P P U U P P P P P P P P I Y E E W Q W U D h 2 1 4 D ",
"x w 2 > 7 w t t f f x h c v n n m N N N V A S S D S N Z N L I I P U L B B H L P U P K P P U P P P P U U Y E E E E P C f 1 1 9 F ",
"h q 3 > q w r s f f f h h c c n m n N V V A S S S A v V N F L P P U L C V S K L P L K L K K L K K P P P I Y Y E Y P V f 4 1 9 C ",
"f q 2 , 3 q w w w f t h f c v v n n n m m A A A N m v V A F D H H I H C C Z H L K K F F L K K K K K K P P I U Y Y L C t 2 1 4 C ",
"s 9 2 > 3 q w w w r f f f h v v n n n n N N N m m A v n N S D D H P H M n C S D F F F F L K K K K K K L P P U U P L M t 1 1 4 C ",
"s 9 , > 3 q q w w r s t x x x t h n n n n m N N N N N N V F F D D I L F S S S F F F F F F A A F F F F L L P P P K F M r 2 1 4 N ",
"r 3 > > 2 7 q q w f r f r x t x n h c c v n n n m N A N N F S S D P L L H D S S A F A F F F F A A A F K L L P P K V n e 2 1 3 V ",
"r 9 > % , 3 7 q r r r f f r r x c c c n v v v n m m N A N F S C C L L L K S S S A F F A A F A A A S S F F K K L G V v 9 > 1 3 N ",
"w , > % , 3 9 9 q w r t r r f r f h c t c v v n n n m A C S C C C G P P K F S S F A A A A A A V A C C C C F K K F N h 9 1 > 1 n ",
"w , > $ , 7 q 7 9 w w r r r x x t f t f c c x h g v n m N N N C V H L J J H Z B Z Z C N N V V m N N V V A S F A V m h 9 1 > 1 n ",
"w 7 > + * > < , < < < < < 8 < q 9 0 8 8 0 0 0 p u i s s s s j V V B b b b z l l z z g g j j g g d d d d d k z z d s 0 2 & > 1 n ",
"w 3 > + & * > = ; ; ; ; < < < < < < < 5 6 < < 8 y 6 6 y u u s N C M d k k k a i i i p p a a a p i i u u i i a a i 0 5 = $ - 1 n ",
"q , > + & = = = ; = ; ; < < < < < < < < < < < < 5 6 6 6 8 8 d n N b a a a k a y u i i p p p p u i u u u u u p p u 6 : = # % 1 n ",
"q 2 - + + & = = = = = ; ; < < : : : : : : : : : 5 5 6 6 6 8 r n v j s d i i i y y 8 y y y y u y y u y u u y i i u 6 : = # - 1 c ",
"9 , - X + & * = * * = ; ; ; : : ; ; : : : : : : : 5 5 6 6 5 u j v j u u u i u y y 8 6 6 8 8 0 y y 8 y y y u u u 0 5 : & # 1 1 c ",
"9 , - X + & & * & * = * ; ; , ; ; ; : : ; : < : : 5 5 5 5 5 p h h g u u u u u 8 8 y 6 6 6 6 8 6 y 6 6 6 y y p u 0 : ; - @ - 1 h ",
"7 , - + + + & & * * * * ; ; ; ; ; ; ; ; ; : : : : 5 : 5 6 5 0 s f s 0 u 0 0 0 8 8 6 6 5 5 5 6 6 6 y 6 y 6 0 0 0 6 < ; & # 1 1 h "
};
