/* XPM */
static char *animation30[] = {
/* columns rows colors chars-per-pixel */
"64 48 103 2 ",
"   c #000100",
".  c #090A09",
"X  c #170E0D",
"o  c #180F0E",
"O  c #0F100D",
"+  c #11110E",
"@  c #1B100E",
"#  c #141513",
"$  c #1C1512",
"%  c #151817",
"&  c #1D1915",
"*  c #171918",
"=  c #191A19",
"-  c #241613",
";  c #251916",
":  c #291917",
">  c #221E1B",
",  c #2B1D1A",
"<  c #25211D",
"1  c #29231E",
"2  c #32221E",
"3  c #252421",
"4  c #2A2622",
"5  c #2D2925",
"6  c #2E2C29",
"7  c #362421",
"8  c #3A2623",
"9  c #312B26",
"0  c #3D2A26",
"q  c #332E2A",
"w  c #3C2E29",
"e  c #35312C",
"r  c #3A332E",
"t  c #363430",
"y  c #3C3631",
"u  c #3E3933",
"i  c #422B27",
"p  c #422D2A",
"a  c #45312D",
"s  c #49332E",
"d  c #403732",
"f  c #483733",
"g  c #433C35",
"h  c #4B3D35",
"j  c #443F39",
"k  c #483F39",
"l  c #464037",
"z  c #494036",
"x  c #46413B",
"c  c #4B433C",
"v  c #50443C",
"b  c #4D4741",
"n  c #4F4841",
"m  c #504742",
"M  c #534C45",
"N  c #584F46",
"B  c #554E48",
"V  c #585047",
"C  c #57504A",
"Z  c #5B544C",
"A  c #5E5650",
"S  c #61574D",
"D  c #62594E",
"F  c #605750",
"G  c #635A52",
"H  c #685F54",
"J  c #676057",
"K  c #6B6156",
"L  c #6D6359",
"P  c #70665C",
"I  c #72695D",
"U  c #766B61",
"Y  c #786E62",
"T  c #7B7166",
"R  c #7D7469",
"E  c #807466",
"W  c #82766A",
"Q  c #85796D",
"!  c #897C6E",
"~  c #8B7E71",
"^  c #8D8274",
"/  c #8F8478",
"(  c #918475",
")  c #928679",
"_  c #968A7D",
"`  c #998D7E",
"'  c #9B8E80",
"]  c #9E9182",
"[  c #A29485",
"{  c #A59788",
"}  c #A7998A",
"|  c #AB9C8D",
" . c #ADA192",
".. c #B1A495",
"X. c #B3A798",
"o. c #B6A99A",
"O. c #BAAE9F",
"+. c #BCAFA0",
"@. c #BEB1A2",
"#. c #C3B5A5",
"$. c #C5B6A9",
"%. c #CBBCAC",
"&. c #CEC2B2",
/* pixels */
"L N c M v V Z Z D D H H K K L I U U U U Y Y R R R R R R R Q R R R Q R R R R R R R R R R R R T T R R R R T T T T R R R R T T T } ",
"K e + O O + + O O # # # # % % % = = % % % = * = * * = = = = = = = = = = = = = = = = = = = = = = = % % % % % # # # # O O O # 5 ) ",
"K l < + + # # % # & & # . . . . . . . . . . . O . . . . . . . . . . . . . . . . . . . . . . . . . . . . # 6 6 5 5 6 3 < = = t ) ",
"L x 4 $ & < 1 4 9 9 e <                                         .                                       > G H H L G M r < 3 u ' ",
"L v 9 & 1 e t y y g x 9                                                                                 5 Q ~ / ) ~ L x 1 5 g ) ",
"L v e < q l x c c m N r                                                                                 t } | ..X.} W M 5 6 u ' ",
"K v r 5 r v C M V V S u                                                                                 d X.+.#.$.X./ Z 6 6 b ' ",
"K v r 5 u v Z Z Z S H z                                                                                 j +.#.%.&.@.' G e 6 b ) ",
"K m r 5 u B A A G G J j                                                                                 l #.%.&.%.$.] H e e b ) ",
"H m r 9 j B A A G H L x                                                                                 l #.&.&.&.#.] J r e b ' ",
"D v r 9 j Z A A A G K x                                                                                 x $.%.&.%.@.` H t t u ' ",
"G v r 9 j C Z A G G K x                                                                                 x $.%.&.&.O.` G q 6 x / ",
"D n r 6 j C A A G G H j                                                                                 j $.$.%.%.+.' A q 6 b / ",
"D v r 6 x M C A A A H x                                                                                 j +.$.%.$.X./ A q t b ~ ",
"D v e 9 x B Z Z Z G J l                                                                                 j +.+.@.#...~ Z 6 t x ~ ",
"S z e 9 j B Z Z Z G H x                                                                                 u X.o.+.+.| Q B 6 6 x ~ ",
"S z e 9 g M V Z A A H g                                                                                 u  ...o.o.[ W M 6 e l ! ",
"D x e 5 d m C Z Z Z G u                                                                                 u |  .....[ R M 5 e l ! ",
"S c e 9 u b M C Z Z G u                                                                                 y | | | | ` Y n 3 t j W ",
"S z e 1 u n n C V Z A u                                                                                 a [ { | { _ I v 4 t x R ",
"Z x e 4 t c n m M C A y                                                                                 r [ [ [ } _ Y b 4 6 u R ",
"V x e 4 r j c n M B Z u                                                                                 r ' ` [ { / U c 4 t j R ",
"V c e < r l c m M m C r                                                                                 e ) ` [ ] ^ L c 6 6 j R ",
"Z j e 1 e x c v n n N y                                                                                 q ^ ( ` ` ! J x 3 6 u R ",
"N k q 1 q z z v v v M t .                                                                               2 ^ ( ( / E H j 4 6 u Y ",
"N d 9 1 e d z z c v v t                                                                                 9 ! ^ ^ ^ E H c 4 q u U ",
"M g 9 4 q g z z v c v t                                                                                 9 E ! ! ~ E H c 5 6 u U ",
"M d q 1 q d g g c c c q                                                                                 9 E E ^ ! R J z 3 6 u K ",
"m g 9 1 e u k k z z c q                                                                                 5 Y T Q ! T G k 5 5 t J ",
"n g e 1 e u g z l l c 9                                                                                 5 I T T T I Z g 3 5 t H ",
"x u 9 < e e r y l z l 9                                                                                 1 I I D J Z C u 3 6 t G ",
"c u 9 1 5 6 9 e u z l 5                                                                                 1 K K V Z m c r 3 4 t A ",
"c y 5 < 4 9 9 q r d k 9                                                                                 1 H D M M c c e 4 5 e A ",
"k r 5 < 4 4 9 q r r g 5 .                                                                               < G G M M b k e 1 3 e Z ",
"d e 4 > 4 4 9 q e r d 5                                                                                 < Z A n n c g e 3 3 t C ",
"g e 4 > 4 4 9 9 e r d 4                                                                                 < Z A m n x u q 3 3 6 B ",
"d q 1 < 1 4 q 9 e r y 4                                                                                 < Z A Z B n g q 3 3 6 C ",
"d q 1 < < 9 9 q r y u 4                                                                                 < Z A A Z m l e < 3 6 B ",
"u 9 < > 1 9 q q e r r 1                                                                                 < V A A Z n l e < 3 6 B ",
"r 5 < ; < 5 q e e e r <                                                                                 = C C A Z M x e < 3 6 m ",
"r 9 < > < 1 q q q q r <                                                                                 , V V Z C n g q 3 3 5 b ",
"y 9 < & - > 1 1 , 7 q ;                                                                                 ; V h h h f 0 1 ; < 5 b ",
"r 5 < @ - - - : : , q >                                                                                 & M f s s w 7 , % 3 6 b ",
"e 5 < @ @ - - : : , 9 &                                                                                 * b f p p 0 7 , $ > 3 b ",
"e 5 > X @ - - - - , 9 -                                                                                 & k f i 0 8 2 , $ 3 3 x ",
"e 5 ; X @ - - - - ; 9 &                                                                                 $ k p 0 8 8 , : $ > 6 x ",
"q 5 > X X - - - - : 4 -                                                                                 $ j w 8 8 2 , : $ > 6 j ",
"q 4 > X @ - - - - : 4 &                                                                                 * f 0 7 7 2 , : $ = 6 j "
};
