/* XPM */
static char *animation4[] = {
/* columns rows colors chars-per-pixel */
"64 48 119 2 ",
"   c #0F0F0D",
".  c #110F0D",
"X  c #190F0E",
"o  c #0F100C",
"O  c #11110D",
"+  c #1A110F",
"@  c #131512",
"#  c #1C1312",
"$  c #1C1A16",
"%  c #1E1D19",
"&  c #221614",
"*  c #251916",
"=  c #281917",
"-  c #221D1B",
";  c #2C1D1A",
":  c #311E1C",
">  c #25221E",
",  c #29231E",
"<  c #33211E",
"1  c #351F20",
"2  c #262522",
"3  c #2A2622",
"4  c #2D2925",
"5  c #2E2C29",
"6  c #352321",
"7  c #3B2623",
"8  c #312B27",
"9  c #3D2926",
"0  c #332E2A",
"q  c #3D2C29",
"w  c #36312C",
"e  c #3A342E",
"r  c #373431",
"t  c #3C3631",
"y  c #3E3833",
"u  c #402A26",
"i  c #432D2A",
"p  c #492E2C",
"a  c #45312E",
"s  c #4A312E",
"d  c #453530",
"f  c #4C3532",
"g  c #433C35",
"h  c #4C3A35",
"j  c #453E38",
"k  c #4C3D39",
"l  c #513631",
"z  c #513834",
"x  c #513D39",
"c  c #494036",
"v  c #47403A",
"b  c #4B433C",
"n  c #56433D",
"m  c #4D4741",
"M  c #4F4842",
"N  c #504740",
"B  c #524B45",
"V  c #584E47",
"C  c #554F48",
"Z  c #584F4A",
"A  c #595047",
"S  c #57504A",
"D  c #5B534C",
"F  c #5D594F",
"G  c #5E5750",
"H  c #5F5851",
"J  c #60574E",
"K  c #61584F",
"L  c #605750",
"P  c #645B53",
"I  c #685F54",
"U  c #6B6156",
"Y  c #6E6559",
"T  c #71675B",
"R  c #736A5E",
"E  c #756C61",
"W  c #796E63",
"Q  c #7C7165",
"!  c #7E7368",
"~  c #807467",
"^  c #82766A",
"/  c #85796C",
"(  c #897C6E",
")  c #877C71",
"_  c #8B7E70",
"`  c #8E8173",
"'  c #918576",
"]  c #938679",
"[  c #95897B",
"{  c #9A8E7E",
"}  c #9A907F",
"|  c #9C8F80",
" . c #9D9182",
".. c #A29485",
"X. c #A69788",
"o. c #A69889",
"O. c #AA9B8D",
"+. c #AD9F90",
"@. c #AEA191",
"#. c #B2A495",
"$. c #B4A897",
"%. c #B5A798",
"&. c #B6A999",
"*. c #BAAD9D",
"=. c #BDAFA0",
"-. c #BEB1A2",
";. c #C3B4A5",
":. c #C6B7A9",
">. c #C8B7A8",
",. c #C6B9A9",
"<. c #CBBCAC",
"1. c #CBBFB1",
"2. c #CDC0AF",
"3. c #CEC2B3",
"4. c #D0C4B6",
"5. c #D1C8B7",
"6. c #D1C5B9",
"7. c #D4C9BD",
"8. c #D7CDC1",
/* pixels */
"Y V n b B A A F J J K I I I U U Y R T R R W R Q Q Q Q Q Q Q ! ! Q ! Q W Q W W W Q W Q W W Q W W W W W Q Q Q E Q ! ! ! ! Q Q ! o.",
"U 0 @ o o o o o o o o o o o o o O O O O O O O O O O     o O @ @ @ @ @ @ @ @ @ @ O @ @ @ @ @ o O . . . . o O o       . O o @ 2 ] ",
"Y g > o o O @ @ # $ $ $ $ $ > % > > , , , 8 8 w w r e t t r t - % r 0 5 5 4 5 5 2 3 3 3 5 2 2 2 2 2 2 4 < 5 8 8 0 4 3 - $ % w [ ",
"U c , @ > > , , 4 8 8 8 w e e c g c n B D K K T E Q ! ! ^ ! Q t 5 R U U P G D S V V V V M M B B S S S G J J J I I F N w > 2 r [ ",
"Y c 8 % , 0 r t y g c b b b A A J J P U E ~ ( ' }  .o.o.o.o.X.m t ] ` ) / Q W E T T U U T U U T R E ! ! ^ ( _ ` ` ) Y g > 3 y ] ",
"U c 0 , 8 g c b b B n n D P U U T R ~ ^ ' [ ..+.&.-.,.,.,.;.-.G c #.O...{ [ ` ` ( ( ( ( ( ( _ ' ' [ [  ...o.O.$.#...) B 3 5 y [ ",
"U b w , e b n C F S J J I Y T Q ~ ~ ( ' { X.#.*.,.2.3.6.3.1.1.H M -.&.@.+... .[ { { { { } ..} X.o.o.O.O.$.*.=.>.:.&.] G 5 5 y | ",
"U c w , e b C S F F K I U Y E Q ^ / ' [ ..O.%.;.,.3.7.8.8.6.3.P B <.-.*.$.@.o.o.o.o.o.O.o.O.O.X.O.@.#.$.*.;.>.<.1.-.| P 5 5 y | ",
"I b 0 4 y B S D F F U U U R W Q ^ ( [ } X.@.*.;.,.3.8.8.8.6.7.P B 2.;.-.&.#.#.+.+.+.+.+.O.@.O.#.#.&.=.=.;.<.<.4.4.;. .P 0 w j | ",
"I b e 8 g B S D H P U U Y R W ! / ( ' { X.#.*.;.2.5.7.8.8.8.7.I B 2.;.;.*.#.#.@.+.+.+.+.@.@.@.$.&.=.=.;.;.<.2.6.6.;.| P 0 0 y ` ",
"J c w 8 y B S G H U U U T R W ! / ` ' { ..@.&.;.2.3.6.6.7.6.5.P B <.<.;.$.#.@.@.+.+.o.O.@.+.#.$.&.=.=.=.;.<.1.6.1.-.| P 5 r j | ",
"P c w 5 y B S F U H U U R R Q Q / ` ' { } O.#.=.-.3.6.6.6.3.5.P B <.>.-.$.#.@.@.+.O.O.O.O.O.#.$.&.*.*.=.>.>.1.1.3.;.| P r 5 y ) ",
"J c i 8 y B D F P K I I Y R W ! / ( ' [  . .#.=.-.2.3.3.3.2.2.P n 2.-.*.$.$.@.@.+.o.o.o.O.O.+.#.&.*.=.=.:.:.:.1.1.=.| H 5 5 j ` ",
"J c e , v B S F F P I U Y E Q Q ^ / ( ] |  .@.&.-.2.,.2.2.<.,.H M -.-.&.#.@.@.O.o...o.o.X.o.O.#.&.*.=.-.;.:.:.1.<.=.] G 5 w j ) ",
"J c 0 < g M S D K P I U Y R W Q ! ^ / ` | | O.#.-.-.-.,.,.;.>.K b -.&.$.$.O.o.o.o.......X.X.O.#.&.&.$.*.=.;.;.1.-.%.` G 5 5 j ) ",
"F c w 4 g B S A F K I I Y Y E E Q ^ / ` ] | o.@.=.-.-.-.;.;.;.F M =.&.$.O.o... . . .}  .} ....X.+.#.$.&.%.=.=.-.-.+.` S w r y ) ",
"J g w , g b D D J L P I Y T E E W ! ) ) _ ] ..O.#.$.*.*.*.*.*.D n %.#.+.O.X.} } } { { { { }  . .X.O.@.@.#.%.&.*.*.+.) V 0 0 g ( ",
"F c 0 4 g b B A F P L P I I Y E W ! ! ) ` ' |  .O.O.#.$.$.*.*.S c #.+.O.X...} { { { { [ [ [ { { } ..X.O.+.#.#.%.*.} ( V 8 0 g ^ ",
"J h 8 8 y m B S D D F H I Y Y Y E Q ! ) ( ` ' | ..X.X.+.$.#.#.A b #.O.X.} { [ [ [ ] ] ] [ [ { { { } } X.O.+.+.#.#.{ ~ n 5 5 y ^ ",
"A g 8 , y b M B Z D F G P I U Y T E Q ! ^ ) _ _ { } ..X.+.O.+.V c O.X.X.} { [ ' ' ' ' ' ' ' ` [ { { { { X.} X.O.O.{ ~ n 8 0 y ^ ",
"D g 0 3 t b m B S D G G H P P U Y R R W ^ ( ) ) ` [ { } ..o.+.M g O.X. .} { [ ' ` ` ` ( ` ` ` ` ' ' [ { { { } O.+. .Q B 5 5 y ! ",
"A g 0 3 e c b M B S S S G H P I U U T R Q ! / ( ( ` ' { } } ..M g O.....{ [ ] _ ( ( _ ( ( ( ` ` _ ' ' [ { { } X.+.| Q m 4 5 y ! ",
"A g 8 , w c b N B B C S S G H P I I U T R Q ! ! / ` ` ' { ] { b g } } { [ ] _ ( ( ( ( ( / / ( ( _ _ _ ' [ { { X.X.] W m 4 5 y Q ",
"A g 8 > w c b m B B C S S D H H I I U Y T R E W Q / ` ` ' ' ] c g [ [ [ ' ( ( ( / ^ ^ ~ ! / ! ^ ( ( _ _ ' ' [ { | ` Y m 2 5 r W ",
"A g 8 , w g b m B B B C S G G H K I I I Y Y R E W ! / ( ` ` ` c e [ ' ` ` / ( ^ ^ ! ! ! ! ! ^ ^ ^ ^ / ( ` ' ] [ [ ) U g 2 5 t R ",
"V t 8 > w g b b b B B B S S G S K I P I I U Y E W W Q ^ ( ( ( c t ' ` ` ( ^ ^ ~ ! ! Q ! Q ! ! Q ~ ^ ^ ^ ) ) ` ' ] ) U v 3 5 r R ",
"b g 8 , w g g v b M B B C C S G F L P L P U U T R W Q Q / ^ ( g e ` ( ( ^ ^ Q Q Q ! W W W Q E Q Q Q ! ^ ( ^ / ` ` ! U v 4 5 r Y ",
"V t 5 , 0 g g c b m M B B C C S Z D G L H I U Y T R R W ^ / / g e ( ( ( ^ ^ ~ W W Q W E E R W R R R Q ^ ^ / / ) ) W K c 4 4 r Y ",
"b g 8 , w t g c b b m M M B C S C S G G G P U U Y T E W Q Q ! y q ^ ^ ^ ^ ^ W E E E W E R T R T R Q W Q Q ! ( / / E P g 3 4 r P ",
"b t 4 , 0 e g g v b b n m m B C C Z C G G G P I U T Y R E E Q t w ~ ! W W E E E E T R R Y Y Y Y R R E W Q Q / / ! E D g 3 2 w P ",
"b t 8 , 8 e y g v v v b b B B B B B C S D G H H U P F P Y E E r 8 Q R I L P T Y Y T Y Y U U U U Y Y Y E Q W Q ! Q R D g 4 2 5 H ",
"b t 4 , 8 e t g g c c b b M M M B B B C B S D G F A C A G Y E r 4 R Y D D D I I U Y Y U P U I U U U U Y R E W Q W Y F g 4 2 0 F ",
"k w 4 > 0 e y d g g j j b b m B B B B B S S S S G B B B D P T e 8 Y U A B A K I I I I P P I I I I I I T Y E E W E U D g 4 2 5 F ",
"g 0 4 , 8 e e g g g g g j v b N M M B B S S S G S M m m S H Y w 4 Y U S B A F F P P P P P I P L L P I I U Y Y R Y P S g 4 2 5 D ",
"g w 3 > 4 w e e t d g g j k v b m m M M B S B B M m b M S D I 0 4 U P A B C D J L L L G L P L L L L P I I U Y Y Y P B y 4 2 5 S ",
"g 0 3 , 4 w w e e y g g g j b b m m m M B M m m M M b m B D P 0 , U K A b V S D G G G G P P L L L L P P I U U U U P B y 3 2 5 A ",
"g 0 , > 4 0 0 e y e g g g g g j v m m m m M M m B M M B S G P 0 2 I P G D S D J G D G G H H S G D D D K I I I I H G m t 3 2 3 C ",
"e 8 , * 3 0 0 w e y y g t g g j v v b b v m m m M B B B C D P 5 3 I P P K F D D D D G D S S G D D D F J I P I I P C m w , 2 4 B ",
"e 8 , % , 4 0 w e t y y g g g g j j j b b m b m m M B B C D G 5 2 L P P J F D A D G G S S G D S Z D D D J L L P H C m w 2 2 4 B ",
"e 4 > % , 4 8 w w e y e e y y g g g g g b b b b m M B S C C D 4 2 L P I J J D D D S S S S S S S Z C V Z D D G L G B g 0 > - 5 m ",
"e 8 > * , 8 0 8 q e e e e g y g g g g g k v g v k m m m B B Z 4 - J L L J D D Z Z Z C V B B Z B B B B C Z Z G D S M g 0 - 2 2 m ",
"e , > # * > , , < : < 8 8 9 9 9 0 9 0 6 9 9 q a p a a d d f V 4 3 J N x n n x h z k h f h k k h f h f z f f x x h d q 3 * > 2 m ",
"e 4 - + & * ; ; ; : ; : < < < < 1 6 6 6 < < 7 9 7 7 7 u u i m 3 ; D z l l l s p p d a p a a s s s i i i a p p s i q 6 * # - 4 m ",
"w 3 - + & * * = : = = ; : < < < 1 : < < < < < 7 7 7 1 7 9 q m 3 ; V l l s s f i u i p i p a a i p i i i i p p p i 9 6 * # % 2 m ",
"0 3 - X + * * = = = ; ; ; < : : : : : : : : : 1 1 6 7 7 7 9 k 3 > B f s a p a i u u u u u u i u i i i u i i i i q 9 1 = # - 2 b ",
"0 3 - X # * * * * * = ; ; : : ; ; : : ; : : : : : 6 6 6 6 9 j > > m a i i i i u u 9 7 7 9 7 9 u q u u u u u i i q 1 > = # - 2 j ",
"0 3 % X X & & * * * = = ; , ; ; ; ; : ; ; : : : < 6 6 6 6 7 j - % m a i i i u 9 9 u 9 7 7 u 7 u 7 9 7 7 9 u i i q 1 ; & @ % 2 v ",
"8 3 * X X + & & * * = = ; ; ; ; ; ; ; ; ; : : : : < < 6 6 6 h - % k q q q 9 q 9 9 9 7 6 : 6 6 7 u 7 7 9 9 q q q 9 1 ; - # 2 2 v "
};
