/* XPM */
static char *animation7[] = {
/* columns rows colors chars-per-pixel */
"64 48 118 2 ",
"   c #000000",
".  c #070907",
"X  c #0F0E0D",
"o  c #110F0D",
"O  c #190F0E",
"+  c #0F100C",
"@  c #11110D",
"#  c #1C110F",
"$  c #131512",
"%  c #1C1312",
"&  c #1C1A16",
"*  c #1E1C19",
"=  c #231613",
"-  c #241915",
";  c #281917",
":  c #221E1B",
">  c #2D1D1A",
",  c #311D1C",
"<  c #25221E",
"1  c #2A231E",
"2  c #33211E",
"3  c #262522",
"4  c #2A2622",
"5  c #2D2925",
"6  c #2E2C29",
"7  c #352321",
"8  c #3B2523",
"9  c #312B26",
"0  c #3D2926",
"q  c #332E2A",
"w  c #3E2C29",
"e  c #36312C",
"r  c #3A342E",
"t  c #373431",
"y  c #3C3631",
"u  c #3E3933",
"i  c #402B27",
"p  c #432D2A",
"a  c #482E2C",
"s  c #45312E",
"d  c #49312E",
"f  c #433630",
"g  c #4C3531",
"h  c #433C35",
"j  c #4C3A36",
"k  c #443E39",
"l  c #4A3E39",
"z  c #513D3A",
"x  c #494037",
"c  c #46403A",
"v  c #4A433C",
"b  c #55423C",
"n  c #4D4641",
"m  c #4F4842",
"M  c #514742",
"N  c #524B45",
"B  c #584F46",
"V  c #554F49",
"C  c #594C48",
"Z  c #585047",
"A  c #57504A",
"S  c #5B534C",
"D  c #5E5650",
"F  c #5F5851",
"G  c #60564D",
"H  c #61584F",
"J  c #605750",
"K  c #635B52",
"L  c #685F54",
"P  c #6B6256",
"I  c #656058",
"U  c #6E6459",
"Y  c #71675B",
"T  c #73695E",
"R  c #766C61",
"E  c #796F63",
"W  c #7C7166",
"Q  c #7E7369",
"!  c #817567",
"~  c #82766A",
"^  c #86796C",
"/  c #897B6E",
"(  c #877B70",
")  c #8B7E71",
"_  c #8D8173",
"`  c #918476",
"'  c #938778",
"]  c #958A7B",
"[  c #998D7E",
"{  c #9B8F80",
"}  c #9E9182",
"|  c #A29485",
" . c #A69788",
".. c #A89688",
"X. c #A6988A",
"o. c #AA9C8D",
"O. c #AD9F90",
"+. c #AEA191",
"@. c #B1A495",
"#. c #B4A896",
"$. c #B3A799",
"%. c #B6A99A",
"&. c #BAAD9D",
"*. c #BDAFA0",
"=. c #BDB1A2",
"-. c #C3B5A5",
";. c #C7B7A8",
":. c #C8B7A8",
">. c #C6B9A9",
",. c #CABCAC",
"<. c #CCC1AF",
"1. c #CEC3B4",
"2. c #CFC6B8",
"3. c #D0C5B6",
"4. c #D3C7BA",
"5. c #D4CBBD",
"6. c #D8CBBF",
"7. c #D7CEC0",
/* pixels */
"U B b m N Z Z Z H H H L L L P P Y Y Y T T E W W E W W W W Q Q Q Q Q Q W W E E W W W W W E W W E E W E W W W R W W Q Q Q W W Q X.",
"P q @ + + @ @ @ + + + + + + + + @ @ @ @ @ @ @ @ + + X + $ $ $ $ & $ $ $ $ $ $ $ $ $ $ $ $ $ + + + + + + o @ X X X o + + + @ 3 ' ",
"P h < + @ $ $ @ % & & & & * < * < < 1 1 1 5 9 e e t t u u u < . . * e 6 6 6 6 3 1 4 1 1 3 3 < < 3 3 3 6 5 5 5 5 q 5 4 < $ * t ] ",
"P x 1 $ & 1 1 5 5 9 9 e r r r h x x v N S G P P R W Q Q Q ~ u     5 U I F F S S V V Z N N N N N N A S S S D L P P D b e < 3 t ] ",
"U x 9 & 1 q e y u x x x v v b Z G G K P T Q ^ ' [ | X.o.o.o.m     r _ _ Q W W R T Y Y U P P P Y T R W ! ~ / _ _ _ ( I k < 5 u ' ",
"P v q 1 q h x v v v N Z F L P P Y T ! ^ ` ] | +.#.-.;.;.-.-.S     c o.[ [ ] ` _ ^ _ / ^ / _ _ ' ` ] [ [ | o.o.@.$.X.~ V 5 5 u ] ",
"P x e 1 r x N N V A S H K U T R ! ! / ' [ o.#.*.>.1.1.1.1.1.K     v &.+.o.| [ [ ] ` ] [ [ [ [ ..X.X.+.+.@.&.*.>.;.%.' D 6 6 u { ",
"P v e 1 f v N Z D F K L P Y E W ! ^ _ ' | +.#.&.,.3.4.5.4.4.K     m =.&.#.+.o.X. . . .X.o.O.o.o.+.+.#.#.&.=.:.<.,.=.} F q 6 u { ",
"P v e 5 h m A S F K L L P T E W ^ _ ' [ ..+.&.-.,.2.5.7.5.5.I     m >.=.&.@.O.O.o.o.o.O.+.O.O.O.@.@.=.=.-.>.,.1.1.-.} K e 6 k ] ",
"L v e 5 h N A S F K L P Y T E Q ^ / ' [ ..@.&.:.1.2.5.7.7.7.I     m >.-.&.@.O.+.O.o.O.O.+.+.+.@.&.=.=.-.>.,.,.4.2.-.} K e e u ` ",
"H x e 5 u N A F F K L U Y T E W / _ ' [ [ +.&.-.,.1.2.4.4.6.I     m >.-.&.@.O.+.O.o.o.o.o.+.+.#.&.&.-.-.-.,.1.2.2.-.} K t 6 c ' ",
"H v e 6 h m S S F L P P Y E E ! ! _ ' [ | o.#.=.,.1.1.3.3.3.L     v -.-.&.@.+.o.o.o.o.o.o.O.o.#.#.&.=.-.=.,.,.1.1.=.} H q t u _ ",
"H x w 9 h N A D D H L L Y T W Q ^ / ` ` { o.+.*.>.<.1.1.<.<.L     m -.=.#.+.+.o.o.o.o.o...o.O.@.%.&.=.-.;.:.,.,.>.*.{ F q q k _ ",
"H x r 1 c N A S D K L P Y R W W ! ^ / ' { X.+.&.=.=.,.,.,.<.K     v =.&.+.+.+.o.o.....o.o...o.+.@.&.=.-.;.:.,.:.;.*.{ F q q k ( ",
"G x e 1 c m V D D K L P Y T E E W ~ ( ` ] } +.%.&.*.-.>.>.>.K     v =.@.+.+.X. .......[ [ o...+.+.&.&.&.*.-.;.>.-.$._ D t 6 k ( ",
"G x e 9 h N V A A K K P U Y Y E W ~ ( _ ] } X.+.%.*.=.-.-.-.D     v #.@.+.X.| | [ [ [ [ [ ..[ o.o.+.%.&.%.*.*.=.*.+._ A 6 6 k ( ",
"G x q 1 x N Z S S K K L P U Y R W Q ( ( _ { } O.@.#.#.=.=.=.S     x #.+.O.O.[ [ [ [ [ [ } [ [ |  .X.+.@.@.#.&.&.%.o.) A q e u ( ",
"B x r 1 u v N A J H J L P U U R W Q ( ( ) ` { } X.o.#.#.%.%.S     z O.+.[ [ [ [ [ ] [ [ [ [ [ [ } } X.o.o.@.@.#.@.X.~ V 5 e u ~ ",
"G x 9 5 u v N A S A D K P P U R R W Q Q ( _ ` { | | o.@.@.@.V     x @.[ [ [ [ ' ] ] ' ' ] ' ] ] [ } | | X.o.+.@.+.} Q N 6 q k ~ ",
"B x q 1 u v m N A S D F K I P U R R E Q ~ ( ( ` [ [ ..o.o.@.N     l o.o.[ [ ] ' ` _ ` ` ` _ ' ] ] ] [ } | |  .o.o.[ W m 6 q u ~ ",
"Z h q 5 u v v N V A D D F K L U U U R Q Q ( ( ( ` ` [ | X.o.N     h X.} [ [ ] ' _ _ _ _ _ _ _ _ ' ` ] [ [ [ | | } { Q N 6 6 u Q ",
"Z h 5 1 e x v N V V V A D F K I L P Y R Q Q ~ ^ / _ ' [ } | M     h | { [ [ ' ` _ / / ^ / / / _ ` ` ` ] [ [ [ |  .} W N 5 6 u Q ",
"S h q 1 e c v N m V V A S D F F L P U Y R R W ~ / _ ` ' ] [ v     y [ [ ] ` ` _ ^ ^ ^ ^ ^ ^ ^ / / ) ` ` ` ] [ [ } { R m 3 6 u W ",
"Z h q < e c v m m V V A A S D F L L P U U R R W ! / / ` ` ' c     r ' ' ` _ / ^ ! ^ ^ ! ~ ~ ~ ^ ^ / / ) ` ` [ [ { ( U n 5 6 u R ",
"Z f q < e k x n N N N V A D D D K K L L P U Y R ! ^ / / _ _ x     r ' _ ) / ~ ~ ~ ~ Q Q ! Q ! ~ ~ ^ ~ / ) ` ] ] ' ( P c 4 6 t R ",
"B u 5 1 e h x v n N m V A D A D F K K L P P U R E T ! / ^ _ x     r _ _ / ^ ~ Q W W Q W Q Q W W Q ^ ~ ~ / ) _ _ _ ( U c 4 6 t Y ",
"b u q 1 e u h x n n m V V A A D D D F K L I U Y T E E ! ^ ^ h     e ) / ^ ! W W W W W W W W W W W W Q Q ^ / / ( _ ~ P c 4 6 u U ",
"v u q < q u h v v n n m N N A A C D F F K K P P Y T T ! ^ ^ u     e ^ ^ ! W ~ W R R R W T T T E R E E Q ^ ^ / ( ( W K k 4 6 t P ",
"N u 9 1 9 u h c v v v N m N V N S S D D F K L P U T R W W W u     q ! ! ! Q Q T R R R R R R Y R R R R W W Q ~ ( ~ R H k 4 6 t K ",
"v u 5 1 9 y u c v v v v n N N A V V A D F K K L P P R Y T W y     q ! T Y T T T Y U U R Y U Y U U R R R W ~ ~ ( ~ T H h 4 3 e K ",
"v y 9 1 6 y u x k x x v m m m m m V V V S D D L H G H P T R r     q T Y K S P U U U Y U U P P P U Y Y Y R Q W Q W U S h 4 5 6 F ",
"v u 5 < q r u h k j x v n n m m m N V N V S S D Z Z Z K Y T r     5 Y P A A S L L P U P I K P P P P P Y Y T W W E U S h 5 3 q D ",
"l y 5 1 q r r r h h k k v v n m m m m V A A A A N N N A L Y e     5 P L V N V S K K L K K K L L L I L R U R R R R L V k 5 3 6 D ",
"k q 4 < 9 e u u h h h h c v n n m m m V A A A A m N M V D P e     5 P L B m V D D K K K K K K K K K L L U U U U U K V h 5 3 q S ",
"h q 4 < 5 e r r r h h h c c v v m m m V V m N N v v N A S L q     4 L H V N V S D D D D F J K K J J K K L U U U L K N h 4 3 6 C ",
"h q 4 < 5 e e r y s h h c c v v n n m m m m v M m v v N S K q     4 K H M m v A A S D D K K K D K K K K L U U U K F N u 4 3 6 A ",
"s q < < 5 q e r r u f h x h x c k n n n m m v m m m m A S K q     < L H S A Z A S S D D D D D D D S D D K L L L K S n r 4 3 5 V ",
"u q < & 1 q q r u u u u u h u x k c v k v v n m m N m A D J 6     < L K H S S S S A A D A V D D S S S D K L L K K S v r 4 3 6 N ",
"r 9 < : < 9 e r r u u u h f u x k k k v v v n v m m N A V D 6     < K K K S Z Z A A A D A A D V A S S D J J J J D A c e 3 < 3 N ",
"r 1 < : 1 5 q e r r r r u u u h h k k l v v v v v m V N V S 5     3 H K K S S S A A A A A A V D A A A A D D J D A V c q 3 < 5 m ",
"r 9 < & 1 5 9 e q r r y u u u h h h h k k k k l l n M M N A 5     < J K K G C V V A A V m N N V N N N N V S S S A N x q < 3 3 n ",
"u 1 < % - < 1 1 2 2 2 0 0 2 0 0 9 8 0 0 0 w s i p a s s h N 5     < G b b b z z g j j j j j j l j j z g g z g z j f w 4 & : 3 n ",
"e 5 < # = ; ; 1 > > , 2 2 2 2 2 2 7 7 2 2 8 8 8 8 8 8 i p n 3     4 C j g g g d a p d s p g d g s a a p a a a a p i 7 ; & * 5 n ",
"e 1 < # = = - - ; > > , 1 2 2 2 , , , 2 2 2 7 2 7 8 8 8 w l 3     : C g d d d d p i i p p p s a s p a p a a a s p 0 2 ; % * 3 n ",
"e 5 : # # = - - ; ; ; > , , , , , , , , , , , , 7 7 7 8 0 j < .   : M g a a s p i i i 8 i i i i w i p a p p p p p 8 7 ; % : 3 c ",
"q 1 : # # = - = ; ; > > > , > > > > > , , , , , 7 7 7 7 9 h >     : M s p p i i 0 8 i 8 2 8 8 8 w w i i i i p i w 9 , : % : 3 c ",
"q 1 * @ # = = = = = ; ; > > > > , > > > , , , , 7 7 7 7 7 h <     : M s i i 0 i i 0 i i i 8 8 i 8 i 8 0 0 i w p w 8 , - % * 3 c ",
"q 1 - O O # & = - = - ; > > > > > > > > > , , , 2 , , 7 7 f <     : v p i 0 0 0 8 8 8 2 , 8 , 8 8 0 8 0 0 0 0 0 0 7 > - $ 3 3 c "
};
