/* XPM */
static char *animation12[] = {
/* columns rows colors chars-per-pixel */
"64 48 115 2 ",
"   c #000100",
".  c #070908",
"X  c #0D0D0C",
"o  c #110F0D",
"O  c #1A0F0E",
"+  c #0F100C",
"@  c #11110E",
"#  c #1A100E",
"$  c #141412",
"%  c #1B1513",
"&  c #161816",
"*  c #1B1916",
"=  c #161818",
"-  c #1C1B19",
";  c #231513",
":  c #241916",
">  c #281A17",
",  c #221E1B",
"<  c #2D1C1A",
"1  c #321D1D",
"2  c #25211D",
"3  c #29231E",
"4  c #33211F",
"5  c #262522",
"6  c #2A2622",
"7  c #2D2925",
"8  c #2E2C29",
"9  c #352421",
"0  c #3A2623",
"q  c #312B27",
"w  c #3D2926",
"e  c #332E2A",
"r  c #3E2D29",
"t  c #36312C",
"y  c #3A332E",
"u  c #373431",
"i  c #3C3631",
"p  c #3E3933",
"a  c #412B26",
"s  c #432D2A",
"d  c #482E2C",
"f  c #45312E",
"g  c #4A302E",
"h  c #463731",
"j  c #493331",
"k  c #433B35",
"l  c #4C3A35",
"z  c #453E38",
"x  c #4D3D39",
"c  c #503B37",
"v  c #513E3A",
"b  c #474037",
"n  c #494037",
"m  c #47403A",
"M  c #4A433C",
"N  c #52443E",
"B  c #4D4740",
"V  c #4F4841",
"C  c #534C45",
"Z  c #584F46",
"A  c #554E48",
"S  c #585047",
"D  c #57504A",
"F  c #5B534C",
"G  c #5E5750",
"H  c #5F5850",
"J  c #61574D",
"K  c #62584F",
"L  c #645B52",
"P  c #685F54",
"I  c #6B6256",
"U  c #6E6559",
"Y  c #71675B",
"T  c #736A5D",
"R  c #786C5E",
"E  c #766C61",
"W  c #796E63",
"Q  c #7B7165",
"!  c #7D7369",
"~  c #817466",
"^  c #82766A",
"/  c #86796C",
"(  c #897C6E",
")  c #8B7E71",
"_  c #8D8173",
"`  c #918476",
"'  c #928678",
"]  c #95897B",
"[  c #998D7E",
"{  c #9B8F80",
"}  c #9D9182",
"|  c #A29485",
" . c #A99787",
".. c #A59788",
"X. c #A89788",
"o. c #A69889",
"O. c #AB9B8C",
"+. c #AD9F90",
"@. c #AEA191",
"#. c #B2A495",
"$. c #B4A897",
"%. c #B4A798",
"&. c #B6A999",
"*. c #B9AC9D",
"=. c #BDB09F",
"-. c #BCAFA0",
";. c #BEB1A2",
":. c #C3B5A6",
">. c #C4B7A9",
",. c #C6B9AC",
"<. c #CBBCAC",
"1. c #CDBFB1",
"2. c #CDC1AF",
"3. c #CEC2B1",
"4. c #D0C5B4",
/* pixels */
"U Z M C N S F F J K K P P P I I U T T E E E W Q Q Q Q ! Q ! ^ ! ! ! ! ! ! W W ! W ! W W W Q W W W Q W Q Q Q E Q ! ! ! ! Q Q Q O.",
"I e @ + + + + + + + + + + + @ @ + + + @ @ o + + @ $ $ = = - - = - - - = = & $ $ $ $ & $ $ & + + @ @ + + o o X @ o o @ X @ $ 5 ' ",
"U k 2 X @ @ $ $ $ * * * * * 2 2 , 2 2 5 6 7 e t u u p $ . . X . X X X . @ 8 8 5 7 6 3 3 5 5 5 3 6 5 5 5 7 7 7 7 8 7 5 , & - t ] ",
"U b 6 # , 2 3 3 3 e e e y y i i m M B A D K L U E E W 5                 @ D G D S S S C C C A C A D D G F L P I P L C t 2 5 u ] ",
"U b q * 3 q t y p k m b M M N S F L L U E Q ( _ [ { | 6                 = Y Q E T T T U Y U Y Y T E W ~ ^ ) _ ` ` ^ P k 2 6 p ` ",
"I n t 3 q k b n M A S S H K L U U E ! ( ` { o.+.%.%.*.e                 - ) _ ) ( ( / / / ( ( ` _ ] [ } o.O.+.#.%.O.^ C 7 8 p ] ",
"I M t 3 y n M C F F K L L U Y T Q ! _ ] } O.$.*.:.:.:.t                 , ] | { ] ] ' ` ` ] [ | O.O.@.#.*.=.;.:.,.&.' G t 8 z { ",
"I n t 3 i M Z S F H L I U U T Q ! ( ' { } @.*.;.<.<.>.u                 2 | O...| | | | | o.o.O.@.$.*.*.;.:.<.<.1.-.{ G t 8 p ' ",
"I M t 7 p V A A F L L I I T Q ~ / ) ] } | @.-.>.<.<.1.u                 , o.#.O.O.X.X.O.O.O.#.%.$.&.=.:.:.1.1.4.1.:.} P u 8 z { ",
"P n y 7 p V A F G L I I U E Q ~ / ' ] } O.$.-.>.<.1.,.u                 2 O.#.+.O...X.+.O.+.#.#.&.=.=.:.<.1.4.4.3.;.} I 8 u p ' ",
"K n t 7 z V A G H L I I Y T Q ~ / _ ` } O.$.-.;.>.,.,.u                 2 ..%.@.X.X.X.O.O.+.+.+.&.=.;.:.<.1.4.4.3.;.} P u u z { ",
"P n u 8 p V S F G L I I Y T Q _ / _ ` { | @.$.*.:.>.>.t                 , ..%.@.O.X.X.O.+.+.+.#.$.&.=.:.<.1.1.1.1.;.{ L 8 8 p / ",
"J n y 7 k M S F K K I U T T Q ~ ^ ) ` { | +.%.&.;.;.;.t                 2 | @.O.X.X.o.o.O.O.O.#.$.$.*.;.,.<.1.1.1.-.{ G u t z ) ",
"J n e 7 b N S H K L I I Y Y Q Q ! ) ` ] | | +.@.*.*.-.t                 5 | +.O.X.X.o.| o.O.O.+.+.$.&.=.,.<.1.1.,.-.) G 8 8 z ) ",
"J n e 9 k M A F G K P I U U T Q ! ) ) ] } | O.+.%.&.&.t                 - { O.| X.| | | | |  . .+.#.$.=.:.>.,.,.>.%._ G 8 u p ) ",
"J n e 7 k M A S F L P L U U T Q ! / ) ' { } | O.@.@.%.e                 2 [ X.| | { } } | | |  . . .+.$.-.:.:.:.-.+.) D 8 8 p ) ",
"J b e 7 b N N K G H L P I Y U Q Q ! _ _ ' [ [ } O.+.+.t                 2 [ [ [ [ [ [ [ [ [ [ [  . .O.@.#.$.=.=.$.O._ C 7 e k / ",
"N b e 7 i M C S F H L P I U T E Q Q ! _ _ _ ] } |  .o.q                 * [ [ [ [ ] ] ] [ [  .[ [ |  . .O.+.@.#.#.| ! C 7 t p / ",
"K b e 7 p M M F F H H L I I U T E Q Q / ^ _ _ [ [ | | q                 2 ' [ ] ] ] ' ` ] ] ] ] [ [ | |  .O.+.+.+.[ ! C 8 t k ! ",
"J n e 3 u M C C S F H H I I I U T E W W ^ / _ ` [ [ [ q                 - _ ] ] ] ` ` ` ` ` ` ` ] [ [ [  .[  .+...] R N 8 8 p / ",
"S b t 3 i b M A C D G H H L I I T T R R Q ! ^ _ ` ` ] 7                 * _ ] ` ` ` ` _ _ _ _ _ ` ` ] ] [ [ [  .} ' T M 6 8 p ! ",
"S k e 3 y b M M C A D H H H H I U Y T T R R Q ~ ( _ _ 6                 : _ ` ` ` _ _ _ ( _ _ _ _ ` ` ' [ [ [ [ } _ T B 8 8 p ! ",
"S k 8 3 t k M C C C A F F H H L I U I Y T R Q ~ / / ( 6                 % ~ ` _ _ _ _ ~ / / / _ ( _ _ _ ' ] [ [ { _ U B 8 8 p W ",
"S k e 2 t b M M V C A D F F G L K P P U U T R R ! ~ ^ 3                 # ~ _ / / / ~ ~ / / ! / / ( / _ ` ` ' ] ] ! I M 5 8 p W ",
"S k 7 3 t b b M N C A A G G F H K K K I I U Y R R Q ~ 2                 - Q ( ~ ! ! Q ! ! ! ! ! / / ( ) ( _ _ ` ] ! I m 5 8 u E ",
"Z p 7 3 e p n M C C C A D F D G K K K P I U I Y R R R 2                 * R ( ~ Q Q Q W ! ! ! ! ! ! / / ( ( _ _ _ / I m 7 8 u Y ",
"N p 8 3 e b b b M C C C A D D F F F K I I L L I Y Y R 2                 * T Q R E E E E ! ! ! ! Q ! ! ~ / / / _ _ ! L M 8 8 u U ",
"N i q 3 e p k b M M M V C C A F F F H H K K L I Y T U :                 $ Y Q R E W W E E Q Q W W Q ! ~ ~ / ( _ _ W L m 5 8 u U ",
"N b 8 3 t i k b M M C V V C C D D F G H K K L I I I I 2                 & I T T E E E T U E W W E W W W ! ! ( ( ^ R H b 6 7 u L ",
"M p 8 3 t i k b m M M V V V C A D D F H H H H I P P P 2                 % I Y I I U U U U T T E T Y E E W ! ! ~ ^ T H k 6 5 t L ",
"M p 8 3 8 y k k b M M M M V V C C A D D F A C F J P P :                 $ P I F G H I U U U U U U U Y T W W W ! ! U F k 5 5 8 H ",
"M i 7 2 q y y k b m M M M M V V V C A A A M M M S K K *                 $ K I N A A H H P U U I I I U U T T T E T I D k 6 7 8 H ",
"n t 7 2 7 t y h k k m m M M V V C V C C B M M M C F G *                 & H K N C V G F G P P P L U U U U E E E U L A k 7 5 e G ",
"z t 6 3 q t t i k k z M M M M V V C A A B z m z B C F *                 $ F H C B C F F G G L L P P I I U U E U P L V i 6 5 e D ",
"k e 6 2 7 e y y i k k m m M m M B V V M n k n n B C A *                 $ D F M B B A F G G G K G P P P P U U Y P G B i 6 5 8 D ",
"k e 3 2 6 q t y y k k m m m m M B B M n M z k k B B C -                 $ A G N B B A A G G G G P P L P P P P U P G V i 6 5 8 D ",
"h q 3 2 6 q t y i i h k b k n m z M M M n n m M B V A *                 + S G A C V C A A G G G G P K L L L L P L G B i 6 5 7 A ",
"i q 2 2 6 e t t y i i p k k b k z m M z n M k M B C C %                 + D G S A C C A A A D F G G K G K L L P L F z t 5 2 7 A ",
"p q 2 , 6 e t t y y y k i k k k z z z n n M M M M B B $                 @ C D D A A C C A D G F D G G G G K L K G A z i 2 5 7 V ",
"y 3 2 : 6 7 t t t y y i i h k k z k z z k n M M M M B *                 @ C F F A A A A A D D D F F G F G G G G G C z e 2 5 5 V ",
"y 3 2 , 3 8 q t t y y i i i k k k k p p k k n z z z B $                 @ C D D A C C C C A A C C C D F F G D D A B k e 3 , 5 B ",
"y q 2 % ; > 3 4 9 9 9 9 q 9 4 4 0 0 w w w w r w r f z %                 @ C N l c l l g j l l l x c v v v v v c l j w 5 : 2 5 B ",
"y 3 3 % O ; > < 1 < < 1 4 1 1 1 1 1 0 0 0 4 9 0 9 a k $                 @ C l d g s s a a s d d d j j j j j j d a w 9 < - - 8 B ",
"t 3 2 # O ; > < < 1 < 1 < < 4 1 1 1 1 4 4 4 4 1 9 w k $                 @ M l s s s s a a a s s f d d j j j d d s 0 4 < % - 5 B ",
"t 6 , # O ; ; > < < < < > 1 1 1 < 1 1 1 1 1 1 0 1 0 p @                 @ M h a a w a w w w a 0 w r s s d d d d s 9 4 > % , 5 m ",
"t 3 , # O ; ; > < < < < > > > 1 < < < 1 1 4 1 1 1 9 i @                 + M f a w w w 0 0 0 a 0 w 0 w s a d s s w 9 4 > ; , 5 m ",
"q 3 , # O O ; ; > > > 1 > 1 < > > 1 1 < 1 1 1 1 1 9 u $                 + b f a 0 0 0 0 0 0 0 0 0 0 w w a s s w w 9 1 , = 5 5 m ",
"q 3 > # O O ; ; > > > > > 1 < > > > < < < 1 1 1 1 9 t $                 + k y 4 0 0 0 0 0 4 0 1 9 4 0 w a a w w w 9 1 > % - 5 m "
};
