/* XPM */
static char *animation27[] = {
/* columns rows colors chars-per-pixel */
"64 48 111 2 ",
"   c #000100",
".  c #080605",
"X  c #0A0907",
"o  c #070909",
"O  c #0B0B09",
"+  c #110E0D",
"@  c #190F0F",
"#  c #0F100C",
"$  c #11110E",
"%  c #1B110E",
"&  c #141513",
"*  c #1C1412",
"=  c #161817",
"-  c #1C1915",
";  c #171918",
":  c #191A19",
">  c #221613",
",  c #251916",
"<  c #281917",
"1  c #221D1B",
"2  c #2B1B19",
"3  c #25221D",
"4  c #2B221E",
"5  c #32221E",
"6  c #252321",
"7  c #2B2622",
"8  c #2D2925",
"9  c #2E2C29",
"0  c #352522",
"q  c #3A2623",
"w  c #312B27",
"e  c #3D2925",
"r  c #332E2A",
"t  c #3F2928",
"y  c #35312C",
"u  c #3A332E",
"i  c #363430",
"p  c #3C3631",
"a  c #3E3933",
"s  c #412C27",
"d  c #442E2A",
"f  c #4A322E",
"g  c #473632",
"h  c #433B35",
"j  c #4A3C36",
"k  c #453E39",
"l  c #4A3F3A",
"z  c #503D37",
"x  c #46403B",
"c  c #4B433C",
"v  c #52413B",
"b  c #4E4741",
"n  c #4F4841",
"m  c #514740",
"M  c #534C45",
"N  c #584F47",
"B  c #564F48",
"V  c #595046",
"C  c #57504A",
"Z  c #5B534C",
"A  c #5F584F",
"S  c #5E5750",
"D  c #5F5851",
"F  c #61574D",
"G  c #62584F",
"H  c #645B53",
"J  c #685F54",
"K  c #6B6256",
"L  c #6D6459",
"P  c #70665C",
"I  c #74695E",
"U  c #766B61",
"Y  c #796E63",
"T  c #7B7166",
"R  c #7D7469",
"E  c #817567",
"W  c #82766B",
"Q  c #86796D",
"!  c #897C6E",
"~  c #877A70",
"^  c #8B7E71",
"/  c #8E8274",
"(  c #928475",
")  c #928779",
"_  c #95897C",
"`  c #9A8D7E",
"'  c #9B8F80",
"]  c #9D9182",
"[  c #A29485",
"{  c #A59788",
"}  c #A79A8A",
"|  c #AA9B8C",
" . c #AF9F90",
".. c #AFA192",
"X. c #B3A595",
"o. c #B3A798",
"O. c #B6AA99",
"+. c #BAAD9D",
"@. c #BDB09F",
"#. c #BCAFA1",
"$. c #BEB2A3",
"%. c #C3B4A4",
"&. c #C8B7A7",
"*. c #C5B7A8",
"=. c #C9B7A8",
"-. c #C7BAAB",
";. c #CBBCAC",
":. c #CBBFB1",
">. c #CCC0AF",
",. c #CEC2B3",
"<. c #D0C4B5",
/* pixels */
"L N c M c V Z A F F J J J K P P U U U U U T T R R R R R R R ~ R R R R R R R R R R R R R R T T R R T T T T T T R R R R T T T R } ",
"K r $ # # # # # # # # # # & & & = = & = ; ; ; : : : : : : : : : : : : : : : : : : ; ; : ; ; : ; ; = & & & & & $ O # # # # & 7 ) ",
"K h 3 O # & & & - - - - 1 : # o O O o O o O O O O O o o O o O O O o o O O O o o O o O O O O o O o O 6 9 8 9 8 9 r 8 7 3 - : i _ ",
"K c 7 * 1 3 4 4 8 w w y u u X                                   o                                   a D F H H K L H n u 3 6 a _ ",
"P c w - 4 y u p a h k j c x O                                                                       M R Q ! / _ ) ! K x 3 8 a ) ",
"K c y 4 w x c c M M M V V M #                                                                     . H ] [ } ..o.o.} R B 8 8 k _ ",
"K c u 4 u c c C A A A F H A #                                                                       U ..X.O.@.%.*.o./ D i 9 k ' ",
"K c u 4 p c V A F F G K K H O                                                                     . Y O.+.$.-.;.;.$.] H i 9 a ' ",
"J b t 8 a n C D H K K L L K O                                                                     . R +.%.;.;.;.,.-.{ L i y x ' ",
"J b i 8 k M S D H K K P I K $                                                                     . R $.&.;.>.<.<.*.] J i y x ) ",
"G v u 8 a B C H K K H L U J O                                                                     . R %.&.;.;.<.,.-.] J i i k ' ",
"H c u 9 a M S H H J K K L K +                                                                     . E $.&.;.;.:.,.$.] H 9 9 k ~ ",
"G c u 0 h B C D J J J K L H O                                                                     . T $.%.%.=.:.:.#.' S y y k ^ ",
"G c y 8 k B S D H H K K L H $                                                                     . T +.%.*.=.;.-.o.) S 9 i x ^ ",
"F c y 8 h M S D S H H K L H +                                                                       Y o.O.#.*.*.$...^ S 9 i x ^ ",
"F c r 8 a M S D H G H K K H O                                                                     . U X.o.O.O.#.#. .W B 9 i x ^ ",
"F j y 4 h M Z A H F H J K F O                                                                     . I  . .X.O.O.X.{ E B w y h ~ ",
"F x u 4 a n C C Z H H H K Z +                                                                     . P } |  . .X. .[ R B 8 r k ! ",
"F x w w a c B C Z Z F H H S O                                                                     o L } | | |  .| ` E v 9 9 a ! ",
"F g w 5 a c M C C C A D J Z O                                                                       L ] [ [ | | } ) I c 8 9 k W ",
"Z h y 8 p c b n C C C Z H C O                                                                 .   . J ] ] ] } } { ) I c 8 9 a W ",
"Z x y 4 p x n n n B C Z Z V +                                                                       H ' ' [ [ { ] / L c 6 9 a R ",
"V x r 4 y x c n M M V C C M +                                                                       H ) _ ] ] [ ] ! L x 7 9 a R ",
"V h r 3 r x c c n M B V V m O                                                                     . S ^ / _ _ _ ) Q K x 7 9 a R ",
"V h w 3 r x c c c c c V V n O                                                                     . Z ! ! / / ( ( Q L x 6 9 a U ",
"M x r 4 r d x c c v c c V c O                                                                     . V ! ! / / / / W L c 8 9 a I ",
"c a 8 4 w x x x c c v F M c #                                                                     . V E E ! ! ! ! W L c 9 9 a L ",
"V h r 3 w h g x c c c c c c O                                                                       M T E Q ! / / R H c 8 9 p L ",
"c x w 3 y a x x c c c c c c #                                                                       M I T Q ! / Q U D x 8 9 i H ",
"c a r 3 r a x x c c c c c x #                                                                     . c I I I E W R I A x 7 7 i H ",
"c a w 4 r p x x x p c c c x #                                                                     . c L G K P I Y P S a 7 7 i D ",
"c a w 3 r y u u u u u c c u X                                                                     . c J A Z Z D K K C k 7 7 y A ",
"c p 8 3 w u u u y y u j k h O                                                                       k G C B B G H D B h 9 7 y S ",
"x p 8 3 w u u r y r u u j h X                                                                     . k F Z B B Z D S n p 7 6 y Z ",
"h r 7 3 0 y r r w y u a a a X                                                                     o h S B M C Z S Z b p 7 7 9 Z ",
"h r 4 3 8 w r r w r r u a a X                                                                       a C B m N B C B b p 8 6 9 C ",
"h r 4 3 7 w r r r r p a h p .                                                                     . a C C C Z Z Z C c u 6 6 9 C ",
"u w 4 3 7 w r u u y i a a p O                                                                       a B Z Z Z S S C c u 7 6 9 B ",
"u r 3 3 7 w r r i r u p p y O                                                                     . p B Z Z G S Z B x u 6 6 9 M ",
"u w 3 - 7 w r r r u u u p r .                                                                       i B C S S Z C n x y 6 6 9 b ",
"u w 3 , 3 4 w w w r u r y y X                                                                     . i M N Z Z Z C B l r 7 6 7 b ",
"u w 3 * , 3 4 4 5 5 5 5 r r .                                                                       i m z z z z j g i 0 , 6 9 b ",
"u 4 3 $ > < 2 2 < < 2 2 0 w .                                                                       t b d f f f d t 0 2 : 6 7 b ",
"y 8 3 % % > , < 2 2 < 2 0 8 .                                                                       r z d d d f f q 0 2 > : 6 b ",
"y 7 , % % > > > < < < < 8 7 . .                                                                   . 8 j s d s s d q 5 < * 1 9 x ",
"r 4 3 @ % > > > < < < < 4 4 .                                                                       8 g q t s t t 0 4 < > 1 6 x ",
"r 4 3 + % > > , < < < < 4 8 .                                                                     . 8 a q q q t q 0 2 < ; 1 6 x ",
"w 7 > % % % > > , < < , 4 4 .                                                                       7 u 0 0 q q q 5 5 < @ : 9 x "
};
