/* XPM */
static char *animation39[] = {
/* columns rows colors chars-per-pixel */
"64 48 95 2 ",
"   c #000100",
".  c #0A0505",
"X  c #070806",
"o  c #090907",
"O  c #070A09",
"+  c #090A09",
"@  c #180F0F",
"#  c #0E100D",
"$  c #10110F",
"%  c #1B110F",
"&  c #141513",
"*  c #1C1312",
"=  c #151817",
"-  c #1B1915",
";  c #171918",
":  c #191A19",
">  c #221513",
",  c #251A16",
"<  c #221E1B",
"1  c #2A1D1B",
"2  c #25211E",
"3  c #2A231E",
"4  c #31221E",
"5  c #242321",
"6  c #2A2521",
"7  c #2E2925",
"8  c #2E2C29",
"9  c #352421",
"0  c #382623",
"q  c #312B26",
"w  c #3B2C26",
"e  c #332E2A",
"r  c #3F2C29",
"t  c #35312C",
"y  c #3A342E",
"u  c #353330",
"i  c #3C3631",
"p  c #3E3933",
"a  c #40362F",
"s  c #453730",
"d  c #433C35",
"f  c #483C36",
"g  c #443E39",
"h  c #47413B",
"j  c #4B433C",
"k  c #50473F",
"l  c #50483F",
"z  c #4C4641",
"x  c #4F4842",
"c  c #524643",
"v  c #534B44",
"b  c #584F47",
"n  c #554E48",
"m  c #585047",
"M  c #57504A",
"N  c #5B534C",
"B  c #5E5650",
"V  c #61574C",
"C  c #64594E",
"Z  c #645B52",
"A  c #685F53",
"S  c #6B6256",
"D  c #6E645A",
"F  c #70665B",
"G  c #72695E",
"H  c #756C62",
"J  c #796E63",
"K  c #7C7267",
"L  c #7D7469",
"P  c #807466",
"I  c #81776B",
"U  c #85796C",
"Y  c #897C6E",
"T  c #897C71",
"R  c #8D8173",
"E  c #918577",
"W  c #928679",
"Q  c #958A7D",
"!  c #9A8E7E",
"~  c #978C80",
"^  c #988D80",
"/  c #9E9182",
"(  c #A29485",
")  c #A49788",
"_  c #A79889",
"`  c #A99B8B",
"'  c #AEA090",
"]  c #B2A494",
"[  c #B6A999",
"{  c #BBAD9D",
"}  c #C2B4A5",
"|  c #C7B8A9",
" . c #CABCAC",
".. c #CFC2B2",
"X. c #D2C4B5",
/* pixels */
"D b l v l N N C C C S S S S D D H H H H H K K L L L L L L I I L L I L L L L L L L L L L L L L K L L K L L L K K L L L L L K L _ ",
"S y $ # # # $ $ & & & & & = = = : : = ; ; : : : : : : : : : : : : : : : : : : : : : : : : ; : : : : : ; ; ; ; ; & & $ $ $ $ 7 W ",
"S j 2 # # $ & - - O X O O O O O O O O o + + + + O + O O + + + O O O O O O O O O o O o o O o O O O O O O O O O < u 8 5 < : : i ~ ",
"D j 7 * 2 3 3 3 3 X                                             X                                             i D Z v y 2 6 p ~ ",
"D l t - 3 t y y y o                                                                                           x W Y D h 6 7 g Q ",
"D v i 3 q h h j g +                                                                                           Z [ ) U v 7 q h ~ ",
"S v i 3 i h l l j o     X                                                                                     D | [ E N 8 8 z ~ ",
"S l i q d l l m c o                                                                                         . H  .{ ! Z e u z ~ ",
"S v i e g v M B v +                                                                                           H X.} ( Z e t x ~ ",
"A v i e g n M B N +                                                                                           J X.} ^ Z y t x Q ",
"A l i e g x M B N +                                                                                           J X.} / Z e u z W ",
"C b i e g v n B M o                                                                                           H X.} ^ Z e u z W ",
"C b a 0 h v M N n +                                                                                           H ..{ W Z e u z W ",
"C l y q g c n N v +                                                                                           H | [ E N e u z W ",
"C l y q g x n N v +                                                                                           G } ' T N e u h T ",
"C l y q g c N N v +                                                                                         X G { ` Y n 8 u z T ",
"C l y q d x n N v +                                                                                           D [ ) U v q t j T ",
"C l y 7 d x n M v o                                                                                           S [ / K x 7 t z T ",
"V j y 7 p x v n v o                                                                                           A ' ^ J v 6 u h T ",
"V j y 4 i z c n x +                                                                                           Z ` Q H x 7 u h U ",
"B j y 6 y h v v x +                                                                                         . N ` W H v 7 8 h L ",
"N j y 3 y h j v j +                                                                                           N _ E H j 6 u h L ",
"N j y 3 y f j j j +                                                                                           N ! R G j 7 q h L ",
"N j y 3 t h j j j +                                                                                         . n W Y D h 6 8 h L ",
"m j w 3 t h h s j #                                                                                           v E U A h 3 q h J ",
"m h t 3 t d h h s #                                                                                         X v R U S h 3 q g H ",
"l h t 3 w p h h h +                                                                                           v Y P A j 8 8 g G ",
"v h t 3 w w h h p +                                                                                         X j U J C j 8 8 g D ",
"v h t 3 t i h s p o                                                                                         X j K G B h 6 8 u S ",
"l h t 3 t i y h p o                                                                                           j J S N h 2 8 u S ",
"j d 8 3 7 p p i i o                                                                                           h G A l y 5 5 u Z ",
"j p 3 2 3 y i h i o                                                                                         X h S N h u 2 5 u Z ",
"f d 7 : 6 e t d i o                                                                                           d A M d e 2 5 u V ",
"g i 3 < 6 e e i t o                                                                                         . p Z M d e 5 5 u B ",
"d y 6 < 6 e t y t o                                                                                           i B n i e < 5 u N ",
"s t 6 - 2 7 e t q .                                                                                           i B n i 8 : 5 e M ",
"d t 3 < 3 7 e t t O                                                                                           i V v h e 2 5 e n ",
"i t 6 - 2 7 e i q o                                                                                           i V v h w 2 5 t n ",
"i t 3 < 6 e q e q o                                                                                           y N v g t 2 5 8 n ",
"y q 3 < 6 q q q 8 o                                                                                           y M x h t 2 5 8 x ",
"y e 6 - 6 7 7 q 7 o                                                                                           e n z f e 2 5 8 x ",
"y e 3 * , , 1 q 9 .                                                                                           e c s w 4 , 2 8 x ",
"y q 3 % > > , q 6 .                                                                                           e v a 4 1 : < 8 z ",
"t q 2 * % > , 6 3 .                                                                                           7 h w 4 , * < 8 z ",
"e 8 2 * % > > 4 2                                                                                             6 f 0 4 < > 5 8 h ",
"t 8 2 @ > > > 1 2 .                                                                                           6 f 9 1 < * < 8 h ",
"e q < @ % > > 6 1 .                                                                                           1 s 9 1 > * < 8 h ",
"e 7 1 @ % > > 1 1                                                                                             1 a 9 1 > @ 5 8 h "
};
