/* XPM */
static char *animation19[] = {
/* columns rows colors chars-per-pixel */
"64 48 112 2 ",
"   c #000100",
".  c #0B0C0A",
"X  c #100F0E",
"o  c #180F0E",
"O  c #0F100C",
"+  c #12110E",
"@  c #1B110F",
"#  c #151513",
"$  c #1B1513",
"%  c #161817",
"&  c #1C1916",
"*  c #171A19",
"=  c #1A1B19",
"-  c #221613",
";  c #261916",
":  c #291917",
">  c #211D1A",
",  c #2C1C19",
"<  c #311D1C",
"1  c #25221E",
"2  c #2A221F",
"3  c #33221E",
"4  c #252522",
"5  c #2A2622",
"6  c #2D2925",
"7  c #2D2C28",
"8  c #352522",
"9  c #3B2523",
"0  c #312B26",
"q  c #3D2926",
"w  c #332E2A",
"e  c #3C2B29",
"r  c #36312C",
"t  c #3A342E",
"y  c #363430",
"u  c #3C3631",
"i  c #3E3832",
"p  c #412A26",
"a  c #432C2A",
"s  c #44302C",
"d  c #4A332E",
"f  c #433632",
"g  c #4B3532",
"h  c #423B35",
"j  c #4B3934",
"k  c #453E39",
"l  c #4C3F39",
"z  c #46403A",
"x  c #4B433C",
"c  c #53413C",
"v  c #50483F",
"b  c #4D4740",
"n  c #4F4841",
"m  c #524744",
"M  c #524B45",
"N  c #584F46",
"B  c #554E48",
"V  c #585047",
"C  c #57504A",
"Z  c #5B534C",
"A  c #5E5750",
"S  c #60564D",
"D  c #62584F",
"F  c #605750",
"G  c #645B52",
"H  c #685F54",
"J  c #6B6156",
"K  c #6E6459",
"L  c #71675C",
"P  c #73695E",
"I  c #766C61",
"U  c #796F63",
"Y  c #7B7166",
"T  c #7D7469",
"R  c #807467",
"E  c #82766A",
"W  c #85796C",
"Q  c #897C6E",
"!  c #877B70",
"~  c #8A7E71",
"^  c #8D8274",
"/  c #918576",
"(  c #928679",
")  c #95897B",
"_  c #998C7E",
"`  c #9B8F80",
"'  c #9D9182",
"]  c #A29485",
"[  c #A99687",
"{  c #A49788",
"}  c #A99789",
"|  c #A6998A",
" . c #AB9B8D",
".. c #AD9E90",
"X. c #AEA191",
"o. c #B1A494",
"O. c #B4A798",
"+. c #B6A99A",
"@. c #BAAD9D",
"#. c #BCAFA0",
"$. c #BDB1A1",
"%. c #C3B4A5",
"&. c #C8B7A7",
"*. c #C4B7A9",
"=. c #C6B9AB",
"-. c #CABBAB",
";. c #CDBFB0",
":. c #CEC1AF",
">. c #CEC3B4",
",. c #D0C4B5",
"<. c #D1C6B9",
"1. c #D2C9BB",
/* pixels */
"K N v v v V Z Z S S D H H H J J L P P P I Y Y Y T T T T T T W T T T T T T T T T T T T Y Y U Y U Y Y Y Y Y Y U T T T T Y Y Y T | ",
"J w + O O O O O O O O O O O O O + . X # # # # # * * * * % % * * * * = * * * * * % % % % # % # # . O . . X . X . X X X X + + 5 ( ",
"J h > O + # # # & & & & & & > > > 1 1 5 6 % . . . . . . . . . . . . . . . . . . . . # 6 4 4 4 2 4 6 6 6 6 0 6 0 0 6 5 > % = r ) ",
"J z 5 $ & 1 2 5 3 0 0 r r u u z z x m M Z 4                                         $ B B B B B Z C Z Z S D G H H F m t 1 4 u ) ",
"K z 0 & 2 r r t u z z z v v v V Z G G K I w                                         > J L L L P P I Y R W Q ~ / ^ W J k 1 5 i ( ",
"J x r 1 w i z x v v M C Z D J K P I Y E / t                                         5 E W W Q ^ / / ) ' {  .o.+.+.| Q B 6 7 i _ ",
"J x q 2 t x v M N V A G J L P U E E Q / _ i                                         6 / ) ) ) _ _ ] { ..+.@.&.-.-.$.) A 7 7 i ` ",
"J x r 2 i v n C V A A J K P P T Q Q ^ ) _ h                                         0 _ ] ] {  . .o.O.@.%.-.-.,.>.$.' G y 7 k ) ",
"H x r 6 u b B C D H H J P P Y ^ ^ ^ / _ _ c                                         7 ]  .| }  .X.O.@.%.-.;.>.<.<.*.' J y 7 k ` ",
"H x r 5 u b B C A H J P P U Y W ^ ^ / _ _ z                                         0 {  . . . .o.@.@.&.-.>.>.1.<.=.' J y y i ( ",
"D c t 6 i n C A D J J K P U T ^ ^ ^ / _ _ z                                         7 ]  .X. . .o.+.#.%.=.-.<.<.>.=.] J y y k ` ",
"S x t 7 i n C Z D J J J P I Y ^ Q ^ ^ / _ v                                         7 { X... . .X.+.@.%.&.-.;.<.<.*.' H y 7 k ! ",
"S x q 2 i M Z Z A J J J P Y T W Q ^ ^ ^ _ i                                         7 {  .{  .X.X.+.@.$.%.&.-.;.;.%.` G y w k ~ ",
"S x r 0 h n C Z Z A J K I Y E R E Q ^ ^ ) i                                         6 ' } } } ..o.O.+.@.%.&.&.-.=.#.` F y 7 k ~ ",
"S z w 2 i n C C Z A J J L Y R R R W W ^ ) i                                         6 ' ] ]  . . .X.o.+.+.#.&.*.%.+.` A y 7 k ! ",
"S z r 0 i v C C A J J J P I Y E E T Q ^ ^ u                                         6 _ ' ] ] ] {  .X.o.O.@.#.#.#...~ A w y k ! ",
"S z w 3 i v M V A A G J K P U Y T T ^ W ^ y                                         2 ) _ _ _ _ ] {  . .o.o.O.O.O.| W N 0 w h Q ",
"S z w 6 i v V Z A G D J J L P P I Y T T ^ r                                         6 ) _ _ _ _ ] ] [  .X.o.o.o.o._ T M 6 w h E ",
"S z q 6 i x C V A A G G J J L L P I T T E t                                         2 ) _ _ ) _ _ _ ] [  . . .X. ._ U v 7 7 i W ",
"v z w 2 y x M V C Z A D G J J L K I I Y E t                                         2 / ) _ / ) _ ) _ _ _ ] [  .| ) P v 6 7 k T ",
"V z r 2 y x v M B C A G G D G J J K P I Y r                                         5 ^ / ^ / / ) ) ) _ _ _ _ [ ' / P x 2 7 i T ",
"V h w 2 u z v v B C A A G A G G H J K P I r                                         1 ^ ^ / / / / / / ) _ _ _ _ ` ^ P x 6 7 i T ",
"V h 0 2 w z x v M B C A A A A G H H H J L w                                         1 T ^ Q ^ ^ / Q ~ / / ) _ _ ) ^ J x 7 7 i Y ",
"V h w 1 w h x v n M B Z V Z A A D D H H K w                                         1 Y R W W W W Q Q ^ / / / / ( T J z 4 7 y Y ",
"V h 0 2 r z z v v M M C C C Z A D D G H H 6                                         > I W R R R E Q Q ! ^ ^ ( ( ( W J h 4 7 i P ",
"M h 7 2 0 f z v v v M M B C C A S S D S H 5                                         > I R Y Y Y Y T ! ! T ^ ^ ^ / T J z 4 7 i P ",
"v i 0 2 w z z z x v v M B B C C Z Z S S G 6                                         > L P U U Y Y Y ! ! ^ ^ ! ^ ^ Y J x 7 7 y L ",
"v i 0 1 0 t z z x x v M M B C C V Z S D Z 5                                         > K P P P Y Y Y T T ^ T ! ^ ^ U D z 4 7 y J ",
"v h 7 2 w i z z x v x M M B B C V Z Z Z Z 2                                         > J L L P I I P Y E ! ! T ^ W P A z 2 4 y J ",
"v i 0 2 r y i z z x v v n M B C B B B Z Z 5                                         & H J H K L P P I Y T T T T Y P Z z 4 7 r D ",
"x i 6 2 0 i i i h z z x n n M x x x m B B 5                                         > D D V G J L L P Y Y T Y Y U K C i 2 4 y Z ",
"x y 6 1 0 y u i z z z z x x x k h h x B B 1                                         & S Z m B B G G L I I I I I P J C i 4 4 r A ",
"z t 6 1 6 t i i z f z z z z z f h i k b B 1                                         & Z Z b m B Z D J L P I I T P H B i 5 6 7 Z ",
"z r 6 1 6 t u t t z z z v z z i h f k x M 1                                         % V C x m M Z A H J K L P P L A m u 5 4 r Z ",
"z 0 2 1 6 r t i t z z z z z i i u h k x b >                                         # B B l M M Z Z A H J K P P J A b u 1 4 7 V ",
"z 0 2 1 6 0 t t t f z i z f z i t t h k b >                                         % M M x n M M Z A G H K P P J A b u 5 4 7 V ",
"t 0 2 1 5 0 t t t z i z f i z u h u k z v 1                                         $ M n v x v B B A A H J K K J Z n r 5 1 7 V ",
"t 0 1 ; 5 0 r t t i t t i z i z h h j z x &                                         # M C n B B B C C A H H J J G C v r 1 4 7 B ",
"t 0 1 > 2 0 r t t t t z f i f h h h k z z 1                                         % b n n B n B B C A A J G H G C x r 1 1 7 b ",
"t 0 1 > 1 0 0 0 r t t t i i t i h h h h j 1                                         # b n C M M B B C A A G G G A C b 7 1 1 4 v ",
"t 0 1 & 2 6 0 w w t t t r t i i i h i i h >                                         & v m m m m m m C A Z F F F Z B k w 1 1 4 b ",
"t 5 1 & ; 1 3 3 < < 8 8 8 8 3 3 8 8 9 e h &                                         # x j d j j j g g j c c c c c h a 5 ; 1 7 b ",
"t 5 1 @ - ; ; ; : < , < 3 3 3 < < < < 8 f $                                         # x d p a a d a a d g g g g g s 8 2 & = 4 b ",
"t 1 1 @ - ; ; ; < : : , < 2 < < < < < 9 t %                                         + z a p a a a a a a d d g g g a 8 , - = 4 b ",
"r 2 1 @ @ - - ; : : : : , < , , < < , 8 t $                                         + h a 9 p 3 p p p p a a a a a e 8 1 $ 1 4 z ",
"w 2 & @ @ - ; ; : : : : : , , , , < , 3 w %                                         X h p 9 9 9 p 9 9 9 q a a a e q 3 : $ > 4 z ",
"0 2 1 @ @ - - - : ; : : : : , < < , , 5 w $                                         + h q 8 3 9 9 p 9 9 a q e e e 9 3 : $ = 4 z ",
"0 6 & @ @ @ - ; : - ; : : : , , : , , < w $                                         + u 9 8 3 3 9 9 9 9 9 9 9 9 8 8 < : $ 4 4 k "
};
