/* XPM */
static char *animation21[] = {
/* columns rows colors chars-per-pixel */
"64 48 114 2 ",
"   c #000100",
".  c #080705",
"X  c #070806",
"o  c #090907",
"O  c #0B0C0A",
"+  c #110F0D",
"@  c #0F100C",
"#  c #11110E",
"$  c #1A110F",
"%  c #151512",
"&  c #1C1413",
"*  c #161816",
"=  c #1C1A15",
"-  c #171919",
";  c #191B1A",
":  c #231614",
">  c #261816",
",  c #281917",
"<  c #221D1B",
"1  c #2C1C19",
"2  c #301D1C",
"3  c #25211D",
"4  c #2A221E",
"5  c #31231F",
"6  c #262422",
"7  c #2A2622",
"8  c #2D2925",
"9  c #2D2C28",
"0  c #342421",
"q  c #3A2522",
"w  c #312B26",
"e  c #3D2925",
"r  c #332E2A",
"t  c #392E29",
"y  c #36312C",
"u  c #3A332E",
"i  c #353330",
"p  c #3C3631",
"a  c #3E3933",
"s  c #412A27",
"d  c #442D2A",
"f  c #482E29",
"g  c #43332E",
"h  c #4A332E",
"j  c #473632",
"k  c #4C3632",
"l  c #423B35",
"z  c #4B3A34",
"x  c #443E39",
"c  c #4E3F39",
"v  c #494037",
"b  c #46403A",
"n  c #4B433C",
"m  c #54423C",
"M  c #4D4740",
"N  c #4F4841",
"B  c #514743",
"V  c #534C44",
"C  c #594F46",
"Z  c #554F48",
"A  c #575147",
"S  c #585047",
"D  c #57504A",
"F  c #5B534C",
"G  c #5F5750",
"H  c #5F5851",
"J  c #60564D",
"K  c #62594F",
"L  c #645B52",
"P  c #685F54",
"I  c #6B6156",
"U  c #6D6459",
"Y  c #70665B",
"T  c #72695D",
"R  c #766C61",
"E  c #796F63",
"W  c #7B7166",
"Q  c #7D7469",
"!  c #807467",
"~  c #82766A",
"^  c #85796C",
"/  c #897C6E",
"(  c #877C70",
")  c #8A7E71",
"_  c #8E8274",
"`  c #918576",
"'  c #938679",
"]  c #958A7B",
"[  c #9A8D7E",
"{  c #9B8F80",
"}  c #9D9182",
"|  c #A29485",
" . c #A59688",
".. c #A89789",
"X. c #A79A8A",
"o. c #AB9C8D",
"O. c #AE9F90",
"+. c #AFA192",
"@. c #B2A595",
"#. c #B6AA9A",
"$. c #B9AD9D",
"%. c #BCAFA0",
"&. c #BEB1A2",
"*. c #C2B4A5",
"=. c #C8B8A7",
"-. c #C5B7A9",
";. c #C6B9AA",
":. c #CCBCAD",
">. c #CCBFB0",
",. c #CCC1AF",
"<. c #CFC3B4",
"1. c #D0C4B6",
"2. c #D1C7B9",
"3. c #D3C8BB",
/* pixels */
"U V n V m A F F K K K P P I I I T T T R R W W W Q Q Q Q Q Q Q Q Q Q Q Q Q Q Q Q Q Q Q Q Q W W W W Q E E W W E W Q Q Q Q W W Q X.",
"I t # @ @ @ @ @ @ @ @ @ @ @ @ @ % % * * * - - * - - ; ; - - ; ; ; ; ; - ; ; ; - - - - - - * % % % # @ @ + O O @ O + # O @ % 7 ` ",
"U l 3 @ # % % * % = = = = = 3 < 3 3 7 O o O O O O O O O O O O O @ O O O O O O X O O O O O 6 6 7 9 6 6 9 8 9 9 9 r 9 7 < * ; y ] ",
"U v 4 % = 3 4 4 8 w r t u u a l x n b O                         X                       o x D Z D D D G K K L P P L B u 3 6 p ] ",
"U v w = 4 y y u a b b n n n n K S K F +                                                 o A Y T R E W ~ ^ ( ) ` _ ^ I x 3 8 a ' ",
"U n y 4 r a v b n n A A K K I I U Y U #                                                 + U / / _ ` ] { | o.@.#.#.X.( Z 9 9 a ] ",
"U n t 4 u v n A A G K P I T T T E W E %                                                 o E ] [ } }  .o.+.#.&.;.>.&.{ H 9 9 x { ",
"P n t 4 p n A A F H L I I R W W ~ ! ! %                                                 + ~ | ..o.O.@.$.&.-.,.<.<.&.} L y i a ] ",
"I n t w a N D F H L I I T W Q ~ / ^ ~ &                                                 O / o.o.+.@.#.%.-.:.1.3.2.;. .I i 9 x { ",
"P n y 4 a n D F K I I T R W W _ / / ~ $                                                 O ) o.@.@.#.#.-.=.:.1.3.3.;.} L i i p { ",
"K n y w l N D G K P I T W Q W W ^ ^ ^ %                                                 O ) O.@.@.@.#.*.=.:.1.1.2.;.} I i 9 a { ",
"K n y 8 a V D G L P I T W W W W ^ ^ ~ %                                                 O ( O.+.@.@.#.%.;.:.>.>.<.&.} I i i a ( ",
"K m t 8 a A A F F I I Y R W W Q ~ ~ ! %                                                 O ( +.O.O.@.#.*.-.:.:.:.>.%.{ L i 9 x ) ",
"J v t 8 v n A A G I Y T R R W W ! ! E &                                                 O ( o.o.+.@.#.#.*.-.=.:.-.%.) L i i x ) ",
"J v t 8 a n Z F G L U T R T R R ! ! E %                                                 O ( .. .o.@.@.#.%.%.*.*.*.@.) J r i x ) ",
"J v r 8 a N D D G I I T T R R E ~ ! T %                                                 O ~ |  .o.o.O.@.@.#.%.%.%.o.( D 9 i x ) ",
"J v r 8 a n F F D K P Y R R R R E E R %                                                 o Q [ }  ...o.O.+.@.#.#.#.[ ~ V w y l ^ ",
"F v w 8 a n A F G G L P I P U R R R T %                                                 + W [ [ } | ....o.+.@.#.#.[ ! m w w x ^ ",
"J v y 8 a N A A H H L L P P U Y R T U %                                                 o W [ [ [ { } | O.O.O.+.+.[ ! m 9 r a ^ ",
"m n t 8 p n N A Z G H K P P P U U T I %                                                 o R ' ] ] [ [ { [ [ ..o...] ! z 8 9 a ~ ",
"F l y 4 i b n A F F G F J J K P I I P #                                                 O T ' ` ] ] [ [ [ [ ..[ } ` R M 7 9 a Q ",
"A v r 4 i b n A D F F F G K K L I I L %                                                 O Y ` ` ' ] ] [ [ [ [ [ { _ U b 7 9 a Q ",
"A l r 3 y b n N Z D D F F G K K L L K #                                                 O I / _ ` ` ' ` ` ' [ [ ] ( I b 6 9 a Q ",
"A l r 3 y b n n B V V D D F K K K G F #                                                 o P ^ ^ / / / / ` ` ` ' ` ^ I b 7 9 a W ",
"A l w 3 y l v n n N V V Z S F K G J F #                                                 o L ! ~ ~ ^ ^ ) ) _ _ ' _ ^ I b 6 9 p R ",
"A l w 4 y l b n V V N V Z Z A S F F S #                                                 o L W ! ! ! ~ ~ ( ` ` ` _ ^ I b 7 9 p T ",
"V a 9 4 y l b v n M N D V V Z C F A C +                                                 o J E E E ! Q ~ ( ( _ ' _ ~ I b 8 9 p U ",
"n l w 3 r a l v n N N N V V Z Z F F m +                                                 o F T T T E ~ ~ ~ ( _ _ ( W I b 6 9 i U ",
"V l w 4 r p l v n n N V V V Z Z A A V #                                                 o C Y Y E E ! ! Q ^ ( ) ( E H b 7 9 i L ",
"n a 8 4 r u a v n n n V N N V V V V n +                                                 o C I P U T E E Q Q ^ ( Q T F a 7 6 i L ",
"n a w 4 w p a l b b n n N v b n V V n #                                                 o V P F L P Y T E Q Q Q E U D a 7 7 9 H ",
"n a 8 3 w y a a l x b n b a a l n n n #                                                 o n K V D Z P P Y Q Q W T I D p 7 7 y G ",
"v y 8 3 9 u p a a l l v a a u a x M n +                                                 O M F V V B L J I R Q R T L D a 9 6 r H ",
"v y 8 3 9 y p a b b b v a p g p x n b +                                                 X M F V V V H H I Y T T Y H Z a 6 6 9 F ",
"l t 8 3 8 y p p a l v p u y a l l x x O                                                 X x D B V V F H L I U T I H Z a 7 7 9 F ",
"l r 4 3 8 r y p a a g p l u y u l x x o                                                 X x Z M N Z Z D H I U U U L V p 6 7 9 D ",
"a r 4 3 8 r y p a a p a u u a a l x l O                                                 O x Z N N V Z G H L I U I J B p 7 6 9 V ",
"a w 3 < 4 w y y p u p p a a u l j x l O                                                 X a V V V Z Z D H L U I P F N i 6 6 9 V ",
"p r 3 < 4 r y y i u p p a a a a l l a O                                                 X a V V Z Z D G F J P P H D M y 6 6 9 V ",
"u 4 3 < 4 9 w y u u p u u u l l p l a O                                                 X a B V Z Z Z D G L L L H Z M y 3 < 9 M ",
"u 4 3 < 3 8 w t t t y y u p g g u p p o                                                 o a B B Z Z Z D F K K J F V v y 3 3 9 M ",
"u w 3 = > 3 1 4 5 5 5 5 0 5 5 5 0 t p o                                                 . p c j k k k k k m B m c j u 0 < < 6 n ",
"u 9 3 $ & > , 1 , 1 5 2 5 2 2 2 2 t y o                                                 . p k s d d f f f k k k j g e 4 ; 3 7 M ",
"y 4 < # : : > > > , 1 2 4 1 2 2 2 0 r o                                                 . p j s d d d f d f h h j d 0 4 : ; 6 M ",
"t 7 < + $ : : : , , , 1 1 1 2 1 1 0 r o                                                 . r g q q s d d s s d d t e 5 2 & 3 6 b ",
"r 7 < $ $ : : : : , , , 1 1 1 1 1 0 w .                                                 . r g q q q q q e s s s e 0 5 < & < 6 x ",
"r 7 < $ $ : : : : , > > 1 1 1 1 1 7 8 .                                                 . r g q q q q s e s s s e 0 2 < & 6 6 x ",
"w 4 > + $ $ : : : > > , 1 , 1 1 1 4 9 o                       .                         . 9 t 5 2 2 q q e s e e 0 5 2 < & ; 9 x "
};
