/* XPM */
static char *animation10[] = {
/* columns rows colors chars-per-pixel */
"64 48 118 2 ",
"   c #000100",
".  c #070907",
"X  c #080907",
"o  c #0D0D0C",
"O  c #110F0E",
"+  c #190F0E",
"@  c #0F100C",
"#  c #11110D",
"$  c #1C110F",
"%  c #131512",
"&  c #1D1312",
"*  c #171815",
"=  c #1C1A16",
"-  c #1B1B19",
";  c #231513",
":  c #251916",
">  c #291A17",
",  c #221D1B",
"<  c #2C1C1A",
"1  c #321E1C",
"2  c #25211D",
"3  c #29231F",
"4  c #33211F",
"5  c #331E20",
"6  c #262522",
"7  c #2A2622",
"8  c #2D2925",
"9  c #2E2C29",
"0  c #362421",
"q  c #3A2523",
"w  c #312B27",
"e  c #3D2926",
"r  c #332E2A",
"t  c #3E2C28",
"y  c #36312C",
"u  c #3B342E",
"i  c #373431",
"p  c #3C3631",
"a  c #3E3933",
"s  c #402A26",
"d  c #432D2A",
"f  c #492E2C",
"g  c #45322E",
"h  c #4A312E",
"j  c #453530",
"k  c #493431",
"l  c #423B35",
"z  c #4C3B36",
"x  c #453E39",
"c  c #4E3E39",
"v  c #503B37",
"b  c #513D39",
"n  c #474037",
"m  c #494037",
"M  c #464039",
"N  c #4B433C",
"B  c #53433C",
"V  c #4D4640",
"C  c #4F4842",
"Z  c #524B45",
"A  c #584F46",
"S  c #554F49",
"D  c #584F49",
"F  c #585047",
"G  c #57504A",
"H  c #5B534C",
"J  c #5E5750",
"K  c #5F5851",
"L  c #60574D",
"P  c #62584F",
"I  c #605750",
"U  c #645B52",
"Y  c #685F54",
"T  c #6B6256",
"R  c #6E6459",
"E  c #71675B",
"W  c #736A5D",
"Q  c #786E5F",
"!  c #766C61",
"~  c #796F63",
"^  c #7B7165",
"/  c #7E7369",
"(  c #807467",
")  c #82766A",
"_  c #86796C",
"`  c #897C6E",
"'  c #877B70",
"]  c #8B7E71",
"[  c #8E8173",
"{  c #918476",
"}  c #938778",
"|  c #95897B",
" . c #9A8D7E",
".. c #9B8F80",
"X. c #9E9182",
"o. c #A39485",
"O. c #A59788",
"+. c #A7988A",
"@. c #AA9B8C",
"#. c #AD9E90",
"$. c #AEA191",
"%. c #B2A595",
"&. c #B4A997",
"*. c #B4A798",
"=. c #B6AA9A",
"-. c #BAAD9D",
";. c #BCAFA0",
":. c #BEB1A2",
">. c #C3B4A5",
",. c #C5B7A8",
"<. c #C6B9A9",
"1. c #CBBCAC",
"2. c #CCBFB0",
"3. c #CDC0AF",
"4. c #CEC3B2",
"5. c #CEC6B8",
"6. c #D2C6B7",
"7. c #D3C9BB",
/* pixels */
"R A B Z B F H H P P P Y Y T T T E E W W ! ~ Q ^ ^ / / / / / / / / / / / / ^ ~ ~ ~ ^ ^ ^ ~ ~ ^ ^ ~ / ~ ^ ~ ~ ~ ^ / / ^ / ^ / / +.",
"T r # @ @ @ @ @ @ @ @ @ @ @ @ @ @ # O # # O # # @ # % % * * - * - - * * % % % % % % % % % % @ @ o o o o O O o O O o O o # # 8 { ",
"T l , @ # % % * * * * = = = , , 2 2 2 3 3 8 r y y i i a 2 . . . . o . * y 9 9 6 7 7 8 3 6 6 6 6 7 6 7 8 8 w 8 w 9 8 7 , * - y } ",
"T m 3 % = 2 3 3 8 w w y u u u n m N N Z H H U R Q ~ / _ p             6 U K H H A A A B C G S Z Z S G H P P P Y Y U Z u 2 6 i | ",
"T N 4 2 3 w y u a l n M N N B H F P Y E ! / ` { | X.o.@.N             r ) / ^ Q Q E E R R R R E W ! Q ( _ ` { { { _ U x 2 8 a } ",
"T N r 3 r a m N N Z G H H P Y T T Q ^ _ [ | +.$.=.:.>.>.H             u  .} [ [ ` ` ` ` ` ` ] { { }  .o.O.@.#.&.*.O._ Z 8 8 a | ",
"T N r 3 u m N B G H K U T T E Q ^ _ [ } X.@.&.:.,.<.1.4.J             l @.O. . .| | { { |  . .@.O.@.#.*.&.-.-.>.,.=.{ J 9 9 a ..",
"T N y 3 u N A F H K K Y E E Q Q ( ` [  .o.@.-.:.1.4.5.6.U             x &.#.@.+.O.o.o.O.O.O.@.#.$.*.&.=.-.>.<.1.2.;...U i 9 a ..",
"Y N r w a V G H K K Y T T E Q ( _ [ { X.+.$.;.<.1.5.5.7.T             m =.%.$.@.@.@.@.@.#.#.%.%.%.%.-.>.1.2.2.2.4.>.X.Y i r x ..",
"Y N u 8 a V S H K K Y T E W ^ / ` [ } X.+.$.:.<.3.4.5.7.K             m =.=.%.#.@.@.@.@.#.#.%.&.-.=.>.>.1.2.2.2.4.>.o.U y r a { ",
"P m y 8 M C G H K U Y T R Q ^ ( ` [ }  .+.$.:.:.<.1.4.7.T             x =.=.%.@.O.@.@.@.#.#.$.&.%.-.>.>.1.2.2.2.4.,.X.U 9 i x ..",
"Y m y 8 x C G H K U T T E Q ^ ( _ [ } | X.$.:.:.,.1.1.5.K             x -.=.$.@.O.O.@.@.@.@.$.%.*.-.>.>.1.1.2.2.2.;...Y i 9 a ' ",
"L m t 4 l C G H K P Y T W Q ^ / _ ` [ | o.@.*.-.:.<.<.3.J             x =.%.@.@.@.@.@.@.@.@.#.$.%.-.-.>.1.1.1.2.<.;...U i i a [ ",
"L m y 8 n N H H K P Y R W W Q Q ( ` [  .X.@.$.*.:.:.>.<.J             x %.%.@.@.@.O.O.O.O.@.@.$.$.*.-.>.<.1.1.2.<.;.] I r 9 x ' ",
"P m y 3 a Z S H H T T T R E Q Q ( _ [ } ..@.@.%.*.-.:.,.H             l @.@.@.@.O.O. .O. .@.@.$.@.%.-.>.>.,.,.<.,.$.] I i 9 a ' ",
"H m y 4 a N S G H K Y T T R W Q ^ _ ` [ | o.@.@.$.=.;.:.H             x @.@.O.X. . . .O. . . .@.@.@.#.=.;.;.>.>.;.#.' G 9 i x ' ",
"P m y 3 n N F K J J U Y T E W ! ^ ) _ ] } ..O.+.#.%.%.=.F             p +.+.o. . . . . ...X.X.X. .@.@.#.%.-.=.-.-.@.` Z r r a ' ",
"H m y 3 u N F F H K U U Y T E ! ~ / ) ' ] } | X.o.$.%.%.A             l O.o. . . .| |  .| X.X... .@. .@.@.%.$.=.=. ._ F r r a ` ",
"H m 4 8 a N Z Z D J U U Y T E ! ! ~ / ' ` [ [ |  .@.@.$.Z             l o. . .} } | { } } } }  . . . .@.#.#.@.#.#. .( B 9 r a _ ",
"L m r 3 i N C S S H J I Y Y T E E ~ ~ / / ] [ [ |  .o.@.Z             l  . .| | } { { [ { } { }  . . . . .@. .@.@.| ( B 8 9 a ) ",
"G n r 3 y N N F S G J J I Y U T R ! ! ~ ^ / _ ` { }  .o.N             j  . .{ | } { [ [ [ [ [ { | | |  . . . .@.X.{ ! Z 9 9 a / ",
"G l r 3 i m N C Z S H H I I U U T W W Q ~ ^ ^ ) ` [ |  .N             u  .| } } { [ ` _ ] ] ` ] ` { | | |  . . .X.{ ! C 9 9 a / ",
"F n r 3 i M N N C Z S H H I K U T T W E W ~ ^ ( _ ` [ } M             y { { [ [ [ [ _ _ ' ` ] ' ` ` ] { {  .|  ...] ! C 9 9 a ^ ",
"A a w 3 y n N N C Z Z S H H K K U U T T T W Q ^ ( _ ` [ M             y [ [ ` ` _ ( ) _ / ) _ / ` ` ] ] { { {  .| ] R N 7 9 i ~ ",
"A a w 3 u l m N C Z Z G H J J J U U T U T T W Q Q ( ) ` l             r ` ` _ ) / / / / / / / / ) ' ' ] ` ] { | | _ Y x 7 9 i ! ",
"A a w 3 y p m N C Z Z G S H H J K I U U Y T R W Q Q ( _ l             9 ` ` _ ( ^ / ~ / / / / / / ) ) ' ` ` [ [ [ / Y V 8 9 i ! ",
"B u w 3 y p M M N C C Z S S G J L H P U T T T R R Q Q ( p             y ) _ ^ Q ! ! ! ! / ~ ~ / ~ ^ ( ) ) ` [ [ ] ( Y V 8 9 i R ",
"Z a w 3 r p M m N V C C Z Z S G H H P I U U Y T R W ( Q u             8 ^ ^ Q Q / ! ! ! ~ ~ ~ ~ ~ ~ ^ ^ ) ) ' ' ` ~ Y x 7 9 i Y ",
"Z a w 3 r a l m N N V C C C Z S H H J J K U Y T T E Q Q u             8 Q Q ^ Q ! ! ! ! ! ! ! ! ~ ! ! ~ / ) ) ) ) ~ J x 7 8 y U ",
"N a w 2 w a a n x N N C C C C Z S G G J I U U I Y T T E y             w Q W R R E E R E E ! ! E E ! ! ~ / / / ' / ! H x 7 8 r U ",
"N a w 3 r a a n x M N V C V V C Z Z Z J H K H G F Y T R y             8 W Y L L U R R R E E R R R R E ! ! ! / / / R H a 7 9 r K ",
"N u 8 3 r y a a l x N N V V V C Z Z Z G H G Z C B H Y T y             3 R U A A S K K U R R Y Y Y T R R E E ~ ~ ! T H l 7 6 9 J ",
"x u 8 2 8 y u p l l x x N V V V C Z Z G Z Z C C N Z K T y             7 T U Z Z Z H J K T T U Y R R T R R E ! ! E U S a 9 6 9 J ",
"l y 8 2 8 y p p j l x x N N N V V Z S G G C N N N Z G U 9             6 U U Z C S H J J K K U U U T Y U T ! E E R J S a 8 6 9 H ",
"l r 7 2 8 y y u u l l x x x N N V C C C C V m m N Z G K 8             2 U J Z B Z G G J K K J U U U U U Y R E R Y J V a 8 6 9 D ",
"j r 7 2 7 y y u u u l x x N N N V V N N N V N l m N Z H 8             2 P J C C C S G H J J K U U U U Y Y U R R Y J V i 8 6 9 D ",
"l w 3 2 3 y y u l l j p l m x m V V V x N N m N N C Z H 8             2 U J S Z C S S G H H J J U J J J K U R T Y D V p 6 6 8 S ",
"p w 2 2 3 r y u u u p p l l l M x x N N N N N N N Z Z H 7             2 I J H G S S S S H J H J J K J J K U T Y U D V i 3 6 9 Z ",
"p 8 2 : 3 r y y u u p j l l l m x x x N N m N N N C Z Z 7             , K J H S S Z S S H H G G J J G J K J K U J S V r 6 6 8 C ",
"u 3 2 2 2 8 y y i u u u l p l l l x x x m m N N C N C Z 7             2 H H H G S S S S S S G G G J J G J J J J D Z x y , 6 6 V ",
"u 3 2 = 2 0 r r u u u u p p p p l l l l l l x x N N N Z 3             , H H D D Z Z Z S Z Z Z Z S G G H G G H G D Z l r 2 6 7 V ",
"u w 2 = : 2 3 3 4 4 4 q q e q q w q e t e t d s t d g N 6             2 H B b v v z k k z z z z z c c b b b b b k k t 7 , , 6 V ",
"y 3 3 & ; ; > > < 1 < 1 4 1 1 1 5 1 1 0 0 q 0 0 0 q e m 2             , H z f h d f d d d f f f k k k f h h f f d s 0 > = , 6 V ",
"y 3 2 $ $ ; ; > > 1 1 1 3 1 1 4 1 1 1 4 1 4 4 0 0 0 e z 2             - Z k f d d f s s t d d f g g h f k f f f d e 0 > & - 6 V ",
"y 7 - $ $ ; ; ; > < 1 1 < < 1 1 1 1 1 1 1 1 1 q 0 1 e l 2             - Z g d d t d s q s q s s t d f d f f d d t e 5 > & , 6 N ",
"r 7 , + $ ; ; ; > 1 < < < < < 1 > < < 1 1 1 1 1 1 0 0 j ,             - V g s e e e e q s q q s q e t d d d d t e q 5 > ; , 6 x ",
"r 7 , + $ ; ; ; ; > < < < < < < > 1 1 < 1 1 5 q 1 1 0 j -             - N d e e e e e q q s 5 q q s t t s s t t e q 5 , * , 6 M ",
"w 3 : O $ $ $ ; ; > > > < < < < > > < < 1 1 1 1 0 1 1 u ,             - N d e q 0 q q q 5 q 5 q 5 5 q e e d e t q 0 5 , & 6 6 M "
};
