/* XPM */
static char *celling[] = {
/* columns rows colors chars-per-pixel */
"128 128 44 1 ",
"  c #272727",
". c #292929",
"X c #2A2A2A",
"o c #2B2B2B",
"O c #2C2C2C",
"+ c #2D2D2D",
"@ c #2E2E2E",
"# c #2F2F2F",
"$ c #303030",
"% c #313131",
"& c #323232",
"* c #333333",
"= c #343434",
"- c #353535",
"; c #363636",
": c #373737",
"> c #383838",
", c #393939",
"< c #3A3A3A",
"1 c #3B3B3B",
"2 c #3C3C3C",
"3 c #3D3D3D",
"4 c #3E3E3E",
"5 c #3F3F3F",
"6 c #404040",
"7 c #414141",
"8 c #424242",
"9 c #434343",
"0 c #444444",
"q c #454545",
"w c #4B4B4B",
"e c #4C4C4C",
"r c #4D4D4D",
"t c #4E4E4E",
"y c #4F4F4F",
"u c #505050",
"i c #515151",
"p c #525252",
"a c #535353",
"s c #545454",
"d c #555555",
"f c #565656",
"g c #575757",
"h c #585858",
/* pixels */
"h;655<5<<<5<5555555<<5<<5<5<5555<55<5655566q6666666666666666666666666q66q6q66666q66q666666665666665565555<55<555<<555<5555555666",
"f;555<<55<<5<5<55<<55555<5<<5555555555555666656655666qq6666qq6666q6qq6q6q6666q6q6666q66666655666555555555555555<5555555655555666",
"f*655<<55<5<55<55<555<<55<555<55<5555555556655555556666666666666666666q66666666666666666666566655555<55<<5555555<5<55<5555556666",
"f;55<<<<<<<55<<<<<5<<5555<<<<5<5555<55555555555<5556qq6655666556q66q666666q6q6q666566556666556655555555<55<555<55<55555555556666",
"f*5<<<<<<<<<55<5<<5<5<5<<5<<55<5<555555555<5555566666666666656566666666666666666666666666666655555555<5<<555555<55555<5555556656",
"a*5<<<<55<<5<<<<5<<5555<5<55<55<55555<5555555555566666666666556666666q6666666656666666666666555555555555555<<5555<5<555<55555566",
"f*5<<<<<<<<<<5<<<<55<555<55<<55<5<<5555555555555556666666666656666666q6q66666666666666666666555555555555555555555<555555<55<5555",
"a*5<<5<<<<<5<<<5<<5<5<<55<<<55<5<555555555555555556666666666665666666666q666666666666666666655555555555<<55<55<555555<5<5555<556",
"f*5;<<<<5<<5<5<<<<<5<555<5<55<5<<55555555555555555665655555666q66666666666666q66666666666666555555555555<55555<5<55<555<<55<55<5",
"a*555<<<<<<<<5<<<<5555<<5<<5<55555555555655555555556555566556666666666q6666666666666666666666656555565555555555555555555555<<<<5",
"a*5<5<5<<<<<<<<<<<5<<5<55<5<5<<55<<55555655555555555555565556666666qq66q66666666666666666666666655<5655<55555555<555<555<<55<555",
"a*5<<<<<<<5<<<5<<5<5<555<55<<5<5<555<5556555555555555556555566665666666666666666666666666666666655555555<555555<<55<55<555<555<5",
"a*55<<<<5<<<<55<<<5<<55<5<<5<<5<5<5555556555555555555566<56666665566q66q6666666666666666666666665555555555555555555555555<555555",
"a*5<5<5<<<<5<<<<<5<55<<5<55<55555<5555555555555555555566<566666656666666666666666666666666666666555555555555555<5<5<5<5555<555<5",
"a*5<<<<<55<<<5<<5<55555555<5555555<55555555555555555555656666666666q66666qq6q66666666666666666665555555555555<5555555555555<<5<5",
"a*5<<<<5<<<<<<<<<<5<<5<<5<55<55<555<55555555555555555556566666666666666666666666666666666666666555555555555555<555<555<55<555<<5",
"a*5<5<<<<<<<<<<555<5<5<<5<55555555<55555555555555555556666566555665666666666666666666666666666665555655<55555<<55555555<5555<<55",
"f*5<<<<555<<<<<<<<<55<5555<55<<5555<55555555555555555556666665555556666666q6q66666666666666666665555655555555555555<<55555555<<<",
"a*55<<5<<<<55<<<<55<55<5<<555<55555<555555555555555<55566665565<66666q6666666q66q666666665556555555555555555555<55555555<5<<5<<5",
"a*5<<<<<5<<<5<<5<<<5<55<<<<<5555<5555555555555555555555666555655666666666666666666q6666666555555555555555555555555<55<5<5<5<<<<5",
"a*5<<<5<<<<<<5<<<<5<55<<5<<5<55555<5555555555555555555566665555666666666666666666666656665555555555555555555555<<55555<55<5<<5<5",
"a*5<<<<55<<<<5<<<5<55<5<<<<<5<555555<555555555555555556666665<5666666qq6666666q66q66656665555555555555555555555555<55<5555<5<<<<",
"a*5<<<<<<<<55<<<<<5<<<5<<<<555555<555555555555555556666666666566666666666666q6q66q666666665665655555555555555<5555<55<5<<5<<<<<5",
"a*5<<5555<<<<<<<<<5555<555<55<5<5<55555555<55555665555556666666666666666666q6666666666666666666655555555555555<5<55555<5<<<555<5",
"a*5<<5<55<<<<<<5<<<55<55<555<5<55<55555555555555555555555556666666666566666q66665566666666666666555565555555555<<5555555<5<5<<5<",
"a@5<<55<<55<<5<<<<5555<<<5<55<<<<555555555<5<5555555555555566666666656666666q66655666666666666665555655555555<<555<55<5<5<<55555",
"a*5<<<<55<5<55<<<<5<<5<555<<5<<<<555555555<555<5555555555556666666666666666q666656666666666666665555555555555<5<<5<55<5555<555<<",
"a@<<555<<5<5<<<555<55<55<5555<5555<555555555555555555555666666666666666q66666q66666666666666666656655555555555555555555<<<5<<<<5",
"a*5<<<5<5<<<<<55<55<<55<5<<5555555555<55<5555555555555556666666666666q66q6666666666666666666666666665555555<<555555<5<<<<<5<<<<<",
"a@5<555<<<5<<<<<5<555<<5<5555<<55<<5555<5555<55555555556666666666666666q6666666666666666666666666666555555<555555555555555<<5<<5",
"y@5<5<5<<5<5<5<55<<55555555<555555555<55<5<55565555555566666666666666q6666666666656666666666666666665555555<55555555555<5<<55<<<",
"a*5<<55<<5<<<<55<55<<5<<5<<55<5555<55555555<<555555555666666666666666666666666666666666666666666666655555555<555555<<5555555<<<5",
"a@5;<555<<<55<5<<55<55<55<555<555555555555555555555555566666666666666666q66666q666666666665666666666555555555<565<55<555<555<5<5",
"a*5<<<5<5<<<<<<555<55<5<<5<5555555555555555555555555555666666666666666666666666666666666655666666666555555556<565<5555<55<<55<<5",
"a*5<555<5<<<5<<55<5<<<55555<5555555555555555555555555556666666556666666666666666666666666556666666665555555555565555555<5<5<5<<5",
"f*55<5<5<<<5<<5<<55555<5<<55<55555555555555555<55555555566666665556666666666666655666666655666666666555655556<565<<5<555<55555<<",
"f*55<5<55<<<<5<5<55<55<55<<5555555555555555555555555556666655555666666666666666666666666655555665555555555555555<555555<<5<5<<5<",
"a@5<5<5<<<55<<<555<5<<5<<55555565<55555555555555555<566666655555666566666666666666666666555555555555555<5555555<5<<55<<<<<<5555<",
"a@55<<5<<<<<<<5<5<<55<555<5<<555555<55555655<5555555556666655555666566666666666666666655555555555555555<<5555555<<555<555<5<<5<5",
"f*5<5<<<<<5<<<55<55<55<5555555555<5555555655555555555666666655556655666666666666666655555555555555555555555555555555555<55<55<55",
"a*555<<5<55<<<5555<55<5555555555555555555655<555555555666666666666666666666666666666666655<555<5555555<<5555555<555555555555<<5<",
"a@5<<<5<<<<<<<<<<<5<555<556655555555555555555555555555666666666666666666666q666666666665555555555<5555555555<5555<5<<5<55<<555<5",
"a*5<5<<<<<<<<<<5<555<5555566555<5555555555556555555555566666666656666666666666666666665555555555555555555<<55555<5<55<<55<555555",
"a*555<5<<<<5<<5<55<<555555555555555555555555655555<555566666666q56666666666666666666666555555555<55<555<<5555<555555<555555<<<5<",
"a*5<55<<<<5<<<55<555555555556555555555555555665555556666666666666666666666655666665566555555555555555<5<55<5555<<5<5<5555<5555<<",
"a@5<<<<<<<<<5<<5555<<<55556555555555655555555565665566666666666666666666666656666555555555555555555555<5<555<555555<55<5555<<555",
"y*<<<<<<<<<55<5<<5555555555555555555665<555556666656666q6q6666666666q6q66666556666555<555555555<5555555555555555555<5<5555<555<5",
"a@<<<<<<<<<<<<555<555<5555555555<555555555555566665666q666q6666656666666666556666655555555555<55<55<<55<555<<55<55<5<5<55<55<<55",
"a@5<<<<<<<<5<555<555<55555555555555555555555556666566666666666665666655566665666666665555555<555<55<<55<5555<55555<5<5555555<55<",
"a@<<<<<<<<<<5<<55<555<<555555555555555555555556666556666666666665666555566665666666665555555555<55<5555555<<5<55<55<55<55<5<5<55",
"y@<<<<<<<<<<<5<<5<55<5555555555555555555555666556566666666666666666666666555555556556665555555555<5<55555555555<555<5<<555<55<<5",
"a@<<<<<<<5<<<<55<55555555555555555555555556666555566666666666666666666666655555555555555555555555555<55<<555<55555<5<5555<<555<5",
"a@<<<<<<5<<5<555555<5<555555555555555555556666666666666566q666666666666666665555555555555555555555555<5555<555555<5<5555<5<5<55<",
"a@5<;<<<<<<<<<<<<<555555555555555555555555566q666666665566666666666666666666655555555555555555555<<555555555<55<55<55<<5<<<<5<5<",
"y@<<<<<<<<5<<5<55<55555555655665565555555666666q666666666666666665666655665555555555555555555555<555<555<55<555555<5<55<5<<55<<5",
"a@<<<<<55<<<<<55555555556666666666666555566665665q6666666666666555566555565555555555555555555555555<555<55555<555<<<<<<55<5<<<<5",
"a@<<<<<<<5<<<55<<5555555555566666666665556666565565566666666666655566666565555555555555555555555555555<55555555<5<<5<<<55<<5<<<5",
"y@5<<<<<<<<<<<<55<555555555566666666655555666656656566q66q6666665556q66665555555555555555555555555<5555<<5<55<55555<55555<<5<5<<",
"a@<<<;<<<<5<<5<5<555555555<555656666665556665655q555666666q66665556666666555555555555555555555555<5<555<555555555555555<<<<<<5<<",
"y@<<<;<<5<<<<<5<5<55555555555555666666665656666566566666666666655566q66656655<<56q5555655<55<555555555555<555<<555<55<5<555<<<<<",
"y@<<<<<<<<<<5<<5<5555565556555556666666666666566665666566666665556666666566665555655555555<555<555555555555<5555555<5<55<55<5<<<",
"y@<<<;<<<<<55<5<<555555<55655555666666666566q6666666666666666656556666666666666<<<5555555<55555555555<5<<555<5<<<5<5<5<55<5<<<5<",
"y@<<;;<;<<<<<<5<555<555555565555666566666666556666665666666q66656666666556666565<<5555555<<55<<555555<5<55555555555<<55<5<5<<<<5",
"y@5;<;<<<<<<5<<5<5555555555555666665666665666666665666666666q6556666666656565555<555555555<55555555555<5<5<55<<5<55555<5<5<5<<<<",
"a@<<<<<<<<<5<5<5<55555556666555566665555566666666666666666666655666666666555555555555555<5<55<5555555555<<55<5<5<<5<<5<5<<5<<5<<",
"a@<;<<<<<<<<5<<<55<55<55566555556666555556666666666666666666665666666666655555555555555555<<<555<5<55<555<<5<55555555<<<<<<<<<<5",
"y@<<;<<;;<5<<<<5<5555<5555555556666655555666666666666666666666556666666665555555555555555555555<55<55<<55<5<555<5<<5555<5<<<<<<<",
"a@<;<;<;<<<<<5<5<5<5<5<<55555556665555666666666666666666666666556666666665555555555555655<5<<555555555555<<55<<5<55<<5<<<<5<<<<5",
"y@<;;<<<<<<<<5<<55<55555555556665556555556666566656665666666666665565556555555555<55555<5<55<5555555555<<5<<5<<5555<<55<<<<555<<",
"a@<<;<;<<<<<<555555<<55555555666555555<566565565666555566666666655555555555555555<65<555555<<5555<555<55555555555<<<<<<<5<<<<<<<",
"a@<;;<<<<<5<5<<<<55<5555555556665555<565555555555555666666666665555555555555555<55555<5555555555<55<55<55<<5<5<555<<<<<5<<<<5<<<",
"a@<<;<<<<<<<<5<5<5<5<5555555566655555555555555<555556666666666655555555555555555<5<55<<55<5<<5555555<<<<<55<5<5<<<<<<55<5<<5<<<<",
"y@<;<<<<<<<<5<<<5<55<555555555555555555655555555<55555555555555555655555555555555<5<5<5555555<5555<5<<<<<55<<<<<<<<<<<5<<<<<<5<<",
"y@<;;<<<5<<<<<<555<555555555555555555666555555666655555655555555566655555555<5<55555555<<<<5555<<5<55<555<<5555<<<5<<<<<<<5<<<<<",
"y@<;;<<<<<<<<<55<55<<55555555<555555666665555556665555555555555555555<555555555555<555555<<55<<5<55<5555<5<5<<<<5<<55<<55<<<<<<<",
"ao<;;<;<<<<<<<5<5<<5555555555555555566666555556666555566555555555555555555<55<5<55555<5<5<<5555<5<55<5<<5<<555<5<<5<<<<<<<<<<<<<",
"y@<;;;<;<<<<<<55<55<55555555666555555666655556666555555555555555<<55555555555<<5<555<5555<<55<555<5<5555<<<55<<<5<5<5<<<<5<<<<<<",
"y@<;;<<<<<<<<<<<5<55<5555555555555555656566665655556556565555555555555555<55<55555<5555<<55555<55<5<<<<55<<55<<<<<<<<<<<<<<<<<<5",
"y@<;;<<<<<<<5<<5<5<55<555<555555555555555656555555555556665555<555555555555<<55<5<<5555<<5<55<<5<<<<<5<<<<5<<<<<<<5<5<<<<<<<<<<<",
"y@<<;<<<<<<<<5<5<55555<555555555555555555555555555555556666555555556555555555555555<555<<5<5<55<<<5<<<<<<<<<<<<<<<<<<<<<<<<<<<<<",
"y@<;<;<<;<<<<<<555<5<5<55<55555555555555555<555555555556566655555555555555555555<5<5555<5<55<5<5<<<<<5<<5<<5<<<<<<<5<<<<<<<<<<<<",
"y@<;;;;<<;;<<<5<<555<55555555555555555555555555555555555666655<5<555555555<55<55555<<55<<55<<55<<5<<<<<5<<<<<<<<<<<<<<<<<<<<<<<5",
"y@<;;<;;<<<<<<<5555<5555555555555555555555555555555555555556555555555<55555<55<<<5555<<<5<<555<5<<<5<<<<<<<<<<<<<<<<<<<<<<<<<<<<",
"y@<;;;<<<<<<<<<5<555555<5555555555555555555555555555555555565555<5<5555555555<555<<5<<5<<<<<<55<<5<<<5<<5<<<5<<<<<<<<<<<<<<<<<<;",
"a@<;;;;<<<<<<<<555<<<555555555555555555555555555555555555555555<<5555<55<555<5<55<<55<<<5<<55<55<5<<5<<5<<5<5<<<<<<<<<<<<<<<<<<<",
"yo<;;<;<<<<<<<<<<<55555555555555555555555555555555555555555555555<55555555<5<<55<555<55<<<<555<<<<<<<<<<<<<<<<<<<<<<<<<<<<<<<<<5",
"ao<;;;<<;<<<<<<5<55<555<555555555555555555555555555555555555555555555<5<<555555<555<5<<<<<<<<<5<<55<<<<<5<<<<<<<<<<<<<<<<<<<;<<;",
"y@;;;;;;;<<<<<5<5<55<55555<5555<5555555<5555555<<5555555555555<55555555555<<5<<55<<<<<<55<<5<<<<<<<<<<<<<<<<<<<<<<<;<<<<<<<<<<<<",
"y@;;;;;;;<<<<<<5<555<55555<555555<<555555555555<<5555555555<<555<55<5<55<<5<55<5<<<<<5<<5<<<<<<5<<<<<<<<<<<<<<<<<<;<<<<<<<<;<;<<",
"y@<*;<;;;;;<<<<<5<<55555<5555<5555555<55555555555<55555555555<555<5555555555<55<555<<<<5<<<55<<<<<<<<<<<<<<<<<<<<<<<;<;<<<<<<<;<",
"y@<;;;;<;;;;;<5<55<5555555555<5<<<5<<55<5555<555<555555555555<555<<<55555<<55<<555<<<<<55<<<<<<<<;<;<<<<<<<<<<<<<<;<<<<<<<<<;<<<",
"y@;;;<;<<<<<<<5<<<5<<5<<5<<5555555<55555555<55555555555<<5<<555<<5<5<<<5555<5<5<<<<<5<<<<<<<<5<<<<<<<<<<;<<;<<<;<<<<<;<<;<;<<<<<",
"y@;;;<;<<;<<<<<<<<555<<<<5<5<555<<555555<55<5<55555555555<<55<5555<<<5<5<5<55<<5<<5<<<<<<<<<5<<<;<;<<<<;<<;<;<;<;<;<<<<<<;;<<<<<",
"ao;;;<<<<<<<<55<5<<5<5555555555<55555<5<555555<55<<55<5<5<<55<<55<5<<<<5<55<5<<5<<<<5<<<<<<<<<<<<<<<<<<<;<<<<<<<<<<<;<<<<<<<;<<<",
"yo<;;;<<<<<55<<<<<5<55<5555555555<<5555<5555555<55555555<5<5<5555<<<55<555<555<<<<5<<<<<<<<;<<;<<<;<<<;<;<;<<<<;<<;<<<<<<;;<<;;<",
"a@<*;<;<<<<<<<5<<<555<55<555<555<5555555555<55<5<<5<5<<55<5<55<<<555<<5<<5<5<<5<<<<<<<5;<<<<<<<<;<<<<<;<<<<<<;<<;<;<;<<<;<;<<<<<",
"yo;;;;<<<;<<<<<5<<55<5<55<<55<555<55555555555<55<<5<5<<55<55<5<5<<<55<5<<<<<<<<<5<<<<<<<<<<<<<<<<<<<<<<;<<<<;<;<<<;<;<;<;<;<<<<<",
"yo<;;;;;<<<<<55<5<55555<<5555555<5555555555<555<5<<5<5<5<55<<555<<55<5<<<<<5<5<<<<<<<<<<;<<<<<<<<<<<;<<<;<;<;;<<<;<;<;<;<;<;<;;<",
"yo<;;;<<<;<<<5<<<<<5<<<<55<<55<5<555<55<555<5<5<<<55<5<5<55<55<<<<<<<5<<<5<<<<<<<<<<<<<;<<;<<<<<;<;<<;<;<<<;;<<<<<;<;<<;;<;<<;<<",
"y@;;;;<;<;<<<<<<<<<<5<<5<5555<555<555<<5<<55<<555<5<5<<55<55<55<<<5<<<5<<<<<5<<<;<<<<<<;<;;<<<<<<;<;<<<<<;;;;<<;<;<;<;;<<;<<<<<;",
"yo*;<;<;<;<5<<5<555<55<55555<<5<<5<<<5555<55<55<5<55<<5<<55<<5<<<<<<<<<<<<5<<<<<<<<<<<<<<<<;<<<<<<<<<<;;;<<<<;;<;<;<<;<;;<;<;<;<",
"yo;;;<;<;*<5<<555555555555<55555555555<555<55<5<55<<55<55<<55<<<<<<<<<<<<<<<<<<<<;<<<<<<<<<<<;;<;<;;;<<;;<<;<<<;<;<<<<<;<;<;<;;<",
"ao;*;;<;<<<5;;55<55<<555<55<5<<55<<5<55<<5<<<<55<5<55<555555<<5<<<<<<<<<<<<<<<<;<<<<<<<<<<<<<<<;<<<<<<;;;<;<;;;<;;<<;<<<;<;<;<<;",
"y *;<<;<;*;<5<<<<<5555<55555<55<<555<<<5<55555<55<55<55<<5<<5<<<<<<<<<<<<<<<<<<<;;<<<<<;;;<;<;<<;<<;<<;<<;;;;<<;<;;;;;;;<;<;<;<;",
"ao**;<;<;;<<;;<<5<55<5555555<<5<5<55<5<<<55<5<<5<<5<5<5<55<<<<<<<<<<<<<<<;<<<<<<<<<<<<<;<;<<<;<<<;<<<;;<;;<;;<;<<;;;;;<;;<<;<<;;",
"ao;;<;<;<<<<<<<5<<<<55<5<55555555<<<55555<55<55<55<<<<<5<55<<<<<<<<<<<;<<<<;<<5<<<<;<;<<;<<<<<<<<<;<<;<;<;;<;<<;;<<<<<<<<;;;;;;;",
"yo*;;;;<<;;<<<<55<5<<55<555<5<<5555<<5<<<55<5555<55<<<<5<<<<<<<<<<<<<<<<;<;<;<<<<<<<;<<<<<<<<<<<<<<<;<;<<;<;<;<;<;<<<;;<;;;<;;;;",
"yo*;;;;;;;<<<<<<5<<<5<55<55555<5<5<5<55<<<5<5<<555<<5<<<55<<<<<<<<<<;<;<<<<<<<<<<<<<<<<;;<<;<;<;;<;<<;<;;<;<;<;<;<;;<;<<<;<;;<;;",
"yo**;;;;;<<<<<<<<<<555<<<5<5<5<555<<<<<<<<5<5<5<5<<<<<<<<<<<<<<<<<<<<;<<;<<<<<<;;<<;<<<<<;<<;<;;<<<<;<;<<;;<;<<;;<;;<;<<<;;;<;;<",
"yo;;;;;;<;;<<<<<<5<<<55<555<<5<5<55<555<55555<55<55;5<<5<<<<<<<<<<<<<<;<<<<;<;<<<<<<<;<;<<<;<<<<;;;<<;<;<;<;;;;;5;;<;;;;;;<<;;;;",
"y@<*;;;<;<<<<<;<<<<55<<5<5555<<55<<55<<55<<55<55;5<<<<<<<5<<<<<<;<<;<<<<;<<<;<<<<<;<;<<<<;<<<;<<;;;;;<;<;;;;;;5;<<;;<;<;;;;;;;;<",
"ao;;*;;;<;;<<<<<<<5<<555<555<5<5<55<5555<55<5<<<<<<5;5;<<<<<<<<<<<<<;<;<<<;;<;;<<<<<<<<;<<;;<<<;;<<<<;<;<;;<<;;;;;<;;;;;;<;<;<;;",
"y@<*;;;;;<;<<<<<<5<<555<555<5<5<5<55<55<55<55<<<5<<<<<<<5<<<<<<<;;<<<;<;<;;<;;<<<<;;<<<<<<<;;<<<;<<<<<<;<;<;;;@<;;;;;;<;<;;<;<;<",
"a@;;;<;;<;<<<<<<<<<5<5<55<555<555<<55<<55<<5<5<;5<<;5<<5<<<<<<<<<<<<<<<<<;;;;<;<<<<<<;;<;<<;<<<<<;<<;;;<;;;;<;*;*;<;;;;;;;;;;;;;",
"yo;;;;<;<<<<<<<<<<<<<<<<55<5555<55<555<5<55<<5<5<<<<<<<<<<<<<<<<;<;<<<<<<<;<<;<<<<<<;;;<<;<;<;<;;<<;;;<;;<<;;;<;;;;;;*;<<;<;;;;;",
"yo;;;;<;<;<<<<<<<<<<5<55<<5<<5<55<55<55<5<5<5<<<<<<<<<<<<<;<<<<<<<<<<<<<<;<;;<<;<;<;<;<;;<;<;<;<<;;<;<;;;;;;;<;<;;;;;;;;;;;;;;;;",
"yo**;;;<;<;<;<<<<<<<<55<<5<5<<5<<5<5<55<<<<<<5<<<<<<<<<<<<<<<<<<;<<<<<<;;<;<<<<;<<<<;<;<<;;<;<<;;<;<;;;;;;;<;;<;;;;;;;;;;;;;;;;*",
"yo**;*;;;;;<<<<<<<<5<<<55<5<<5<<5<<<5<555<<<<<<<5<<<<<<5<<<<<<<<;<<<<;;<<;<;;<<<;<;<<;;;;<<;<;;<<;<;<;;<<;;;;<;;;;<;;;;;;<;;;;;<",
"yo***;;;;*;<;<5<<<<<55<<<55<<5555<<5<<<55<<<<<<<<<<<<<<<<<<;;<;<<<<;;;<;<;;<;<;<<<<;<;;<<<;<;<;;;;;;<;;;;;;<;;;;;;;;;;;;;;;;;;;;",
"ao**;;;;<*<<;;5<<<<<<<<55<5<5<55<<5<5<<<<<<55<<<<<<<<<<<<<<<<<<<<<;<<<<<<;<;<;<;;;<<<<<<;;;;;;;<;;;;;;;<;;;;;;;;;;;;;;;;;;;;;;;;",
"yo**;;;;;;<<;<<<<<<55<<<<<5<<<55<555<<555<<<5<<<<<<<<<<5<<<<<<<<<<<;;<<<<;;<;<;<;<;<;<;<;<<;;<;;;;;;;;;;;;;;;;;;;;;;;;;;;;;;;;;;",
"w ;;;;;<<;;5<;<<<;<<<5<<<<<5<55<<5<5<<<<<<<5<5<<<<<<<<<<<<<;<;;<<<<<<<;<<<<;<;;;<;<;;;<<<;;;;;;<<<<;;;;*;*;*;;;;;;;;;;;;;;;;;;;;",
"w *;;;;;;;<5<<<<<;<<<5<<<<<<5<<5<5555<<55<<<<<5<<<<<<<<<<<<;<<;<<;<;<<<;;<;<<;<;;<<;;;;<;;<;;<<;<;;;;;;*;;*;;;;;;;;;;;;;;;;;;;;;",
"wo;;;;;<<;;;<;<<<<<<<<<55<<<<<<5<5<<5<5<<5<<<<<<<<;<5;;<<<;<<;;<<<<;<<<;;<<;;;<<<;;;;<;;;;;;;;;;;;;;;;;;;;;;;**;;;;;;;;;<;;;;;;;",
"yo;;;<<55;;<;<<<<<<<<5<<<5<<5<555<555<5<<5;5<;<<<<<55<<<<;<<<;<;<<<;<<;;;<<;;<;<<;;;;<;;;;;;;;;;;;;;;;;;;;;;;**;;;;;;;<<;;;;;;;;",
"wo;;;;;;;<<;<;<<<55<<<<5<<<<<55<<55<<5<<<5;<<;<<<<;<<;;<<<;<<<;;;;<;;<;;;;;;;;<;;<;<;;;;;;;;;;*;;;;*;;;;;;;;;;;;;;*;;;;;;<;;;<<;",
"wo;;;;;;;;;<;<<<<5<<<<<55<<<<5<55<5<5<<<<5<<<;<<<<;<<;;<<;<;<;;<;;;;;;;**;;*;;;<<;;;;<;;;;;;;;*;;;*;;;;;;;;;;;;;<;;;;;;;<;;<;<;<",
"y@<;;<;55<<;;<<<5<<5<5;<<<5<5<5<<555<5<;<<<5;<<<5;;555;<<<<<;<<;@<;<<;;;<<;<;;<;;<<;;;;;;;;;;;*;<;*;;;;;**<;;;<;<;;;;<<;<<;<<;55"
};
