/* XPM */
static char *north[] = {
/* columns rows colors chars-per-pixel */
"128 128 47 1 ",
"  c #0E1212",
". c #121516",
"X c #131718",
"o c #161A1B",
"O c #181D1E",
"+ c #1A1E21",
"@ c #1D2225",
"# c #1F2528",
"$ c #1F282B",
"% c #202527",
"& c #21262A",
"* c #242A2D",
"= c #282D2F",
"- c #262D31",
"; c #282F32",
": c #273033",
"> c #2B3335",
", c #2E3639",
"< c #2F383B",
"1 c #30373B",
"2 c #323A3D",
"3 c #353D41",
"4 c #383F43",
"5 c #364144",
"6 c #394346",
"7 c #3B4649",
"8 c #3C494A",
"9 c #40474C",
"0 c #414A4E",
"q c #444D52",
"w c #484F55",
"e c #465054",
"r c #495256",
"t c #4C555A",
"y c #4F585E",
"u c #50595F",
"i c #4F5A60",
"p c #535D62",
"a c #566166",
"s c #586167",
"d c #576268",
"f c #5B656B",
"g c #5E686E",
"h c #5F6A70",
"j c #60696F",
"k c #626B72",
"l c #667077",
/* pixels */
"3334224w*wq4446644644424444444243132223334331449+====;1;::<:<::::<:::::::==::=>>1;;1;3@qw34444447767668686686e>*r977666686666666",
"2334444w;r94644646664444244442423331223112224494O===;;;1<:::::<:::::::::=::=>>>>>>>;;3#9w4444444446778686886885%q776668686656544",
"3332422w>r8444749469444444444444333131331123444=o===1;;1<:<:::<::<<::::::::=;>>;>;;;>3+4t44444434444866886866e8&0955856666665442",
"3333442q;rq777664644494444244444443331111133144=o=1=;1;;::::<::::::::::::::=;;;>>;;;;&o4t9444443434466666868685&9676666986664444",
"42422249+8q477664444942244442444443333311111444=+;1;;;;,:::<::,:::::::::--;;;;;;;;;;;#+4t0333333333356667688494&9694466664665544",
"24444441+7q776866696449644444444443311133113144=o*3;1;;,<::::,::::::::::::;;;>;;;;;;;#+4tw333333333335656766492&9929666666655444",
"44244241+58668869766929244444444333313991111444=o#,-;;;>::::::::::::::::;:;;;;;=;;;>>#+4ww43>3>333333555666349,%2644466666554444",
"42444441@586866866662929444444443333494;1111444%++3--->;:::::<:::::::::::-:;;;;;;;;;;#+4qw43333;33333355344349,%2422244444444442",
"4444444,+,947686664944444444244443949,;13333343-+&w-*--:::*-:-::::-:--:$-::-:::;;;;>>#O37r33,3:3<33<3333333344,*4442242444444443",
"4444444;+=46666894944443444444244493;;;13334433-++r>$$*:*:-$$-$-*:$:-:::==:*-::;;;>;>#o33q3,,,3>>33333,3333144=@3424444444444444",
"44244341+=965777679444334444444131;,;,;13343399$++r4$$$::-$$$$*$$:-*$::**:*:=;;>;>;-1*o13733,::3>3>33,31333334*+>>12244424444444",
"4444349>+*6w4747664444332422411>;;,;;,133334394$++99$$$$$$$-:$$**$$:$:-:***:=;;>>>,-3*o>337333,3<><>11,3313,34*@=;12222224444334",
"422424w=%->t077979633313111>====;;,;--*333333t3$#o3q+#+$$$$$$$*$*$$:*-$$$**---:,>>>34;+*-444333333333,3,313194#+&>42222222244333",
"24449ws;%->pt0946696331;==*%%%%%#-;,;3-33333qj3$++*p73*#$::$$$*$*$$$$--$----;::1;33>&-+#>;+##$$$-:>3,3,3113499*+=&49332464243333",
"499924sq+*40&&++++++@@@@%@@@@%%%##*---**-33333r:++4733>3:*:$$$$$*$$$$***$*&$&&&;---##&+#-#$#$#@$@##-->*&###**-;+&;2=&*&&%*%%=31>",
"=>===%,9+%9;&---***&%%%%%%%%%%%%&########*##$$3:+#3+++++$@+#$###$$$**---*$*&*&**-&###*++>***$-$$-$----****##@@@X+==&&*&*&*%=%===",
"<%%*:%OOoO@oO@@++++@+OOOOOO++OXOoooo++++$$#+$++oooo;*+++X++XX+++#@++%#++@@O$$+%%ooo... .+oooo$@@++++o+oX+oX.XX. XOOO++++@+X+++*;",
"e858qeeeeq08<=:<1119q9wwtw9ww9@.$te7qqeq0eq34770wq7rrwqq0w4447008qq:X.%35>:<>::$$=><52<258:<::::;#@-$:*3:3:$:::$@@%@+O@@.@9w99ww",
"ttyyttttuuyyuuuaspsssssspspwtu9Oqdlitttire00877777774qr9qipppiipiidp> 3uhhiiaapipapfaffgdhdhggfffdpffie8873333:3,;>,3;33#wffyyww",
"80888888qrtyytre969644442wjttt9%tqdq,355774755787774777444787790qrpt1.;qtldteee8888888qqeeeeettiiiiiiie87433:$::**==;;;31wt99q49",
"855888855558855<2121221332pkutq1tit<775537888558777788888788777709tr>X10de855888888888555555<<5<333333354333<:$$==-*;3;3,qy<3477",
"88888885886552<222222233222tjsw4tiq35555338888887788880888800800qqtw2X>qi5888888888888888555555533333333443355<:*==-***3,7e64757",
"85858588886555522222222232329u04qt8355557578888877888q9088000008qwww6o;qt8858888888888855555555<3333333354335555;==----3>6866676",
"88888888868555222222212223242t948eq35355375888887888889808008qwqq0009+=0t588888888588888885555<533333334345355553;;-*-*;=2356686",
"58888888855552221411211333334u944e035355555668878808808880q0qqqqq00w7%10t67888888888885588555<553333333335555555565,,>=;*,136666",
"85888888555552522124222223334u947q73353555676878887080077780qwwqqqw91%69r778888885855858855855555553333335555558633632=>&:235768",
"58588888554425222121222233334t94307388885356885879878778778qqqqr092=%@7906688888588888588555555555553533555555858<:265<<*;135585",
"88888855544422222221143223134t41<37:,,<8e<35667778880088888rqqi4:=&;1@386368888885855885585855585555333355555555688665<<&=125586",
"58888855442222411222323214144t3=,37:,,,:8e3344787878780780q08i8@*;,55+135268888658585885858555555555335555555555588565>>@:>36686",
"85585855242223112122132441414t1=,33,,:,,,50543477800788880wqei$*:1285O,29928868685858558855555555576553555555555655555,>@=235666",
"585855<522222213212241143333491=:<3:,,,,<:3843447q8778870qqqi4+:12366O:25w266886885555855558855575555555555555555566532=@*562588",
"858555<<222122222221114141343==%<,<<<,<<<<,33334477707708q8qt$$>23386O=,>r946888558585585885588555633535555555555555643=@*<82566",
"55555<55<<22<<<233;,;,,11333;&&&3,3;3-3*3-333333444479798q9r4+3334384o#33ti04440585773478547774753343344455554333555447<+->73444",
"555<55<<<<<><<55,;-&&---;13;#&##;3w33333333333-3447747948q0r*$>3333qq+#*404ri004855353445474444433333334434453333565633<&&3t4433",
":<<<555558888q8>-##&&&&&&;-##-#+;9tww9433----&##::::,,3347e4o$3343483o@343$:34445577833488778874897444478886645333331--&+-4443>>",
"$$$:=<55558855==--;-&&&&&###&-@#93;;;;&#o@############$$::4$$3338733#X#33$-:-:--::::3:3343:3::**$$:::--::33533>3>:$@##$-+%&&&&&&",
"XooooOoooOO@%%%%##@######&&&@+XX&##@@+  Xo+o. .+++++$$$$$$$ 3$$-*+++ .++oo+Oooo oXoo....XXX.+. ...XXooo+ooo@@$$@+X... .......XXX",
"<<>><55<=+oXX.. XXXX+oo#@oXo@#@3333333333;o+33333<3,,<,333333:333:3#$3*33333;3-33:o.o3-$$$#$##+###$--$#.@O@@@oXXX33,<<>;11311131",
"eyyppaaasatw0868944@3itpiwwwu44pwtpiwwwq44*;kpqwtttiiiiiiiiiiddffffdfddfffiiddiiii7@+8i447788774779997:.,3353,OXophdpr789qwwtttt",
"<5888eepsfgfghfhlsw39ljdpuuw9&99949433333333ifiiireqq0884447478iiiiiipppppitiitwiii>@34844747444333373+-5333<3,.:edhr63666434431",
"313333340qww0wwtii949dfw9933::933434444333;3wwsw855555535<3<3:,33->>,13333333334rrq**3304>;--------,3$#3333,353O8rpi858876653222",
"11111333222111223iw33iw33333+973444643433;;;ttt33555::55553333304,,<3,333333333378q-*333------->:::<,#:333<<:33o8rpe688676575321",
"133333313444334439914i933-$#$r334344444433;3ttw35855<<75<33<3804<,,,,,,333-33333478--43&:-------::::$$8333<::33+qqi8886876676322",
"111111314212342239w--3-##$:3r333456474443;;;ww93555<5883<<380433>,>,,3,,-333333347q;>43*--------:::$:e433:3<:35@qqi8678666586221",
"1111313333133333339-X+#39ww93<3354667443,,;=9ww355555<5<8885::::>->>,,,3:3:3333344q>-73*----*-:::,:+37<<<,<<:<5$78i7876876694221",
"1111111313313333333-o4tttq43333356664474,,;=999355<55<<<<<:::33:>3>>,,3:3:3:;33334q,*43*-----:::::-#333<<::<:<5$77q7678677793221",
"1111113133333333334*#wwrt973334437464443,;-=99935535<<<<,<:<::::>>>3-3:>-3;33333337,#4>*-----::::,$#33<<<<::<<5$4477777675943211",
"1111311333133;33333$-qqir933333474764443,;-;499353<<<<<,,:::$3:--3-3>>:33;3;33333,4>*33------::>,:#:33,<<,<<<:<$4<6776674q933221",
"1111313333333113331##9wwq4433374373587333#*-4433333:33>>--:$-::3:>>3,,,>,>33>3333,3,%2;;;;---:>::$$<<<<<><<>,>>=3,37777679332221",
"1111131333133313331##99wq44433443775583,--*&49333*:3>:>:3::3-3::3:>>,><,>3>33>332,3;%1;----=-::>:@<5<<:<<><>,1>-3>27666706432221",
"1111113313333331333##499443333477553755,--*#333333*-:<::::->-:3-,>3>,<<<3:3>33332,1=%,;----=-:>;@:5<<:><><<<,>;*>*26666696324211",
"1311313131133333393##349333333443777577:--*@33-33--3<:::::>>::-33>3,<<<>>3:333331=1&@,,--*-----*$5<<<:>>><>>:=-%-&16664763332221",
"11311313313333333w1o+393333:444637373q3:3#*@3-333::3:,::;>;;>>,>>,,,313<333333331;;&O>>;-------+<5<<<:<<<<<<**&%-#14443333332211",
"11113131113333333w,o+1w933:3346677777r::--*#$3-333::::::;>>,,,,33,,3,333333333331;;&O>>>;-----*+5<<:>>:<:<5$**#+&&37433333224221",
"11131311111333333w;++-w9337745767773qw::#*-#*343:3::3:,,>>>,1,,>>,,,,<3334733333>==&O<1=;---;-+35:::::<><8:$%#@@-#17444433442421",
"1313311333133344wt*+#-4w78455578qetri9-:3**#*3q3-333:,:,,>33447777709q9r8it88t7:>=>&O%92,-;;;&+4<>><<<<<e5@%#+##%-4w774311;>>==1",
"11111==;;;;;;;;1194+$$3fi33#--:>,:333::-,3-+3t33:3-3;;>;;;;3>><<3,,,,,>;3-3>3303===%o@+*=%@%%OO=::>>>>589+@@@@&+@;1&&&&&%%=%&&&;",
";;;;========*=;*&;3++:q4***#$$#+$$$$$$$:$3-#03$*--*#-&*----*-*-*#**&***&$$--$*34===%X@@@+@@%%O@%+O++%+%%@@%%#&%X++++@@@@%%%=&**=",
"+@&&@+@@%%#&##++#&+o #3##+oo..XoXoXXooo+++ooXXooX.o++.XX.X++@+oXX+++++++X++-*#++OOOX..@OOO+OOO@OoOOXoooooooo+X..XXXX...XoXXXXXXo",
"499943;;oXoo&111,1113334333333363333<3333,33333333o.+#+-3>*&--:34474748847443;340qqqeeeerrrrw01=<O$5<2253949999wwwwwww2@==244944",
"wwwupsuu1oo1t4343333447848788888qqeqq0009000974433$oadifffdfhggfpppffddfdppdpgggjghhhjjjjffjgspyh62ht8eruututupsppspspw&=149wwww",
"39www9wuu;;4ww3;-;---3::33333333333333333333333933$*plhfpiirrri8rrqw88880q88949788899988996960wfg>5yfyyr9994494499999492@;123333",
"1111111uu=;43w&=;,,;3-::-::::::>::::::,<:---$$$333+3id4877765555553355544343444432233353446665qy4=5ygt852231311443444449;=;21113",
"3331131ws%;4w1&1,;,,-33:3:3:>3>>:,,,,:3<---$$-$-3*#3ii7888755553335666644447843332525233333444re2=5pu<25333332314339944141122311",
"14141424a=>88=>><:<::<<<:<<>>>>>>>>:>5<$::==***=2*&<yy6686655333333333477774333325223352252252ww2=6pu262323222222242449433311313",
"41412142e<=88$>>:<:<<:<:<<:<<,:>:>><<:=:*******%:=$3ir55565555233333444333>;3,,325232322252552w02=6uu252324222222442111494133111",
"1224222282=88=>><::<<::<::<:>>>>>>:::===**=*****&*@3e8555335333333333-::::333,,322223222222222002=5uu225333111223114133133331331",
"222242225<>58=<>:<<<:<<<:<:<:>>:::::*::*=*=****%&=@,523233232353333<:,3333,3,3,325222222222222602=6wt522221112233333331331333131",
"2224222251=65=>><<<::<::>>:>>:>:::::==::**:*****=*@*3211<<3<122334>33>3>,,3,3,332522<<<222<2<1505%2ww222311133213331313313333131",
"242225225>=55>>><::<<::<>>::::::::=:==$=*-**=%%*&*@X@;:,,,<<1113333,,3,,33,31331222<<<<<1222<>582%106422111333243333131333133333",
"424222222==15>>><<<::<<:::<:--::::====:$-$***&**&*+&=O@*=::>>;;133<33,,3,3,113332<<<<<<<1112<1521%=66222111133123111331333333113",
"242452222=%><>><::<<<::<:::::---*:===:*=*:*-****=&O:85=@@@@#@%&;<<3,,33>3,3,333><<<<<<2>1111<>1<1%%42422113331421331311331133333",
"444242425>%=<=<><<<<:<::>:>::::-=:=====*-*-****&=&o&37tt94493&o*>112222<,,22321<<<<<<<<<111,,;;31%%12222222224143133311113133333",
"244442425<%=<=>><::<::::>>::=::*:*=:***:***--&*&:#X%667qw0wtpp1+%>1222<<3,2111,,<<><<<2<<<<,,,,>=%%11222122214223313113313333434",
"444444445=%%=>><:<<:<::::::>:==-::******&-*-**&&,*X@377464964qy0=%>12<<2,<11,,,,<,,<<<<<<,,>,>,*=%O11221222211233311113133344343",
"444944445%%%=>>><::<:::<>:::::-:***=**$:=*-****%,*o@14774949969ry1%>12<<,,<>,,,,,<<,<><<,,,>>,>3=%O==11122=>41433141131333444444",
"449444948%%%%$::>>:<:<:::::::===**********=***&#1-X+>344494669947r3%=<1<2111,<<<,,,,,,,,::,,,;>3%%O1=111222>22221131313333443444",
"494444448%O%%=:=::>:<:::>::::>;=***********&&###1#+o-,1312442926336=@%<322112<<<11,,,11>,>,,;334%OO=1212125222223331113333344444",
"=24999w98$O%%<<<<5<<<:<:::::>>;=::=***:$***-;=>33#++;-,;;11222224222@@=<221<11<<3,>:==**&&%&**-82o%1=22212222111111111131349941;",
"========>=O$=:%%%%$$$$$$@+++++@@@$$$*::==*&*-&##-;+X%;;;;==;;>>>>>>=%%*=>=;=%@%%@@+++@+@@@@%+##-9%%==%%%%%=%=%=%&&=&&&====;;;;;;",
"OOOOOOoooXXOoOOO@ooXXX...X....ooooX.XOO@@@@@@%%O.XXX.X+@@%%%&&%%+Oooo...XoO+OOoO@%%%@%%%++++#+++%XXO%%%%O%%%%%%$&&@@@@@@@@@@@%@&",
"=1===========%%=$*--:::::;;=>*Xo.X==>%%>===>>%+O@@@%*>==**>:*&=======>>==%o.oo..XoooXXOOoX++##**%%%%=OOO>==:::=$&&&=*-::::=::>11",
"ttuuytttutuusppsddddaaaaputuu0XX>upusppssssjfuwwteee009000ep<7urtusssfjjgyq>.O213111,,>,3333747788686O.>hayaaahapuuupappupuuuytt",
"wwttyppsssfggggggddddapptt0ereoorhkasffppuyyw0999978999qe096%eeewweweewrfttq+18t011>>>,=-$33:3,>58e<2oo8ahaypee8www9e8eeertttrqq",
"496699008qe0q086568688888888ty*oetjjy064334456669090000wee9%2teee0008668ygry1>18e::>>>:::::-::--=%q5>%o8tf5<5<<<3394475655555666",
"44555222555556888888888888888t8Oqyj811<345448999090000ewe9>=urere00078890spr>>268:>>>>>>::-:-:-$=%=r5%O8a8>558889444776688865553",
"4445525555686886666858888888eee$0uf1112556666660989000ee01@0twq55q0058860rst1>268>>>>>>:::::--:$%=%>8%%8a8<585854444777888856465",
"44655555555555555555856888888ee*0pu<4<24666669609900w00e5%1awe02<q08858880yp>>>58>>>>>>:::::**:$$%%%<=O8a8<558584999788888866645",
"55555555555555554355558658888wq%qpy122224686469900000009-#ii8iireq08588858ea6=<58=>:>>::::::$:>:$$%%>=@8p5<555558555888885855555",
"55585555555552525345556888888qq=qpt>11111465459699000q02+4gtr88iq0088885558y8=>55=>:>>>:::::-*:$=$%%%=@5e5<555555588558585855555",
"55555555555244444355555685888q0=wtr>>2111255456099090007#3g8r888qq088885588y8=>2<::>::::::::-*--%$%%%%@<8<<<55<55858855858558555",
"5558555555252242333444565868808%0w011>>12425255679090008$-grr8888888885558882<>5::>>::::::::::$$$%%%%%@,5<<<<<555585555555555555",
"5558556554334333255355558858886%8ww11>11<532535579099999-&fr8888888858555588>:>2::::=::::=::-$*$%$@%=*@15<<<<<>58885585555555555",
"5555655554432442523555585858606=8wq12>11<222235529999974;#pr8888588885555588:$:>$:::$=::==$:**$$*%%@**@><<<>>>=$8e55585558555555",
"5558555555==4333252555558588804%6001>2><<2222253367699771+7r88858858855555<5$%=::$:====*:$::*$$$*$%@=*O><<<>==:$=ee8558585855555",
"5555555552=16433525525555585682+4602<<<<<2325535366778771%*q8888888885555<<5%%$:::=$=$**$$$$**-$&$%@=*@=<<>>>===%=88888858555555",
"5555555552509224244444666685661@3493,,1,,1333333333444443+&94777888874333333$#$33--*-$$*-$$*-$*$*$$@=&+=,,>>>:***$@==;5585555585",
"855555555555524444444496664564=@3333,311,,331333334343443+34777786666313,:33#+*3*--*--**$-$*$*$&$*$@:%O&,,,>>::-**%$$@=885555555",
"555555<5552554424545464966686>=O,339,,,,,,,33333333433333+348887555533333>3:++37-----$*$-$****$&$*$*:&O%:,>>>::*=&=***@,55555555",
"5<5555<542545244436644446642=%=@;33ww433,,33333334443334*33444332,12,,,,:,i3++:e3-----**-$**$$$$$&&>,@+@:,>>>>:*::**=&$&55555555",
"<5<5<5<54660666666969694365*%%=@-;3i93333333333133333:37-33333;3>::,3>,,,400$+$8q33-33*--$$$***$*&&@11O@:=>>>><<>;:*=*&@>555<522",
">><>>=>>>>1=1222>==1112297=%%=%+--w4######+#####+@@@$+$$#*#-***#&&&&**&****;$o:i3*##$$@#$$$*%%@@@+@@@-O@&@=:=*:$$@%&&**@@<<>>>>>",
"=======%%%%%%%%%%%%%%%%=,*@@%@OO#--###################$$#######*&**&+&#+++**oX$<####+###$$*$%&%%@+@@@XX@*$@@@@@$$%%&=**&+$:===$=",
"OOOoOOOO%%OOOOOOO%OOo+@oooOXoXXX+++++#+#+++++++++####@@X+@@@@@++@@@OoX+X+.++oo..XXo++Xo++++++++OXOOO+oXX+OOO@@@$++++O+@@@O%@+@+%",
"e5<558885660806%..O<585532;>;%%&---,,,1,,,,3333333@#&-;,;--X*w336qrtttrte8888q8:&34033::===>63..<q790885=80988880qe0qeereereee00",
"58555588rahhhpsw %ageiaiq79041;=--,-,3334339wwtwetpipdfdsiwo3kljggjjputre8888888048eridipaayee%@phppueyyrrrrreyrreqeqeeeeere8868",
"555<5555680ufhhp==ahkfr87779qwq63,,33334499q99994q88wwifitw+;ijlppu96676585888884887786700qq80>%eff9835888855558555111>>>>>>1235",
"555555856866whu00=qdh85577663370qwqq9933399q9q99q844443wsww+3ws9233665655588888808887886554660=;ts6,<23558588888888652<222<22255",
"5555558888686st88=rkt8886554355233343333399949994444433,wiq+3ij4234466645588888885888888665629=;ta2,2225885866655855512222115555",
"5555855886888pu88*egt688865433343344433333333333444333319iqo3sk9133426668588888888888888864549@1tp22<2<5888856555555522222111552",
"<555558566886uu68=eft688886662223333333,,3,3333344443331wtw+3sj9233336565888888888888888764444o;rp,223<3558865555555522222211225",
"5<55585888886tr63=est58888665322,,,,333,3,,33333444433339tq+3pj4133366355855888888858885762442+@qy,22<3<225586555555525222111122",
"3446466668888er53=eat8888855<5<<3;3;333;33,,,333333334334wq@4ij4121344444408878888885885855531+;48:3,333333:3333525533333,3,,113",
"34222426868660q53%9p88885555<<<<3;33333;;,;,,3,3333343434qq@3tf312333444484887888688888555521,@,43333,3:::33:3335222333333,31313",
"22222366688880753@8t8888555<<25533114433,;,,,1,3333344444ww@3wt3,33333444480887888875858555<1,+;343::3:3:3:3333:23523343,3,,1233",
"1422222268888873<@9e88855<<<252<333t93;;;;,,,,,113334444444+3993,11343447884778877678886335<,,o=33:3:33:3:3:3:331224333<3>3,1223",
"4331224668868852,O9e98525<<<55<<34t4&;;11,,,,,133333444444w#349;;3333334558558887767994323321;o=33:333:3:3:33-3:21<<222<<2112332",
"3313224468888822>o6u0352<5<<<<<53*@@;;;;1;,1,,,,133344494qq#3993;1333;3455887557766844333232;,O@#--*:3::>:<:-3:311<122<<<1222333",
"24412455586878911o1p05525<<<5<55*+&;;;11,;,;,,3333334404444;;44;;1333339577785857794443323221;o@#*:-::,,:<:<:3:312><112,<<112222",
"21343366668877w1>.>pe222<55<<55:#*-;;;;;,,,13333333344444443;43-,113333355737857644433333222,=O@#3--::::,:<:-3>>>><<,,12<<111222",
"42426496499999p6=X-pr>11<<<<<5<o*&;;;;;;;1,,113333949999999-#433,;,3333355773737333333331333>-+&@3q3##*3-->>>,>3-3>>,,1112311323",
"2122294999962136&X%tw111:<<<<<o$*=;;;=;;;;;,13444344431-#33*+--3,,14333355777777944433333333;-+#@$44333333,,>>>3:-3,<1313<>;;;;,",
";;;;>>*&***&&%%;-X19;===::::<$o$=;;;;;;;,,131,-&##+##+@+##*oo###**#-----::::,:,:111111;;=;**#-+@*##333@#*&&*&****-->>,11:***----",
"@OOoXXXOO+OOoOoOo.*&+%@%@+@@$oo$#;&&&&==&&&@++@&##+++###@+XXXX@++++++@+#$##+@@#$##@@+@@@++++@@..o###o+++++++++&*-$&##&%*&--*&&@@",
"%====*@.X.+;====--=;;;;;;;;;*==&##&&*;&###&&&-&+o++#########&&&&####$***##+++##$&&&@+XX.o&&=---*--;>**33>;;;;>+++++>;;;;;-%+@%%%",
"wtttrrw&.@pptutuyytttyutytytryyyuwuuuuttttuutit9#4w4333344433333343933343343333344443=X1wtytiiiyyyyitttttiyyti;.34wiyiyyitqwtwww",
"22444292Oqujtq9999944444246455809w9ww9w99994399w*3w9;,;1-;,,,;-;-,,;3--33:3::33,123133%wspttw779408rqtq8qqwwqw*+ippi979799999433",
"4222424q&wru443424434444242424223133131313333339##1,-,;;3;;:-,,-,;,;---------:::;>;;13@qu43444444444444466474q;+wwp4474744344444"
};
