/* XPM */
static char *north[] = {
/* columns rows colors chars-per-pixel */
"64 64 245 2 ",
"   c #030304",
".  c #05060A",
"X  c #06080B",
"o  c #090A0E",
"O  c #0B0605",
"+  c #0C0E12",
"@  c #060D13",
"#  c #130E12",
"$  c #1D0E11",
"%  c #0E1016",
"&  c #0E1219",
"*  c #061015",
"=  c #121115",
"-  c #12151B",
";  c #15181E",
":  c #1A161A",
">  c #160D0E",
",  c #29181B",
"<  c #351415",
"1  c #300A10",
"2  c #32281E",
"3  c #161B21",
"4  c #1A1D22",
"5  c #111525",
"6  c #0F1A20",
"7  c #281C21",
"8  c #391329",
"9  c #262629",
"0  c #362B28",
"q  c #292D33",
"w  c #2B3239",
"e  c #35363A",
"r  c #322D31",
"t  c #1E2123",
"y  c #540E11",
"u  c #4D0A0D",
"i  c #690C0D",
"p  c #7E0608",
"a  c #7E0A0B",
"s  c #78080A",
"d  c #7D1B17",
"f  c #6C0F12",
"g  c #7B261D",
"h  c #6E231A",
"j  c #44142B",
"k  c #433437",
"l  c #563B39",
"z  c #512B32",
"x  c #7A3828",
"c  c #74332C",
"v  c #7C422C",
"b  c #7B4835",
"n  c #705138",
"m  c #78643C",
"M  c #6C613F",
"N  c #303346",
"B  c #533347",
"V  c #3F4446",
"C  c #56444B",
"Z  c #4D5256",
"A  c #4F4C51",
"S  c #664948",
"D  c #7C5444",
"F  c #6B5853",
"G  c #785658",
"H  c #724D4A",
"J  c #7C6946",
"K  c #7D7757",
"L  c #70654C",
"P  c #555B64",
"I  c #6D5A6A",
"U  c #636B6A",
"Y  c #6D7579",
"T  c #756F71",
"R  c #5C6365",
"E  c #830306",
"W  c #8C0204",
"Q  c #820609",
"!  c #8E0609",
"~  c #840A0B",
"^  c #8D090B",
"/  c #920306",
"(  c #920709",
")  c #92090A",
"_  c #980708",
"`  c #8D100F",
"'  c #85120F",
"]  c #8C1412",
"[  c #831B16",
"{  c #8D1B15",
"}  c #8B1D19",
"|  c #841714",
" . c #911815",
".. c #850F10",
"X. c #83231B",
"o. c #8B231B",
"O. c #88291E",
"+. c #91231C",
"@. c #852C21",
"#. c #8B2C21",
"$. c #862521",
"%. c #833224",
"&. c #8C3225",
"*. c #833C2C",
"=. c #8C3C2B",
"-. c #873728",
";. c #943B2B",
":. c #8C322D",
">. c #85432E",
",. c #8A422E",
"<. c #83482D",
"1. c #824331",
"2. c #8B4532",
"3. c #844B36",
"4. c #884B38",
"5. c #934934",
"6. c #8C543C",
"7. c #88583C",
"8. c #944E38",
"9. c #8D603D",
"0. c #A34438",
"q. c #934E45",
"w. c #8B5A45",
"e. c #935A46",
"r. c #975C54",
"t. c #805F55",
"y. c #886748",
"u. c #936748",
"i. c #88734A",
"p. c #966957",
"a. c #887A56",
"s. c #997A57",
"d. c #8C7052",
"f. c #A76956",
"g. c #876867",
"h. c #976B68",
"j. c #967269",
"k. c #997778",
"l. c #8C7274",
"z. c #B47967",
"x. c #A4777A",
"c. c #AA776D",
"v. c #9A5E58",
"b. c #8F825B",
"n. c #9A855B",
"m. c #A38A59",
"M. c #AB9359",
"N. c #999768",
"B. c #999673",
"V. c #948C69",
"C. c #A68C67",
"Z. c #A8936B",
"A. c #A6827C",
"S. c #B68477",
"D. c #A59A76",
"F. c #A8A179",
"G. c #7A7982",
"H. c #967C83",
"J. c #877986",
"K. c #A97E8C",
"L. c #7B838B",
"P. c #7A8487",
"I. c #7D8790",
"U. c #828C8A",
"Y. c #929B8C",
"T. c #838C91",
"R. c #8A9597",
"E. c #989B9A",
"W. c #9B848B",
"Q. c #A58589",
"!. c #B78C86",
"~. c #BB9388",
"^. c #AD9498",
"/. c #B59997",
"(. c #A98798",
"). c #9BA599",
"_. c #ABA585",
"`. c #B2A890",
"'. c #979BA4",
"]. c #B194AB",
"[. c #9CA8A5",
"{. c #9FA8B0",
"}. c #A1ADA4",
"|. c #A6A9AA",
" X c #A6B2AC",
".X c #A7B3AA",
"XX c #A7ADB2",
"oX c #ACB6B3",
"OX c #AEB9B6",
"+X c #ABB7B7",
"@X c #B1BDBB",
"#X c #B0B9B5",
"$X c #B4AAAC",
"%X c #C1998B",
"&X c #C29D94",
"*X c #C49F98",
"=X c #C7A59A",
"-X c #CDB390",
";X c #CAABA9",
":X c #D9B6A9",
">X c #CBB6B4",
",X c #C194A6",
"<X c #B5C1BE",
"1X c #D2C38D",
"2X c #CDC497",
"3X c #D4C999",
"4X c #D4C996",
"5X c #DCD5A8",
"6X c #DCDDB5",
"7X c #D8C8A4",
"8X c #E4D0B7",
"9X c #E1E3BB",
"0X c #DEE0BC",
"qX c #BDC9C4",
"wX c #BBCCCD",
"eX c #B7C3C2",
"rX c #BCCED2",
"tX c #B9CDD6",
"yX c #BDD1DA",
"uX c #BDD0D4",
"iX c #C3CFCB",
"pX c #C5CCC7",
"aX c #C6D1CA",
"sX c #CCD4CD",
"dX c #CFD8CF",
"fX c #D0D9CF",
"gX c #C0CFD2",
"hX c #C3D2D5",
"jX c #C6D5D9",
"kX c #C9D7DA",
"lX c #CAD9DC",
"zX c #CAD7D6",
"xX c #D3DBD3",
"cX c #D5DCDA",
"vX c #E3DEC3",
"bX c #D7E1DC",
"nX c #E7E7C8",
"mX c #EBE8D2",
"MX c #DEE6E3",
"NX c #E4EDEB",
"BX c #E1E8E4",
"VX c #ECF2F3",
"CX c #E9F4F7",
"ZX c #FEFFFF",
"AX c #CAD9E8",
/* pixels */
"xXxXxXxXBXVXmX9X%X_ _ _ ) ) ) ) W ) ) ) ( 6.5.,.-.5.u.` ( _ ) ) ) ( ( / ) ( ( ! / s.s.;.w.;.D.O._ ( _ _ _ ( _ _ _ ) ) ) ( ( j.D.",
"xXxXxXbXBXVXmX9X%X/  .) ) ) ^ ^ ) ) ) _ / n.s.r.f.f.N.^ _ _ _ ) ( ( ) / ( ( ! ( / u.N.z.,Xm.C. ._ _ _ _ _ ( ) _ _ _ ) _ ( _ =.u.",
"xXxXbXxXBXVXmXnX~./ _ ) ) ) ( ) ) ) ) ) / 8.s.!.].u.=./ ) _ ) ! ( ( / ) ( ! ( ! ( +.,.f.K.8.#./ _ _ ( _ ( _ _ ( ( ( ( _ ( _ ( o.",
"xXxXbXxXBXVXmX9XS._ ) ) ) ) ) ( ) _ ( ( ) ) #.9.8.5.+./ ( ( / ) ! ! ! ) ( ! ( ( _ ) ,.7.9.5.5./ ) _ _ ) _ _ ( _ ( ( ( _ _ ) ) #.",
"xXxXbXxXBXVXvX9X%X/ ` ) ) ^ ) ) ) ! ) ) ) ^ ;.e.u.;. .( ) ) ) ) ! ! ! ( ! ! ( ( ( ) { 8.u.{ / ) _ ) ( _ ( _ ( ( _ ( ( ) ) ( ( ( ",
"xXxXxXxXNXVXmXnXS./ ) ) ^ ) ) W ( ( ! ( ) ) ( } o.) W ) ( ) / ! ! ! ( ) ! ( ! ! ( ( / / / ( ) / _ ) ( _ ( ) ( _ ( ( ( _ ) ( ( _ ",
"xXxXnXxXBXVXnX6XS./ ` ) ! ! W ` [ d o.^ W ) ) W W ! ) ) / ) ) ) ! ( ! / ! ) ( ! ( ! ) ( ( ( ( ( ) ( ( ( ) / { ) ( ( ) ( ) / _ ) ",
"xXxXxXxXMXVXvX9XS.W ` ) ) ! 4.L L /.:X%Xf.! ) ! ) ) ! ! ! ) ) ) ] } %.} ] W ( ( ) ( ! ( ( ( ( ( ) _ _ ) o.=.*.*.=. .( ( ( ) _ ) ",
"xXxXxXxXbXVXnX9XS.W ) ` o.p.E.T $XvX:X8X:Xf./ ! ^ ^ ^ ! ) ) ( #.2.7.>.4.2.} ( ! ) ( ( ! ! ( ) ( ( ) _ O.e.,.>.,.5.w.! ) ) ) _ ( ",
"dXxXxXfXbXCXvX6XS.W ) &.u.XXXXE.7X>X:X:X=X:X0.W ) ! ! ) ) ) / u.u.=.6.;.N.#./ ( ( ) ) ) ) ( ( ) ( ( / +.B.8.h.q.n.n.) _ ) _ ) ( ",
"dXxXxXfXbXVXvXnXS.W / 5.B.'.^.|.>X:X:X:X:X-Xz.( ^ ! ^ ) / ) / e.N.c.].s.b.{ W ^ ( ( ) ( ! ! ! ( ( _ ( ] y.u.,XQ.y.;./ ) ) ) ( ( ",
"fXfXxXfXcXNXnX0Xz./ ) { t.A.^.^.:X:X=X/.h.f.z.+.W ^ ! ) ! ) / +.>.f.x.4.@.! ) ( ( ) ) ( ( ( ! ( ) _ ( (  .,.e.e.2.} / ) / ( ( ) ",
"fXxXfXfXbXNX6X0XS.W ` W r.^.!./.;X:X~.Q.S h.F $.( ! ! ) ) ) ) ) &.6.7.4.,.) ) ) ) ) ( / ) ) ) ( ) ) ) ( +.,.9.9.;.{ ( _ ( ( ( ( ",
"dXxXxXdXbXNXvXnXS./ ` _ c /.%X=X=X=X=X=X~.:Xj...( ! ! ! ) ) ) ) ] ,.u.o.W ) ! ) ) / ) ) ) ( ) ) ) _ ( ( ( ` &.+./ ( ) ) ( ) ) _ ",
"sXxXdXdXcXNX0X6Xz.W ) _ d l.=X=X;X=X=X=XS.~.~.} W ^ ^ ) ! ) ) ^ / ! W ! ! ! ) ) ) ) / ( W ) ! ) ) _ _ ) ) ( / / _ ) ( ) ( ( ) ) ",
"sXdXdXsXxXNX8X9Xz.W ` ( [ I A.&X:X/.=X~.S.l.h.+.^ ! ! ! ) ) ) ! ) ! ! ! ! ! ) ! ) ! ^ ] @.^ ] W ) ( ) ) ( ( ) ) ( ) ( ) ( ( _ o.",
"sXzXdXsXzXNX6X0Xz.W ^ ) ^ x.Q.A./.=X~.j.j.j.w.@.x O.} ! ! ) ) ! ! ) ! ! ^ ^ ^ ( / | =.6.*.3.=.} / ) ) ( ) ) ) ) ) ( ) ( _ ) &.=.",
"sXdXsXdXdXNX5X5Xz.W ` ! W /.^.l.l.A.A.Q.A.D b 3.*.2.6.o.W ) ^ ! ! ^ ! ! ( ( ^ ) / 6.u.=.3.&.s.=./ ) _ ( ) ) / ) ( ( ) _ ) W 6.s.",
"pXsXsXpXjXMX8X6Xz.W ] W :.CXcX/.W.g.F G g.h.d.2.r.;.V.O.W ^ ! ! ! ^ ^ ! ( ^ ^ ( W 8.N.r.(.u.B.=./ ) ) ) ! ! ! ) ) ) ) ( ) / ,.b.",
"aXdXsXpXzXMX5X6Xz._ ) f t XXZXCX#Xk.g.S z x b.c.].u.y...! ! ^ ! ! ) ( ^ ! ( ^ ^ ( $.w.p.(.e.1.^ ) ) ) ) ) ) ) ! ) ) ) ) ) ) ` O.",
"pXsXpXaXzXNX6X2XG u 7 3 - 5 eXZXVXgXl.g.` ) X.8.r.1.%.^ ^ ) ^ ! ) ` ( ! ) ! ) ^ ) ! o.4.w.4.2.] ( ) ) ) ^ ) ) ) ) ) ) ) ) ) ^ O.",
"sXaXsXpXcXaXT 9 3 3 ; - 3 & w NXZXNXB G.$./ #.6.7.=.&.^ ^ ^ ) ^ ^ ) ) ! ^ ! ^ ) ) ) o.2.p.:.` ^ W ) ) ) ^ ) ^ ! ^ ) ) ) ) ) ^ ` ",
"aXpXaXxX[.; o - ; : - - & 3 @ P ZXI 1 B 0 1 f O.;. .W ^ ^ ) ! ^ ) ! ` ! ! ) ) ^ ) ^ / ^  .^ ^ ) ) ) ) ^ ) W ^ ) ) ) ) ) ^ ) ) ) ",
"pXaXaXsXw % 4 ; - - - ; - ; 3 + '.AXI z P X # $ u ~ _ ^ ^ ^ ! ^ ^ ! ! ! ) ^ ^ ) ^ ) ^ ) ) ^ ) ^ ) ) ) ) ) ) ^ ^ ) ) ) ^ ) ! ) ) ",
"aXaXfX).+ 3 3 - - - - - = - ; & N CX].B '.- = 2 2 - y ! ^ ^ ^ ! ^ | $.^ ^ ! ) ) ^ ) ) ) ^ ) ) ) ) ) ) ! ] ] $.X.{ ^ ^ ) ) ) ) ) ",
"qXaXxXR @ 3 3 - - & - - - - : 3 X R.].8 XXA O n n * & i ) ^ ! o.*.c x 1.@.] ! ^ ) ^ ^ ) ` ) ^ ) ^ ^ ) ] &.1.x *.>.&.^ ) ) ^ ) ^ ",
"pXaXaXe & 3 ; ; - & - - - - - ; & N J.8 W.U.  z m 2 * y ) ! ! y.q.1.v -.a.[ ! ) ^ ) ) ^ ) ) ) ^ ) ) ( } a.;.x *.5.d.' ) ^ ) ) ` ",
"qXdX#X4 - ; ; - - - # - - - - - 5 5 N j B XX+ : 2 2 * < ) ^ E y.a.r.x.u.V.[ ! ^ ^ ) ^ ) ^ ) ^ ) ) ^ ) { a.u.K.c.i.d.) ) ^ ) ) ) ",
"<XbX).% ; ; ; - - & & & - - - - : : - j j XXN @ + # - $ ^ ` W -.7.k.K.7.x ! ^ ^ ) ) ^ ) ^ ) ) ^ ) ^ ) ^ #.,.x.h.<.o.) ) ) ^ ) ) ",
"6XxXY @ ; ; - - - + % - - - ; - - 5 - 8 j J.P . ; - = % f ) ^ ~ O.4.b b *.! ^ ^ ^ ^ ) ^ ) ^ ) ) ^ ) ^ ) ] *.v <.*.@.! ` ^ ) ^ ) ",
"eXfXZ + ; : 3 - - & + & & & 5 - - - - 3 8 S G.. : - = * y _ ^ ~ $.3.y.@.| ^ ^ ^ ^ ^ ^ ( ) ^ ^ ) ^ ) ^ ! ] O.6.4.{ ..^ ) ^ ) ) ^ ",
"eXuXe * ; ; ; & & + + & & & - - - - - & , z G.@ = - = * < ( ^ ^ E ' | ^ ! ^ ^ ! ! ! ` ` ( ^ ^ ^ ^ ) ^ ^ ! ! ^ ^ ! ( ^ ) ^ ^ ) ) ",
"eXpXq & - - - & % + + % & & & & - - - & 5 j U 6 : - = + = ~ ) ^ ^ ^ ^ ^ ^ ^ ^ ~ ^ ^ ! ! ] W ~ ^ ! ^ ^ ^ ! ^ ! ^ ^ ^ ^ ^ ^ ^ ^ ) ",
"qXqX9 & ; - - & % o @ % & % & & & & & & & 8 P q k.k   + * y ) Q ^ ~ ~ ^ ^ ^ ^ ^ ! ~ [ g x X.} ~ ^ ^ ^ ( ^ ^ ^ ^ ^ ^ ! ` ) ! | $.",
"qX<X7 & - - - & % o o % % % % % & & & & & # C w G k.9 o X < ) ~ ~ ~ ^ W ~ ^ ~ ^ ~ %.1.b x *.*.%.! ^ ^ ^ ( ^ ^ ^ ^ ^ ^ ^ ^ E 3.*.",
"qX#X4 - - - - & % o . + % % % % % & & & & o B Z l.;X;XF   , a ~ ^ ~ ~ ~ ^ ^ ~ ^ W 3.a.-.w.@.b.*.! ^ ! ~ ^ ^ ^ ^ ! ^ ^ ^ ^ ! w.a.",
"qX@X4 & - - - & o o . o % o % % % % + % % X q J./.^.].Q.7 . i ) ~ ~ ~ ~ ' ~ ^ ^ ! %.a.h.].p.i.X.! ~ ^ ~ ^ ^ ^ ^ ^ ^ ^ ) ) ! %.t.",
"eXeX9 % - - - & % o . % % % % % % % & + % + = T ^.(.W.A.F o < ) ^ ~ ^ ^ ) ^ ^ ~ ^ ~ X.4.g.3.x ^ ~ ! ^ ^ ^ ^ ^ ` ^ ^ ^ ) ^ ^ ^ } ",
"<XqXe * - - & & % o . o % o % % + + + & + + O e W.A.k.l.F = = s ^ ~ ~ ^ ^ ^ ~ ^ ~ ^ @.3.3.1.*.' ! ^ ^ ^ ^ ^ ^ ^ ^ ^ ^ ` ^ ! ^ g ",
"@XwXV + - = 5 & # o . o % % % @ + + + # % % % + 0 C H H F : o i ^ ~ ~ ^ ~ ~ ~ ^ ^ ~ ^ $.4.o.~ ^ ~ ! ^ ^ ^ ^ ^ ^ ^ ) ^ ^ ^ ^ ' ^ ",
"@XaXZ @ - - & & + o . o # & & & & & & & & - + o     , e q o > s ^ ~ ^ ~ ^ ~ ~ ~ ^ ^ ~ W E ) ^ ^ ^ ^ ^ ^ ^ ^ ^ ! ` ^ ^ ^ ^ ^ ^ ^ ",
"oXaXU @ & & & & % o . o + % % % & & & - 5 & o o X % N 5 o % $ ~ ~ ~ ' Q ~ ~ ~ ^ ~ ~ ^ ~ ~ ~ ~ ^ ~ ^ ~ W ~ ! ' ^ ^ ^ ^ ` ' ^ ^ ~ ",
"+XaXY X 6 - & & + o o o % % % % & & & & & + o o o o 4 + - > i ' g h x g [ ~ ~ ~ ^ ~ ~ ~ ~ ^ ^ ~ ^ ~ ~ ~ [ g c g @.' ^ ^ ^ ^ ~ ~ ",
"OXaXY X ; & & & # + . o + % % % & & & & & + o o +   u f f s ~ x x x x x b [ ~ ^ ~ ~ ^ ~ ^ ~ ~ ~ ' ~ ! X.>.x x c x 3.~ ^ ^ ~ ~ ^ ",
"#XwX).- & & & & & o . o + % % % % & & + + @ + o % o y ) ~ ^ E m m v H *.a.g Q ~ ~ ~ ~ ~ ^ ~ ~ ^ ^ ^ Q X.K *.b :.y.J a ^ ~ ^ ~ ^ ",
"@X<XwXN + & & & & + . o @ + % % & % & & + + o o o * u ~ ~ ~ E x m h.(.m n a ~ ~ ~ ^ ~ ~ ^ ~ ^ ~ ~ ~ Q d J y.(.H.i.b ~ ^ ~ ~ ~ ~ ",
"@X@XiXZ @ & & & & o . o @ + % % % & & + # o + @ + % < ~ a ~ ~ a g b H x g Q ~ a ~ ~ ~ ~ ~ ~ ~ ..~ ~ ^ ~ d x t.D x g Q ~ ~ ~ ~ ~ ",
"oX@XgXP . - & & % # . o + + @ & % & & + + o + + o * $ a ~ ~ ~ Q g v n x g a ~ ~ ~ ~ ~ ~ ~ ~ ~ ~ ~ ~ ~ Q | x x <.x g Q ^ ~ ~ ~ ~ ",
" XOXiXP.X - & & % % o o + % % % % % + + + + + o + o > s ~ ~ a a p g g d p ~ ~ ~ a ~ a ~ a ~ ~ ~ ~ ~ ~ ~ ~ d *.*.Q Q ~ ..~ ~ a ~ ",
" XOXeX[.% % % % % % o o o % & & % o + + + o o + + + + f Q a a a Q p p p p a a ~ ~ ~ ~ ~ ~ ~ a ~ ~ ~ ~ ~ ~ a E p ~ ~ ~ ~ ~ ~ ~ a ",
"|.OX@X<Xw o & % % + + X o o % % + + + + o o + % o + o i ~ ~ a a p ~ a a a a ~ a a ~ Q ~ a ~ ~ ~ ~ ~ ~ a ~ ~ ~ ~ ~ ~ ~ ~ ~ ~ a a ",
" XOXOXqXU X - & % + + o o o % + % + + + o + % + o + + i E s p s p p p p p p Q p a a p p p a p p a Q Q p Q p a ~ a p a Q p p p p ",
"}.oXOXeXR.@ % & % % % o o o % % % + + + + % % * o = * h o.o.X.O.X.o.o.o.o.o.o.X.} } } o.} } [ } o.} [ } } } { {  . .+.+.}  .} } ",
"}.oXoX<X[.# % & % % % + o + o % + + + + % % % % X = o i.M.m.M.m.m.n.n.M.N.n.Z.n.j.N.C.m.N.n.n.Z.C.C.C.C.Z.Z.C.C.C.C.Z.Z.Z.C.C.S.",
"}.oXoXoX{.; o & % % o X o o o % + % % + % % % +   = o D.1X1X3X1X1X2X-X1X3X-X3X3X1X3X3X1X7X2X1X5X4X3X5X2X7X5X4X7X3X4X4X5X4X4X3X4X",
"). X X#XU.X = % % + 7 e = X o + + + + + % % % +   = + M i.9.m i.m m J m J L L M L L K K K a.K V.B.V.B.B.D.F.F._._._._._._.`.`._.",
").}.[.<XU   % # 9 C W.^.0   o + + + + + % % & o   # + Y R.T.R.T.I.I.U.R.T.T.I.I.U.T.T.I.I.I.I.I.L.I.I.G.L.L.L.L.P.P.G.L.G.G.L.G.",
"Y.[.}.<XV   o B J.W.].(.0   o o + + + + + + % X   o + {.lXuXwXyXuXuXuXuXuXyXyXuXyXyXyXjXyXyXyXyXtXyXtXyXyXyXyXyXyXrXyXgXyXtXtXtX",
"Y.[.}. X9   % T H.H.k.k.k   + o + + + + + + + O   o = {.lXuXwXwXwXwXwXwXrXaXwXhXhXhXhXhXjXjXjXhXyXhXhXhXjXjXkXjXjXzXzXhXuXjXuXrX",
"Y.). XY.O o o C G G G g.B   o o o + + + + = +     o - [.lXwXwXwXuXuXuXwXuXuXhXhXjXjXjXjXjXlXjXjXjXhXhXjXkXlXkXkXkXkXjXjXhXhXhXhX",
"Y.). XP.9 t X k G g.t.g.l . + o o + % + + +       O o [.lXwXwXwXuXwXrXwXuXuXhXhXjXjXjXjXlXkXlXjXyXuXjXkXlXlXkXkXkXkXkXjXjXhXhXhX",
"Y.).}.}.<XtXP.X z l S b 0   X X X X O X X X         % XXzXwXwXwXrXwXrXwXwXhXhXhXjXhXjXjXjXkXyXlXjXjXjXjXlXlXkXlXkXkXjXjXkXjXkXhX",
"Y.).)..X+XlXXX. o < z l ,   O             O X O     t wXuXwXwXwXhXrXhXwXwXrXhXhXhXjXjXkXlXjXkXlXjXjXjXjXlXlXlXlXkXzXjXlXkXjXkXzX",
").).).<XeXAX{.o . . 2 : o X o O X             O X   r hXaXwXhXuXaXhXhXrXwXrXhXrXyXhXjXyXlXlXkXkXjXjXkXkXlXlXlXlXlXkXlXkXlXkXjXjX"
};
