/* XPM */
static char *south[] = {
/* columns rows colors chars-per-pixel */
"128 128 56 1 ",
"  c #18130E",
". c #1C1711",
"X c #1E1913",
"o c #221B16",
"O c #261E18",
"+ c #281F19",
"@ c #27211B",
"# c #2C221C",
"$ c #31251F",
"% c #2E2620",
"& c #2F2822",
"* c #332721",
"= c #362923",
"- c #3B2C25",
"; c #362E28",
": c #3E2E28",
"> c #3E3027",
", c #37302A",
"< c #3D322B",
"1 c #3F3630",
"2 c #3F3934",
"3 c #412F27",
"4 c #402F29",
"5 c #46332D",
"6 c #49352F",
"7 c #47382F",
"8 c #48382F",
"9 c #443730",
"0 c #4C3730",
"q c #453933",
"w c #4E3932",
"e c #443D38",
"r c #4E3F38",
"t c #533C34",
"y c #583F37",
"u c #543F38",
"i c #4E413A",
"p c #544037",
"a c #594037",
"s c #55423A",
"d c #5B433B",
"f c #5E483F",
"g c #61463D",
"h c #61483F",
"j c #554740",
"k c #594740",
"l c #574942",
"z c #5D4A43",
"x c #624D45",
"c c #634F48",
"v c #655047",
"b c #655249",
"n c #6A544B",
"m c #6E584F",
"M c #6C5951",
"N c #715B52",
/* pixels */
"nNNNNNNNNmNMnnzMMMle,iznnbvbvvvvvvvvvvhvvvnnmv6kxkitiijcnvnvvhh0$2cczzxxxzzxxcccccxs<wzzzzczxzxrqcxxxcczj9qlcxcxzzzzlks9zzrszksw",
"mNNNNNNNNmNmMczMMMns<sMNmbnnnvvvnhnvnnnnmmnnmNa5wrsuuzxhgggagaaw+enckggzxhhxhgkgggdxqqbsuussuyrf9ikusuurs99zksssuuurwtr9fr5rkrw9",
"fgfgggffxgggcrtdfxnk:xNfataaaaayyyyyyyyytyyythg4tsuaaauaaaayatty$2cttttytyttttttttts9eswwwwwww6yr5rwt0t0t0-kw0www0w00t06t0:qd0w0",
"yyyyyyyyyttwd90wtfnx=zxutaaaaaaayyyyyyyytttt0ty6twtttaaaaaayytww$,u0ttttytyyyyyyttty51wwwwwwwwwtu-6t00t00:#wrwwwwt00uywwwr90tw0t",
"yyyyyyyyttt0t36wwtcx*udtyyyyadaayyyyyyttttt6t6t56wwtuttyyyytttt6#+500wtutytytyytutwu-566wwwwwww0rw:000ww6-o&6wwwww6ttwww0twwt0ww",
"yyyyyyyttw06w4-000uu#watyyyyaayyytyttyttt666656t56wwttttty0tt000#O*5wwwtttttttttwwww*66660w0wwww6u055:445=+506tww6wwwwwtwww00tt0",
"tttttttt00666w3305wu#<utyyyyytytttttttt0606655560650wtwwt0t000t6##,,5000wwtwwtt0w6w95556666666666wr5-65--##ert0ww60wwwwwt0wt0w00",
"tttttt66666666t540wrO:utyytttwttt0t0ttt00666555550560www0t0t0t06#*04=-600w00006065w<556566566666660t:4065+#00www06wwwwwwt00t00t0",
"tttww0006666656w:400+:ttttttt0t0wwwtww0tw66555555504000wwwww0t06#&065-*-46060546566:65555565556556560-555#+500wwt30wwwww0twww6w6",
"ttttt006066655550-50+:wwtw0t6t0ttwwwwttt06655555556:-450wwww0tt6#*055664---6644656=5555555555555555555-66#O900www64twtwwt0www6ww",
"twtww060066656550549O-tw0tt0t0t0twtwwww00665555656:=44--40wwww06$*55555666--65-56=-65555555555555655554*:#O900wwww-5t0ww00tww500",
"ttttw0000666656599:4O-w0t00t0t0twwwwwwwt665655556-*66565--5wwww6$*555555554-56445*565556555555555555556-#oO96wwwww640tw60t0ww056",
"wttt6660066666554w=O+30wt00ttt000wwwt000665555564#46555655--6006#*955555556*465-*465555555555556555655564o#950wwt06060w60ttwww05",
"tttt000606666555045+o5ww0t00t0t00600600666555664--5555555554--65+&555556556=*65#4655565556555655555555556+O9500005t040w6tw00ww06",
"wtt0006666666555040:o30ttt0t0t06666666656556644-:555555555566-$-O&956555556:#5--5555555555565556656555555$o-900055t44t060wwtww00",
"t006606060065555404:+300t0t0t066655656655554*+*5*5555655555656-OO&5555556555#*446555655655555555465555555#o-4555553*6t060twww006",
"6666666656655556055:O;00500055566460405504==-44*$55555555555555$o;5555555556-#565555664656555555555555557#o#=>556054566366666665",
"5555555555555555404:o*555555555566640455*$456664*46555555555556-O&15556556564$455555465655556555655555655#X;75555555336356555555",
"5656556555566555550:o*5555556555646440:#*50555565=46565555555564O&55655555554*455555555555555555565665555$X1q5565566533366655555",
"5565555556555555555-o$5555055656646604+*555555555-46555556655554O#:5555555656#455565555556555666566566656$O<65566666033666666665",
"55555555555565555554o+455455555563665#$5555555455=-5555555555554++-5555555545*=55555555555555757666666665$O:55756600053000006665",
"$*--333-3--333>--4-*o+*444444---:---$#:::----=--4*+4-4-------:-=++*-:::-44-44-$4----------3->335353535354$+=>535555565306655334-",
"++$*$$3$$$$$$$$$***$oo**************+#==**********o+***********#oo$***********+*********$--:::53355353353$$-33>5355566336565534-",
"###$#$$$$$$$$$$$$$$+o+############$+O+@@++#+#++#+$++#######$$##++o######+$#$#$++###+++###$$$$$$$$3$$3$$-$$$$-$$$-*----*****-****",
"wytyytwwwwtpp8ppww0wrsr05559594-*#$<0q5<;=#Ooo&56665:455554454555rr0555544--::5r65-*+O+*=====>355575555557qi7555>-=$**490066004=",
"nnvvvvxxhghhvhhgxzzzzzzzkgzzzkkk5=lbczzlls<++eccchzr9xccvvxxxxzzxcczzzkzzzs-4zbcczfu:+:kkkw-wfxxxhzxlzzfzvbbcxvfa5@O$qbnngxgxku6",
"gaggyggdggggdgdgddaaasyyyyuyyyyxwuvtitwwww0#=zfyyyyd5xksaaaaddyyddusysayyyx49nsyuuttw+wxadx57xaayyyaaaaaadaasapdf=@1nnxyayyayyyw",
"gaaaaygyaayaddaaaaayyttttyytytyx50ytutwtw69*&lutytyw:gtttyytttyttttytyyyytg5whtyytt0r+9sytfa=hayyyttptppttatppth5O<nxuttyyytytyt",
"gaagggaaygyyaggadaaayyyyyttyyyyw060yttttw65##euyyyy06uyyytyyyyytyytytyytytd*wstyttt00#4sudyh:taatatautattytaatap$=csttyyytyyyyyu",
"aaaayaaggyagaaaaaayatytyuyytyyuuxy46yttww64+#0wtta00uuyyyytyttyyytyyytttty6&uytyttw65+5syyygt6gaatattataytattat3$sapyyytyytyyyyy",
"yyaaaaaaagaaaaaayatyytytyttyttkyyy044wtww64#+50tyt0tyuttytttttttttttttttyw-0yttttw064+4styygawdaataatuatyyytpy8$8dppyttytyyyyyyy",
"ttyaaaaaaaayyytytttttttytttt5dytttyt5555564+o50t00yyytyttttttttttttwwtwtt-5twtww0066:o4utyygatdaaatatatatytyty5=attttytytttyyyyt",
"tttttytttyytttttttttttttttt3yttttttttt003*-+o50wtyyyttttwtwwt0ttwwwwwwww4-t0ww06666*@O:utttdttytuttttttttttttt4-ttwtttwttwtttttt",
"6tt0ttttttwttttttwwwtwtt0t5ttttttttttt00t*X+#0tttyytyttww0000060w0066w66*666666666$$=O<rwwtywttwtwtttttttttw0t**6w0000ww0000ttwt",
"t00twwwtw000006twtwtw0t0w66y0ttt0tt0t00005X.*wwtttyytttt0600666606666664=06666656$$6-O:qwwwt6ww066680w660000604$$*5666660060wwww",
"0t0656533333333346600tt0w5ww0t00tt0tt00050#.*wwwtwtttt000666656666656664-6556556$#65=o:twwwt56w0666666666066665554--566566660www",
"05--5600wwww0www6544550ww30wwt0t000t000055$o;rwwwtttt0066655555555656555-555556=$564#o;qwt0t0:055656665666555656666*-65656560600",
"336tttwwwtwwwwwwwtww00540-0w00t00tt0t00065$.=qwwtwww00665556555555555555555665=4:54+oo:q6666w-4655555555555555555664$45555556660",
"swwwwwwwwwwwwwtwwwwwwww4$*wwt0ttt0tt000556$.;qwwwww0006555555556555555555554-=46-:=-#X:956666-5556555655555556555556-*0555555566",
"u6wwwwwwwtwwwwwwtwwww000*o0w0t000t00t00056*.%9wwwww0665555555555555656554--=4566*=03%X;556664-65555555555555555555656-4655565555",
"5600w0wwwwt0t0t0w0t000665+4t0twwwwwww66655-.#90w000055655555655556565556=5556555-494*.*955555$305555555555655555555555--65555555",
"5560600000000000006666650=$00000ww006666654o+95500065655565555555555556--6555555-504*.&955555$*365555555555555655555556--5555565",
"56555555555556565555655554O4065066566555554Oo5555555556555555555556555--55555564-554%X&955555#4-455655555555555556555556--655555",
"55565556565555555555556550+*66505655566655:+X,955565555565555555555555455555665*4054#X%:55555+36=-65555555656555556555556*465655",
"54553533335333534545545445*#04444464454445-+.=<445445454545445445454555445554-*4544:$X+-36555#$55=45454554454545544544545--45445",
"-----------------**--***---O=-----------==*oX#*----------------------*----=*#*-----*+XO*$:=--$@--**4---4=4=--------------**-----",
"****-************#+#$++****#O===********==#oX+==*===**==*=**=*=*$$$#$*****$$*==***=*+Xo%$$$-$$o#==#$***$**#*$$**********-+#-****",
"*****************#+++++$****+O************%oXO%**************$$#++++$****#+****=***=#Xo#$-$$$-#X#$#***#$#+++#***********#X******",
"$oooooooooOOooXoXXoXoXXoooooOXXoooooooooooooO@ooooOooooooooooooXoo.oXooOOoooooooooooo@@oo@X@@X@@XooXooXoXXXXXoooooooo+++oooooooo",
"w0959<154:+-:999:*@oO#,500999999541<=O;<<5<9ee<;;;qq9qwq0659<-=&+o#-99q99=;9595<65377ii,#=>>,137q5<-=#=%+o+;19<*#*46e00errr95<;#",
"hbbcccccvvy5kxzksi9#,ibcxxxxzzzkfkkss,zczzxxzkrrqkccccczhhgaljsr9$6cczxfsrnnnMbbnnhgfhvf1sfxbvvhvvds7izs1+;zcccz:6hhxzfzzzzxxzkw",
"aayyyyyuytd6:uuyw00%<zssttttuututtttr:frttwtyuw:0kutwttutttttw059*esdutfekguuyysaagapppdi7dsaaaaapuwqluw:O9kksygr:tayyayuyuyuuwt",
"ytttutytytty30att88$<sitttttt0tt0twtu-sttwtwwt54t0tttttwt0tttt055#1ruttywytyuytyytytattaf58appatupa67tt6:+=rtytwa5=uyuytyyytuttt",
"tyyyyuyytyyy03yyt88$,twwwttttttttttty66ytttttt36tttttttttttttt054O-ttttt0yttyttttatyttatad88tatattp5wttw4+%0rttyta-5yttttttttyty",
"yutyuytyyyytt000667$=wi8tttttwtttttttw:wttwttt60tttttttttttttt05-+,rttt00ytytyyttttttattptpt8waatw8tttt6:@#9wwttttt4tttttttttttt",
"ytyyttyytw0wtttt3$>$=wwtttwwttttttttwt55twtttw6wtttttwtttttttt03-+:00tt4wwttttttatttttttppttpw3568tttwt65O#550ttttt65ttttttwtttw",
"ytyytyt005yytytat3$$=wwwwpwttwtt0ttwtt64twwwt06ttttwttttttttt003=+-06t56wtttwtttttwttttttttttat35ttwwww04+#590ww0tt03wwttwtwt0tt",
"tyyyyywtytytttttt63$;0qwwwt8tt0tt0wwwwt45twww56w0wwtttttttt0tt03=+*3636w0twttwtwwttwtwt0wtwwwwat63tttww04+#190wwtt0t35twww0t0t00",
"tyyyayyty0ttttttw55$=q7qww8tt0wwwww0www64000056wwwwwtwwtttt0t053*++-36tw6wtwtwwwtwtt00ttwwtwwtt0t5$56ww04++<59ww00tw6*3twww0wwt0",
"ttytytwtw6wtttwtw53$#5q568w8000w0w00000w45w064006000wwww00tw005-*+%9twww40wwwwtwww00wt0twwwwwwt6t3-536t04+@959ww0tww64-4twwtww0t",
"tttttw0065wwwwww033##377600000000000064444w65-006w00w0w00000005-$O:iwwwww50wwwwwt00t0t0twwwwwwt6t66tw3w04++<360tt0wt63t34twwwwww",
"wwwt066665600wwww33#@>5760606060000054664-4w3#06666w06000000005-$+1q600ww030tw0000000000ww00www6060tt3504++555000t00w4w0*0w0ww00",
"wwww06666666666063-#o><566600060660646666644+*66666600000000605-%O:956000w535600666660660600w0w06600t5304+#45560t0t0w-3w*3000006",
"wwww0065555566665-$+o><566666606666456666665-466666066660000065*#o;95566666-445665666666666666ww656t06004++45466000t03-**5006665",
"0ttw0655565565655;=Oo;:5566666666644666666666556566666666666664*$O=54055056455555556566566566660650tw656:O+<<5560606:66*95440055",
"ww0w0665555555564-*Oo;115655656665:66566565555:6565666660666665*#O;9945555044555555555555555566604600t55:o#<<456666-4549965:=455",
"t0000665556555554=*Oo;1:5556555664466565566556=4656566666666664*%o;<4040555545555555555555556556045t0006-o@<545556*;455556554*55",
"00006555555555555-*Oo&:5555565565-5655555555555*555555566666664##O=<940455555556555555565556555664460665-o@<<<555*=55655,4650:-0",
"05555655555555564==+o&15555555554-5555555565556:46555555665555:##o;<554065555655040565665655555555=65555-oo:-:55*-655656--5556--",
"55555555655556555=*oo&:1555555565-55565555555556*4555555465555:##o;<<56655555555555546445555565555446554*oo*-44*:65555565-65555*",
"55555555555555554-*+o&-5555556555-555555565555565#555565555555:$#o;<:554555655555555046655565556564=6564;oX@##*5555555556-465565",
"65555565555555555=*oo#--555555555-*65555555555556==65555555555:**o#=:496555555655550404655555555556=4654*o.O&:555555556554*55555",
"44444444::4444::-##oo#**-44444::44o=44:4444444444-o-444-::4:44=*#oO**::44444444433344444444444:44444#-4-*oo;1::44444444444-$:44-",
"-******-=*=*=****##o.o##*====*====#.#===-*****==*-+.*=*-======**%oo#$======**==*=$**$*=**=======***=*o**#oO;**;*======**==-$$=-*",
"#$$$##$#$#$####$#++.o+o##$##$$##++#o.o#######$###$$o.###########+XXO++####$#*###$##@+O+$#$%++*####$#*oo##oo@O###############o$#$",
"#Ooo$$$$O+#$*=--===,1e::,-=*o+##*----=##+o.....o++$***#***==*==---<:-=*=****$#**#@Ooooo+**==+O+*$$####%%%===**#*##*###%*=$$$#+oo",
"ir5*:w65:essuuiiissjlllssusj0*4gzzssjjr15;o..$<1eijjssssskssdkyysskskuurrr0r0qrtir,$+*qr0999--quyurrujddjdkdsssuyruurrrtrwwqwe5$",
"iskl45ur0ickjssdsssddsdsukssxy-vssssirrr29,o&rjijudskkkssssddssyssssukssusususssszf:#rjsuksuw=kkskkfkfkxzlkkdkszkdddddsssssssir4",
"dsudz21utrzsssussssssdssduuayg00xdsssyurq4,o1jrryddususdydudssyysadsuukyuyysssssu0f5$isjdsduy55xuuuuussssysssussssjussudsdudsu05",
"uuuyuduwuwutyyyyyuyyyuuuuauuutytwyuyuyww04*#2rqruuuyyyuyuyuuyuyyuyssuyyyuuuyyytru8sw$rdyuyyuyy-yfyyuuuyuyuuyuuyuyuyuuyuyuuyuutt0",
"yytyytattwyytytytyttytytyyytyyta00duttt006*+-00wtttytytyttytttyyytttyytyttyttttt00tw*waatyyytyt6aytytyyttyyttytaytyttyttytytyytw",
"yttyyttt0wtyyttyyyyytyyttttytytyy0wuyttt05-+$5600ttttttytyttttttytttttttttttttt0ttt3#5yyyyttytty0tyttttytttyytyttyttyyyytytyyttt",
"tttytyta00tytyytytyttttttytyyttttywwytttt5-#+1660twtttttttt0tttttttttttttwtwtt0t0003+6tttttttytyy0ttytttttttttttttytytttyytyyttt",
"tttttttttwtttttttttttyyttttttttttttw00wwt4++#9660twt0t0t0t000t0ttt6t00t6ww0w00t00tt3#4ttttttttttttt00tttttttttttttttttttttttttww",
"ttttttttw6tttttttttttttttttttttttttt05-56-+X#1900wwwwwtw0t660tt0600ttt00000w0006www4+4wtttttttttttt00006ttt0tttttttwtttttttwtt00",
"wwwttwwtt00ttttw0ttt0ttttttttttttttwtt56w6-o@909wwtwwwww0056065560ww600066666666606:+-twwtwtwwwttt0ttttt00600000wttttt0twtwwww05",
"wwwwwt0tt6ytwtwtttt0t0t0ttt00tt0wwtt0ww0w6-+O,490wwtwwww005544600000060666566666560-+=0wtwwtwwww00t0t00tttt00006664445666555544*",
"wwwtwwt000wwwwww0t0t0tt0t00tt00twtwwwwt606-+o=450wwwwww0t4*-50666666666656565656654-O-qwwwwwwwt0tt0t0t00000twwww064-*566004$4445",
"6t0t6t0t50t00t00wwwwt00twwwwww0t0t0twtw066=Oo$=-60wwwww04$-565556566565555556555445=O*qwwwww0wtt0tt000000000006666w665550*=60665",
"000066t600000000000wt0t0w0wwwww0w0w0www055=oo-;*-50w0054556555555555655555555555666=o*0wwwwwtw00t000000066000066666555454#655555",
"654660t650000606666660060000ww000000000054*oO<9<=***-566655555566555556565555555463=o%q0wwwwt0t00t0066666666666655555554+3655555",
"44-4-44*466666566666666650666060000000005-*oO19915;*4655555555555555555555555565504=o%90wwwwww0t000066665556555555565554-5555555",
"066554-*4665555655656556566566505056655564+XO,9<55655555555566455555555555555555504-o#90wwww0w0066666636556555555555556445555655",
"555556655656555555555655555565555555555554#o@1<<45644655556546665556555555565555044=o#50000w006666663636555556555655555446555555",
"555555654555565555655555555555555555555554#o#,<:55554556555555565555655655556556454=o#195066666666666666555555555556555456655555",
"6556664*+55555555555556555565655565556555:#oO<:<45554555555555556555555565555555054=oO<55555655563636363555655565555555455555556",
"4555--=5$*6655555555555555555565555555565-#o@,<:55554555555555555555555555555555555*o@:55655555563466555555555555555554*:6555555",
"*+++$4556$-655555555555555555555555556555:#oo;==4555:555556555665565555556555555554*oo,455555555666655555555555555655:-:*-655555",
"5---44444-$444444444::444::44444444444444=+oX$**-444*44444444444444444444444444444-%oo*-44444444444444444444554-44--=:454==-4444",
"------*---$$-*-=-=-=-*-=--*-=======--====*#o.##$**=*O-===============-=;====-======#oo%=--==-==;***--*-*===*#ooo+***-====--$$--=",
"####+######o#########$##*###############$##o.ooo###+O###############################oo###################+OX..oO############o###",
"+oXooooooooooooooXXooXoo.XXXoo++O+Ooooo+Oooo@*#oooo+oOOoooooooooOooooXooOooooooooooo+#%ooooooOoooooooooooOOOOooooooooooooooooooo",
"e92ewe0werre9,#&49929:*Ooo#;:155112e0qee6eee212<;111e11411111<,*++oO=115;*##**,:5,:1122:,,,,,:,:,,,,::44:,11;Oo#;,<<1111111111=$",
"zcczxzzkkkddjzr1zsssie9*++elljuuuuussusddudkciruwzkssujuuuuiirr6;oO9lsirrre,errsjjllkkjjjssiurrrittrtyttiiis4$+1jlliiuiuuuurwu04",
"ussyuuutuuuuuuftskttr054O$jzuuuuatyyyytuyyatggttuzydyyyyuuuwww65-#*jjrrrttuw:rdtrwuuuukuyyyyddddusuuyytrwuruw*#ilsttttwtwryrwr05",
"tstytyyyytyuytyw0sttt006o$jkwyytttyttyyyyytyyat0kdwuytttwyywt0w5:*-rrwwww00t5=euwwwwwwwwt00w00000wwtwtwwwwwtt-$ir00wwww0wwwwww00",
"tyyyyttyytyttyyw6tttww06O#ittttyyytyyyyyytytyyt6dyyytytattuwt0004#*20www0ttww5:0wwwwwwww0tt0t00tww0t00twwwwww-+0r0wwww0twwwwwwww",
"ytyttyyyyyyyyyy66auttwt5+#2wttytttyyywywytytyy05dttyytytyytyt0005##5ww0t0t0wwt61wwwwwwww0t000tt0w0t0tw0wwwwww-+4r0wwwwt0wwwwwwww",
"ytyytyyttyytyyy46ytttwt5++6wtttttytttttttyttty00dttytttttttttww05#+5w0wwt0t0wwt540wwtwwt0t0twwwwwwwwwwwwwwwwt-+500000wttwwwwtwww",
"tytyytytttytty64wtttwt05+#erwtttttttttttttytty5yytttttttttwttw004#+1e00t0t0tww0t44t0wwww0tt0wtwwwwwtwwtwwwww0-+5r00ttw00wwwtwwww",
"ttytttytyttytt4tuttttw05#+6w0t0ttwwttttttttttt5awtttttttwtttwt004#@10wwt00twt0ww0--ttwwtt0twwwwwwwwwwwwwwwwww-O4r0wtt0wwwww0ww00",
"ttttttttttttt50twttwww05+#0ww0twwtwwtwtwtwtwt50twtwtttwwtwwwww005##500w0tw00twwwww=400000060tww0wwwwwwwwwwww0-o400t00wtwww006606",
"tt0tttttwtwt06tt6wtwww05++9wwwww0t0t0t0tttt004tttt0tt00t0t0tt0064##500wwwwtwwtwwwtw--666666560000000000000000*O:00t0wwwww0666666",
"00ttt0ttttwt0twt4wtwww05++9wwwwtt0t0t0t000t05tt000000t0tt0t000064#O1q0wwwwwwwwwwwwww40t0000654666660000006666*o:e00twwww00666555",
"0t0t0000wwww0wwt5wwww064o+5wwwww0tt000ttt006tt00000000t00t0t00064#o4q0wwwwtwwwt0ww000560666666666666565066656*o-000twww006666556",
"6600t006000w60w05ww00664o+6wwtwwt00t0t00066000006600000000t0t0664#o:60wwwwwwwtw000060655666665555556550555555*o-e000w00066655555",
"666666660666560650666664oo960wwwt0t000555000066666650000t0t00066:#o,5600ww0t0t0066666664456555555565556555555*o;5000000665555555",
"655666666666450556666654oo-50t0006545456066666466556505000006665:+o:5560w0w0000666665565544456655555555555565#X;9560056666555555",
"565565555556550:56666564oo*4556655655666665565665556505000006665:+o,156600000666566556555554--455565555565555*X*1556565555555556",
"555555565646-#4-65556554oX#*:56666665555655656465555556655606655:+o,55566666665665555555555665444455655555555*X;5556565655555555",
"555655556555-+-655555554oX;e956555555555555555555655555666556555-#o-4555666565655555555555555565544:466555555*X;5555655555555555",
"555555655556-46555555564oo2r555555555555555555555555555555565555:+o-55555565555555555555555555555555-+4655555*.;4555555565555565",
"665656555564-5555555556-oo15555655555555555555555555555556555555:+o=445555555555555555555555555555555*o=55555*.*4555555555555555",
"54545545554-55554555556-oX&<545555545555555555555555555545545554-+X*-455555455555555555555555555555555#.*5555#X#=455555455555555",
"----------*------------=o.+---------------------------------::==*OX#**-----------------4---------------O.#---+X+*=-=4------4----",
"**********$**********$*#Xoo#*******$************************$***#O.O+$**********************************o.#**+Xo+***************",
"####+#+++#+#++########++oXo+##+####++########+#+###+###++####+##Oo.O++##+####++#+###+++###++#+##++##+###O..+#oXoO####+##++#+#+++",
"++++++++++O+++++O++O+++OoXoo++++++++++++++++++++++++++++++++++OOOo.o+++++++++++++++++++++++++++++++++++O#oXo+oXoO+++++++++++++++"
};
