/* XPM */
static char *wall4[] = {
/* columns rows colors chars-per-pixel */
"64 64 71 1 ",
"  c #4F483C",
". c #51493E",
"X c #554D42",
"o c #584F44",
"O c #575045",
"+ c #5B5246",
"@ c #5E554A",
"# c #5F584C",
"$ c #605647",
"% c #61564A",
"& c #645A4D",
"* c #695D4E",
"= c #655D52",
"- c #6A5F51",
"; c #665F58",
": c #6C604F",
"> c #676055",
", c #6C6254",
"< c #676058",
"1 c #6D655A",
"2 c #6F685C",
"3 c #726555",
"4 c #786757",
"5 c #756856",
"6 c #796956",
"7 c #726659",
"8 c #746A5C",
"9 c #7A6C5C",
"0 c #77705F",
"q c #7E705E",
"w c #6E6860",
"e c #756D62",
"r c #7A6E61",
"t c #777064",
"y c #7C7265",
"u c #777068",
"i c #7D7569",
"p c #7F786B",
"a c #806F5E",
"s c #81715F",
"d c #86785F",
"f c #816F65",
"g c #827464",
"h c #857867",
"j c #82766A",
"k c #88766C",
"l c #837A6C",
"z c #897C6C",
"x c #857E71",
"c c #8A7E71",
"v c #8A806F",
"b c #878072",
"n c #8B8274",
"m c #8D8875",
"M c #8D8579",
"N c #8F8879",
"B c #928475",
"V c #928876",
"C c #91867A",
"Z c #928B7C",
"A c #96907D",
"S c #9B907F",
"D c #958D81",
"F c #988F82",
"G c #979181",
"H c #9A9384",
"J c #9D958A",
"K c #9E9A8A",
"L c #A19A8B",
"P c #A49C91",
"I c #A9A294",
/* pixels */
"-718ilw-7;111<;-%&=%@;9+$o.X++&79---993---&;7&==%o=9refrw77###O#",
"@37799874,@%@%&&-,1799hgr73,5tggigjjhcjfr9&$=&%@@@ecDMCck-7,=%##",
"j73ahzzmzx999rggjzzgyyjiry99pyipjyyzkre38f9-@$%&%:excxirw+gfgjyu",
"plrylbbnMxxgjyreee1,<1881==7zyykzgre1--7ere7=88-&&--=&%&+-rcxxly",
"ee,yvlplmMz3;7711<;;===7=@3rlzgrrf88888rrr9%-8--ejxjrerjq3l8;181",
"1=OrvlnVZZb=o;;==%%==#@@X*3=,<1-=1-&%@%&=-7@&3jMckyjjxjyt<82181<",
"=O =8pjgZLz&%o+@@oXXXXX.X3s*,-&%%++$%%&-&+O@&%1=%=%%#@#;%%&2,<;&",
"%,3&=,@@=8-43&$+$*%%%*:33,ry9778w-3a483993*-9-&Ooo&@@-&X.3%@%&&&",
"zcly9ey8&$*3,18817-iger83,,*-3,--7739e88ew4eygye-77978789g8&3-rj",
"iy81,eey35-18ewrx1OynMbxvnhlzvnxkkr--rier137lticy,37ijiikpl83rrr",
"1<<%&18<&,8<wwerz1&&89gzzlvzlgjxi8%&3,xgj8&38pili-7;irriirp1,e<<",
",&&&3@=O3&=eeer7-3k9O%==,,,<=%%&%%&94+=;1%X9&#&-%3rX&@=#;<==,%3<",
"589893@333==--@&9ghh9989899937ijyq,;9947-339938,89y3+X.X+%3g0599",
"s8ye8yly89f-,3fkMZZCZFZNZZnn8exgxm9==8e93rf318211<<7gr9jgcxll<3=",
"0iyet8eeyiee9afDHJHGCMMnbxznr-e8erck-+;;-8j,=itutt>@7ibplp8==-g9",
"=8,2,117,,7--9@exxiyte88,1t879wg8-1ir,@=-;7&@epp2:%$,,7ey>*9998g",
"@>7881,,,&@@s9***&%357,:,*,,ss%;-=-=%q5O+@@&7*@O%&,8wyt*O&t881=8",
"&#@@%&&$%#39h95,3ss,rljyjr99gyxzy8839hh946aly,::eilbbMl8382>&@&9",
"y8y,:980ypyt088ylgy6&8eri89xHLJJHFb89&88gyixvl872>eipbNiq&##,8gl",
"zxgq3ypvy882,,188eery7,=,&iLLAZDZZDl9g9liyy82p8,1>t2ppbb8:&yblll",
"ypbqg,lvvp0tee87>>8ryyj759,mGVZxjlZZgqpieeew8b2:=11122e8392lyiii",
"10p19:1Ammmmlie118ililp1*s&@8plxnbzi79p88<128pt@@%==11,+%3>28881",
">>1&30&>1,,,1,81<8718r1@:qq7%,%#>3,&3,=111>=10>#@X%%#%**353:&&>,",
",:&:,>3,3:*3,**&&%&&&**,6q96&<e8,,8,:33,*&&&*%:58*:33790q80yq05,",
"8yvht:5gypptuppe*3341y81yys8=12821118gity8,&7gyy078%<771118typ86",
"1plybygiblpijppx235ylbpipl8q1181221817<&&%9%@::&&+-4$&&+@&,0it&:",
"py82t,8pxxiire8it$5tblblty,8:1228eee=$o*9gg01::*:38r8677:,***&&,",
"2110=,92puyw1,,,@*6:*881:::6,#@:-%#%$639ltee8t2768xnbzpyyy8>,8s&",
"&:&##993128,sq9t00yq658tyy08t8158,359yjy2821<8%38NZbMMbyppy<=%g,",
"g899qg98qg0VZbixllxNlhMy8yppylpipy,&<>=@@>1121O*3ixMbxi821e8X=90",
"tttyyile3spbly20tt8v89leyyppyi2@#:q@$.O&*@*%%%393*=<%=%%%#ooO9t8",
"20ttytye00jvzppt8,1p88illyypy>O:szsgyllgg,795lnvly5,***33yy39y88",
"888888ye8,8mZNlit88l,tylillx,+9yllbbNNmNHNe9yMxxbxlipxcllpiy9318",
"22118tee>&=1pye8218>*&ybxbbyO53llibbNmluyxD8encxxxbxxzxbxxl<99>8",
"88tt2>%#&3,*+&&+@@&*9&@2t8t,O6-imbNAANmnly87-=eilxxbbbbbxxi%,g,2",
"@#&#@87188888589yzzlg93*&%@X*6,1218y8122-==7e7=%==%&&=,>=1@@3387",
"0,789,eyytyeet,3xlxxlbt8g865698yr8:,0y9**-3g;;8,33:,33,$%-3e8<1r",
"1ey37=iy21=>2>@,=yyppzlyly39388=<17tmZMny77;####r9821-129-11;-;=",
"=<1@*&=r8,22#O&5$*#%008,,7@3-==-,8=8zNCmrr-o=##@,%===%> o,@@#&==",
"XOO&y,*%*<=%:*9gzv8%...&,*36%;&;1%O:,8yr--9=@@@.4&.+XX@@4f,==@X#",
"-%8znjzy,%5zbv8vLSAVl738klga*XO@X-vSSv76vj:5hnnllnv8:39hnCbMnc89",
"3ynnhzzznylZvBqvAmmAA09*eMMznl7%1ZHZAKKg8p9lZbzpplvZg5rbCZZbMZn,",
"=e0jznxineymnl3zAAmSp,zg,iMljxiyjliyvnZB9yvmryxzvvlp,%=lbZDi18r-",
"&%<3ryzxz=8gt::,y832&gygz3ee,,-s5tptjy,3s,8bi113228&,,.%-71%X..*",
",,&:**&,,:7889g85,**58eeyr93989j0,**,:fg93&*--3,*+@,443&&**&&,8t",
">>>#1837,8qmVZZmznV8,377137ee21,2&*9g*-hzvBkga-3,qgshg9asy==8ty8",
"XO@OO@:=>=,bGbppyiZy7xMCZj<8><-;>@5s9r,-349a9:-&*5yqf99fjg* +.O.",
"&%%:@,8###,yMzxlltz8eMljy8#,>,,%@*90ryzi943339a4659q9874g3q&$,90",
"l&93e,;,,3e7eMMMbzp*3tlxu,@-<,@39g,wyeereiyslzc8,&:3-:,93&rMZHHF",
"2@9%@%%+&9-@%-89ll,&377833$&%%,llj7%wuew1e=-&%=,9&&&-&&&$97kzirj",
"%783963:ag77987&%:,83ypeyyr7,9ly8ey8=>--&=<989wee88wee7*3f4,,37,",
"kjr7g7799wrrur1r87l88y1ereee,8y2<<eyr733;7tetue1=;;1;<e3errhkkjk",
"fef1f33f,,:@%&%&*8:%12,<<<>1:<187118re,;==;1ww<<1we1;;=,@fcfffff",
"f71=f49jhs35rjgjlzzy&11,,<&@@*,teeypiw3&;wwwwuuuww;;ww%-4kckkfff",
"&--49,,-783,lyygplxy8&=&*$@$3&=1e8ww-1=X+#=;1;=#XXXXO%%4fwkk93,3",
"4943*3,%%%,,:8,88,2,q3:,,335663*%$*-egkgue1;%*<<;38gy79sf3errfgf",
"85*&3ljjggyy83373728pyvbnnnbxcg9flcCJJJPJJDDu8ur83VIZSvsfafgjrfc",
"8g8lZMccNNmZZVnpg9,zvlyjgltytry3gFJGbMlixbpxi7&@-8ZFMCS93efkwwuy",
"ys1bnvcxzzzbpbZt96&&%&&&&&%%%&=,gDbieyruyipe7zxy-rjyjl8,-,r1==-7",
"h3=e28ee2tttt81:lhh087,:,33333-37ejeee7<3,<*rcir33,33,8ta-&-9fcc",
"9g,&=-=-,,3,,:5:8Vvyln9gyt88jye73-8-%*,3,*&,8,2098uppppw,f7lcMcx",
"76VCMczhggglglgy--,-,19g1<,&=,ey7err8-e81<-1yt0881euuet1,r3yMllu",
"-9DMxxCg8liplpllj8e7,3q-<,<>==;8-8ee8-=>>>,ttwee2t2>,8;%393-ruue",
"feMCxZM88pyeeyyyipiye89@&<=&=%%=-=11=;==<#:2t222>#@@%oo%439;=77-"
};
