/* XPM */
static char *ezgif_6_37b17f2432[] = {
/* columns rows colors chars-per-pixel */
"64 64 175 2 ",
"   c #241E14",
".  c #221F1B",
"X  c #272015",
"o  c #2C2215",
"O  c #24221D",
"+  c #2B251C",
"@  c #332614",
"#  c #362915",
"$  c #3C2B16",
"%  c #34291A",
"&  c #3D2D1A",
"*  c #272420",
"=  c #2A2622",
"-  c #2E2925",
";  c #2F2C29",
":  c #322C24",
">  c #322E2A",
",  c #353124",
"<  c #383026",
"1  c #36312D",
"2  c #3A332D",
"3  c #3F382F",
"4  c #373330",
"5  c #3B3631",
"6  c #3F3833",
"7  c #3E3A38",
"8  c #422D17",
"9  c #432E19",
"0  c #45321C",
"q  c #49351C",
"w  c #48381F",
"e  c #50391F",
"r  c #483720",
"t  c #4D3B22",
"y  c #41372C",
"u  c #43392E",
"i  c #513D23",
"p  c #433B35",
"a  c #4A3E34",
"s  c #443E39",
"d  c #4A3F3B",
"f  c #564025",
"g  c #5C4427",
"h  c #5C4529",
"j  c #464037",
"k  c #4A4136",
"l  c #47403A",
"z  c #4B443C",
"x  c #4F483E",
"c  c #50473C",
"v  c #534A3E",
"b  c #594F3F",
"n  c #57503E",
"m  c #58503D",
"M  c #604626",
"N  c #644927",
"B  c #684B27",
"V  c #644B28",
"C  c #684D28",
"Z  c #6C522C",
"A  c #76572E",
"S  c #7B5A2E",
"D  c #624D32",
"F  c #685137",
"G  c #655238",
"H  c #695539",
"J  c #6E5A3D",
"K  c #755730",
"L  c #7C5C30",
"P  c #715B3E",
"I  c #4D4641",
"U  c #4F4842",
"Y  c #504741",
"T  c #534C44",
"R  c #594E44",
"E  c #554E49",
"W  c #584F48",
"Q  c #575045",
"!  c #5C5145",
"~  c #57504A",
"^  c #5C534B",
"/  c #5F584E",
"(  c #5F5750",
")  c #615445",
"_  c #61574C",
"`  c #64594D",
"'  c #685D4E",
"]  c #725E42",
"[  c #605750",
"{  c #655C52",
"}  c #695E51",
"|  c #6C604C",
" . c #766044",
".. c #7B6344",
"X. c #6C6254",
"o. c #6E6856",
"O. c #6E6659",
"+. c #6F685A",
"@. c #716556",
"#. c #746856",
"$. c #716759",
"%. c #746A5B",
"&. c #7A6D5E",
"*. c #7B705F",
"=. c #756D60",
"-. c #7B6F60",
";. c #7D7162",
":. c #805F31",
">. c #846234",
",. c #896737",
"<. c #886738",
"1. c #8C6A3A",
"2. c #95713F",
"3. c #826847",
"4. c #856B49",
"5. c #8A714E",
"6. c #967240",
"7. c #987442",
"8. c #9F7A46",
"9. c #8E7550",
"0. c #917752",
"q. c #987D56",
"w. c #9A7F58",
"e. c #947954",
"r. c #A17B47",
"t. c #A37D49",
"y. c #807562",
"u. c #817663",
"i. c #827764",
"p. c #837565",
"a. c #857966",
"s. c #887A65",
"d. c #867768",
"f. c #887768",
"g. c #867A69",
"h. c #8A7E68",
"j. c #8B7C6B",
"k. c #907F6F",
"l. c #8D7F70",
"z. c #927F70",
"x. c #9B8059",
"c. c #AD8650",
"v. c #A4885F",
"b. c #A98A5E",
"n. c #B18A52",
"m. c #B48D54",
"M. c #B48D55",
"N. c #B58D55",
"B. c #8D816E",
"V. c #92846F",
"C. c #8E8370",
"Z. c #928671",
"A. c #928572",
"S. c #958975",
"D. c #9A8C75",
"F. c #978D79",
"G. c #9A8E79",
"H. c #9E9075",
"J. c #9E917B",
"K. c #A58960",
"L. c #AF9267",
"P. c #B19267",
"I. c #B19368",
"U. c #B29368",
"Y. c #B39469",
"T. c #B49569",
"R. c #A2947C",
"E. c #A6987F",
"W. c #A49681",
"Q. c #A79882",
"!. c #AA9B85",
"~. c #AD9E88",
"^. c #AEA189",
"/. c #B2A48B",
"(. c #B6A88F",
/* pixels */
", i g g g M N N B C Z K K S S :.>.,.1.1.2.6.6.6.7.t.n.m.m.m.m.m.m.m.m.m.m.m.c.8.7.6.6.6.2.1.1.<.:.L S S A A K A A Z Z C N V N i ",
", i M N N N C Z Z Z Z K K A S L >.,.1.1.2.2.2.2.2.r.n.m.m.m.m.m.m.m.m.m.m.m.n.r.2.2.2.2.2.1.,.<.>.:.S S S A A A A Z Z C N N N i ",
", i M D F H J J ] ] ]  .......3.4.5.5.0.e.q.w.w.w.K.P.I.I.I.T.P.b.U.T.T.I.I.L.v.x.x.w.q.q.0.9.5.4.3.3..... . . .] P P H G D V i ",
", i h ! R v v T ! ^ ^ / / { { { { X.X.o.$.#.#.&.&.;.;.p.u.u.p.G.A.G.p.u.u.u.;.;.*.*.&.#.%.O.o.X.{ ` ` ` ` / ^ ^ ^ T T Y R ! h i ",
", i g ! k a z z z Y T T Y ^ ` ^ ^ X.X.^ X.%.X.' ;.;.X.*.h.*.X.A.A.V.| &.h.*.X.u.*.' X.#.X.! } X.^ ! _ ! b T T v k x z p z ) h i ",
", i g ) T T { } ' } #.#.o.y.g.;.p.A.S.g.A.J.D.A.!.~.G.!.(.!.D.D.V.D.A.!.(.^.D.~.!.A.D.R.S.d.A.l.p.-.d.y.@.#.@.} ` X.{ v T ) h i ",
", i h ) R ^ ` } } X.@.%.&.;.p.g.j.A.V.D.G.J.R.Q.!.~././././.!.D.B.S.!./././.~.!.Q.W.R.R.G.G.A.B.l.g.d.y.&.#.o.X.} } ` ! T ! g i ",
", i h ) T ^ ` ' } X.@.#.&.;.;.p.j.j.V.D.D.J.R.Q.!.!.!.~./.!.R.D.h.S.J.~././.!.!.!.Q.R.J.J.D.A.A.j.d.y.;.&.#.o.X.} { ' ! T ! g t ",
", i h ) T T ` ` ' X.@.#.&.;.;.j.j.B.A.S.D.D.J.Q.!.~.!.!.~.D.s.A.g.A.p.G.^.~.!.!.Q.Q.R.H.D.S.A.B.j.d.;.&.&.#.@.X.X.{ ` R Y ) g t ",
", i h ) T ! ` ' ' X.@.#.%.&.p.g.g.j.C.A.F.G.J.Q.Q.!.!.~.~.!.J.S.h.A.G.!.~./.!.Q.R.Q.J.G.G.S.C.j.g.p.;.&.#.#.#.X.} { ` ! T ) g t ",
", t h ! T ^ _ ` ` | o.@.#.&.;.p.g.h.C.A.S.F.J.W.Q.Q.!.!.!.Q.R.A.h.A.G.!.!.!.!.Q.Q.R.J.S.S.A.B.h.g.d.;.&.#.@.@.} ' ` ` ! T ! g i ",
", t h ! Y T ` ` ) ' o.@.#.&.;.*.;.d.h.B.A.S.G.J.R.!.!.Q.!.D.u.V.h.A.u.G.~.!.!.Q.R.R.G.G.S.A.j.g.u.&.-.&.%.X.X.' ` _ ` R Y ! g i ",
", i h ! Y T / _ ` ' X.o.#.%.*.&.;.p.g.C.S.F.G.G.R.E.Q.!.!.R.B.j.g.B.B.J.~.!.!.Q.Q.R.G.F.S.B.g.d.;.&.-.&.#.@.X.' ` ` ` R T ! g i ",
", i h ! Y ^ ^ / ` ' X.o.%.%.&.;.p.p.d.B.A.S.F.G.J.R.R.R.R.R.D.j.d.B.G.Q.!.Q.R.R.R.J.J.S.A.j.d.y.y.;.;.-.%.$.X.{ ` ` ) ! Y ! g i ",
", i h ! Y ! / / ` { X.X.@.%.&.&.;.p.g.j.C.C.A.F.D.H.R.R.R.D.a.h.p.j.g.G.Q.R.J.R.J.G.S.A.k.g.d.d.y.-.;.&.%.o.X.{ ` _ ^ R Y ! g i ",
": i h ! Y Y / / { { { | X.%.&.;.;.;.p.j.C.C.C.Z.D.D.H.R.Q.S.*.g.p.h.u.G.W.J.G.J.G.A.A.A.k.j.p.y.y.;.&.$.X.X.X.{ ` ) ^ c v ! g i ",
": i h ! v R ^ ^ _ { { X.o.o.#.;.;.&.-.g.j.j.A.A.S.D.D.D.R.R.S.a.y.a.S.R.J.G.G.G.A.A.j.j.h.g.-.&.-.&.#.@.o.X.{ { { _ ^ T Y ! g i ",
": i g ! z T ^ ^ / ` { X.o.o.o.#.&.&.;.d.f.g.B.A.A.D.D.D.J.J.B.a.;.a.B.S.G.S.S.S.A.z.j.d.g.p.&.&.&.%.@.X.o.X.{ ` ` ^ ^ T z ! g i ",
": i g m k z ! _ _ { { X.X.o.o.@.%.%.-.p.g.g.j.j.V.V.V.D.G.B.#.u.;.p.#.h.S.A.A.C.j.j.g.j.d.d.-.&.#.@.@.X.X.X.{ { _ ^ ! k k R g i ",
", t g m z Y R ^ / _ { } X.X.X.@.#.&.;.d.g.g.g.j.j.A.A.S.S.S.j.&.#.;.g.V.A.A.B.j.j.g.g.g.d.p.-.-.#.@.o.X.' } { ` ^ ! T v z R g i ",
", i g n x T ! ! _ _ { { { } X.@.#.-.y.p.d.d.f.g.j.B.B.A.A.S.j.&.#.*.h.A.V.B.g.g.d.d.d.d.d.p.;.-.%.@.X.X.} } { ` ^ ! Q T z b g i ",
", t g b z T R ! ) ` ` ` ` } } o.%.&.-.;.d.y.y.d.g.g.j.C.B.d.$.%.$.%.@.;.j.j.g.f.d.y.y.p.p.;.&.%.%.O.{ { { { ` ` / R ! v k T g t ",
": t f b z z T ! ! ) ` ` { { { X.o.#.-.;.;.;.;.d.g.g.g.j.j.d.&.#.X.#.#.d.j.g.d.d.d.y.;.;.;.;.=.%.o.X.{ { { { { _ ^ ! R z z T f t ",
": t f v z Y T R ! ^ _ } { { { X.o.#.&.-.;.;.y.d.d.d.p.d.f.d.y.@.X.@.;.d.d.d.y.d.y.;.;.;.;.;.%.O.O.X.{ { { { ` ^ ^ R T z z T i t ",
": t f v j c R R R ! ) ' { { { } O.%.%.&.&.*.;.p.p.;.p.p.y.&.@.X.X.X.o.&.d.y.y.p.;.;.;.;.-.&.%.O.o.X.{ { { { ` ^ ! R T c j v f t ",
": t f v j k R R R ! ) ` ` ` { X.O.O.%.%.=.=.&.-.;.&.-.-.y.%.` X.} X.` #.y.-.&.&.&.&.&.&.&.%.+.o.X.{ { { _ { _ ! ! R T k s v f t ",
": t i z p z v v v v ! ^ ! ! _ ` ` ' X.o.O.O.o.$.@.@.%.%.#.%.X.{ ` ' X.%.#.#.$.o.o.@.o.O.o.X.{ { { _ _ ^ R ^ ! T T T T z s c i r ",
": r i z I T T T T ! ^ ^ ) _ ` ` { ' X.X.X.o.$.o.$.$.O.%.%.%.X.` ` ` X.O.O.$.$.%.+.o.o.O.X.} } X.} ` ` _ ^ ^ ^ ^ R T T Y I z i w ",
": t i c I z Y T z T / ^ T ^ ` ! ) X.X.^ X.%.X.` %.o.) O.%.X.^ / ` ` ^ X.=.O.` =.=.` { O.X.) X.o.) ^ { ` T ^ / T Y ^ T k z z i w ",
": w i z p 2 3 p p p k k j k z z z Y Y v T T T T T T Y T T T z ! ^ ^ Y ! ^ ! Q ^ ! T ! T T Y T Y z k z z k k k p p p p 6 s z i w ",
": 0 t z 6 3 3 p p s k k z U Y T T Q ~ ^ ^ ~ E E T ^ ^ ^ ^ ^ T ! ! ! Q ! ^ ^ ^ ^ R Q T ! ! ! ^ T T T T Y z z k p a u 3 3 6 k t 0 ",
": 0 t k p k p k I U T T ^ ^ / ( { { { { { { { { } { { } } { ! T T ^ ^ ` { { X.X.X.{ ' { X.} { { { ( / ^ ~ T T v z k k p 6 k t 0 ",
"+ 0 i k 6 6 a k z z Y Y T ^ ^ ( { _ ` ` { { { { { { { { { { ^ T T E ^ _ { { { { { { _ { { { ( { ( ^ ~ E T T I z U k a 3 6 k i w ",
"% q e k 6 p a k k z I I T T T ^ / ^ _ _ ` { { { ( [ ^ Y k ^ ^ T T T ^ T k Y / { { { ( { { _ / ^ / ^ T T T I I z k k p p 6 a t q ",
"% 0 q a 6 p a p p k k z U U Y ^ ^ ^ / _ / / ^ / / / T z z p T T T Y Y p x z E ( / / / / _ _ / ! ^ T z I U I z z s p p p 6 a 0 0 ",
"# 8 0 a 6 6 p p k k d I T I T E E ^ ^ ^ / / ^ ^ ^ ^ T z k p k Y U Y z s Y z T ^ ^ ^ ^ ^ / ^ ^ R T T T I U I k z z k s 6 5 a 0 $ ",
"0 $ 9 u 2 6 p p p k z I U U T T E ^ ^ ^ ^ ^ ^ ^ ^ ^ T k p k I I z I U z z k E ^ ^ ^ ^ ^ ^ ^ ^ ^ T E E U I I z z s p p 6 2 a 9 $ ",
"@ $ 0 u 5 p p p p s k Y U U Y T T ^ ^ ^ ^ ^ ^ ^ ^ E U j s k z z z z I z j s T ~ W ^ / ^ ^ ^ ^ ^ T T T I I U k s p p p 6 2 u 0 $ ",
"  $ 0 u 2 p p p p p s z z z U T U E ~ ~ ~ ^ ^ ~ E E z s s 6 s j j z j 6 s p z T T ^ ^ ^ ^ ^ ^ E T T U z k k j s p p p 6 2 u 0 $ ",
"  @ 8 y 2 6 6 p p p s k k z U z z E E E E E ~ ^ ^ E z p 6 6 j j s j j p s 6 z T T ^ ^ E E ^ ~ E U I I z k k k s p p p 2 1 u & @ ",
"= X % y 2 2 6 6 p j j k z z U z z I E E E E ~ ^ ~ T k p 6 p z s s s j p p 6 l U T E E E ~ E T U I z U I z k k s p 6 6 5 2 u %   ",
"+ X & u 1 6 p 6 p p p p k k z z I I T T E E E E T T z p 6 6 s p p p s 6 6 6 z U T T E E E T U U I z z z j s p p 6 p p 6 > y &   ",
"  @ 0 y > 1 5 6 6 p p p p p k z I I T T E E E E T U k 6 2 2 6 6 p 6 p 6 5 5 j z Y T E T E T U U I z k p p p p p 6 6 6 1 > y 0 @ ",
"  % 0 u 1 1 6 6 6 p p p p p p k z z U T T T E T U z p 2 > 2 p 6 3 6 p 5 1 4 s z I T E T T T I z z s p p p p p 6 6 6 6 1 > y 0 @ ",
"+ $ 0 y 1 6 6 6 6 6 6 6 p p p p z z I U U T T T U z p 1 - > p 6 6 6 6 > > 1 s z U T T U U U I z k p p p p 6 6 6 6 6 6 5 > y 0 $ ",
"+ $ 0 y : 1 2 2 2 5 6 6 p p p s j z k z I I I I I z s > O > 5 6 p 6 5 > * > l I z I U z z I d z j p p p p 6 6 6 2 2 2 1 > y 0 $ ",
"X 8 0 3 : > 1 2 2 5 5 6 6 p p p p s s z z z z z z z j 6 4 6 6 6 6 6 6 5 1 5 l z z I I z I z d l p p p p p 6 2 5 2 2 1 > > y 0 $ ",
"o 8 0 3 : 1 2 1 1 2 5 5 2 6 p p p s j s k z z z k k s p 7 p p 6 6 6 p s s s s j k I I z z l z l p 6 p 6 3 2 2 2 1 1 1 > : 3 0 8 ",
"o 9 0 y : 2 2 1 2 2 2 1 2 5 3 p p p s s k k z z j s s s s p p 5 2 5 6 6 s s s s s z z z z d j s p p 6 6 2 2 2 4 1 1 2 1 > 3 9 9 ",
"o 9 9 3 : > 1 > 1 1 1 1 1 1 2 6 p p p p p p p p p p p p p 6 4 4 1 2 2 6 p p p p p p p p s p p p p p 2 1 2 1 2 1 1 > > > > 2 9 9 ",
"o 9 0 2 1 5 2 6 6 6 p p p p p s j s s z z z z z z l l l l d s 4 1 2 s l z z z z z z z z I z z z l s s s s p p 6 6 6 6 2 > 2 0 9 ",
"o 9 0 2 > 5 3 3 6 p p 6 p p p p p p p s s s s s p p s p p p 6 > 1 1 6 s s p s p s j s s j s p j j p 6 s s p s p 6 6 6 5 > 2 9 9 ",
"o 8 9 2 > > 1 2 1 1 2 2 1 5 5 2 2 4 2 1 5 6 6 5 6 2 2 2 6 5 > > 1 1 1 6 6 5 2 p p 6 6 6 6 2 6 6 6 6 6 5 2 5 5 1 1 2 1 > > 2 9 9 ",
"X 8 8 , = = - : - - > > > > 1 > 1 1 1 > 2 5 2 2 2 1 1 > > > > > > > > 1 2 1 1 2 2 2 2 4 1 1 1 2 1 1 1 > > > > > : : - = = : 8 8 ",
"X $ & : = > > > > > > > 1 1 5 1 2 6 6 6 6 6 6 6 5 5 5 3 6 5 5 1 > 1 5 6 6 5 6 6 6 6 6 p 6 6 6 6 5 5 5 1 1 1 > ; > > > > - : $ $ ",
"X $ 8 , = : > > > > > > 1 1 5 5 5 5 5 5 5 6 5 5 5 5 5 3 6 2 1 1 > 1 1 2 6 5 5 5 5 6 6 6 5 5 6 5 5 5 5 1 1 1 > ; ; > > : = : 8 $ ",
"o $ 8 : = = > > > > > 1 1 1 2 4 4 5 5 5 5 5 6 6 5 5 5 5 5 4 > > 1 > > 2 5 5 5 5 5 5 6 5 5 5 5 5 5 5 5 1 1 > > > ; > > - = : 8 8 ",
"o 8 8 : = - > > > > > > 1 1 1 1 1 1 4 5 5 5 5 5 4 1 2 4 5 5 2 > 1 > 1 5 4 5 1 1 5 5 5 5 2 1 1 1 1 1 1 > > > > ; ; > > - O : 8 8 ",
"o $ 8 : O > ; - - - : > > > 1 1 1 1 1 1 1 1 4 5 1 1 1 1 1 5 1 > > > 1 2 1 1 1 1 1 1 2 2 1 1 1 1 1 1 > > > > ; ; - ; > > O : 8 8 ",
"X $ # : O = - - - - - > > > > > > > 1 1 1 1 1 1 1 1 1 1 1 1 > > > > : 1 1 1 1 1 1 1 1 1 1 1 1 1 > > > > > > - - - - - = O : $ $ ",
"  # # : O * - - - - - : > > > > > > > 1 1 1 1 1 1 1 1 1 1 1 > > - > > 1 1 1 1 1 1 1 1 1 1 1 1 1 > > > > > > - - - - = = O = # # ",
"  @ # = O - - = - - - - ; > > > > > > 1 1 1 1 1 1 1 1 > > 1 1 ; - - 1 1 > 1 1 1 1 1 1 1 1 1 > > > > > > : - - - - = - - O + # @ ",
"  @ # = O * = = = - - - - : > > > > > > 1 1 1 1 1 1 1 > > > - - - - - > > > > > > > > 1 1 > > > > > > : - - - - = = - = . + # @ ",
"X o # = O * = = = - - - - - : > > > > > > > > > > > > > > > - - - - - ; ; > > > > > > 1 > > > > > > - : - - - - = = = = . + # o "
};
