/* XPM */
static char *floor[] = {
/* columns rows colors chars-per-pixel */
"20 20 58 1 ",
"  c #B7C4CC",
". c #B7C4CD",
"X c #B7C5CD",
"o c #B7C6CD",
"O c #B8C5CC",
"+ c #B8C4CD",
"@ c #B8C5CD",
"# c #B9C5CD",
"$ c #B8C5CE",
"% c #B8C5CF",
"& c #B9C5CF",
"* c #B8C6CE",
"= c #B9C6CE",
"- c #B8C7CE",
"; c #B9C7CE",
": c #B9C6CF",
"> c #B9C7CF",
", c #BAC7CE",
"< c #BAC6CF",
"1 c #BAC7CF",
"2 c #BBC7CF",
"3 c #BAC8CF",
"4 c #B7C7D1",
"5 c #B9C5D0",
"6 c #BAC5D1",
"7 c #B9C6D0",
"8 c #B9C7D0",
"9 c #B9C6D1",
"0 c #BAC6D0",
"q c #BAC7D0",
"w c #BAC6D1",
"e c #BAC7D1",
"r c #BBC7D1",
"t c #BBC7D2",
"y c #BBC7D3",
"u c #B9C8D0",
"i c #BAC8D0",
"p c #BBC8D0",
"a c #BBC9D0",
"s c #BBC8D1",
"d c #B9C9D2",
"f c #B9C8D3",
"g c #B8C9D3",
"h c #BBC8D2",
"j c #BBC9D2",
"k c #BBC8D3",
"l c #BBC9D3",
"z c #BCC8D1",
"x c #BCC9D1",
"c c #BCC8D2",
"v c #BCC9D2",
"b c #BDC9D2",
"n c #BCC8D3",
"m c #BDC8D3",
"M c #BCC9D3",
"N c #BBC8D4",
"B c #BBC9D4",
"V c #BCC8D4",
/* pixels */
"yy1y31sscyyyy1yyy1fc",
"c1ccc1ccc1cc33ccc12c",
"313c312c2111232231c2",
"1O111O1111113O131O11",
"112c31csy11yf1fcy11c",
"f1fff1cff1cyc3fcy1fc",
"f111213f231y31221111",
"1+1y31oy111y112fy+1y",
"y13yy1fy11yyy1ssy1yy",
"y11y11ycy1yyy1cVy11y",
"y111f1yc313yc1ccy1ss",
"+o111O+y1 111.111 1+",
"y1yy11yy11yyy11yy1yy",
"y11yy1ysy1yyy1yyy11y",
"c1yc113y23ycc1ycy1cs",
"1 O11 111O1 1 1o1.1+",
"y11y31yys1syyyff41ss",
"111yc1yycOssy11yy1ss",
"y11y11ysf1yys1yyy3ff",
"1 111 111oO11 11OO11"
};
