/* XPM */
static char *floor[] = {
/* columns rows colors chars-per-pixel */
"32 32 73 1 ",
"  c #B4C1C9",
". c #B6C3CB",
"X c #B7C4CB",
"o c #B7C4CC",
"O c #B7C4CD",
"+ c #B7C7CE",
"@ c #B6C6CF",
"# c #B8C4CC",
"$ c #B8C5CC",
"% c #B9C5CC",
"& c #B8C5CD",
"* c #B9C5CD",
"= c #B9C6CD",
"- c #BAC6CD",
"; c #B8C5CE",
": c #B9C5CE",
"> c #BAC5CF",
", c #B9C6CE",
"< c #B8C7CE",
"1 c #B9C7CE",
"2 c #B9C6CF",
"3 c #B8C7CF",
"4 c #BAC6CE",
"5 c #BAC7CE",
"6 c #BAC6CF",
"7 c #BBC6CF",
"8 c #BAC7CF",
"9 c #BBC7CF",
"0 c #B8C8CF",
"q c #BAC5D0",
"w c #B8C6D0",
"e c #B9C6D0",
"r c #B8C7D0",
"t c #BAC6D0",
"y c #BAC7D0",
"u c #BBC7D0",
"i c #BAC6D1",
"p c #BAC7D1",
"a c #BBC7D1",
"s c #BAC6D2",
"d c #BAC7D2",
"f c #BBC7D2",
"g c #BBC7D3",
"h c #B8C8D0",
"j c #B9C9D0",
"k c #B9C9D1",
"l c #BBC8D0",
"z c #BAC9D0",
"x c #BAC8D1",
"c c #BBC8D1",
"v c #BBC9D1",
"b c #BACAD1",
"n c #B9C8D2",
"m c #B8C9D2",
"M c #B9C9D2",
"N c #B9C8D3",
"B c #B8C9D3",
"V c #B9C9D3",
"C c #BBC8D2",
"Z c #BAC8D3",
"A c #BBC8D3",
"S c #BAC9D3",
"D c #BACAD2",
"F c #BACAD3",
"G c #BCC8D1",
"H c #BCC9D1",
"J c #BCC8D2",
"K c #BCC9D2",
"L c #BCC8D3",
"P c #BCC9D3",
"I c #BDCAD2",
"U c #BCC8D4",
"Y c #BCC9D4",
/* pixels */
"gg;GGLLL;GGULL;9GLLgG;9LLLGg;GLg",
"gg;GGYG;;GYULL0GYYULG09GULY;GGUG",
"GG;GGGGG0GGILG;9GGLGG0GILGGG9GGG",
"ll;0G9GG0I9GL999G0Gl99G9L99;0GGG",
";;;00990;;;990;;;;909;;;900;;;9;",
"99%09999;99999;G99999;90999;;G9G",
"90;GGG99;0gl9G;0GGg;099GG9l;gl9G",
"GY;llGG9;ggGGG0lGLggG;GGGGlg;lGG",
"YYglGYYG0BYYYGllYYYYlgGYYYYlllBY",
"ll@lGGlFllGGlG0llllGlmllYBlllllB",
"G9@0G009X0llG9;0ll90;099l;9;;0lG",
";;;;;l;;%g@g;999@g;g;;9;g;9;;;gg",
"GL;9llBG;lBBUg99ggggG;GLLLL;99GG",
"Lg;9lBl0@mBggg;9ggglG9GYULL;9GgU",
"ggo;Bggg;ggggg;9ggggG;LUUULg;ggg",
"ggOglUgl;lglLL;0ggggG;gUUUGG0ggg",
"G0;lGGGG;9GGG9;9g;GGG;99I99;099G",
";;X;;;;;%%;;;;%;@%;;;;;;%0;@%;;;",
"GL;l9GGl;gBUGG99ggGlG;GgGGG;;LGG",
"gg;GlGglXggglG0;gggGG;;UGggg;LUG",
"ggO;GYGl%gggUL;9ggYUg;;GgLG;9GLL",
"Lg;GGYUl;gggYG9;GgYYl;gGgLUG0GgL",
"GG;GGYGG;GGGGG;;YYYYl;GGLgG;;GgL",
"GG9GGIIGGGGGIG0GGGGGGGGGGG9GG9LL",
";;.XX.%.....XX%%@.oo@.o@;.@..XXX",
"gg;GggG;%ggggg;9gggg;;lBmll@;ggg",
"gg;0LLGG;gggg;;0ggggg;llmBBg;ggg",
"GG%;gYG;;ggggg09ggLGG;glBgB;0ggg",
"GI;GLYL;;GlgLG;9gLLLG;9GLLG90LLg",
"99%99GGG;GGYLG99g;LLG0GGLLL;9GLL",
"0;%;;;;;%;;;;9%0;;;;;;;;;%0;;;%;",
"90099G9G;9G0l000G99G9099999;9G90"
};
