/* XPM */
static char *floor_map[] = {
/* columns rows colors chars-per-pixel */
"12 12 35 1 ",
"  c #B9C5CF",
". c #B9C6CE",
"X c #B9C7CE",
"o c #B9C6CF",
"O c #B8C7CF",
"+ c #B9C7CF",
"@ c #BAC6CF",
"# c #BAC7CF",
"$ c #BBC8CF",
"% c #B9C7D0",
"& c #BAC6D0",
"* c #BAC7D0",
"= c #BBC7D0",
"- c #BAC6D1",
"; c #BAC7D1",
": c #BBC7D1",
"> c #BBC7D2",
", c #BBC7D3",
"< c #BBC7D4",
"1 c #BCC7D4",
"2 c #B8C8D1",
"3 c #BAC8D0",
"4 c #BBC8D0",
"5 c #BAC8D1",
"6 c #BBC8D1",
"7 c #BBC9D1",
"8 c #BBC8D2",
"9 c #BBC9D2",
"0 c #BBC8D3",
"q c #BCC8D1",
"w c #BCC8D2",
"e c #BCC8D3",
"r c #BAC8D4",
"t c #BBC8D4",
"y c #BCC8D4",
/* pixels */
";w5;y$w>ww;w",
"##$#w#$##$#5",
"#;##5#>;;;;>",
";555w$w5;w#;",
"####;#;#;;#;",
";;;;t;>;;<#;",
"##;#;#;;;;#;",
"&;;;>;;;;;;;",
";;;#;#;;#;#;",
" ###;#;##;#;",
";;;;<;;;;;#;",
"### ##;##;#;"
};
