/* XPM */
static char *wall[] = {
/* columns rows colors chars-per-pixel */
"32 32 181 2 ",
"   c #9E5D3B",
".  c #B3572D",
"X  c #BB5C2C",
"o  c #A15836",
"O  c #AE5830",
"+  c #A55C3C",
"@  c #AC5E3A",
"#  c #B35B32",
"$  c #B85F36",
"%  c #B35D3B",
"&  c #B95F38",
"*  c #AA613E",
"=  c #B56136",
"-  c #BB6436",
";  c #B3633D",
":  c #BB653C",
">  c #BE6A3D",
",  c #BF713F",
"<  c #C26534",
"1  c #C06937",
"2  c #CD6C35",
"3  c #C56D3C",
"4  c #C96F3B",
"5  c #C4713F",
"6  c #CC733C",
"7  c #D1743F",
"8  c #D17C3F",
"9  c #A75F40",
"0  c #AA5F40",
"q  c #9D6048",
"w  c #A76241",
"e  c #AC6343",
"r  c #A66648",
"t  c #AC6648",
"y  c #A3694C",
"u  c #AB6B4D",
"i  c #B46643",
"p  c #B36946",
"a  c #BC6B43",
"s  c #B36C4C",
"d  c #B86E4D",
"f  c #BE7242",
"g  c #B5704D",
"h  c #BC724B",
"j  c #BF7A4D",
"k  c #A26D51",
"l  c #AC6E52",
"z  c #B36F51",
"x  c #A57255",
"c  c #AE7455",
"v  c #A4735A",
"b  c #AB7459",
"n  c #AC7B5B",
"m  c #B47454",
"M  c #BB7553",
"N  c #B77B57",
"B  c #BD7955",
"V  c #B4775A",
"C  c #BA765A",
"Z  c #B47B5D",
"A  c #BC7B5B",
"S  c #A97B61",
"D  c #AD7E68",
"F  c #B57E62",
"G  c #B97F61",
"H  c #C66E42",
"J  c #C96F40",
"K  c #C06D48",
"L  c #C27144",
"P  c #C97442",
"I  c #CC7A45",
"U  c #C2744C",
"Y  c #C9734B",
"T  c #CE7D4C",
"R  c #D37744",
"E  c #D17D4C",
"W  c #C17653",
"Q  c #C47B54",
"!  c #CC7D56",
"~  c #C37D5B",
"^  c #C97D59",
"/  c #D07F53",
"(  c #C57F60",
")  c #BD835C",
"_  c #AF8365",
"`  c #AF826A",
"'  c #B58264",
"]  c #BD8364",
"[  c #BE8866",
"{  c #B4846A",
"}  c #BB856A",
"|  c #B3886D",
" . c #BC8A6D",
".. c #B68B71",
"X. c #BC8D73",
"o. c #B88E79",
"O. c #BF9174",
"+. c #BE947A",
"@. c #BF987D",
"#. c #DF8145",
"$. c #D4824B",
"%. c #C78057",
"&. c #CE8157",
"*. c #C4815C",
"=. c #CB835C",
"-. c #C1885C",
";. c #CB8A5E",
":. c #D08456",
">. c #D58853",
",. c #DE8A56",
"<. c #D1825D",
"1. c #D0895F",
"2. c #DA8C5C",
"3. c #CB905E",
"4. c #DD905A",
"5. c #E58343",
"6. c #E3854B",
"7. c #E0884E",
"8. c #EA8E53",
"9. c #E28F5A",
"0. c #E59156",
"q. c #E99156",
"w. c #E69359",
"e. c #C48563",
"r. c #CB8563",
"t. c #C38B66",
"y. c #CB8C65",
"u. c #C0876A",
"i. c #C48B6C",
"p. c #CA8D6B",
"a. c #D08761",
"s. c #D48E64",
"d. c #D58F6D",
"f. c #CE9064",
"g. c #C6906E",
"h. c #CB926C",
"j. c #D79164",
"k. c #DA9266",
"l. c #D3946C",
"z. c #D9946B",
"x. c #D59A6F",
"c. c #DB986E",
"v. c #C38F73",
"b. c #CA8E71",
"n. c #C49274",
"m. c #CC9474",
"M. c #CB9976",
"N. c #C3947A",
"B. c #C9967A",
"V. c #C59A7D",
"C. c #CA9A7D",
"Z. c #D19573",
"A. c #D49974",
"S. c #DB9D72",
"D. c #D39D7B",
"F. c #DF9F79",
"G. c #E39B6D",
"H. c #E19C71",
"J. c #DCA177",
"K. c #D2A07D",
"L. c #DBA27B",
"P. c #E3A57A",
"I. c #BD9681",
"U. c #BB9988",
"Y. c #C59B82",
"T. c #CB9E82",
"R. c #CDA185",
"E. c #C6A28C",
"W. c #CDA48A",
"Q. c #CFA88B",
"!. c #D3A484",
"~. c #DCA783",
"^. c #D2A58A",
"/. c #D4AA8D",
"(. c #DCAA8A",
"). c #C2A390",
"_. c #CDAB93",
"`. c #D2A990",
"'. c #D8B39B",
"]. c #E1A781",
"[. c #E1B89A",
/* pixels */
"C m.j N n.-./.p.i.A.y.C.p.! m.p.r.`.( v.S.:.D.B ~ B.C F B.~ m.m ",
"' N.c k | ) _. .N./.D.!.O.] T.m.Z.T.{ { C.p.N. .{ Y.} ..Y.] C.S ",
"h.-.-.) 3.R.{ ' r.h.T.B ' m h `.^ ( ( A } } s d B W T.Q r q m A.",
"M.M.M.O.' V.Q.i.B.D.T.Y.n.T./.'.T.T.T.T.N.N.X.u.} X.T.} ' ' O.n.",
"U f.1 , -.3 D.1 U T < ~ ; H p.N ! p.e.N.Q 1 e.i a e.Q e h > h.h ",
"e.[ [ g.!.m.(./.m.A.h.p.p.h.h.h.y.r.+.v.B.i.n.n.M.h.e.e.p.V.O.) ",
"; * g e.B *.B D.h U M M [ =.6 I $.7.~.^ ^ K L B j.$.$.E Q n.p i ",
"%.h.1.l.m.r.m.r.m.=.&.!.^ =.R.~ p.L.z.D.P.S.`.r.y.C.e.p.f.;.K.:.",
"%.M.l.h.M.-.i.e.n.1.&.!.! Q C.] i.K.l.m.J.x.N.h.y.m.C ] M.*.K.y.",
"1 X 3 P ; g.P > : $ h.Y f E $.x.6 6 R 3 P [ 3.3.j h =.a U U h A ",
";.e.*.*.t.K.[ r.~ G M.h.h.f.h.h.s.h.r.h.C.R.C.] N } e.A  .n.X.[ ",
"8 ;.O O l.$.c.2 6 ~ H y.>.>.;.5.5.y.X < i.a e.$ . B # # ] j ) $.",
"g c ..m ] ] e.C.t.n.v.i.V.l.e.p.p.] V. .@.F N.+.-.i._ N _ F y m ",
"m c +.u z C V V.n n { ..Y.=.d M u m T.~ p.A ] } A V n x Z F c u ",
"m N.l v V V C.e.N.y.y.L.z.s.D.e.} ] F ..u. .O.m n X.n X.c b ..m ",
"n X.b _ [ { ^.b.N.m.h.(.P.l.^.p.N.N.v.Y.[ ) o.F { N.} O.b x ..b ",
"' ~ A B ] B.M s z z Z.^ ( a.^ Y.! r.( ! G b.~ ] c s m.3 ;   e j ",
"}  .p.n.v.C.B.i.v.N.T.b.p.e.i.i.e.} A i.b.Z.m. .}  .G A A Z ] ' ",
"U A.8.G.a : n.y.] N.G B.G.k.`.Y H v.U b.9.6.z.& 1 e.i m :.$.h.i ",
"Y.i.v.m.p.N.i.i.G } Y.b.Y.N.B.o.N.m.N.X.B.!.B.v.v.n.N.p.A.n.m.i.",
"} o @ @ ; e.h W m C N.c C z z  .B.e.( G A b.~ C z s ] ; a h h N ",
"p.v.F [ p.p.!.S.z.Y.D Y.F G Y.A.G.!.9.p.} Z T.i.{ @.V F +.Z | ] ",
"e.` l F =.W B.A.!.).U.).v. ./.].D.^.Z.B.Y.B.W.} ` I.A b } y S ) ",
"m 9 ] t s s 0 T.0 0 + 0 + ~.2.2.7.W F K s s W m A 0 0 : i } e w ",
"] ' Y. .u.] D T.F  . .N.+.[.!.D.m.N.Y.N.o.} X.D v.X.} }  .I. .} ",
"a A @ i s.5 i.a a P.2.J.0.0.D.M Y n.K U r.& V J 2 r.T P  .H *.M ",
"o. . . .N. .N.N.' n.@.T.L.x.K.R.] v.u.u.b.v.F i.i.i.m.y.C.y.e.i.",
"f.: > = $ B - U P 3 l.8.q.6.6.z.R a : : i e.& < i i ' L > - > j ",
"T.V.} } B.n.N.p.v.W.C.R.Z.m.W.D.C.W.m.X.N.v.N.b.v.W.}  .R.} +.O.",
"Y e.% : h.W u.B ] N.F C.A.) Y.^ d.C.E W b.( N.p.r.T.M z R.) V.%.",
"m.m.!.r.e.e.p.(.A.n.m.m.v.Y.m.N.A.m.W.m.Z.Z.b.b.T.e.e.p.p._.(.A.",
"s.z.m.F u C r.`.n.X. .{ F Q...o.b.m.W.d.a.p.p.G R.i. .F F E.Z.k."
};
