/* XPM */
static char *wall_mini[] = {
/* columns rows colors chars-per-pixel */
"12 12 140 2 ",
"   c #5D0E0E",
".  c #591010",
"X  c #5A1111",
"o  c #5B1313",
"O  c #5A1414",
"+  c #5F1616",
"@  c #511D1D",
"#  c #521F1F",
"$  c #5F1B1B",
"%  c #581D1D",
"&  c #6E0101",
"*  c #610E0E",
"=  c #630F0F",
"-  c #650D0D",
";  c #6A0909",
":  c #6A0B0B",
">  c #6D0B0B",
",  c #6E0B0B",
"<  c #680D0D",
"1  c #6A0D0D",
"2  c #680F0F",
"3  c #6B0E0E",
"4  c #6C0C0C",
"5  c #6E0F0F",
"6  c #700404",
"7  c #720505",
"8  c #760404",
"9  c #770606",
"0  c #7E0303",
"q  c #700808",
"w  c #700909",
"e  c #720909",
"r  c #750909",
"t  c #780909",
"y  c #7B0808",
"u  c #7F0909",
"i  c #7F0A0A",
"p  c #7C0C0C",
"a  c #7D0C0C",
"s  c #611111",
"d  c #611212",
"f  c #621313",
"g  c #651010",
"h  c #631616",
"j  c #661414",
"k  c #681010",
"l  c #691313",
"z  c #6B1212",
"x  c #6A1313",
"c  c #6D1111",
"v  c #6C1313",
"b  c #6E1212",
"n  c #691414",
"m  c #6B1515",
"M  c #6F1414",
"N  c #6E1717",
"B  c #631D1D",
"V  c #6D1919",
"C  c #701111",
"Z  c #771313",
"A  c #741414",
"S  c #7F1111",
"D  c #7C1313",
"F  c #731A1A",
"G  c #751818",
"H  c #761A1A",
"J  c #741C1C",
"K  c #781D1D",
"L  c #452525",
"P  c #4F2121",
"I  c #4F2323",
"U  c #502020",
"Y  c #512020",
"T  c #512121",
"R  c #512323",
"E  c #5E2222",
"W  c #582929",
"Q  c #5C2828",
"!  c #5F2828",
"~  c #4D3434",
"^  c #513030",
"/  c #612323",
"(  c #622323",
")  c #602525",
"_  c #622525",
"`  c #682323",
"'  c #682424",
"]  c #682626",
"[  c #612A2A",
"{  c #642828",
"}  c #662828",
"|  c #632C2C",
" . c #642D2D",
".. c #702929",
"X. c #820000",
"o. c #800202",
"O. c #840000",
"+. c #850101",
"@. c #870202",
"#. c #800404",
"$. c #840505",
"%. c #860707",
"&. c #870707",
"*. c #880000",
"=. c #890000",
"-. c #880101",
";. c #890101",
":. c #8B0000",
">. c #880202",
",. c #8B0303",
"<. c #8C0000",
"1. c #8F0000",
"2. c #8F0202",
"3. c #880606",
"4. c #8A0707",
"5. c #8B0707",
"6. c #8C0606",
"7. c #8F0707",
"8. c #830A0A",
"9. c #800D0D",
"0. c #820F0F",
"q. c #870D0D",
"w. c #8B0909",
"e. c #8D0909",
"r. c #8E0808",
"t. c #8C0F0F",
"y. c #950505",
"u. c #980505",
"i. c #940A0A",
"p. c #920F0F",
"a. c #960C0C",
"s. c #8B1212",
"d. c #8D1212",
"f. c #8C1313",
"g. c #8F1313",
"h. c #8D1515",
"j. c #8D1A1A",
"k. c #8E1B1B",
"l. c #931414",
"z. c #981212",
/* pixels */
"k.p.| k.f.l.H ..z.f.l.A ",
"D & I 0.6 6 X _ 9 w 8   ",
"q.i b { e.i i 0.t.M ] i.",
"4 w X { r 3 4 ; > X _ 9 ",
"f.$.3.w.i | a.%.i 8.e.j ",
"H - l b * Q Z * - - 4 O ",
"u.i [ y.3.$.:.[ h.y.6.3.",
"l f _ b b d j _ J A C l ",
"f.=.=.o.@.> ] :.0 0 =.3 ",
"F m V % m f ` l B B 3 + ",
"=.=.o.E e.@.@.=.d K :.@.",
"Y Y Y ~ W Y Y # L ^ # # "
};
