/* XPM */
static char *wall[] = {
/* columns rows colors chars-per-pixel */
"20 20 75 1 ",
"  c #A6694A",
". c #BB6F45",
"X c #B36A4B",
"o c #BC744F",
"O c #A26B50",
"+ c #A96C51",
"@ c #AE7456",
"# c #AA755C",
"$ c #B47454",
"% c #BB7552",
"& c #B67857",
"* c #BC7A54",
"= c #B17559",
"- c #B87758",
"; c #B47A5D",
": c #BC7C5C",
"> c #AD7B60",
", c #B47E62",
"< c #BB7D61",
"1 c #C37B4F",
"2 c #C57D55",
"3 c #C17E5B",
"4 c #BE815D",
"5 c #AF816C",
"6 c #B58063",
"7 c #BC8364",
"8 c #BC8A63",
"9 c #BC866A",
"0 c #BC896C",
"q c #B68C72",
"w c #BD8E74",
"e c #C58157",
"r c #CD8155",
"t c #C4825C",
"y c #CA835C",
"u c #CC895D",
"i c #DD8B57",
"p c #D1895C",
"a c #D88C5E",
"s c #C28463",
"d c #C98562",
"f c #C58966",
"g c #CA8A64",
"h c #C28669",
"j c #C38A6B",
"k c #C98D6B",
"l c #D08F63",
"z c #C79068",
"x c #CA926D",
"c c #D59165",
"v c #DB9262",
"b c #D2936C",
"n c #D9916A",
"m c #DB986D",
"M c #C48E71",
"N c #C88E72",
"B c #D18F70",
"V c #C59173",
"C c #CB9473",
"Z c #CB9975",
"A c #C69478",
"S c #CC957C",
"D c #C6997E",
"F c #CE997C",
"G c #D29572",
"H c #D49975",
"J c #D99C74",
"K c #D39D7B",
"L c #E09E78",
"P c #DBA078",
"I c #C79A80",
"U c #CC9C80",
"Y c #CAA188",
"T c #D2A384",
"R c #DAA480",
/* pixels */
"<o7eSNlC2CH:N2ff$0o6",
"Z84DqCY97FBj9w<hD4#C",
"z48xdgejfUCND39<h44x",
"e4xxKgd:ggukh3hbeeh4",
"*tgtxf2kxebmHggbygft",
"2yft3yutrfgplkxk*t2k",
"roez2%dlucprfxz*3:88",
"1$*upg:xgvcoj-h%&&-*",
",0=7A79Igs,wh07,>;9;",
", ;7hNfLHuhhM7;0:6O#",
"9<hA--VdfNy<3C9;h. *",
"hvd-Cw7UGkd3Gid3X4r<",
"7%2f33N<<<kssC3:h2u3",
"f+:sJH,w<KRlj<A0=;@,",
":;--V,,,SJbh997,$$;@",
"<<s:j7fGKHkhM;<fs7h<",
"7-74jsxJmHs3s333kkef",
"C::sdfbmlHf3<h3<7t*7",
"t:hdxDMTjKTgCkUUsANZ",
"nGX%Zj4;A0kFdd3N3;Un"
};
