/* XPM */
static char *texture[] = {
/* columns rows colors chars-per-pixel */
"20 20 110 2 ",
"   c #666762",
".  c #686864",
"X  c #6A6965",
"o  c #696A65",
"O  c #6B6A66",
"+  c #6A6B66",
"@  c #6C6B67",
"#  c #6C6C68",
"$  c #6D6C68",
"%  c #6C6D68",
"&  c #6D6D68",
"*  c #6E6D69",
"=  c #6C6C6A",
"-  c #6E6E6A",
";  c #6F6E6A",
":  c #6E6F6A",
">  c #6F6F6A",
",  c #6E6E6B",
"<  c #6F6F6B",
"1  c #6E6E6C",
"2  c #706F6B",
"3  c #6F706B",
"4  c #6F706C",
"5  c #71706C",
"6  c #70716C",
"7  c #72706C",
"8  c #72716D",
"9  c #71726D",
"0  c #72726D",
"q  c #70706E",
"w  c #71716E",
"e  c #71716F",
"r  c #71726E",
"t  c #71726F",
"y  c #72726E",
"u  c #73726E",
"i  c #72736E",
"p  c #72726F",
"a  c #73736F",
"s  c #74736F",
"d  c #73746F",
"f  c #74746F",
"g  c #727270",
"h  c #737371",
"j  c #757470",
"k  c #747570",
"l  c #757570",
"z  c #747471",
"x  c #757571",
"c  c #767571",
"v  c #757671",
"b  c #767671",
"n  c #747472",
"m  c #757572",
"M  c #757573",
"N  c #767672",
"B  c #777672",
"V  c #767772",
"C  c #777772",
"Z  c #767673",
"A  c #777773",
"S  c #767674",
"D  c #777775",
"F  c #787773",
"G  c #777873",
"H  c #787874",
"J  c #797874",
"K  c #787974",
"L  c #797974",
"P  c #787875",
"I  c #797975",
"U  c #7A7975",
"Y  c #797A75",
"T  c #787876",
"R  c #797977",
"E  c #7A7A76",
"W  c #7B7A76",
"Q  c #7A7B76",
"!  c #7A7A77",
"~  c #7B7B77",
"^  c #7C7B77",
"/  c #7B7C77",
"(  c #7A7A78",
")  c #7C7B78",
"_  c #7B7C78",
"`  c #7D7C78",
"'  c #7C7D78",
"]  c #7E7D79",
"[  c #7D7E79",
"{  c #7E7E7A",
"}  c #7F7E7A",
"|  c #7E7F7A",
" . c #7F7F7A",
".. c #7F7F7B",
"X. c #807F7B",
"o. c #7F807B",
"O. c #81807C",
"+. c #80817C",
"@. c #82817D",
"#. c #81827D",
"$. c #82827D",
"%. c #83827E",
"&. c #82837E",
"*. c #83837E",
"=. c #84837F",
"-. c #84847F",
";. c #858480",
":. c #858581",
">. c #868581",
",. c #878682",
/* pixels */
"5 5 c 5 F ^ F [ X.^ ^ @.X.^ ^ ^ F F F F ",
"5 ; c s c H F [ ) [ F ` ^ F F F F 5 s s ",
"5 d F 5 F H H X.) ` ^ X.^ F ^ J s 2 s 2 ",
"5 ; d 5 s c F ^ ` H J H F s s c s 2 O ; ",
"H H o./ [ $.[ >.,.@.X.@.X.^ ^ H c 6 5 5 ",
"H [ $.[ $.$.[ ,.,.@.X.@.X.^ ^ ^ F s 5 2 ",
"^ [ *.[ X.$.) ;.@.@.^ X.X.^ ^ ^ s 5 6 6 ",
"G H [ H ^ H J [ ^ ^ F ^ F F s F 6 ; % X ",
"/ o.*.o.$.$./ -.@.@.H O.` H H ^ s 5 3 ; ",
"/ [ o.[ X.[ H o.@.@.J X.^ F F J 5 3 ; ; ",
"J c J G J c d G ` G d J c s 5 s % ; X . ",
"G J H G H H d / ` / s H F s s c 3 5 ; X ",
"s c G d G H d / / H s J F d s 5 X 6 ; X ",
"; 6 6 3 5 5 3 c c c 6 d 5 6 3 ;   2 O X ",
"5 m K 5 c G d / / G G G c d d d % 5 % O ",
"5 S S 4 s G d G / G d J s 5 d d X s 2 O ",
"g m S e c K m K K G m G G 3 c c ; s ; % ",
"4 = 1 1 g g g m m m d m d ; 5 d % 6 X O ",
"3 4 n n S K e K ( ( K ( c d c c % s 6 2 ",
"d 4 n n T K S ( ( ( T ( J 5 c c 6 5 6 2 "
};
